<svg xmlns="http://www.w3.org/2000/svg" width="22.2" height="18.858" viewBox="0 0 22.2 18.858">
  <g id="icon-light" transform="translate(-318.4 -215.4)">
    <path id="Path_799" data-name="Path 799" d="M1891.462,674.11h-4.612v4.174h.954l.76.76h1.183l.767-.76h.947Z" transform="translate(-1559.681 -445.387)" fill="none" stroke="#fff" stroke-linecap="round" stroke-linejoin="round" stroke-width="1.2"/>
    <path id="Path_800" data-name="Path 800" d="M1893.471,12.866a5.236,5.236,0,0,0-10.472,0,7.071,7.071,0,0,0,1.736,4.425h0s1.528,1.635,1.528,3.055h3.952a5.806,5.806,0,0,1,1.513-3.07,7.079,7.079,0,0,0,1.743-4.411Z" transform="translate(-1558.757 208.37)" fill="none" stroke="#fff" stroke-linecap="round" stroke-linejoin="round" stroke-width="1.2"/>
    <line id="Line_4" data-name="Line 4" y1="4.64" transform="translate(329.479 224.083)" fill="none" stroke="#fff" stroke-linecap="round" stroke-linejoin="round" stroke-width="1.2"/>
    <line id="Line_5" data-name="Line 5" x1="2.166" transform="translate(319 221.185)" fill="none" stroke="#fff" stroke-linecap="round" stroke-linejoin="round" stroke-width="1.2"/>
    <line id="Line_6" data-name="Line 6" x1="1.757" y1="1.678" transform="translate(320.291 216.359)" fill="none" stroke="#fff" stroke-linecap="round" stroke-linejoin="round" stroke-width="1.2"/>
    <line id="Line_7" data-name="Line 7" y1="1.685" x2="1.757" transform="translate(320.291 224.513)" fill="none" stroke="#fff" stroke-linecap="round" stroke-linejoin="round" stroke-width="1.2"/>
    <line id="Line_8" data-name="Line 8" x2="2.166" transform="translate(337.834 221.185)" fill="none" stroke="#fff" stroke-linecap="round" stroke-linejoin="round" stroke-width="1.2"/>
    <line id="Line_9" data-name="Line 9" y1="1.678" x2="1.75" transform="translate(336.959 216.359)" fill="none" stroke="#fff" stroke-linecap="round" stroke-linejoin="round" stroke-width="1.2"/>
    <line id="Line_10" data-name="Line 10" x1="1.75" y1="1.685" transform="translate(336.959 224.513)" fill="none" stroke="#fff" stroke-linecap="round" stroke-linejoin="round" stroke-width="1.2"/>
    <path id="Path_801" data-name="Path 801" d="M1887.63,663.53l1.14.423.71-.423.681.4,1.169-.4" transform="translate(-1559.901 -442.395)" fill="none" stroke="#fff" stroke-linecap="round" stroke-linejoin="round" stroke-width="1.2"/>
  </g>
</svg>
