<svg xmlns="http://www.w3.org/2000/svg" width="21.325" height="19.306" viewBox="0 0 21.325 19.306">
  <g id="icon_like" transform="translate(-284.35 -270.344)">
    <line id="Line_25" data-name="Line 25" x1="1.702" transform="translate(301.715 281.26)" fill="none" stroke="#fff" stroke-linecap="round" stroke-linejoin="round" stroke-width="1.3"/>
    <line id="Line_26" data-name="Line 26" x1="1.224" transform="translate(301.266 283.935)" fill="none" stroke="#fff" stroke-linecap="round" stroke-linejoin="round" stroke-width="1.3"/>
    <path id="Path_805" data-name="Path 805" d="M1808.84,30.875a38.944,38.944,0,0,0,10.866,1.507c2.26,0,1.782-2.362.145-2.362h-.652" transform="translate(-1518.419 256.618)" fill="none" stroke="#fff" stroke-linecap="round" stroke-linejoin="round" stroke-width="1.3"/>
    <path id="Path_806" data-name="Path 806" d="M1808.84,17.134s4.665-3.531,4.346-7.224c-.254-2.8,5.151-.661,2.173,6.409H1822a1.32,1.32,0,0,1,1.229.64,1.359,1.359,0,0,1,0,1.4A1.32,1.32,0,0,1,1822,19h-.145a1.321,1.321,0,0,1,1.229.64,1.359,1.359,0,0,1,0,1.4,1.321,1.321,0,0,1-1.229.64h-.935a1.321,1.321,0,0,1,1.229.64,1.359,1.359,0,0,1,0,1.4,1.321,1.321,0,0,1-1.229.64h-1.094" transform="translate(-1518.419 262.28)" fill="none" stroke="#fff" stroke-linecap="round" stroke-linejoin="round" stroke-width="1.3"/>
    <rect id="Rectangle_132" data-name="Rectangle 132" width="5.071" height="10.866" transform="translate(285 277.967)" stroke-width="1.3" stroke="#fff" stroke-linecap="round" stroke-linejoin="round" fill="none"/>
  </g>
</svg>
