<?xml version="1.0" standalone="no"?>
<!DOCTYPE svg PUBLIC "-//W3C//DTD SVG 1.1//EN" "http://www.w3.org/Graphics/SVG/1.1/DTD/svg11.dtd" >
<svg>
<metadata>
Created by FontForge 20090622 at Fri Apr 12 11:42:17 2019
 By deploy user
Copyright \(c\) 2016 by Zetafonts. All rights reserved.
</metadata>
<defs>
<font id="CocogoosePro-Light" horiz-adv-x="495" >
  <font-face 
    font-family="Cocogoose Pro Light"
    font-weight="300"
    font-stretch="normal"
    units-per-em="1920"
    panose-1="0 0 5 0 0 0 0 0 0 0"
    ascent="1536"
    descent="-384"
    x-height="1227"
    cap-height="1427"
    bbox="-341 -528 2644 2024"
    underline-thickness="96"
    underline-position="-96"
    unicode-range="U+000D-U+FB04"
  />
<missing-glyph horiz-adv-x="602" 
d="M540 56q-135 0 -246.5 66.5t-175.5 178t-64 240.5q0 135 66.5 247t178 176.5t241.5 64.5q136 0 247 -68t174.5 -180.5t63.5 -239.5q0 -114 -46.5 -209.5t-127.5 -162t-181 -96.5q-61 -17 -130 -17zM540 989q-126 0 -228 -61.5t-160 -164.5t-58 -222t59 -222.5t161.5 -165
t225.5 -61.5q121 0 223.5 60.5t163 163.5t60.5 225q0 106 -44.5 195t-119.5 149.5t-166 86.5q-56 17 -117 17zM394 918q69 27 146 27q76 0 144.5 -27.5t121.5 -76.5h-537q56 50 125 77zM917.5 404q-23.5 -65 -66.5 -120h-536l524 528q102 -126 102 -271q0 -72 -23.5 -137z
M163.5 395q-25.5 69 -25.5 146q0 142 90 256h534l-524 -526q-49 55 -74.5 124zM684 165q-69 -27 -144 -27t-143.5 27t-125.5 75h539q-57 -48 -126 -75z" />
    <glyph glyph-name="ff" unicode="ff" horiz-adv-x="1246" 
d="M92 962q-15 0 -23.5 8t-8.5 23v106q0 15 8.5 22t23.5 7h108v196q0 155 78.5 250.5t238.5 95.5q27 0 35.5 -11t8.5 -30v-104q0 -36 -45 -36q-80 0 -107 -54t-27 -132l1 -52v-123h440v196q0 155 78.5 250.5t238.5 95.5q27 0 35.5 -11t8.5 -30v-104q0 -36 -45 -36
q-80 0 -107 -54t-27 -132l1 -52v-123h144q32 0 32 -29v-106q0 -31 -32 -31h-144v-926q0 -36 -33 -36h-117q-33 0 -33 36v926h-440v-926q0 -36 -33 -36h-117q-33 0 -33 36v926h-108z" />
    <glyph glyph-name="ffi" unicode="ffi" horiz-adv-x="1720" 
d="M92 962q-15 0 -23.5 8t-8.5 23v106q0 15 8.5 22t23.5 7h108v196q0 155 78.5 250.5t238.5 95.5q27 0 35.5 -11t8.5 -30v-104q0 -36 -45 -36q-80 0 -107 -54t-27 -132l1 -52v-123h420v135q0 133 24.5 219t92 134t190.5 48q27 0 35.5 -11t8.5 -30v-93q0 -36 -45 -36
q-54 0 -80.5 -28t-34.5 -80t-8 -143v-115h531q32 0 32 -29v-1063q0 -36 -33 -36h-119q-34 0 -34 36v926h-377v-926q0 -36 -33 -36h-117q-33 0 -33 36v926h-420v-926q0 -36 -33 -36h-117q-33 0 -33 36v926h-108zM1361 1612.5q13 19.5 38 21.5l101 2h6q31 0 46.5 -19t15.5 -50
v-70q0 -32 -16.5 -51t-45.5 -19h-6l-101 2q-21 2 -36 19.5t-15 38.5v79q0 27 13 46.5z" />
    <glyph glyph-name="fi" unicode="fi" horiz-adv-x="1098" 
d="M92 962q-15 0 -23.5 8t-8.5 23v106q0 15 8.5 22t23.5 7h108v196q0 155 78.5 250.5t238.5 95.5q27 0 35.5 -11t8.5 -30v-104q0 -36 -45 -36q-80 0 -107 -54t-27 -132l1 -52v-123h557q32 0 32 -29v-111v-952q0 -36 -34 -36h-118q-34 0 -34 36v926h-403v-926q0 -36 -33 -36
h-117q-33 0 -33 36v926h-108zM795.5 1571q9.5 11 30.5 11h109q37 0 37 -43v-106q0 -22 -9 -30t-28 -8h-108q-21 0 -31 8.5t-10 28.5v109q0 19 9.5 30z" />
    <glyph glyph-name="f_f_j" unicode="ffj" horiz-adv-x="1720" 
d="M92 962q-15 0 -23.5 8t-8.5 23v106q0 15 8.5 22t23.5 7h108v196q0 155 78.5 250.5t238.5 95.5q27 0 35.5 -11t8.5 -30v-104q0 -36 -45 -36q-80 0 -107 -54t-27 -132l1 -52v-123h420v135q0 133 24.5 219t92 134t190.5 48q27 0 35.5 -11t8.5 -30v-93q0 -36 -45 -36
q-54 0 -80.5 -28t-34.5 -80t-8 -143v-115h534q33 0 33 -39v-1086q0 -168 -78 -275t-253 -107q-25 0 -36.5 11t-11.5 22v93q0 36 44 36q77 0 108.5 60t31.5 173v946h-372v-926q0 -36 -33 -36h-117q-33 0 -33 36v926h-420v-926q0 -36 -33 -36h-117q-33 0 -33 36v926h-108z
M1361 1612.5q13 19.5 38 21.5l107 2q31 1 46.5 -18.5t15.5 -50.5v-70q0 -33 -16.5 -52t-45.5 -18l-107 2q-21 2 -36 19.5t-15 38.5v79q0 27 13 46.5z" />
    <glyph glyph-name="f_j" unicode="fj" horiz-adv-x="1098" 
d="M92 962q-15 0 -23.5 8t-8.5 23v106q0 15 8.5 22t23.5 7h108v196q0 155 78.5 250.5t238.5 95.5q27 0 35.5 -11t8.5 -30v-104q0 -36 -45 -36q-80 0 -107 -54t-27 -132l1 -52v-123h564q33 0 33 -39v-1086q0 -168 -78 -275t-253 -107q-25 0 -36.5 11t-11.5 22v93q0 36 44 36
q77 0 108.5 60t31.5 173v946h-402v-926q0 -36 -33 -36h-117q-33 0 -33 36v926h-108zM795.5 1571q9.5 11 30.5 11h109q37 0 37 -43v-106q0 -22 -9 -30t-28 -8h-108q-21 0 -31 8.5t-10 28.5v109q0 19 9.5 30z" />
    <glyph glyph-name=".notdef" horiz-adv-x="602" 
d="M540 56q-135 0 -246.5 66.5t-175.5 178t-64 240.5q0 135 66.5 247t178 176.5t241.5 64.5q136 0 247 -68t174.5 -180.5t63.5 -239.5q0 -114 -46.5 -209.5t-127.5 -162t-181 -96.5q-61 -17 -130 -17zM540 989q-126 0 -228 -61.5t-160 -164.5t-58 -222t59 -222.5t161.5 -165
t225.5 -61.5q121 0 223.5 60.5t163 163.5t60.5 225q0 106 -44.5 195t-119.5 149.5t-166 86.5q-56 17 -117 17zM394 918q69 27 146 27q76 0 144.5 -27.5t121.5 -76.5h-537q56 50 125 77zM917.5 404q-23.5 -65 -66.5 -120h-536l524 528q102 -126 102 -271q0 -72 -23.5 -137z
M163.5 395q-25.5 69 -25.5 146q0 142 90 256h534l-524 -526q-49 55 -74.5 124zM684 165q-69 -27 -144 -27t-143.5 27t-125.5 75h539q-57 -48 -126 -75z" />
    <glyph glyph-name=".null" horiz-adv-x="0" 
 />
    <glyph glyph-name=".null" horiz-adv-x="0" 
 />
    <glyph glyph-name="space" unicode=" " horiz-adv-x="601" 
 />
    <glyph glyph-name="nonmarkingreturn" unicode="&#xd;" horiz-adv-x="601" 
 />
    <glyph glyph-name="F" unicode="F" horiz-adv-x="1204" 
d="M189 1427h926q32 0 32 -33v-117q0 -34 -32 -34h-774v-473h609q32 0 32 -33v-117q0 -34 -32 -34h-609v-552q0 -34 -32 -34h-120q-33 0 -33 34v1360q0 33 33 33z" />
    <glyph glyph-name="H" unicode="H" horiz-adv-x="1484" 
d="M340 658v-622q0 -36 -35 -36h-117q-34 0 -34 36v1355q0 16 8.5 26t25.5 10h120q14 0 23 -8.5t9 -26.5v-546h804v545q0 16 8.5 26t24.5 10h120q32 0 32 -35v-1356q0 -36 -34 -36h-118q-33 0 -33 36v622h-804z" />
    <glyph glyph-name="I" unicode="I" 
d="M162.5 1417.5q8.5 9.5 24.5 9.5h120q33 0 33 -36v-1354q0 -37 -33 -37h-120q-33 0 -33 37v1354q0 17 8.5 26.5z" />
    <glyph glyph-name="J" unicode="J" horiz-adv-x="501" 
d="M172.5 1418.5q9.5 8.5 23.5 8.5h116q20 0 28 -9.5t8 -30.5v-1276q0 -70 -3 -136q-9 -90 -62 -166.5t-136.5 -121.5t-181.5 -45q-80 0 -155 29.5t-123 85.5q-7 7 -14 20t-7 24q0 12 8 20l70 65q11 11 23 11q11 0 21 -8.5t13 -10.5q27 -27 64 -43.5t91 -16.5q58 0 105.5 28
t74.5 73.5t27 95.5v1376q0 19 9.5 27.5z" />
    <glyph glyph-name="K" unicode="K" horiz-adv-x="1409" 
d="M1338 43q8 -9 8 -20q0 -10 -7.5 -16.5t-18.5 -6.5h-162q-26 0 -42 28l-538 650l-237 -252v-390q0 -36 -33 -36h-120q-32 0 -32 36v1354q0 17 8 27t24 10h119q13 0 23.5 -10.5t10.5 -26.5v-705l659 717q13 15 24 20t23 5h164q12 0 19 -7t7 -17q0 -11 -9 -22l-524 -569z
" />
    <glyph glyph-name="L" unicode="L" horiz-adv-x="1102" 
d="M165 1416q9 10 24 10h120q32 0 32 -37v-1215h702q38 0 38 -33v-107q0 -17 -10 -25.5t-28 -8.5h-854q-33 0 -33 34v1355q0 17 9 27z" />
    <glyph glyph-name="M" unicode="M" horiz-adv-x="1778" 
d="M268 34q-3 -34 -34 -34h-114q-35 0 -32 37l152 1358q5 32 36 32h162q11 0 17 -5.5t11 -20.5l426 -1034l421 1032q10 28 31 28h163q32 0 35 -32l159 -1360q3 -35 -31 -35h-124q-17 0 -24.5 7.5t-9.5 25.5l-112 1085l-427 -1033q-6 -15 -13.5 -20t-18.5 -5h-100
q-11 0 -19 5t-14 20l-422 1032z" />
    <glyph glyph-name="P" unicode="P" horiz-adv-x="1227" 
d="M189 1427h516q120 0 215.5 -68.5t148 -174t52.5 -212.5q0 -106 -51.5 -205.5t-145 -162.5t-214.5 -63h-369v-505q0 -36 -33 -36h-119q-33 0 -33 36v1358q0 33 33 33zM341 723h333q80 0 139 34.5t90.5 93t31.5 127.5t-31.5 130.5t-91 99t-138.5 37.5h-333v-522z" />
    <glyph glyph-name="R" unicode="R" horiz-adv-x="1319" 
d="M341 517v-483q0 -34 -33 -34h-120q-32 0 -32 34v1360q0 33 32 33h582q124 0 224.5 -63.5t157 -169t56.5 -227.5q0 -83 -31.5 -162t-90 -142.5t-135.5 -100.5l253 -522q3 -6 3 -13q0 -11 -7.5 -19t-19.5 -8h-136q-12 0 -20.5 6t-16.5 22l-230 491zM341 702h390
q84 0 149 33t101.5 94t36.5 141t-36.5 142.5t-101.5 97t-149 34.5h-390v-542z" />
    <glyph glyph-name="S" unicode="S" horiz-adv-x="1277" 
d="M109 258q0 13 12 25l85 75q9 8 21 8q16 0 36 -20q72 -80 175.5 -133t215.5 -53q77 0 155.5 27t131 84t52.5 142q0 69 -51 115.5t-119 73t-166 53.5l-52 15q-162 46 -258.5 97t-143 122.5t-46.5 176.5q0 107 58 192.5t168 135t261 49.5q130 0 252.5 -55t210.5 -149
q14 -16 14 -31t-13 -28l-73 -72q-12 -9 -22 -9t-19.5 5.5t-22.5 17.5q-170 146 -328 146q-70 0 -137 -19t-112 -63.5t-45 -117.5q0 -66 42.5 -109t105 -68t171.5 -57q166 -50 267 -93t173.5 -122.5t72.5 -204.5q0 -136 -72.5 -234t-197.5 -148.5t-279 -50.5
q-133 0 -270 64.5t-234 175.5q-19 23 -19 37z" />
    <glyph glyph-name="T" unicode="T" horiz-adv-x="1190" 
d="M86 1427h1012q32 0 32 -34v-118q0 -34 -32 -34h-413v-1207q0 -34 -33 -34h-120q-34 0 -34 34v1207h-412q-34 0 -34 34v118q0 34 34 34z" />
    <glyph glyph-name="A" unicode="A" horiz-adv-x="1411" 
d="M672 1426h90q27 0 39 -30l552 -1355q4 -12 4 -16q0 -12 -8.5 -18.5t-21.5 -6.5h-130q-26 0 -36 29l-109 273h-670l-108 -273q-11 -29 -37 -29h-140q-14 0 -22 6t-8 18q0 9 4 17l562 1355q12 30 39 30zM979 486l-260 656l-266 -656h526z" />
    <glyph glyph-name="U" unicode="U" horiz-adv-x="1444" 
d="M376 357q56 -95 150 -147.5t206 -52.5q111 0 200.5 53.5t140 148.5t50.5 215v817q0 16 8.5 26t25.5 10h117q16 0 25.5 -10.5t9.5 -25.5v-830q0 -181 -76 -313t-207 -201.5t-294 -69.5q-164 0 -300.5 70.5t-217 204t-80.5 314.5v826q0 15 8.5 25t23.5 10h122q32 0 32 -35
v-818q0 -122 56 -217z" />
    <glyph glyph-name="V" unicode="V" horiz-adv-x="1382" 
d="M773.5 5.5q-9.5 -6.5 -22.5 -6.5h-78q-13 0 -22.5 6.5t-15.5 22.5l-569 1356q-4 8 -4 17q0 12 8.5 19t20.5 7h134q26 0 37 -31l448 -1102l441 1102q12 30 37 30h134q12 0 20.5 -6.5t8.5 -18.5q0 -9 -4 -18l-558 -1355q-6 -16 -15.5 -22.5z" />
    <glyph glyph-name="W" unicode="W" horiz-adv-x="2045" 
d="M780 29q-12 -29 -38 -29h-75q-27 0 -39 29l-562 1358q-3 8 -3 15q0 12 8.5 18.5t20.5 6.5h123q12 0 20.5 -6.5t14.5 -22.5l456 -1117l445 1117q11 29 37 29h133q12 0 20.5 -7t8.5 -19q0 -6 -3 -14l-221 -535l235 -571l446 1117q6 16 15 22.5t21 6.5h132q12 0 21 -7t9 -19
q0 -6 -3 -14l-569 -1358q-12 -29 -39 -29h-76q-12 0 -22.5 7t-16.5 22l-248 598z" />
    <glyph glyph-name="X" unicode="X" horiz-adv-x="1288" 
d="M1198 43q7 -10 7 -20q0 -11 -8.5 -17t-19.5 -6h-148q-23 0 -39 25l-360 531l-359 -530q-11 -16 -19.5 -21t-20.5 -5h-144q-12 0 -20.5 6.5t-8.5 17.5q0 9 7 19l456 671l-455 669q-7 11 -7 21t7 16.5t18 6.5h149q12 0 21 -5.5t18 -20.5l357 -525l361 527q9 14 18.5 20
t21.5 6h146q12 0 20.5 -7.5t8.5 -19.5q0 -8 -6 -17l-459 -672z" />
    <glyph glyph-name="Y" unicode="Y" horiz-adv-x="1200" 
d="M27 1385q-6 11 -6 18q0 11 8 17.5t20 6.5h148q12 0 20 -6t17 -21l354 -611l352 609q9 15 17 21t20 6h150q12 0 20 -7t8 -18q0 -9 -6 -18l-465 -779v-566q0 -37 -33 -37h-120q-33 0 -33 37v563z" />
    <glyph glyph-name="Z" unicode="Z" horiz-adv-x="1309" 
d="M1240 1397v-126q0 -12 -9 -25l-907 -1058h882q33 0 33 -31v-126q0 -31 -33 -31h-1111q-32 0 -32 31v123q0 16 8 24l919 1064l-874 -1q-36 0 -36 31v124q0 31 36 31l1092 2q32 0 32 -32z" />
    <glyph glyph-name="bar" unicode="|" horiz-adv-x="482" 
d="M181 1577h119q32 0 32 -34v-1798q0 -34 -32 -34h-119q-33 0 -33 34v1798q0 34 33 34z" />
    <glyph glyph-name="brokenbar" unicode="&#xa6;" horiz-adv-x="574" 
d="M229 1584h119q32 0 32 -34v-730q0 -33 -32 -33h-119q-33 0 -33 33v730q0 34 33 34zM229 519h119q32 0 32 -33v-730q0 -34 -32 -34h-119q-33 0 -33 34v730q0 33 33 33z" />
    <glyph glyph-name="bracketleft" unicode="[" horiz-adv-x="520" 
d="M187 1654h303q13 0 21 -7.5t8 -21.5v-138q0 -12 -9 -20t-21 -8h-141v-1483h142q13 0 21 -7.5t8 -21.5v-128q0 -12 -9 -20t-21 -8h-304q-31 0 -31 34v1796q0 33 33 33z" />
    <glyph glyph-name="bracketright" unicode="]" horiz-adv-x="520" 
d="M348 -209h-304q-12 0 -21 8t-9 20v128q0 14 8 21.5t21 7.5h142v1483h-141q-12 0 -21 8t-9 20v138q0 14 8 21.5t21 7.5h303q33 0 33 -33v-1796q0 -34 -31 -34z" />
    <glyph glyph-name="braceleft" unicode="{" horiz-adv-x="756" 
d="M146 787q9 7 21 7h4q40 0 68 8.5t48 40.5t20 98v303q0 164 73.5 247t156 105t148.5 22q13 0 21 -7.5t8 -21.5v-130q0 -12 -9 -20t-21 -8q-66 0 -131 -32t-65 -151v-349q0 -117 -83 -193q83 -76 83 -192v-349q0 -119 65 -151t131 -32q12 0 21 -8t9 -19v-131
q0 -14 -8 -21.5t-21 -7.5q-66 0 -148.5 22t-156 105t-73.5 247v303q0 65 -20 97.5t-48 41t-68 8.5h-7q-27 2 -27 29v118q0 14 9 21z" />
    <glyph glyph-name="underscore" unicode="_" horiz-adv-x="1254" 
d="M165.5 -7.5q8.5 7.5 23.5 7.5h912q13 0 21 -7t8 -21v-105q0 -11 -8.5 -19.5t-21.5 -8.5h-912q-13 0 -22 7t-9 22v103q0 14 8.5 21.5z" />
    <glyph glyph-name="endash" unicode="&#x2013;" horiz-adv-x="1288" 
d="M170 670q9 8 23 8h907q30 0 30 -31v-122q0 -12 -8.5 -20.5t-22.5 -8.5h-906q-14 0 -23 7.5t-9 22.5v121q0 15 9 23z" />
    <glyph glyph-name="bullet" unicode="&#x2022;" horiz-adv-x="434" 
d="M146 602.5q35 34.5 84 34.5q50 0 84.5 -34.5t34.5 -84.5q0 -49 -35 -84t-84 -35t-84 35t-35 84q0 50 35 84.5z" />
    <glyph glyph-name="asciicircum" unicode="^" horiz-adv-x="937" 
d="M450 1476q16 0 32 -17l51 -50q0 -2 1 -2q0 -2 3 -2l252 -252q17 -17 17 -35t-14 -33l-52 -51q-14 -14 -32 -14t-36 16l-224 225l-226 -227q-17 -15 -35 -15q-17 0 -31 13l-50 50q-15 14 -15 31q0 19 16 35l310 311q16 17 33 17z" />
    <glyph glyph-name="backslash" unicode="\" horiz-adv-x="893" 
d="M47 1401q0 12 8.5 18.5t20.5 6.5h141q26 0 37 -29l567 -1357q3 -9 3 -15q0 -12 -8.5 -18.5t-20.5 -6.5h-131q-27 0 -38 28l-575 1357q-4 12 -4 16z" />
    <glyph glyph-name="asciitilde" unicode="~" horiz-adv-x="1265" 
d="M181 456q-16 0 -31 15l-27 26q-15 15 -15 23q0 7 7.5 17t9.5 13q40 50 82 75t92 25q30 0 59 -12.5t69 -36.5q33 -20 56 -30t43 -10q26 0 43.5 13.5t41.5 42.5q17 21 33 21q11 0 23 -10l36 -37q10 -10 10 -21q0 -9 -9 -22q-75 -108 -183 -108q-31 0 -59 12.5t-66 36.5
q-31 20 -53 30t-43 10q-22 0 -38 -8t-26 -18t-31 -35q-11 -12 -24 -12z" />
    <glyph glyph-name="braceright" unicode="}" horiz-adv-x="726" 
d="M574 619h-7q-40 0 -68 -8.5t-48 -41t-20 -97.5v-303q0 -164 -73.5 -247t-156 -105t-148.5 -22q-13 0 -21 7.5t-8 21.5v131q0 11 9 19t21 8q66 0 131 32t65 151v349q0 116 83 192q-83 76 -83 193v349q0 119 -65 151t-131 32q-12 0 -21 8t-9 20v130q0 14 8 21.5t21 7.5
q66 0 148.5 -22t156 -105t73.5 -247v-303q0 -66 20 -98t48 -40.5t68 -8.5h4q12 0 21 -7t9 -21v-118q0 -27 -27 -29z" />
    <glyph glyph-name="Euro" unicode="&#x20ac;" horiz-adv-x="1480" 
d="M335 1199.5q103 115.5 245 180.5t302 65q237 0 431 -139q24 -18 24 -39q0 -13 -7 -23l-51 -84q-17 -23 -34 -23q-15 0 -34 14q-135 95 -306 106q-116 0 -218.5 -41t-180 -113t-121.5 -165h358q18 0 30 -11t12 -31v-100q0 -18 -12 -31t-30 -13h-408q-2 -9 -2 -26
q0 -60 4 -89h406q18 0 30 -11t12 -31v-99q0 -18 -12 -31t-30 -13h-348q71 -131 200 -208t280 -77q82 0 162 26t176 88q20 11 30 11q16 0 32 -24l55 -90q6 -13 6 -23q0 -23 -23 -37q-92 -67 -201.5 -103t-231.5 -36q-155 0 -292 60t-239 167.5t-154 245.5h-75q-45 0 -45 44
v99q0 42 45 42h33q-4 32 -4 74q0 26 1 41h-30q-45 0 -45 44v100q0 42 45 42h64q48 146 151 261.5z" />
    <glyph glyph-name="E" unicode="E" horiz-adv-x="1233" 
d="M189 1427h940q36 0 36 -33v-120q0 -34 -36 -34h-787v-396h609q18 0 28.5 -8.5t10.5 -25.5v-118q0 -17 -10.5 -25t-28.5 -8h-609v-470h786q36 0 36 -33v-122q0 -34 -36 -34h-939q-33 0 -33 34v1360q0 33 33 33z" />
    <glyph glyph-name="ellipsis" unicode="&#x2026;" horiz-adv-x="1225" 
d="M180.5 176q7.5 7 19.5 7h130q15 0 21 -9t6 -20v-127q0 -13 -7.5 -20t-17.5 -7h-135q-8 0 -16 6.5t-8 19.5v129q0 14 7.5 21zM543.5 176q7.5 7 19.5 7h130q15 0 21 -9t6 -20v-127q0 -13 -7.5 -20t-17.5 -7h-135q-8 0 -16 6.5t-8 19.5v129q0 14 7.5 21zM903.5 176
q7.5 7 19.5 7h130q15 0 21 -9t6 -20v-127q0 -13 -7.5 -20t-17.5 -7h-135q-8 0 -16 6.5t-8 19.5v129q0 14 7.5 21z" />
    <glyph glyph-name="quoteleft" unicode="&#x2018;" horiz-adv-x="457" 
d="M310 1045h-120q-30 0 -30 33v108q0 85 24 143.5t76 110.5q10 10 20 10q9 0 16 -7l34 -32q8 -7 8 -14q0 -9 -10 -19q-36 -36 -48.5 -73t-12.5 -62q0 -17 13 -17h32q29 0 29 -33v-114q0 -34 -31 -34z" />
    <glyph glyph-name="quoteright" unicode="&#x2019;" horiz-adv-x="451" 
d="M181 1415h120q30 0 30 -33v-108q0 -85 -24 -143.5t-76 -110.5q-10 -10 -20 -10q-9 0 -16 7l-34 32q-8 7 -8 14q0 9 10 19q36 36 48.5 73t12.5 62q0 17 -13 17h-32q-29 0 -29 33v114q0 34 31 34z" />
    <glyph glyph-name="quotedblleft" unicode="&#x201c;" horiz-adv-x="753" 
d="M595 1025h-120q-30 0 -30 33v108q0 85 24 143.5t76 110.5q10 10 20 10q9 0 16 -7l34 -32q8 -7 8 -14q0 -9 -10 -19q-36 -36 -48.5 -73t-12.5 -62q0 -17 13 -17h32q29 0 29 -33v-114q0 -34 -31 -34zM310 1024h-120q-30 0 -30 33v108q0 85 24 143.5t76 110.5q10 10 20 10
q9 0 16 -7l34 -32q8 -7 8 -14q0 -9 -10 -19q-36 -36 -48.5 -73t-12.5 -62q0 -17 13 -17h32q29 0 29 -33v-114q0 -34 -31 -34z" />
    <glyph glyph-name="quotedblright" unicode="&#x201d;" horiz-adv-x="741" 
d="M207 1414h120q30 0 30 -33v-108q0 -85 -24 -143.5t-76 -110.5q-10 -10 -20 -10q-9 0 -16 7l-34 32q-8 7 -8 14q0 9 10 19q36 36 48.5 73t12.5 62q0 17 -13 17h-32q-29 0 -29 33v114q0 34 31 34zM492 1414h120q30 0 30 -33v-108q0 -85 -24 -143.5t-76 -110.5
q-10 -10 -20 -10q-9 0 -16 7l-34 32q-8 7 -8 14q0 9 10 19q36 36 48.5 73t12.5 62q0 17 -13 17h-32q-29 0 -29 33v114q0 34 31 34z" />
    <glyph glyph-name="sterling" unicode="&#xa3;" horiz-adv-x="1231" 
d="M588 750q13 0 21 -7.5t8 -21.5v-126q0 -11 -8.5 -19t-21.5 -8h-241v-384h689q37 0 37 -33v-117q0 -34 -37 -34h-841q-33 0 -33 34v534h-44q-13 0 -22 7t-9 21v125q0 14 8.5 21.5t22.5 7.5h44v217q0 144 78 254.5t201 170t253 59.5q101 0 190 -30.5t155 -83.5q4 -4 13 -12
t15 -16.5t6 -17.5q0 -7 -4 -14l-50 -84q-13 -20 -30 -20q-14 0 -28 12q-41 38 -114 63.5t-139 25.5q-85 0 -167.5 -31.5t-138 -103t-55.5 -182.5v-207h242z" />
    <glyph glyph-name="cent" unicode="&#xa2;" horiz-adv-x="1219" 
d="M609.5 -196.5q-7.5 8.5 -7.5 23.5v160q-150 22 -271 109t-190.5 221t-69.5 292q0 156 71.5 289.5t193 220.5t266.5 111v167q0 13 7.5 21t21.5 8h130q11 0 19 -8.5t8 -20.5v-165q84 -11 157.5 -44t147.5 -90q13 -12 13 -24q0 -7 -5 -17l-57 -88q-2 -5 -8.5 -8t-13.5 -3
q-11 0 -21 7q-145 107 -294 107q-118 0 -224 -60t-170.5 -166t-64.5 -238q0 -128 60 -233.5t163 -166t227 -60.5q85 0 161.5 29t136.5 78q12 9 25 9q15 0 20 -11l57 -83q9 -12 9 -23q0 -14 -16 -27q-60 -52 -138.5 -87t-164.5 -47v-160q0 -13 -7 -22t-21 -9h-129
q-14 0 -21.5 8.5z" />
    <glyph glyph-name="dagger" unicode="&#x2020;" horiz-adv-x="820" 
d="M62.5 635.5q8.5 7.5 22.5 7.5h249v778q0 35 33 35h106q15 0 23.5 -9t8.5 -26v-778h222q13 0 21 -7.5t8 -21.5v-124q0 -12 -9 -20t-21 -8h-221v-826q0 -34 -33 -34h-106q-16 0 -24 9.5t-8 24.5v826h-250q-12 0 -21 7t-9 21v124q0 14 8.5 21.5z" />
    <glyph glyph-name="daggerdbl" unicode="&#x2021;" horiz-adv-x="849" 
d="M764.5 818.5q12.5 -11.5 12.5 -30.5v-98q0 -18 -12.5 -32t-30.5 -14h-219v-230h219q18 0 30.5 -11.5t12.5 -30.5v-97q0 -18 -12.5 -32.5t-30.5 -14.5h-219v-587q0 -42 -45 -42h-99q-43 0 -43 42v587h-217q-42 0 -42 47v97q0 42 42 42h217v230h-217q-42 0 -42 46v98
q0 42 42 42h217v587q0 18 11.5 30t31.5 12h99q18 0 31.5 -11.5t13.5 -30.5v-587h219q18 0 30.5 -11.5z" />
    <glyph glyph-name="florin" unicode="&#x192;" horiz-adv-x="735" 
d="M69 -329v99q0 20 12 32t30 12q43 0 80.5 23.5t60 62t22.5 81.5v823h-123q-43 0 -43 48v86q0 42 43 42h123v116q0 88 41 162t111 122t156 63l40 6q20 3 31 -9.5t11 -33.5v-97q0 -19 -12.5 -32.5t-29.5 -13.5q-44 0 -81.5 -23.5t-59 -62t-21.5 -81.5v-116h162q42 0 42 -42
v-86q0 -48 -42 -48h-162v-758q0 -167 -79.5 -278t-229.5 -134l-40 -6q-42 3 -42 43z" />
    <glyph glyph-name="trademark" unicode="&#x2122;" horiz-adv-x="1313" 
d="M540 1404v-44q0 -11 -7 -17t-19 -6h-149v-472q0 -26 -25 -26h-44q-25 0 -25 25v473h-151q-14 0 -19 6t-5 19v41q0 24 24 24h394q26 0 26 -23zM1179 862q0 -9 -6 -14t-16 -5h-42q-22 0 -26 22l-30 374l-149 -356q-9 -19 -22 -19h-26q-16 0 -23 19l-138 350l-29 -371
q-1 -21 -24 -21h-42q-11 0 -18 6.5t-6 16.5l36 532q1 14 8 20.5t17 6.5h59q19 0 24 -14l147 -367l158 364q3 9 11.5 14t25.5 5h50q9 0 16.5 -7.5t8.5 -20.5l35 -529z" />
    <glyph glyph-name="yen" unicode="&#xa5;" horiz-adv-x="1236" 
d="M280 560q-14 0 -23 7.5t-9 22.5v90q0 15 9 23t23 8h183l-416 673q-6 11 -6 17q0 11 8 17t20 8l140 1q12 1 20 -5t17 -23l352 -617l364 617q8 17 16.5 23t20.5 5l140 -1q11 -2 19 -8.5t8 -16.5q0 -7 -5 -17l-427 -673h212q29 0 29 -30v-92q0 -12 -8.5 -20.5t-22.5 -8.5
h-253v-102h255q29 0 29 -30v-92q0 -12 -8.5 -20.5t-22.5 -8.5h-253v-270q0 -37 -33 -37h-120q-33 0 -33 37v270h-225q-14 0 -23 7.5t-9 22.5v90q0 15 9 23t23 8h225v102h-225z" />
    <glyph glyph-name="emdash" unicode="&#x2014;" horiz-adv-x="1605" 
d="M163 655.5q11 9.5 26 9.5h1213q15 0 24 -9t9 -26v-119q0 -14 -10 -24t-26 -10h-1210q-15 0 -26 9t-11 25v117q0 18 11 27.5z" />
    <glyph glyph-name="guilsinglright" unicode="&#x203a;" horiz-adv-x="831" 
d="M765.5 523q-2.5 -4 -7.5 -9l-512 -509q-12 -12 -27 -12q-10 0 -17 7l-62 61q-11 11 -11 25q0 13 11 24l428 422l-428 426q-11 11 -11 24q0 14 11 25l62 60q7 7 17 7q16 0 27 -11l512 -512q6 -6 8 -9.5t2 -9.5q0 -5 -2.5 -9z" />
    <glyph glyph-name="N" unicode="N" horiz-adv-x="1516" 
d="M334 37q0 -37 -35 -37h-111q-34 0 -34 37v1355q0 14 9 24t25 10h131q25 0 46 -29l815 -1083v1078q0 15 9 24.5t26 9.5h111q15 0 25 -9.5t10 -24.5v-1355q0 -37 -35 -37h-120q-27 0 -46 28l-826 1122v-1113z" />
    <glyph glyph-name="Zcaron" unicode="&#x17d;" horiz-adv-x="1309" 
d="M682 1557h-2q-11 0 -23 12l-230 232q-13 13 -13 21t11 19l46 45q11 11 20 11q10 0 21 -13l169 -170l167 167q15 15 25 15q9 0 18 -9l46 -44q10 -10 10 -20q0 -11 -15 -26l-226 -228q-12 -12 -24 -12zM1240 1397v-126q0 -12 -9 -25l-907 -1058h882q33 0 33 -31v-126
q0 -31 -33 -31h-1111q-32 0 -32 31v123q0 16 8 24l919 1064l-874 -1q-36 0 -36 31v124q0 31 36 31l1092 2q32 0 32 -32z" />
    <glyph glyph-name="exclamdown" unicode="&#xa1;" horiz-adv-x="472" 
d="M163 1217q8 6 18 6h134q10 0 18 -6t8 -20v-132q0 -27 -26 -27h-134q-12 0 -19 7t-7 21v131q0 14 8 20zM164.5 824.5q8.5 9.5 25.5 9.5h118q32 0 32 -36v-1123q0 -36 -33 -36h-117q-16 0 -25 9.5t-9 26.5v1124q0 16 8.5 25.5z" />
    <glyph glyph-name="Ecircumflex" unicode="&#xca;" horiz-adv-x="1233" 
d="M656 1908q12 0 24 -13l37 -37q0 -1 1 -1q0 -2 2 -2l185 -184q13 -15 13 -26t-11 -24l-38 -37q-10 -10 -23 -10q-14 0 -27 11l-164 165l-166 -166q-14 -12 -26 -12t-22 10l-37 37q-11 10 -11 23t12 25l227 228q12 13 24 13zM189 1427h940q36 0 36 -33v-120q0 -34 -36 -34
h-787v-396h609q18 0 28.5 -8.5t10.5 -25.5v-118q0 -17 -10.5 -25t-28.5 -8h-609v-470h786q36 0 36 -33v-122q0 -34 -36 -34h-939q-33 0 -33 34v1360q0 33 33 33z" />
    <glyph glyph-name="Edieresis" unicode="&#xcb;" horiz-adv-x="1233" 
d="M435 1765h106q20 0 28.5 -10.5t8.5 -31.5v-102q0 -22 -9 -30.5t-28 -8.5h-105q-40 0 -40 38v105q0 40 39 40zM815 1765h106q20 0 28.5 -10.5t8.5 -31.5v-102q0 -22 -9 -30.5t-28 -8.5h-105q-40 0 -40 38v105q0 40 39 40zM189 1427h940q36 0 36 -33v-120q0 -34 -36 -34
h-787v-396h609q18 0 28.5 -8.5t10.5 -25.5v-118q0 -17 -10.5 -25t-28.5 -8h-609v-470h786q36 0 36 -33v-122q0 -34 -36 -34h-939q-33 0 -33 34v1360q0 33 33 33z" />
    <glyph glyph-name="Igrave" unicode="&#xcc;" 
d="M34 1822q0 13 9 21.5t20 8.5h102q14 0 22.5 -6t16.5 -23l105 -223q4 -8 4 -17q0 -13 -9.5 -20.5t-20.5 -7.5h-91q-14 0 -22.5 5.5t-17.5 24.5l-113 220q-5 10 -5 17zM162.5 1417.5q8.5 9.5 24.5 9.5h120q33 0 33 -36v-1354q0 -37 -33 -37h-120q-33 0 -33 37v1354
q0 17 8.5 26.5z" />
    <glyph glyph-name="Iacute" unicode="&#xcd;" 
d="M334.5 1566q-8.5 -5 -21.5 -5h-102q-12 0 -20.5 6.5t-8.5 19.5q0 10 4 19l105 222q8 17 17 23.5t22 6.5h101q12 -1 20.5 -10t8.5 -21q0 -9 -4 -17l-104 -220q-9 -19 -17.5 -24zM162.5 1417.5q8.5 9.5 24.5 9.5h120q33 0 33 -36v-1354q0 -37 -33 -37h-120q-33 0 -33 37
v1354q0 17 8.5 26.5z" />
    <glyph glyph-name="Icircumflex" unicode="&#xce;" 
d="M249 1903q12 0 24 -13l37 -37q0 -1 1 -1q0 -2 2 -2l185 -184q13 -15 13 -26t-11 -24l-38 -37q-10 -10 -23 -10q-14 0 -27 11l-164 165l-166 -166q-14 -12 -26 -12t-22 10l-37 37q-11 10 -11 23t12 25l227 228q12 13 24 13zM162.5 1417.5q8.5 9.5 24.5 9.5h120
q33 0 33 -36v-1354q0 -37 -33 -37h-120q-33 0 -33 37v1354q0 17 8.5 26.5z" />
    <glyph glyph-name="Idieresis" unicode="&#xcf;" 
d="M13 1762h106q20 0 28.5 -10.5t8.5 -31.5v-102q0 -22 -9 -30.5t-28 -8.5h-105q-40 0 -40 38v105q0 40 39 40zM393 1762h106q20 0 28.5 -10.5t8.5 -31.5v-102q0 -22 -9 -30.5t-28 -8.5h-105q-40 0 -40 38v105q0 40 39 40zM162.5 1417.5q8.5 9.5 24.5 9.5h120q33 0 33 -36
v-1354q0 -37 -33 -37h-120q-33 0 -33 37v1354q0 17 8.5 26.5z" />
    <glyph glyph-name="Ntilde" unicode="&#xd1;" horiz-adv-x="1516" 
d="M562 1571q-16 0 -31 15l-27 26q-15 15 -15 23q0 7 7.5 17t9.5 13q40 50 82 75t92 25q30 0 59 -12.5t69 -36.5q33 -20 56 -30t43 -10q26 0 43.5 13.5t41.5 42.5q17 21 33 21q11 0 23 -10l36 -37q10 -10 10 -21q0 -9 -9 -22q-75 -108 -183 -108q-31 0 -59 12.5t-66 36.5
q-31 20 -53 30t-43 10q-22 0 -38 -8t-26 -18t-31 -35q-11 -12 -24 -12zM334 37q0 -37 -35 -37h-111q-34 0 -34 37v1355q0 14 9 24t25 10h131q25 0 46 -29l815 -1083v1078q0 15 9 24.5t26 9.5h111q15 0 25 -9.5t10 -24.5v-1355q0 -37 -35 -37h-120q-27 0 -46 28l-826 1122
v-1113z" />
    <glyph glyph-name="Ucircumflex" unicode="&#xdb;" horiz-adv-x="1444" 
d="M743 1904q12 0 24 -13l37 -37q0 -1 1 -1q0 -2 2 -2l185 -184q13 -15 13 -26t-11 -24l-38 -37q-10 -10 -23 -10q-14 0 -27 11l-164 165l-166 -166q-14 -12 -26 -12t-22 10l-37 37q-11 10 -11 23t12 25l227 228q12 13 24 13zM376 357q56 -95 150 -147.5t206 -52.5
q111 0 200.5 53.5t140 148.5t50.5 215v817q0 16 8.5 26t25.5 10h117q16 0 25.5 -10.5t9.5 -25.5v-830q0 -181 -76 -313t-207 -201.5t-294 -69.5q-164 0 -300.5 70.5t-217 204t-80.5 314.5v826q0 15 8.5 25t23.5 10h122q32 0 32 -35v-818q0 -122 56 -217z" />
    <glyph glyph-name="Udieresis" unicode="&#xdc;" horiz-adv-x="1444" 
d="M493 1753h106q20 0 28.5 -10.5t8.5 -31.5v-102q0 -22 -9 -30.5t-28 -8.5h-105q-40 0 -40 38v105q0 40 39 40zM873 1753h106q20 0 28.5 -10.5t8.5 -31.5v-102q0 -22 -9 -30.5t-28 -8.5h-105q-40 0 -40 38v105q0 40 39 40zM376 357q56 -95 150 -147.5t206 -52.5
q111 0 200.5 53.5t140 148.5t50.5 215v817q0 16 8.5 26t25.5 10h117q16 0 25.5 -10.5t9.5 -25.5v-830q0 -181 -76 -313t-207 -201.5t-294 -69.5q-164 0 -300.5 70.5t-217 204t-80.5 314.5v826q0 15 8.5 25t23.5 10h122q32 0 32 -35v-818q0 -122 56 -217z" />
    <glyph glyph-name="icircumflex" unicode="&#xee;" 
d="M256 1704q12 0 24 -13l37 -37q0 -1 1 -1q0 -2 2 -2l185 -184q13 -15 13 -26t-11 -24l-38 -37q-10 -10 -23 -10q-14 0 -27 11l-164 165l-166 -166q-14 -12 -26 -12t-22 10l-37 37q-11 10 -11 23t12 25l227 228q12 13 24 13zM163.5 1217q9.5 9 24.5 9h118q16 0 25 -9.5
t9 -25.5v-1155q0 -36 -34 -36h-118q-34 0 -34 36v1155q0 17 9.5 26z" />
    <glyph glyph-name="idieresis" unicode="&#xef;" 
d="M14 1574h106q20 0 28.5 -10.5t8.5 -31.5v-102q0 -22 -9 -30.5t-28 -8.5h-105q-40 0 -40 38v105q0 40 39 40zM394 1574h106q20 0 28.5 -10.5t8.5 -31.5v-102q0 -22 -9 -30.5t-28 -8.5h-105q-40 0 -40 38v105q0 40 39 40zM163.5 1217q9.5 9 24.5 9h118q16 0 25 -9.5
t9 -25.5v-1155q0 -36 -34 -36h-118q-34 0 -34 36v1155q0 17 9.5 26z" />
    <glyph glyph-name="uni00B5" unicode="&#xb5;" horiz-adv-x="1260" 
d="M199 1221h99q28 0 36 -23.5t8 -66.5v-691q2 -70 45 -129t109 -93t135 -34q70 0 138.5 36.5t112.5 97.5t44 132v731q0 40 45 40h99q43 0 43 -42v-678q0 -138 -61 -253t-171 -182.5t-250 -67.5q-95 0 -170.5 37.5t-118.5 103.5v-469q0 -17 -13 -28.5t-31 -11.5h-99
q-43 0 -43 43v1506q0 42 43 42z" />
    <glyph glyph-name="periodcentered" unicode="&#xb7;" horiz-adv-x="436" 
d="M133 749q8 8 21 8h140q16 0 22.5 -9.5t6.5 -20.5v-138q0 -13 -8.5 -21t-18.5 -8h-145q-9 0 -17.5 7t-8.5 21v139q0 14 8 22z" />
    <glyph glyph-name="Ccedilla" unicode="&#xc7;" horiz-adv-x="1365" 
d="M1281 186q9 -12 9 -22q0 -14 -18 -29q-86 -69 -190.5 -109t-223.5 -44q-3 -6 -3 -14q0 -16 15.5 -29t52.5 -36q40 -25 66 -45t45 -50t19 -70q0 -70 -63 -124t-198 -93q-8 -2 -11 -2q-11 0 -18 13l-31 78q-2 6 -2 10q0 15 12 18q84 22 122.5 46t38.5 54q0 26 -21.5 46
t-65.5 46q-36 22 -56.5 38t-35.5 38t-15 50q0 22 10 35q-174 27 -316 129.5t-223.5 258t-81.5 335.5q0 200 99 367.5t268.5 265t369.5 97.5q126 0 236.5 -40.5t202.5 -112.5q16 -12 16 -29q0 -10 -4 -16l-70 -100q-9 -11 -24 -11q-13 0 -26 10q-75 58 -156 88.5t-175 30.5
q-152 0 -278.5 -73t-200 -199t-73.5 -278t73.5 -278t200 -199.5t278.5 -73.5q175 0 329 118q16 13 29 13q12 0 22 -11z" />
    <glyph glyph-name="degree" unicode="&#xb0;" horiz-adv-x="624" 
d="M131 1110q29 49 78.5 78.5t107.5 29.5t107.5 -29t78.5 -78.5t29 -107.5q0 -59 -29 -108t-78 -78t-108 -29q-58 0 -107.5 29t-78.5 78.5t-29 107.5t29 107zM234 918.5q34 -34.5 81 -34.5q49 0 83 34.5t34 82.5q0 50 -33.5 83.5t-83.5 33.5q-47 0 -81 -34t-34 -83
q0 -48 34 -82.5z" />
    <glyph glyph-name="Ydieresis" unicode="&#x178;" horiz-adv-x="1200" 
d="M348 1741h106q20 0 28.5 -10.5t8.5 -31.5v-102q0 -22 -9 -30.5t-28 -8.5h-105q-40 0 -40 38v105q0 40 39 40zM728 1741h106q20 0 28.5 -10.5t8.5 -31.5v-102q0 -22 -9 -30.5t-28 -8.5h-105q-40 0 -40 38v105q0 40 39 40zM27 1385q-6 11 -6 18q0 11 8 17.5t20 6.5h148
q12 0 20 -6t17 -21l354 -611l352 609q9 15 17 21t20 6h150q12 0 20 -7t8 -18q0 -9 -6 -18l-465 -779v-566q0 -37 -33 -37h-120q-33 0 -33 37v563z" />
    <glyph glyph-name="Ccircumflex" unicode="&#x108;" horiz-adv-x="1365" 
d="M790 1888q12 0 24 -13l37 -37q0 -1 1 -1q0 -2 2 -2l185 -184q13 -15 13 -26t-11 -24l-38 -37q-10 -10 -23 -10q-14 0 -27 11l-164 165l-166 -166q-14 -12 -26 -12t-22 10l-37 37q-11 10 -11 23t12 25l227 228q12 13 24 13zM1193 294q12 0 22 -11l66 -97q9 -12 9 -22
q0 -14 -18 -29q-90 -72 -200.5 -112.5t-236.5 -40.5q-200 0 -369 98t-268.5 266t-99.5 368t99 367.5t268.5 265t369.5 97.5q126 0 236.5 -40.5t202.5 -112.5q16 -12 16 -29q0 -10 -4 -16l-70 -100q-9 -11 -24 -11q-13 0 -26 10q-75 58 -156 88.5t-175 30.5
q-152 0 -278.5 -73t-200 -199t-73.5 -278t73.5 -278t200 -199.5t278.5 -73.5q175 0 329 118q16 13 29 13z" />
    <glyph glyph-name="Cdotaccent" unicode="&#x10a;" horiz-adv-x="1365" 
d="M596 1742h106q37 0 37 -41v-102q0 -22 -9 -30.5t-28 -8.5h-105q-21 0 -30.5 8.5t-9.5 29.5v104q0 40 39 40zM1193 294q12 0 22 -11l66 -97q9 -12 9 -22q0 -14 -18 -29q-90 -72 -200.5 -112.5t-236.5 -40.5q-200 0 -369 98t-268.5 266t-99.5 368t99 367.5t268.5 265
t369.5 97.5q126 0 236.5 -40.5t202.5 -112.5q16 -12 16 -29q0 -10 -4 -16l-70 -100q-9 -11 -24 -11q-13 0 -26 10q-75 58 -156 88.5t-175 30.5q-152 0 -278.5 -73t-200 -199t-73.5 -278t73.5 -278t200 -199.5t278.5 -73.5q175 0 329 118q16 13 29 13z" />
    <glyph glyph-name="Edotaccent" unicode="&#x116;" horiz-adv-x="1233" 
d="M638 1770h106q37 0 37 -41v-102q0 -22 -9 -30.5t-28 -8.5h-105q-21 0 -30.5 8.5t-9.5 29.5v104q0 40 39 40zM189 1427h940q36 0 36 -33v-120q0 -34 -36 -34h-787v-396h609q18 0 28.5 -8.5t10.5 -25.5v-118q0 -17 -10.5 -25t-28.5 -8h-609v-470h786q36 0 36 -33v-122
q0 -34 -36 -34h-939q-33 0 -33 34v1360q0 33 33 33z" />
    <glyph glyph-name="Eogonek" unicode="&#x118;" horiz-adv-x="1233" 
d="M1201.5 -228.5q8.5 -8.5 8.5 -23.5q0 -52 -24.5 -97t-68.5 -71.5t-100 -26.5q-53 0 -98 25.5t-71 70t-26 97.5q0 51 22.5 87.5t70.5 86.5l81 80h-807q-33 0 -33 34v1360q0 33 33 33h940q36 0 36 -33v-120q0 -34 -36 -34h-787v-396h609q18 0 28.5 -8.5t10.5 -25.5v-118
q0 -17 -10.5 -25t-28.5 -8h-609v-470h786q36 0 36 -33v-122q0 -19 -12 -28l-3 -3l-157 -156q-25 -22 -41.5 -43t-21.5 -45l-1 -11q0 -34 22 -61t65 -27q39 0 63.5 24.5t24.5 59.5q0 18 8.5 27t20.5 9h49q12 0 20.5 -8.5z" />
    <glyph glyph-name="Hcircumflex" unicode="&#x124;" horiz-adv-x="1516" 
d="M756 1901q12 0 24 -13l37 -37q0 -1 1 -1q0 -2 2 -2l185 -184q13 -15 13 -26t-11 -24l-38 -37q-10 -10 -23 -10q-14 0 -27 11l-164 165l-166 -166q-14 -12 -26 -12t-22 10l-37 37q-11 10 -11 23t12 25l227 228q12 13 24 13zM340 658v-622q0 -36 -35 -36h-117q-34 0 -34 36
v1355q0 16 8.5 26t25.5 10h120q14 0 23 -8.5t9 -26.5v-546h804v545q0 16 8.5 26t24.5 10h120q32 0 32 -35v-1356q0 -36 -34 -36h-118q-33 0 -33 36v622h-804z" />
    <glyph glyph-name="Ibreve" unicode="&#x12c;" 
d="M115.5 1582.5q-60.5 34.5 -95.5 90t-35 115.5q0 17 10.5 26.5t26.5 9.5h77q17 0 27 -10.5t10 -25.5q0 -26 13 -50.5t40 -40.5t65 -16q34 0 60 16.5t40 41.5t14 49q0 16 8.5 26t25.5 10h79q16 0 26.5 -9.5t10.5 -26.5q0 -62 -36 -117t-97.5 -89t-135.5 -35
q-73 1 -133.5 35.5zM162.5 1417.5q8.5 9.5 24.5 9.5h120q33 0 33 -36v-1354q0 -37 -33 -37h-120q-33 0 -33 37v1354q0 17 8.5 26.5z" />
    <glyph glyph-name="Itilde" unicode="&#x128;" 
d="M4 1580q-16 0 -31 15l-27 26q-15 15 -15 23q0 7 7.5 17t9.5 13q40 50 82 75t92 25q30 0 59 -12.5t69 -36.5q33 -20 56 -30t43 -10q26 0 43.5 13.5t41.5 42.5q17 21 33 21q11 0 23 -10l36 -37q10 -10 10 -21q0 -9 -9 -22q-75 -108 -183 -108q-31 0 -59 12.5t-66 36.5
q-31 20 -53 30t-43 10q-22 0 -38 -8t-26 -18t-31 -35q-11 -12 -24 -12zM162.5 1417.5q8.5 9.5 24.5 9.5h120q33 0 33 -36v-1354q0 -37 -33 -37h-120q-33 0 -33 37v1354q0 17 8.5 26.5z" />
    <glyph glyph-name="IJ" unicode="&#x132;" horiz-adv-x="989" 
d="M654.5 1418.5q9.5 8.5 23.5 8.5h116q20 0 28 -9.5t8 -30.5v-1276q0 -70 -3 -136q-9 -90 -62 -166.5t-136.5 -121.5t-181.5 -45q-80 0 -155 29.5t-123 85.5q-7 7 -14 20t-7 24q0 12 8 20l70 65q11 11 23 11q11 0 21 -8.5t13 -10.5q27 -27 64 -43.5t91 -16.5q58 0 105.5 28
t74.5 73.5t27 95.5v1376q0 19 9.5 27.5zM175.5 1417.5q8.5 9.5 24.5 9.5h120q33 0 33 -36v-1354q0 -37 -33 -37h-120q-33 0 -33 37v1354q0 17 8.5 26.5z" />
    <glyph glyph-name="Jcircumflex" unicode="&#x134;" horiz-adv-x="501" 
d="M257 1897q12 0 24 -13l37 -37q0 -1 1 -1q0 -2 2 -2l185 -184q13 -15 13 -26t-11 -24l-38 -37q-10 -10 -23 -10q-14 0 -27 11l-164 165l-166 -166q-14 -12 -26 -12t-22 10l-37 37q-11 10 -11 23t12 25l227 228q12 13 24 13zM172.5 1418.5q9.5 8.5 23.5 8.5h116
q20 0 28 -9.5t8 -30.5v-1276q0 -70 -3 -136q-9 -90 -62 -166.5t-136.5 -121.5t-181.5 -45q-80 0 -155 29.5t-123 85.5q-7 7 -14 20t-7 24q0 12 8 20l70 65q11 11 23 11q11 0 21 -8.5t13 -10.5q27 -27 64 -43.5t91 -16.5q58 0 105.5 28t74.5 73.5t27 95.5v1376q0 19 9.5 27.5
z" />
    <glyph glyph-name="Scedilla" unicode="&#x15e;" horiz-adv-x="1277" 
d="M1117 192q-64 -94 -175 -147t-252 -62q-2 -8 -2 -12q0 -16 15.5 -29t52.5 -36q40 -25 66 -45t45 -50t19 -70q0 -70 -63 -124t-198 -93q-8 -2 -11 -2q-11 0 -18 13l-31 78q-2 6 -2 10q0 15 12 18q84 22 122.5 46t38.5 54q0 26 -21.5 46t-65.5 46q-36 22 -56.5 38t-35.5 38
t-15 50q0 19 5 29q-115 18 -226.5 79t-192.5 154q-19 23 -19 37q0 13 12 25l85 75q9 8 21 8q16 0 36 -20q72 -80 175.5 -133t215.5 -53q77 0 155.5 27t131 84t52.5 142q0 69 -51 115.5t-119 73t-166 53.5l-52 15q-162 46 -258.5 97t-143 122.5t-46.5 176.5q0 107 58 192.5
t168 135t261 49.5q130 0 252.5 -55t210.5 -149q14 -16 14 -31t-13 -28l-73 -72q-12 -9 -22 -9t-19.5 5.5t-22.5 17.5q-170 146 -328 146q-70 0 -137 -19t-112 -63.5t-45 -117.5q0 -66 42.5 -109t105 -68t171.5 -57q166 -50 267 -93t173.5 -122.5t72.5 -204.5
q0 -128 -64 -222z" />
    <glyph glyph-name="Scircumflex" unicode="&#x15c;" horiz-adv-x="1277" 
d="M698 1896q12 0 24 -13l37 -37q0 -1 1 -1q0 -2 2 -2l185 -184q13 -15 13 -26t-11 -24l-38 -37q-10 -10 -23 -10q-14 0 -27 11l-164 165l-166 -166q-14 -12 -26 -12t-22 10l-37 37q-11 10 -11 23t12 25l227 228q12 13 24 13zM109 258q0 13 12 25l85 75q9 8 21 8
q16 0 36 -20q72 -80 175.5 -133t215.5 -53q77 0 155.5 27t131 84t52.5 142q0 69 -51 115.5t-119 73t-166 53.5l-52 15q-162 46 -258.5 97t-143 122.5t-46.5 176.5q0 107 58 192.5t168 135t261 49.5q130 0 252.5 -55t210.5 -149q14 -16 14 -31t-13 -28l-73 -72q-12 -9 -22 -9
t-19.5 5.5t-22.5 17.5q-170 146 -328 146q-70 0 -137 -19t-112 -63.5t-45 -117.5q0 -66 42.5 -109t105 -68t171.5 -57q166 -50 267 -93t173.5 -122.5t72.5 -204.5q0 -136 -72.5 -234t-197.5 -148.5t-279 -50.5q-133 0 -270 64.5t-234 175.5q-19 23 -19 37z" />
    <glyph glyph-name="Wcircumflex" unicode="&#x174;" horiz-adv-x="2045" 
d="M1059 1907q12 0 24 -13l37 -37q0 -1 1 -1q0 -2 2 -2l185 -184q13 -15 13 -26t-11 -24l-38 -37q-10 -10 -23 -10q-14 0 -27 11l-164 165l-166 -166q-14 -12 -26 -12t-22 10l-37 37q-11 10 -11 23t12 25l227 228q12 13 24 13zM780 29q-12 -29 -38 -29h-75q-27 0 -39 29
l-562 1358q-3 8 -3 15q0 12 8.5 18.5t20.5 6.5h123q12 0 20.5 -6.5t14.5 -22.5l456 -1117l445 1117q11 29 37 29h133q12 0 20.5 -7t8.5 -19q0 -6 -3 -14l-221 -535l235 -571l446 1117q6 16 15 22.5t21 6.5h132q12 0 21 -7t9 -19q0 -6 -3 -14l-569 -1358q-12 -29 -39 -29h-76
q-12 0 -22.5 7t-16.5 22l-248 598z" />
    <glyph glyph-name="Wdieresis" unicode="&#x1e84;" horiz-adv-x="2045" 
d="M793 1765h106q20 0 28.5 -10.5t8.5 -31.5v-102q0 -22 -9 -30.5t-28 -8.5h-105q-40 0 -40 38v105q0 40 39 40zM1173 1765h106q20 0 28.5 -10.5t8.5 -31.5v-102q0 -22 -9 -30.5t-28 -8.5h-105q-40 0 -40 38v105q0 40 39 40zM780 29q-12 -29 -38 -29h-75q-27 0 -39 29
l-562 1358q-3 8 -3 15q0 12 8.5 18.5t20.5 6.5h123q12 0 20.5 -6.5t14.5 -22.5l456 -1117l445 1117q11 29 37 29h133q12 0 20.5 -7t8.5 -19q0 -6 -3 -14l-221 -535l235 -571l446 1117q6 16 15 22.5t21 6.5h132q12 0 21 -7t9 -19q0 -6 -3 -14l-569 -1358q-12 -29 -39 -29h-76
q-12 0 -22.5 7t-16.5 22l-248 598z" />
    <glyph glyph-name="Wgrave" unicode="&#x1e80;" horiz-adv-x="2045" 
d="M1058 1827q0 13 9 21.5t20 8.5h102q14 0 22.5 -6t16.5 -23l105 -223q4 -8 4 -17q0 -13 -9.5 -20.5t-20.5 -7.5h-91q-14 0 -22.5 5.5t-17.5 24.5l-113 220q-5 10 -5 17zM780 29q-12 -29 -38 -29h-75q-27 0 -39 29l-562 1358q-3 8 -3 15q0 12 8.5 18.5t20.5 6.5h123
q12 0 20.5 -6.5t14.5 -22.5l456 -1117l445 1117q11 29 37 29h133q12 0 20.5 -7t8.5 -19q0 -6 -3 -14l-221 -535l235 -571l446 1117q6 16 15 22.5t21 6.5h132q12 0 21 -7t9 -19q0 -6 -3 -14l-569 -1358q-12 -29 -39 -29h-76q-12 0 -22.5 7t-16.5 22l-248 598z" />
    <glyph glyph-name="Ycircumflex" unicode="&#x176;" horiz-adv-x="1200" 
d="M605 1894q12 0 24 -13l37 -37q0 -1 1 -1q0 -2 2 -2l185 -184q13 -15 13 -26t-11 -24l-38 -37q-10 -10 -23 -10q-14 0 -27 11l-164 165l-166 -166q-14 -12 -26 -12t-22 10l-37 37q-11 10 -11 23t12 25l227 228q12 13 24 13zM27 1385q-6 11 -6 18q0 11 8 17.5t20 6.5h148
q12 0 20 -6t17 -21l354 -611l352 609q9 15 17 21t20 6h150q12 0 20 -7t8 -18q0 -9 -6 -18l-465 -779v-566q0 -37 -33 -37h-120q-33 0 -33 37v563z" />
    <glyph glyph-name="Zdotaccent" unicode="&#x17b;" horiz-adv-x="1309" 
d="M620 1767h106q37 0 37 -41v-102q0 -22 -9 -30.5t-28 -8.5h-105q-21 0 -30.5 8.5t-9.5 29.5v104q0 40 39 40zM1240 1397v-126q0 -12 -9 -25l-907 -1058h882q33 0 33 -31v-126q0 -31 -33 -31h-1111q-32 0 -32 31v123q0 16 8 24l919 1064l-874 -1q-36 0 -36 31v124
q0 31 36 31l1092 2q32 0 32 -32z" />
    <glyph glyph-name="Ubreve" unicode="&#x16c;" horiz-adv-x="1444" 
d="M603.5 1591.5q-60.5 34.5 -95.5 90t-35 115.5q0 17 10.5 26.5t26.5 9.5h77q17 0 27 -10.5t10 -25.5q0 -26 13 -50.5t40 -40.5t65 -16q34 0 60 16.5t40 41.5t14 49q0 16 8.5 26t25.5 10h79q16 0 26.5 -9.5t10.5 -26.5q0 -62 -36 -117t-97.5 -89t-135.5 -35
q-73 1 -133.5 35.5zM376 357q56 -95 150 -147.5t206 -52.5q111 0 200.5 53.5t140 148.5t50.5 215v817q0 16 8.5 26t25.5 10h117q16 0 25.5 -10.5t9.5 -25.5v-830q0 -181 -76 -313t-207 -201.5t-294 -69.5q-164 0 -300.5 70.5t-217 204t-80.5 314.5v826q0 15 8.5 25t23.5 10
h122q32 0 32 -35v-818q0 -122 56 -217z" />
    <glyph glyph-name="Uogonek" unicode="&#x172;" horiz-adv-x="1444" 
d="M909.5 -96q-16.5 -21 -21.5 -45l-1 -11q0 -34 22 -61t65 -27q39 0 63.5 24.5t24.5 59.5q0 18 8.5 27t20.5 9h49q12 0 20.5 -8.5t8.5 -23.5q0 -52 -24.5 -97t-68.5 -71.5t-100 -26.5q-53 0 -98 25.5t-71 70t-26 97.5q0 41 15.5 74t45.5 66q-54 -9 -110 -9
q-164 0 -300.5 70.5t-217 204t-80.5 314.5v826q0 15 8.5 25t23.5 10h122q32 0 32 -35v-818q0 -122 56 -217t150 -147.5t206 -52.5q111 0 200.5 53.5t140 148.5t50.5 215v817q0 16 8.5 26t25.5 10h117q16 0 25.5 -10.5t9.5 -25.5v-830q0 -155 -56 -274.5t-157 -195.5
l-145 -144q-25 -22 -41.5 -43z" />
    <glyph glyph-name="Uring" unicode="&#x16e;" horiz-adv-x="1444" 
d="M843 1914q46 -27 73.5 -73t27.5 -100q0 -55 -27 -101t-73.5 -72.5t-101.5 -26.5q-54 0 -100 26.5t-72.5 72.5t-26.5 101q0 54 27 100t72.5 73t99.5 27q55 0 101 -27zM673 1811.5q-27 -28.5 -27 -70.5q0 -43 27 -71t71 -28q45 0 72.5 28t27.5 71q0 42 -29.5 70.5
t-72.5 28.5q-42 0 -69 -28.5zM376 357q56 -95 150 -147.5t206 -52.5q111 0 200.5 53.5t140 148.5t50.5 215v817q0 16 8.5 26t25.5 10h117q16 0 25.5 -10.5t9.5 -25.5v-830q0 -181 -76 -313t-207 -201.5t-294 -69.5q-164 0 -300.5 70.5t-217 204t-80.5 314.5v826q0 15 8.5 25
t23.5 10h122q32 0 32 -35v-818q0 -122 56 -217z" />
    <glyph glyph-name="Utilde" unicode="&#x168;" horiz-adv-x="1444" 
d="M499 1576q-16 0 -31 15l-27 26q-15 15 -15 23q0 7 7.5 17t9.5 13q40 50 82 75t92 25q30 0 59 -12.5t69 -36.5q33 -20 56 -30t43 -10q26 0 43.5 13.5t41.5 42.5q16 21 33 21q11 0 23 -10l36 -37q10 -10 10 -21q0 -9 -9 -22q-75 -108 -183 -108q-31 0 -59 12.5t-66 36.5
q-31 20 -53 30t-43 10q-22 0 -38 -8t-26 -18t-31 -35q-11 -12 -24 -12zM376 357q56 -95 150 -147.5t206 -52.5q111 0 200.5 53.5t140 148.5t50.5 215v817q0 16 8.5 26t25.5 10h117q16 0 25.5 -10.5t9.5 -25.5v-830q0 -181 -76 -313t-207 -201.5t-294 -69.5
q-164 0 -300.5 70.5t-217 204t-80.5 314.5v826q0 15 8.5 25t23.5 10h122q32 0 32 -35v-818q0 -122 56 -217z" />
    <glyph glyph-name="Lacute" unicode="&#x139;" horiz-adv-x="1102" 
d="M328.5 1566q-8.5 -5 -21.5 -5h-102q-12 0 -20.5 6.5t-8.5 19.5q0 10 4 19l105 222q8 17 17 23.5t22 6.5h101q12 -1 20.5 -10t8.5 -21q0 -9 -4 -17l-104 -220q-9 -19 -17.5 -24zM165 1416q9 10 24 10h120q32 0 32 -37v-1215h702q38 0 38 -33v-107q0 -17 -10 -25.5
t-28 -8.5h-854q-33 0 -33 34v1355q0 17 9 27z" />
    <glyph glyph-name="Lslash" unicode="&#x141;" horiz-adv-x="1102" 
d="M1081 142v-107q0 -17 -10 -25.5t-28 -8.5h-854q-33 0 -33 34v568l-152 -55q-10 -4 -21 -4q-19 0 -19 19v85q0 15 3.5 22.5t15.5 12.5l173 63v644q0 17 9 27t24 10h120q32 0 32 -37v-577l221 81q6 3 14 3q10 0 16.5 -4.5t6.5 -13.5v-83q0 -16 -3 -24t-13 -13l-242 -88
v-496h702q38 0 38 -33z" />
    <glyph glyph-name="lacute" unicode="&#x13a;" 
d="M327.5 1732q-8.5 -5 -21.5 -5h-102q-12 0 -20.5 6.5t-8.5 19.5q0 10 4 19l105 222q8 17 17 23.5t22 6.5h101q12 -1 20.5 -10t8.5 -21q0 -9 -4 -17l-104 -220q-9 -19 -17.5 -24zM166 1572q9 10 26 10h116q17 0 25.5 -10t8.5 -28v-1506q0 -18 -8.5 -28t-25.5 -10h-116
q-35 0 -35 38v1506q0 18 9 28z" />
    <glyph glyph-name="racute" unicode="&#x155;" horiz-adv-x="993" 
d="M683.5 1364q-8.5 -5 -21.5 -5h-102q-12 0 -20.5 6.5t-8.5 19.5q0 10 4 19l105 222q8 17 17 23.5t22 6.5h101q12 -1 20.5 -10t8.5 -21q0 -9 -4 -17l-104 -220q-9 -19 -17.5 -24zM184 1227h118q18 0 26.5 -8t8.5 -31v-93q54 79 118 112t158 33q96 0 179.5 -38.5
t132.5 -82.5q21 -18 21 -33q0 -9 -7 -20l-54 -87q-9 -14 -24 -14q-13 0 -27 10q-49 31 -77 46.5t-70 27t-95 11.5q-112 0 -184.5 -69t-72.5 -223v-731q0 -37 -34 -37h-117q-34 0 -34 37v1154q0 36 34 36z" />
    <glyph glyph-name="tbar" unicode="&#x167;" horiz-adv-x="622" 
d="M576.5 146.5q7.5 -8.5 7.5 -22.5v-110q0 -14 -8.5 -21t-36.5 -7q-162 0 -248.5 80.5t-86.5 220.5v372h-117q-13 0 -23 7.5t-10 22.5v79q0 15 9.5 23.5t23.5 8.5h117v257h-122q-15 0 -25.5 8.5t-10.5 25.5v98q0 18 10.5 27.5t25.5 9.5h122v193q0 17 7.5 25.5t26.5 13.5
l115 18q3 1 9 1q12 0 19 -11t7 -27v-213h139q16 0 25.5 -9t9.5 -26v-100q0 -15 -10.5 -24.5t-26.5 -9.5h-137v-257h117q30 0 30 -32v-80q0 -12 -9 -20.5t-22 -8.5h-116v-342q0 -66 26.5 -112.5t91.5 -48.5l34 -1q29 0 36.5 -8.5z" />
    <glyph glyph-name="tcaron" unicode="&#x165;" horiz-adv-x="622" 
d="M613 1522h122q32 0 32 -34v-106q0 -81 -24 -129.5t-55 -71.5q-10 -9 -20 -9q-9 0 -20 9l-28 24q-8 8 -8 17q0 10 9 19q19 19 30 42.5t11 39.5v12q0 10 -12 10h-39q-31 0 -31 34v108q0 35 33 35zM527 1226q16 0 25.5 -9t9.5 -26v-100q0 -15 -10.5 -24.5t-26.5 -9.5h-137
v-740q0 -66 26.5 -112.5t91.5 -48.5l34 -1q29 0 36.5 -8.5t7.5 -22.5v-110q0 -14 -8.5 -21t-36.5 -7q-162 0 -248.5 80.5t-86.5 220.5v770h-122q-15 0 -25.5 8.5t-10.5 25.5v98q0 18 10.5 27.5t25.5 9.5h122v193q0 17 7.5 25.5t26.5 13.5l115 18q3 1 9 1q12 0 19 -11t7 -27
v-213h139z" />
    <glyph glyph-name="Tbar" unicode="&#x166;" horiz-adv-x="1190" 
d="M1130 1393v-118q0 -34 -32 -34h-413v-428h149q33 0 33 -33v-95q0 -15 -9.5 -24.5t-26.5 -9.5h-146v-617q0 -34 -33 -34h-120q-34 0 -34 34v617h-151q-17 0 -28.5 9t-11.5 28v87q0 19 11.5 28.5t28.5 9.5h151v428h-412q-34 0 -34 34v118q0 34 34 34h1012q32 0 32 -34z" />
    <glyph glyph-name="plusminus" unicode="&#xb1;" horiz-adv-x="954" 
d="M408 328.5q-7 8.5 -7 21.5v207h-221q-12 0 -20 6.5t-8 19.5v120q0 13 8 20t21 7h220v224q0 12 7 19.5t19 7.5h120q11 0 18 -8t7 -19v-224h200q12 0 19 -7t7 -20v-120q0 -11 -8 -18.5t-19 -7.5h-199v-208q0 -12 -6.5 -20.5t-19.5 -8.5h-119q-12 0 -19 8.5zM164 32v108
q0 33 31 33h576q14 0 23 -8t9 -22v-110q0 -13 -9 -22t-23 -9h-576q-31 0 -31 30z" />
    <glyph glyph-name="fraction" unicode="&#x2044;" horiz-adv-x="948" 
d="M803 1424h101q29 0 29 -23q0 -10 -5 -20l-746 -1362q-8 -12 -15.5 -15.5t-17.5 -3.5h-100q-11 1 -17 8t-6 16q0 10 5 16l739 1365q9 19 33 19z" />
    <glyph glyph-name="dotlessi" unicode="&#x131;" 
d="M163.5 1217q9.5 9 24.5 9h118q16 0 25 -9.5t9 -25.5v-1155q0 -36 -34 -36h-118q-34 0 -34 36v1155q0 17 9.5 26z" />
    <glyph glyph-name="guillemotright" unicode="&#xbb;" horiz-adv-x="1327" 
d="M764 521l-513 -509q-12 -12 -27 -12q-10 0 -17 7l-62 61q-11 11 -11 25q0 13 11 24l428 422l-419 416q-11 11 -11 24q0 14 11 25l62 60q7 7 18 7q15 0 26 -11l504 -502q6 -6 8 -9.5t2 -9.5q0 -8 -10 -18zM1153.5 530q-2.5 -4 -7.5 -9l-513 -509q-12 -12 -27 -12
q-10 0 -17 7l-62 61q-11 11 -11 25q0 13 11 24l428 422l-419 416q-11 11 -11 24q0 14 11 25l62 60q7 7 18 7q15 0 26 -11l504 -502q6 -6 8 -9.5t2 -9.5q0 -5 -2.5 -9z" />
    <glyph glyph-name="guillemotleft" unicode="&#xab;" horiz-adv-x="1323" 
d="M167 548.5q2 3.5 8 9.5l504 502q11 11 26 11q11 0 18 -7l62 -60q11 -11 11 -25q0 -13 -11 -24l-419 -416l428 -422q11 -11 11 -24q0 -14 -11 -25l-62 -61q-7 -7 -17 -7q-15 0 -27 12l-513 509q-5 5 -7.5 9t-2.5 9q0 6 2 9.5zM549 548.5q2 3.5 8 9.5l504 502q11 11 26 11
q11 0 18 -7l62 -60q11 -11 11 -25q0 -13 -11 -24l-419 -416l428 -422q11 -11 11 -24q0 -14 -11 -25l-62 -61q-7 -7 -17 -7q-15 0 -27 12l-513 509q-10 10 -10 18q0 6 2 9.5z" />
    <glyph glyph-name="minus" unicode="&#x2212;" horiz-adv-x="1056" 
d="M181.5 457q-8.5 9 -8.5 24v98q0 19 9.5 28t23.5 9h627q16 0 25.5 -9t9.5 -25v-99q0 -15 -9 -25t-26 -10h-627q-16 0 -24.5 9z" />
    <glyph glyph-name="figuredash" unicode="&#x2012;" horiz-adv-x="1056" 
d="M184.5 639q11.5 10 27.5 10h645q36 0 36 -38v-108q0 -15 -11 -25t-28 -10h-642q-16 0 -27.5 9t-11.5 27v106q0 19 11.5 29z" />
    <glyph glyph-name="uni00AD" unicode="&#xad;" horiz-adv-x="1056" 
d="M184.5 739q11.5 10 27.5 10h645q36 0 36 -38v-108q0 -15 -11 -25t-28 -10h-642q-16 0 -27.5 9t-11.5 27v106q0 19 11.5 29z" />
    <glyph glyph-name="onedotenleader" unicode="&#x2024;" horiz-adv-x="570" 
d="M219 168q31 31 75 31t75 -31t31 -75q0 -45 -30.5 -75.5t-75.5 -30.5t-75.5 30.5t-30.5 75.5q0 44 31 75z" />
    <glyph glyph-name="twodotenleader" unicode="&#x2025;" horiz-adv-x="877" 
d="M181.5 168q31.5 31 74.5 31q44 0 75 -31t31 -75q0 -45 -30.5 -75.5t-75.5 -30.5q-44 0 -75 31t-31 75t31.5 75zM623.5 168q31.5 31 74.5 31q45 0 75.5 -31t30.5 -75t-30.5 -75t-75.5 -31q-44 0 -75 31t-31 75t31.5 75z" />
    <glyph glyph-name="exclamdbl" unicode="&#x203c;" horiz-adv-x="874" 
d="M189 1575.5q9 9.5 25 9.5h117q33 0 33 -36v-1123q0 -36 -32 -36h-118q-17 0 -25.5 9.5t-8.5 25.5v1124q0 17 9 26.5zM573 1575.5q9 9.5 25 9.5h117q33 0 33 -36v-1123q0 -36 -32 -36h-118q-17 0 -25.5 9.5t-8.5 25.5v1124q0 17 9 26.5zM186 179q7 7 19 7h134q26 0 26 -27
v-132q0 -14 -8 -20t-18 -6h-134q-10 0 -18 6t-8 20v131q0 14 7 21zM570 179q7 7 19 7h134q26 0 26 -27v-132q0 -14 -8 -20t-18 -6h-134q-10 0 -18 6t-8 20v131q0 14 7 21z" />
    <glyph glyph-name="Dcroat" unicode="&#x110;" horiz-adv-x="1482" 
d="M1014 1328.5q168 -97.5 265.5 -262t97.5 -354.5q0 -192 -96 -355.5t-262.5 -260t-365.5 -96.5h-464q-33 0 -33 34v582h-95q-16 0 -26.5 8.5t-10.5 25.5v98q0 18 10.5 27.5t26.5 9.5h95v608q0 33 33 33h457q200 0 368 -97.5zM915 246q128 72 201.5 195t73.5 271
t-73.5 271.5t-201.5 196t-284 72.5h-289v-467h110q13 0 23.5 -9.5t10.5 -26.5v-99q0 -13 -10 -23.5t-27 -10.5h-107v-442h289q156 0 284 72z" />
    <glyph glyph-name="uni00B2" unicode="&#xb2;" horiz-adv-x="803" 
d="M644 775q25 0 25 -25v-89q0 -25 -25 -25h-486q-11 0 -19 7t-8 18v80q0 8 4 13l344 353q23 24 30.5 41t7.5 41q0 30 -16 55.5t-44 41t-60 15.5t-58.5 -17t-42 -44t-15.5 -57v-44q0 -23 -24 -23h-97q-11 0 -17 7t-6 16v44q0 72 35 129t94.5 89.5t130.5 32.5q72 0 134.5 -30
t100 -85t37.5 -126q0 -54 -22 -100.5t-58 -78.5l-237 -239h292z" />
    <glyph glyph-name="uni00B3" unicode="&#xb3;" horiz-adv-x="726" 
d="M326 987.5q-5 3.5 -5 11.5v103q0 24 24 24q44 0 62.5 23.5t18.5 56.5q0 38 -14 62t-60 24q-41 0 -56 -25t-15 -67q0 -13 -6 -19.5t-20 -6.5h-90q-24 0 -24 23q0 116 60 171.5t156 55.5q57 0 106 -28.5t78 -77.5t29 -107q0 -83 -51 -134q52 -34 77 -82.5t25 -121.5
q0 -71 -33.5 -130t-91.5 -92.5t-129 -33.5q-108 0 -185.5 62.5t-77.5 218.5q0 17 23 23h97q23 0 23 -23q0 -138 114 -138q52 0 84 30t32 85q0 109 -132 109q-14 0 -19 3.5z" />
    <glyph glyph-name="uni00B9" unicode="&#xb9;" horiz-adv-x="449" 
d="M300.5 1420q6.5 -7 6.5 -18v-733q0 -27 -26 -27h-94q-12 0 -19 7t-7 19v614l-72 -30q-4 -2 -11 -2q-8 0 -15 5.5t-8 13.5l-1 78q0 14 3 22t14 13l98 40q14 5 28 5h86q11 0 17.5 -7z" />
    <glyph glyph-name="ordmasculine" unicode="&#xba;" horiz-adv-x="981" 
d="M158.5 1264.5q49.5 84.5 134 134t183.5 49.5q100 0 184 -49.5t133.5 -134t49.5 -184.5q0 -105 -50.5 -189t-134.5 -130.5t-182 -46.5q-100 0 -184 49t-133.5 133t-49.5 184t49.5 184.5zM273.5 962q31.5 -53 85 -84t116.5 -31q64 0 117.5 31t85 84t31.5 117
q0 63 -31.5 116.5t-85 85t-117.5 31.5q-63 0 -116.5 -31.5t-85 -85t-31.5 -116.5q0 -64 31.5 -117z" />
    <glyph glyph-name="ordfeminine" unicode="&#xaa;" horiz-adv-x="981" 
d="M666 795.5q-29 -27.5 -77.5 -46t-121.5 -18.5q-97 0 -179.5 48t-130.5 129.5t-48 178.5q0 98 48 180t129 130t176 48q170 -1 266 -142l6 97q3 29 30 29h51q12 0 20 -7.5t8 -21.5l5 -632q0 -10 -7.5 -19t-20.5 -9h-67q-16 0 -23 9.5t-7 21.5v94q-28 -42 -57 -69.5z
M263.5 970.5q31.5 -53.5 85 -84.5t117.5 -31t117 31t84 84.5t31 117.5q0 63 -31 116.5t-84.5 85t-116.5 31.5q-64 0 -117.5 -31.5t-85 -85t-31.5 -116.5q0 -64 31.5 -117.5z" />
    <glyph glyph-name="onequarter" unicode="&#xbc;" horiz-adv-x="1442" 
d="M384.5 1420q6.5 -7 6.5 -18v-733q0 -27 -26 -27h-94q-12 0 -19 7t-7 19v614l-72 -30q-4 -2 -11 -2q-8 0 -15 5.5t-8 13.5l-1 78q0 14 3 22t14 13l98 40q14 5 28 5h86q11 0 17.5 -7zM1026 1424h101q29 0 29 -23q0 -10 -5 -20l-746 -1362q-8 -12 -15.5 -15.5t-17.5 -3.5
h-100q-11 1 -17 8t-6 16q0 10 5 16l739 1365q9 19 33 19zM828 113q-7 9 -7 23q0 8 8 24l357 609q6 10 10 13t11 3h100q9 0 15 -8t6 -17v-508h77q13 0 21.5 -6t8.5 -17v-100q0 -10 -9 -17.5t-21 -7.5h-77v-95q0 -23 -26 -23h-95q-23 0 -23 23v95h-333q-16 0 -23 9zM1184 511
l-150 -259h150v259z" />
    <glyph glyph-name="onehalf" unicode="&#xbd;" horiz-adv-x="1567" 
d="M384.5 1420q6.5 -7 6.5 -18v-733q0 -27 -26 -27h-94q-12 0 -19 7t-7 19v614l-72 -30q-4 -2 -11 -2q-8 0 -15 5.5t-8 13.5l-1 78q0 14 3 22t14 13l98 40q14 5 28 5h86q11 0 17.5 -7zM1081 1424h101q29 0 29 -23q0 -10 -5 -20l-746 -1362q-8 -12 -15.5 -15.5t-17.5 -3.5
h-100q-11 1 -17 8t-6 16q0 10 5 16l739 1365q9 19 33 19zM1542 143q25 0 25 -25v-89q0 -25 -25 -25h-486q-11 0 -19 7t-8 18v80q0 8 4 13l344 353q23 24 30.5 41t7.5 41q0 30 -16 55.5t-44 41t-60 15.5t-58.5 -17t-42 -44t-15.5 -57v-44q0 -23 -24 -23h-97q-11 0 -17 7
t-6 16v44q0 72 35 129t94.5 89.5t130.5 32.5q72 0 134.5 -30t100 -85t37.5 -126q0 -54 -22 -100.5t-58 -78.5l-237 -239h292z" />
    <glyph glyph-name="threequarters" unicode="&#xbe;" horiz-adv-x="1471" 
d="M317 987.5q-5 3.5 -5 11.5v103q0 24 24 24q44 0 62.5 23.5t18.5 56.5q0 38 -14 62t-60 24q-41 0 -56 -25t-15 -67q0 -13 -6 -19.5t-20 -6.5h-90q-24 0 -24 23q0 116 60 171.5t156 55.5q57 0 106 -28.5t78 -77.5t29 -107q0 -83 -51 -134q52 -34 77 -82.5t25 -121.5
q0 -71 -33.5 -130t-91.5 -92.5t-129 -33.5q-108 0 -185.5 62.5t-77.5 218.5q0 17 23 23h97q23 0 23 -23q0 -138 114 -138q52 0 84 30t32 85q0 109 -132 109q-14 0 -19 3.5zM1093 1424h101q29 0 29 -23q0 -10 -5 -20l-746 -1362q-8 -12 -15.5 -15.5t-17.5 -3.5h-100
q-11 1 -17 8t-6 16q0 10 5 16l739 1365q9 19 33 19zM786 117q-7 9 -7 23q0 8 8 24l357 609q6 10 10 13t11 3h100q9 0 15 -8t6 -17v-508h77q13 0 21.5 -6t8.5 -17v-100q0 -10 -9 -17.5t-21 -7.5h-77v-95q0 -23 -26 -23h-95q-23 0 -23 23v95h-333q-16 0 -23 9zM1142 515
l-150 -259h150v259z" />
    <glyph glyph-name="logicalnot" unicode="&#xac;" horiz-adv-x="1116" 
d="M136 618q-9 7 -10 19l-1 65q-2 17 7 28t28 11h759q18 0 26 -8t8 -26v-390q0 -15 -6.5 -24t-20.5 -9h-66q-17 0 -27.5 9t-10.5 24v294h-662q-15 0 -24 7z" />
    <glyph glyph-name="divide" unicode="&#xf7;" horiz-adv-x="910" 
d="M399.5 1204q7.5 7 18.5 7h128q26 0 26 -27v-120q0 -12 -7.5 -19t-16.5 -7h-132q-8 0 -16 6t-8 19v122q0 12 7.5 19zM793 671.5q12 -11.5 12 -31.5v-98q0 -18 -11.5 -32t-30.5 -14h-623q-44 0 -44 46v98q0 43 44 43h623q18 0 30 -11.5zM399.5 165q7.5 7 18.5 7h128
q26 0 26 -27v-120q0 -12 -7.5 -19t-16.5 -7h-132q-8 0 -16 6t-8 19v121q0 13 7.5 20z" />
    <glyph glyph-name="uni2070" unicode="&#x2070;" horiz-adv-x="948" 
d="M160.5 1250q52.5 90 141.5 142.5t195 52.5t196.5 -53t144 -142.5t53.5 -195.5t-53.5 -195.5t-144 -142t-196.5 -52.5t-195 52.5t-141.5 142t-52.5 195.5t52.5 196zM295 935q31 -55 84.5 -87t117.5 -32t118.5 32.5t86.5 87t32 118.5q0 63 -32 117.5t-86.5 87t-118.5 32.5
t-117.5 -32t-84.5 -86.5t-31 -118.5t31 -119z" />
    <glyph glyph-name="multiply" unicode="&#xd7;" horiz-adv-x="895" 
d="M154 411q0 12 11 23l185 185l-182 183q-11 11 -11 23q0 10 9 19l64 64q9 9 20 9q14 0 23 -11l182 -182l188 188q9 9 20 9t21 -9l70 -71q8 -8 8 -19q0 -13 -9 -22l-187 -187l185 -185q9 -9 9 -21q0 -11 -9 -20l-65 -64q-8 -8 -19 -8q-12 0 -21 9l-185 184l-186 -185
q-11 -11 -23 -11q-10 0 -19 9l-70 70q-9 9 -9 20z" />
    <glyph glyph-name="copyright" unicode="&#xa9;" horiz-adv-x="1686" 
d="M207.5 1092.5q98.5 168.5 267.5 267.5t369 99q197 0 365.5 -99t268 -268t99.5 -368q0 -198 -99 -366.5t-268 -267t-368 -98.5t-367.5 98.5t-267 267t-98.5 368.5q0 198 98.5 366.5zM317.5 417.5q82.5 -138.5 222 -219.5t301.5 -81q166 0 306.5 85t223 226t82.5 301
q0 166 -83.5 304t-222.5 217.5t-297 79.5q-169 0 -310 -85t-223 -225.5t-82 -300.5q0 -163 82.5 -301.5zM1151 1049q0 -7 -5 -15l-38 -67q-8 -15 -21 -15q-9 0 -24 9q-91 57 -187 57q-83 0 -151.5 -40.5t-108.5 -109t-40 -148.5q0 -82 39.5 -150t108 -108t151.5 -41
q106 0 188 60q9 6 18 6q14 0 23 -12l37 -62q7 -10 7 -21q0 -13 -14 -24q-53 -44 -122 -66.5t-145 -22.5q-120 0 -221 59t-160 161t-59 223q0 120 59.5 221t161.5 160.5t222 59.5q149 0 261 -84q20 -15 20 -30z" />
    <glyph glyph-name="registered" unicode="&#xae;" horiz-adv-x="1686" 
d="M1209.5 1346q167.5 -99 266.5 -268t99 -369q0 -197 -98.5 -364.5t-267 -266.5t-368.5 -99q-197 0 -365 98.5t-267.5 267.5t-99.5 369q0 197 99 365t268 267t369 99q197 0 364.5 -99zM542 1219q-137 -78 -217 -212.5t-80 -297.5q0 -151 78 -286t212.5 -217t295.5 -82
q167 0 308 78t224 213t83 296t-80.5 295.5t-218.5 212.5t-304 78q-164 0 -301 -78zM562 1117h334q70 -2 129 -38t93.5 -96t34.5 -130q0 -74 -34 -133t-95 -97l138 -289q0 -2 1 -3.5t1 -3.5q0 -19 -25 -19h-119q-13 0 -21 17l-121 264h-190v-258q0 -23 -25 -23h-101
q-25 0 -25 23v759q0 27 25 27zM989 910.5q-14 26.5 -39.5 43t-58.5 16.5h-203v-231h203q50 0 81 33t31 83q0 29 -14 55.5z" />
    <glyph glyph-name="B" unicode="B" horiz-adv-x="1302" 
d="M189 1427h601q104 0 187 -50.5t130.5 -138t47.5 -193.5q0 -196 -133 -287q63 -30 110.5 -86t74 -128t26.5 -148q0 -104 -54.5 -195.5t-145 -146t-192.5 -54.5h-652q-33 0 -33 34v1360q0 33 33 33zM342 827h404q104 0 164.5 56.5t60.5 156.5q0 99 -60 153t-163 54h-406
v-420zM342 180h476q75 0 126 33t75.5 84t24.5 104q0 73 -34.5 128.5t-89 85t-110.5 29.5h-468v-464z" />
    <glyph glyph-name="G" unicode="G" horiz-adv-x="1415" 
d="M998 183.5q80 22.5 131 61.5v350q0 36 34 36h111q33 0 33 -36v-430q0 -26 -18 -38q-94 -69 -207 -107t-240 -38q-199 0 -368.5 98t-268.5 266t-99 368t98.5 367.5t267 265t368.5 97.5q128 0 236.5 -39t203.5 -113q17 -13 17 -29q0 -10 -6 -18l-66 -95q-7 -12 -24 -12
q-13 0 -25 9q-153 117 -334 117q-154 0 -279.5 -73t-197 -198.5t-71.5 -278.5q0 -150 71.5 -277t195.5 -201.5t274 -74.5q83 0 163 22.5z" />
    <glyph glyph-name="quotesinglbase" unicode="&#x201a;" horiz-adv-x="507" 
d="M194 180h120q30 0 30 -33v-108q0 -85 -24 -143.5t-76 -110.5q-10 -10 -20 -10q-9 0 -16 7l-34 32q-8 7 -8 14q0 9 10 19q36 36 48.5 73t12.5 62q0 17 -13 17h-32q-29 0 -29 33v114q0 34 31 34z" />
    <glyph glyph-name="quotedblbase" unicode="&#x201e;" horiz-adv-x="582" 
d="M127 180h120q30 0 30 -33v-108q0 -85 -24 -143.5t-76 -110.5q-10 -10 -20 -10q-9 0 -16 7l-34 32q-8 7 -8 14q0 9 10 19q36 36 48.5 73t12.5 62q0 17 -13 17h-32q-29 0 -29 33v114q0 34 31 34zM409 180h120q30 0 30 -33v-108q0 -85 -24 -143.5t-76 -110.5
q-10 -10 -20 -10q-9 0 -16 7l-34 32q-8 7 -8 14q0 9 10 19q36 36 48.5 73t12.5 62q0 17 -13 17h-32q-29 0 -29 33v114q0 34 31 34z" />
    <glyph glyph-name="guilsinglleft" unicode="&#x2039;" horiz-adv-x="828" 
d="M56 541.5q2 3.5 8 9.5l512 512q11 11 27 11q10 0 17 -7l62 -60q11 -11 11 -25q0 -13 -11 -24l-428 -426l428 -422q11 -11 11 -24q0 -14 -11 -25l-62 -61q-7 -7 -17 -7q-15 0 -27 12l-512 509q-5 5 -7.5 9t-2.5 9q0 6 2 9.5z" />
    <glyph glyph-name="Ccaron" unicode="&#x10c;" horiz-adv-x="1365" 
d="M804 1538h-2q-11 0 -23 12l-230 232q-13 13 -13 21t11 19l46 45q11 11 20 11q10 0 21 -13l169 -170l167 167q15 15 25 15q9 0 18 -9l46 -44q10 -10 10 -20q0 -11 -15 -26l-226 -228q-12 -12 -24 -12zM1193 294q12 0 22 -11l66 -97q9 -12 9 -22q0 -14 -18 -29
q-90 -72 -200.5 -112.5t-236.5 -40.5q-200 0 -369 98t-268.5 266t-99.5 368t99 367.5t268.5 265t369.5 97.5q126 0 236.5 -40.5t202.5 -112.5q16 -12 16 -29q0 -10 -4 -16l-70 -100q-9 -11 -24 -11q-13 0 -26 10q-75 58 -156 88.5t-175 30.5q-152 0 -278.5 -73t-200 -199
t-73.5 -278t73.5 -278t200 -199.5t278.5 -73.5q175 0 329 118q16 13 29 13z" />
    <glyph glyph-name="Dcaron" unicode="&#x10e;" horiz-adv-x="1482" 
d="M588 1551h-2q-11 0 -23 12l-230 232q-13 13 -13 21t11 19l46 45q11 11 20 11q10 0 21 -13l169 -170l167 167q15 15 25 15q9 0 18 -9l46 -44q10 -10 10 -20q0 -11 -15 -26l-226 -228q-12 -12 -24 -12zM187 1426h457q200 0 368 -97.5t265.5 -262t97.5 -354.5
q0 -192 -96 -355.5t-262.5 -260t-365.5 -96.5h-464q-33 0 -33 34v1359q0 33 33 33zM1114.5 983.5q-73.5 123.5 -201.5 196t-284 72.5h-289v-1078h289q156 0 284 72t201.5 195t73.5 271t-73.5 271.5z" />
    <glyph glyph-name="Ecaron" unicode="&#x11a;" horiz-adv-x="1233" 
d="M670 1553h-2q-11 0 -23 12l-230 232q-13 13 -13 21t11 19l46 45q11 11 20 11q10 0 21 -13l169 -170l167 167q15 15 25 15q9 0 18 -9l46 -44q10 -10 10 -20q0 -11 -15 -26l-226 -228q-12 -12 -24 -12zM189 1427h940q36 0 36 -33v-120q0 -34 -36 -34h-787v-396h609
q18 0 28.5 -8.5t10.5 -25.5v-118q0 -17 -10.5 -25t-28.5 -8h-609v-470h786q36 0 36 -33v-122q0 -34 -36 -34h-939q-33 0 -33 34v1360q0 33 33 33z" />
    <glyph glyph-name="Idotaccent" unicode="&#x130;" 
d="M195 1773h106q37 0 37 -41v-102q0 -22 -9 -30.5t-28 -8.5h-105q-21 0 -30.5 8.5t-9.5 29.5v104q0 40 39 40zM162.5 1417.5q8.5 9.5 24.5 9.5h120q33 0 33 -36v-1354q0 -37 -33 -37h-120q-33 0 -33 37v1354q0 17 8.5 26.5z" />
    <glyph glyph-name="Ncaron" unicode="&#x147;" horiz-adv-x="1516" 
d="M804 1538h-2q-11 0 -23 12l-230 232q-13 13 -13 21t11 19l46 45q11 11 20 11q10 0 21 -13l169 -170l167 167q15 15 25 15q9 0 18 -9l46 -44q10 -10 10 -20q0 -11 -15 -26l-226 -228q-12 -12 -24 -12zM334 37q0 -37 -35 -37h-111q-34 0 -34 37v1355q0 14 9 24t25 10h131
q25 0 46 -29l815 -1083v1078q0 15 9 24.5t26 9.5h111q15 0 25 -9.5t10 -24.5v-1355q0 -37 -35 -37h-120q-27 0 -46 28l-826 1122v-1113z" />
    <glyph glyph-name="Rcaron" unicode="&#x158;" horiz-adv-x="1319" 
d="M652 1566h-2q-11 0 -23 12l-230 232q-13 13 -13 21t11 19l46 45q11 11 20 11q10 0 21 -13l169 -170l167 167q15 15 25 15q9 0 18 -9l46 -44q10 -10 10 -20q0 -11 -15 -26l-226 -228q-12 -12 -24 -12zM341 517v-483q0 -34 -33 -34h-120q-32 0 -32 34v1360q0 33 32 33h582
q124 0 224.5 -63.5t157 -169t56.5 -227.5q0 -83 -31.5 -162t-90 -142.5t-135.5 -100.5l253 -522q3 -6 3 -13q0 -11 -7.5 -19t-19.5 -8h-136q-12 0 -20.5 6t-16.5 22l-230 491zM341 702h390q84 0 149 33t101.5 94t36.5 141t-36.5 142.5t-101.5 97t-149 34.5h-390v-542z" />
    <glyph glyph-name="Tcaron" unicode="&#x164;" horiz-adv-x="1190" 
d="M592 1562h-2q-11 0 -23 12l-230 232q-13 13 -13 21t11 19l46 45q11 11 20 11q10 0 21 -13l169 -170l167 167q15 15 25 15q9 0 18 -9l46 -44q10 -10 10 -20q0 -11 -15 -26l-226 -228q-12 -12 -24 -12zM86 1427h1012q32 0 32 -34v-118q0 -34 -32 -34h-413v-1207
q0 -34 -33 -34h-120q-34 0 -34 34v1207h-412q-34 0 -34 34v118q0 34 34 34z" />
    <glyph glyph-name="at" unicode="@" horiz-adv-x="1849" 
d="M1330 -129q10 0 17 -11l69 -101q4 -5 4 -13q0 -15 -18 -27q-200 -125 -447 -125q-238 2 -439.5 120t-319 318.5t-117.5 437.5t117.5 441t320.5 324.5t445 120.5q204 0 380.5 -87.5t282.5 -251t106 -381.5q0 -165 -45 -294t-131.5 -203t-208.5 -74q-45 0 -102 20.5
t-88 76.5q-104 -131 -259 -131q-120 0 -220 59.5t-157.5 162t-57.5 224.5t57.5 224t157.5 162t220 60q176 0 251 -146l29 97q2 20 10 26.5t28 6.5h49q13 0 25 -6q6 -5 8.5 -10.5t2.5 -14.5v-573q0 -42 19 -53.5t59 -11.5q72 0 115 65.5t60.5 157.5t17.5 180
q0 161 -78.5 285.5t-214.5 192.5t-304 68q-193 0 -361 -89t-269.5 -253t-101.5 -377q0 -183 101 -346.5t266 -262t344 -98.5q93 -1 178 24t178 80q16 6 21 6zM651.5 341.5q36.5 -61.5 99 -97.5t135.5 -36t134.5 35.5t97.5 97.5t36 136q0 73 -36 135t-97.5 98.5t-134.5 36.5
t-135 -36.5t-99 -98.5t-37 -135q0 -74 36.5 -135.5z" />
    <glyph glyph-name="O" unicode="O" horiz-adv-x="1688" 
d="M208 1080q99 168 267.5 266.5t367.5 98.5t366 -98.5t264.5 -266.5t97.5 -368q0 -199 -97.5 -366.5t-264.5 -265t-366 -97.5t-367.5 97.5t-267.5 265t-99 366.5q0 200 99 368zM368.5 435q72.5 -126 197.5 -199t277 -73q151 0 275 73t195 198.5t71 277.5t-71 278.5
t-195 200t-275 73.5t-276.5 -73.5t-198 -200t-72.5 -278.5q0 -151 72.5 -277z" />
    <glyph glyph-name="Q" unicode="Q" horiz-adv-x="1688" 
d="M208 1080q99 168 267.5 266.5t367.5 98.5q200 0 368 -98.5t266 -266.5t98 -368q0 -184 -84.5 -341.5t-231 -258.5t-324.5 -123v-261q0 -36 -33 -36h-120q-33 0 -33 36v261q-179 22 -325 123.5t-230.5 259t-84.5 340.5q0 200 99 368zM368.5 435q72.5 -126 197.5 -199
t277 -73q151 0 276 73t196.5 199t71.5 277q0 152 -71.5 278.5t-196.5 200t-276 73.5t-276.5 -73.5t-198 -200t-72.5 -278.5q0 -151 72.5 -277z" />
    <glyph glyph-name="a" unicode="a" horiz-adv-x="1478" 
d="M1313 0h-115q-39 0 -39 47v116q-41 -52 -111 -93.5t-155.5 -65.5t-170.5 -24q-156 0 -300.5 82.5t-234 226t-89.5 316.5q0 170 85.5 315.5t229.5 231.5t309 86q141 0 250.5 -49t186.5 -129v130q0 37 33 37h121q33 0 33 -37v-1153q0 -37 -33 -37zM1110 836.5
q-60 105.5 -162 167t-220 61.5t-217 -60.5t-157 -165.5t-58 -233q0 -124 60.5 -228t160.5 -164t211 -60q112 0 214 61t165 165t63 226q0 125 -60 230.5z" />
    <glyph glyph-name="b" unicode="b" horiz-adv-x="1488" 
d="M189 1582h120q33 0 33 -37v-488q75 77 188.5 129t253.5 52q170 0 310 -85.5t221 -231t81 -316.5q0 -173 -85.5 -317t-224 -227t-291.5 -83q-137 0 -259.5 49t-193.5 126v-97q0 -20 -13 -38t-32 -18h-108q-35 0 -35 37v1508q0 37 35 37zM389 384q55 -104 154.5 -166
t225.5 -62q119 0 219 57.5t158.5 158t58.5 225.5q0 126 -54.5 233t-152 170.5t-220.5 63.5q-127 0 -228.5 -63.5t-158.5 -168.5t-57 -225q0 -119 55 -223z" />
    <glyph glyph-name="d" unicode="d" horiz-adv-x="1478" 
d="M1305 0h-108q-19 0 -32 18t-13 38v97q-72 -77 -194 -126t-259 -49q-153 0 -291.5 83t-224 227t-85.5 317q0 171 81 316.5t221 231t310 85.5q140 0 253.5 -52t188.5 -129v488q0 37 33 37h120q35 0 35 -37v-1508q0 -37 -35 -37zM1103 832q-57 105 -158.5 168.5t-228.5 63.5
q-124 0 -221.5 -63.5t-151.5 -170.5t-54 -233q0 -125 58.5 -225.5t158.5 -158t219 -57.5q126 0 225.5 62t154.5 166t55 223q0 120 -57 225z" />
    <glyph glyph-name="e" unicode="e" horiz-adv-x="1453" 
d="M391 327.5q64 -81.5 150 -126t178 -44.5q76 0 131.5 16.5t91.5 39.5t80 59l22 18q12 10 25 10t20 -10l70 -93q9 -13 9 -24q0 -14 -13 -26q-97 -85 -200 -127t-231 -42q-167 0 -311.5 84.5t-230.5 228.5t-86 313q0 171 82.5 316.5t225 231t315.5 85.5q205 0 350 -89
t218.5 -238t73.5 -327q0 -41 -16.5 -54.5t-48.5 -13.5h-996q27 -106 91 -187.5zM537 1010q-90 -45 -151 -124.5t-84 -182.5h872q-22 103 -82 183t-152 124.5t-206 44.5q-107 0 -197 -45z" />
    <glyph glyph-name="f" unicode="f" horiz-adv-x="622" 
d="M92 962q-15 0 -23.5 8t-8.5 23v106q0 15 8.5 22t23.5 7h108v196q0 155 78.5 250.5t238.5 95.5q27 0 35.5 -11t8.5 -30v-104q0 -36 -45 -36q-80 0 -107 -54t-27 -132l1 -52v-123h144q32 0 32 -29v-106q0 -31 -32 -31h-144v-926q0 -36 -33 -36h-117q-33 0 -33 36v926h-108z
" />
    <glyph glyph-name="g" unicode="g" horiz-adv-x="1515" 
d="M1314 -140q-87 -133 -227.5 -199t-299.5 -66q-128 0 -223.5 29t-182.5 89q-18 12 -18 28q0 12 8 22l49 81q12 16 30 16q14 0 28 -9q78 -47 145.5 -66t177.5 -19q101 0 197 45t156 121t60 163v72q-158 -188 -441 -188q-161 0 -303 82.5t-228 228t-86 324.5q0 167 80.5 311
t217.5 229t299 85q151 0 264.5 -45.5t196.5 -134.5v125q3 42 39 42h123q12 0 18.5 -10t6.5 -27v-1004q0 -192 -87 -325zM1162 839q-58 103 -159.5 163t-225.5 60q-119 0 -217.5 -60.5t-155.5 -164t-57 -225.5q0 -135 63 -238.5t165 -159.5t215 -56q116 0 215 62t157 166.5
t58 226.5q0 123 -58 226z" />
    <glyph glyph-name="h" unicode="h" horiz-adv-x="1261" 
d="M945 860.5q-40 86.5 -116 140t-179 53.5q-86 0 -157.5 -41.5t-112.5 -111.5t-41 -153v-710q0 -18 -8.5 -28t-25.5 -10h-116q-35 0 -35 38v1506q0 18 9 28t26 10h116q17 0 25.5 -10t8.5 -28v-448q52 52 97 82t102.5 45.5t137.5 15.5q151 0 262.5 -76.5t171 -209
t59.5 -297.5l1 -618q0 -18 -8.5 -28t-25.5 -10h-116q-35 0 -35 38v640q0 96 -40 182.5z" />
    <glyph glyph-name="i" unicode="i" 
d="M163.5 1571q9.5 11 30.5 11h109q37 0 37 -43v-106q0 -22 -9 -30t-28 -8h-108q-21 0 -31 8.5t-10 28.5v109q0 19 9.5 30zM163.5 1217q9.5 9 24.5 9h118q16 0 25 -9.5t9 -25.5v-1155q0 -36 -34 -36h-118q-34 0 -34 36v1155q0 17 9.5 26z" />
    <glyph glyph-name="j" unicode="j" 
d="M171.5 1575q9.5 11 30.5 11h109q37 0 37 -43v-106q0 -22 -9 -30t-28 -8h-108q-21 0 -31 8.5t-10 28.5v109q0 19 9.5 30zM194 1226h127q33 0 33 -37v-1186q0 -168 -78 -275t-253 -107q-25 0 -36.5 11t-11.5 22v93q0 36 44 36q77 0 108.5 60t31.5 173v1173q0 37 35 37z" />
    <glyph glyph-name="k" unicode="k" horiz-adv-x="1198" 
d="M1115 57q10 -13 10 -26t-9.5 -22t-23.5 -9h-152q-12 0 -22.5 6t-22.5 21l-432 529l-124 -128v-391q0 -37 -32 -37h-118q-33 0 -33 37v1510q0 35 33 35h118q32 0 32 -35v-885l507 544q13 13 23.5 16.5t25.5 3.5h138q17 0 27.5 -9.5t10.5 -22.5q0 -14 -12 -25l-475 -493z
" />
    <glyph glyph-name="l" unicode="l" 
d="M163 1572q9 10 26 10h116q17 0 25.5 -10t8.5 -28v-1506q0 -18 -8.5 -28t-25.5 -10h-116q-35 0 -35 38v1506q0 18 9 28z" />
    <glyph glyph-name="m" unicode="m" horiz-adv-x="2072" 
d="M305 0h-115q-34 0 -34 37v1152q0 38 34 38h110q17 0 30 -12.5t13 -29.5v-116q61 85 147.5 127t186.5 42q132 0 237 -60t154 -159q55 106 157.5 162.5t239.5 56.5q150 0 260 -66.5t168 -181t58 -257.5v-696q0 -37 -33 -37h-113q-35 0 -35 37v700q0 75 -35.5 148.5
t-108 122.5t-177.5 49q-91 0 -160.5 -47.5t-106.5 -121t-37 -148.5v-704q0 -36 -33 -36h-114q-35 0 -35 36v705q0 71 -35.5 144t-105 122t-165.5 49q-66 0 -139.5 -31.5t-125 -100t-51.5 -173.5v-714q0 -37 -36 -37z" />
    <glyph glyph-name="n" unicode="n" horiz-adv-x="1261" 
d="M326.5 10q-12.5 -10 -30.5 -10h-108q-34 0 -34 37v1151q0 38 34 38h122q29 0 29 -42v-127q138 182 360 182q129 0 236 -63.5t169.5 -181.5t62.5 -273v-685q0 -36 -33 -36h-115q-36 0 -36 36v674q0 91 -37.5 170t-110 127.5t-173.5 48.5q-78 0 -152.5 -40t-122.5 -118
t-48 -185v-676q0 -17 -12.5 -27z" />
    <glyph glyph-name="o" unicode="o" horiz-adv-x="1457" 
d="M186 925q84 144 228 228.5t315 84.5q172 0 316 -84.5t228 -229t84 -315.5t-84 -316.5t-227.5 -231t-315.5 -85.5q-170 0 -314.5 85.5t-229 231t-84.5 316.5q0 172 84 316zM350 382q61 -104 162.5 -164.5t217.5 -60.5q128 0 227 60t153.5 163t54.5 229t-55.5 229.5
t-155 163.5t-225.5 60q-117 0 -218 -60.5t-161.5 -164.5t-60.5 -228q0 -123 61 -227z" />
    <glyph glyph-name="p" unicode="p" horiz-adv-x="1496" 
d="M191 1226h108q19 0 32 -18t13 -38v-98q71 77 193.5 126t259.5 49q153 0 291.5 -83t224 -227t85.5 -317q0 -171 -81 -316.5t-221 -231t-310 -85.5q-140 0 -254.5 52t-187.5 129v-498q0 -37 -33 -37h-120q-35 0 -35 37v1519q0 37 35 37zM393 393q57 -105 158.5 -168.5
t228.5 -63.5q123 0 220.5 63.5t152 170.5t54.5 233q0 125 -58.5 225.5t-158.5 158t-219 57.5q-126 0 -225.5 -62.5t-154.5 -166t-55 -222.5q0 -120 57 -225z" />
    <glyph glyph-name="q" unicode="q" horiz-adv-x="1496" 
d="M1295 -367h-120q-33 0 -33 37v498q-73 -77 -187.5 -129t-254.5 -52q-170 0 -310 85.5t-221 231t-81 316.5q0 173 85.5 317t224 227t291.5 83q137 0 259 -49t194 -126v118q0 19 7.5 27.5t27.5 8.5h118q35 0 35 -37v-1519q0 -37 -35 -37zM1095 840.5q-55 103.5 -154.5 166
t-225.5 62.5q-119 0 -219 -57.5t-158.5 -158t-58.5 -225.5q0 -126 54 -233t151.5 -170.5t221.5 -63.5q127 0 228.5 63.5t158.5 168.5t57 225q0 119 -55 222.5z" />
    <glyph glyph-name="r" unicode="r" horiz-adv-x="993" 
d="M184 1227h118q18 0 26.5 -8t8.5 -31v-93q54 79 118 112t158 33q96 0 179.5 -38.5t132.5 -82.5q21 -18 21 -33q0 -9 -7 -20l-54 -87q-9 -14 -24 -14q-13 0 -27 10q-49 31 -77 46.5t-70 27t-95 11.5q-112 0 -184.5 -69t-72.5 -223v-731q0 -37 -34 -37h-117q-34 0 -34 37
v1154q0 36 34 36z" />
    <glyph glyph-name="s" unicode="s" horiz-adv-x="996" 
d="M56 271q0 9 5.5 15t18.5 12l91 42q9 4 18 4q14 0 23 -9.5t17 -26.5q19 -47 64 -80.5t97 -51t91 -17.5q64 0 122.5 20t95.5 61.5t37 102.5q0 58 -33.5 93.5t-81.5 54t-130 39.5l-32 8q-179 48 -273 136t-94 223q0 102 46.5 179.5t134 120.5t205.5 43q134 0 225 -52.5
t164 -155.5q13 -19 13 -32q0 -14 -18 -28l-75 -57q-14 -10 -24 -10q-8 0 -16 6t-18 19q-39 45 -68.5 71.5t-73.5 44.5t-103 18q-90 0 -149.5 -43t-59.5 -127q0 -42 36.5 -78t92 -62t111.5 -39q193 -44 301 -135.5t108 -236.5q0 -109 -56.5 -190.5t-157.5 -125.5t-229 -44
q-84 0 -168 28.5t-151 86t-99 140.5q-7 20 -7 33z" />
    <glyph glyph-name="t" unicode="t" horiz-adv-x="622" 
d="M527 1226q16 0 25.5 -9t9.5 -26v-100q0 -15 -10.5 -24.5t-26.5 -9.5h-137v-740q0 -66 26.5 -112.5t91.5 -48.5l34 -1q29 0 36.5 -8.5t7.5 -22.5v-110q0 -14 -8.5 -21t-36.5 -7q-162 0 -248.5 80.5t-86.5 220.5v770h-122q-15 0 -25.5 8.5t-10.5 25.5v98q0 18 10.5 27.5
t25.5 9.5h122v193q0 17 7.5 25.5t26.5 13.5l115 18q3 1 9 1q12 0 19 -11t7 -27v-213h139z" />
    <glyph glyph-name="u" unicode="u" horiz-adv-x="1267" 
d="M840 6q-83 -36 -204 -36q-153 0 -261.5 69t-164.5 187t-56 265v691q0 23 7.5 34t31.5 11h112q21 0 28 -10.5t7 -31.5v-694q0 -85 31 -161.5t100 -126t178 -49.5q77 0 154 36t127 105t50 162v728q0 42 42 42h99q45 0 45 -42v-1144q0 -18 -12 -30t-30 -12h-100
q-20 0 -32 12t-12 30v71q-57 -70 -140 -106z" />
    <glyph glyph-name="v" unicode="v" horiz-adv-x="1142" 
d="M622 -1h-82q-27 0 -39 30l-468 1145q-5 13 -5 22q0 14 10.5 22.5t25.5 8.5h114q28 0 38 -30l366 -904l357 906q10 28 38 28h121q13 0 21.5 -7t8.5 -19q0 -9 -6 -23l-461 -1149q-12 -30 -39 -30z" />
    <glyph glyph-name="w" unicode="w" horiz-adv-x="1853" 
d="M1325 -1h-81q-25 0 -38 30l-270 654l-262 -654q-12 -30 -39 -30h-85q-26 0 -38 30l-476 1145q-5 13 -5 22q0 14 10.5 22.5t25.5 8.5h114q26 0 38 -30l370 -896l344 897q11 28 38 28h131q13 0 21.5 -7t8.5 -20q0 -9 -5 -22l-95 -245l254 -638l347 904q10 28 37 28h132
q13 0 21.5 -7t8.5 -19q0 -9 -6 -23l-462 -1148q-12 -30 -39 -30z" />
    <glyph glyph-name="y" unicode="y" horiz-adv-x="1142" 
d="M475 -367h-109q-18 0 -30.5 8.5t-12.5 26.5q0 10 6 25l151 384l-444 1097q-5 13 -5 20q0 15 11.5 24t26.5 9h121q26 0 38 -30l353 -914l358 914q10 30 38 30h119q18 0 27 -8t9 -21q0 -9 -5 -22l-613 -1514q-11 -29 -39 -29z" />
    <glyph glyph-name="z" unicode="z" horiz-adv-x="1204" 
d="M1084 175q15 0 24.5 -8.5t9.5 -21.5v-114q0 -15 -11 -23t-23 -8h-969q-15 0 -22.5 10t-7.5 26v84q0 25 20 45l789 888h-775q-15 0 -24.5 9t-9.5 21v113q0 15 11 23t23 8h958q18 0 30 -8t12 -27l-1 -114q0 -23 -13 -39l-768 -864h747z" />
    <glyph glyph-name="c" unicode="c" horiz-adv-x="1210" 
d="M1032 297q13 0 19 -10l72 -94q9 -12 9 -23q0 -15 -16 -28q-85 -72 -191 -119.5t-219 -47.5q-172 0 -317.5 84.5t-231.5 229.5t-86 320t87.5 319t233 227t310.5 83q114 0 219 -39.5t190 -111.5q13 -12 13 -25q0 -7 -5 -17l-75 -98q-3 -4 -9.5 -7.5t-13.5 -3.5q-11 0 -20 8
q-73 62 -144.5 90t-149.5 28q-119 0 -222 -57.5t-164.5 -161t-61.5 -235.5q0 -128 58.5 -231t160 -161.5t225.5 -58.5q66 0 120 18.5t93.5 45t89.5 67.5q12 9 26 9z" />
    <glyph glyph-name="Obreve" unicode="&#x14e;" horiz-adv-x="1688" 
d="M739.5 1598.5q-60.5 34.5 -95.5 90t-35 115.5q0 17 10.5 26.5t26.5 9.5h77q17 0 27 -10.5t10 -25.5q0 -26 13 -50.5t40 -40.5t65 -16q34 0 60 16.5t40 41.5t14 49q0 16 8.5 26t25.5 10h79q16 0 26.5 -9.5t10.5 -26.5q0 -62 -36 -117t-97.5 -89t-135.5 -35
q-73 1 -133.5 35.5zM208 1080q99 168 267.5 266.5t367.5 98.5t366 -98.5t264.5 -266.5t97.5 -368q0 -199 -97.5 -366.5t-264.5 -265t-366 -97.5t-367.5 97.5t-267.5 265t-99 366.5q0 200 99 368zM368.5 435q72.5 -126 197.5 -199t277 -73q151 0 275 73t195 198.5t71 277.5
t-71 278.5t-195 200t-275 73.5t-276.5 -73.5t-198 -200t-72.5 -278.5q0 -151 72.5 -277z" />
    <glyph glyph-name="Ocircumflex" unicode="&#xd4;" horiz-adv-x="1688" 
d="M873 1898q12 0 24 -13l37 -37q0 -1 1 -1q0 -2 2 -2l185 -184q13 -15 13 -26t-11 -24l-38 -37q-10 -10 -23 -10q-14 0 -27 11l-164 165l-166 -166q-14 -12 -26 -12t-22 10l-37 37q-11 10 -11 23t12 25l227 228q12 13 24 13zM208 1080q99 168 267.5 266.5t367.5 98.5
t366 -98.5t264.5 -266.5t97.5 -368q0 -199 -97.5 -366.5t-264.5 -265t-366 -97.5t-367.5 97.5t-267.5 265t-99 366.5q0 200 99 368zM368.5 435q72.5 -126 197.5 -199t277 -73q151 0 275 73t195 198.5t71 277.5t-71 278.5t-195 200t-275 73.5t-276.5 -73.5t-198 -200
t-72.5 -278.5q0 -151 72.5 -277z" />
    <glyph glyph-name="Odieresis" unicode="&#xd6;" horiz-adv-x="1688" 
d="M587 1751h106q20 0 28.5 -10.5t8.5 -31.5v-102q0 -22 -9 -30.5t-28 -8.5h-105q-40 0 -40 38v105q0 40 39 40zM967 1751h106q20 0 28.5 -10.5t8.5 -31.5v-102q0 -22 -9 -30.5t-28 -8.5h-105q-40 0 -40 38v105q0 40 39 40zM208 1080q99 168 267.5 266.5t367.5 98.5
t366 -98.5t264.5 -266.5t97.5 -368q0 -199 -97.5 -366.5t-264.5 -265t-366 -97.5t-367.5 97.5t-267.5 265t-99 366.5q0 200 99 368zM368.5 435q72.5 -126 197.5 -199t277 -73q151 0 275 73t195 198.5t71 277.5t-71 278.5t-195 200t-275 73.5t-276.5 -73.5t-198 -200
t-72.5 -278.5q0 -151 72.5 -277z" />
    <glyph glyph-name="Ohungarumlaut" unicode="&#x150;" horiz-adv-x="1688" 
d="M757.5 1569.5q-8.5 -5.5 -22.5 -5.5h-101q-12 0 -21.5 7t-9.5 20q0 6 5 18l116 221q9 17 17.5 23t21.5 6h99q12 -1 20.5 -9.5t8.5 -20.5q0 -7 -5 -17l-111 -218q-9 -19 -17.5 -24.5zM1118.5 1569.5q-8.5 -5.5 -22.5 -5.5h-102q-11 0 -20.5 7.5t-9.5 19.5q0 6 5 18
l114 221q10 17 18 23t22 6h100q12 -1 20.5 -9.5t8.5 -20.5q0 -7 -5 -17l-112 -218q-8 -19 -16.5 -24.5zM208 1080q99 168 267.5 266.5t367.5 98.5t366 -98.5t264.5 -266.5t97.5 -368q0 -199 -97.5 -366.5t-264.5 -265t-366 -97.5t-367.5 97.5t-267.5 265t-99 366.5
q0 200 99 368zM368.5 435q72.5 -126 197.5 -199t277 -73q151 0 275 73t195 198.5t71 277.5t-71 278.5t-195 200t-275 73.5t-276.5 -73.5t-198 -200t-72.5 -278.5q0 -151 72.5 -277z" />
    <glyph glyph-name="aring" unicode="&#xe5;" horiz-adv-x="1478" 
d="M845 1735q46 -27 73.5 -73t27.5 -100q0 -55 -27 -101t-73.5 -72.5t-101.5 -26.5q-54 0 -100 26.5t-72.5 72.5t-26.5 101q0 54 27 100t72.5 73t99.5 27q55 0 101 -27zM675 1632.5q-27 -28.5 -27 -70.5q0 -43 27 -71t71 -28q45 0 72.5 28t27.5 71q0 42 -29.5 70.5
t-72.5 28.5q-42 0 -69 -28.5zM1313 0h-115q-39 0 -39 47v116q-41 -52 -111 -93.5t-155.5 -65.5t-170.5 -24q-156 0 -300.5 82.5t-234 226t-89.5 316.5q0 170 85.5 315.5t229.5 231.5t309 86q141 0 250.5 -49t186.5 -129v130q0 37 33 37h121q33 0 33 -37v-1153q0 -37 -33 -37
zM1110 836.5q-60 105.5 -162 167t-220 61.5t-217 -60.5t-157 -165.5t-58 -233q0 -124 60.5 -228t160.5 -164t211 -60q112 0 214 61t165 165t63 226q0 125 -60 230.5z" />
    <glyph glyph-name="aogonek" unicode="&#x105;" horiz-adv-x="1478" 
d="M1387.5 -225.5q8.5 -8.5 8.5 -23.5q0 -52 -24.5 -97t-68.5 -71.5t-100 -26.5q-53 0 -98 25.5t-71 70t-26 97.5q0 51 22.5 87.5t70.5 86.5l80 80q-22 9 -22 44v116q-41 -52 -111 -93.5t-155.5 -65.5t-170.5 -24q-156 0 -300.5 82.5t-234 226t-89.5 316.5q0 170 85.5 315.5
t229.5 231.5t309 86q141 0 250.5 -49t186.5 -129v130q0 37 33 37h121q33 0 33 -37v-1153v-5v-3q0 -8 -6 -16q0 -2 -2 -4l-3 -3l-157 -156q-25 -22 -41.5 -43t-21.5 -45l-1 -11q0 -34 22 -61t65 -27q39 0 63.5 24.5t24.5 59.5q0 18 8.5 27t20.5 9h49q12 0 20.5 -8.5zM942 215
q102 61 165 165t63 226q0 125 -60 230.5t-162 167t-220 61.5t-217 -60.5t-157 -165.5t-58 -233q0 -124 60.5 -228t160.5 -164t211 -60q112 0 214 61z" />
    <glyph glyph-name="atilde" unicode="&#xe3;" horiz-adv-x="1478" 
d="M525 1410q-16 0 -31 15l-27 26q-15 15 -15 23q0 7 7.5 17t9.5 13q40 50 82 75t92 25q30 0 59 -12.5t69 -36.5q33 -20 56 -30t43 -10q26 0 43.5 13.5t41.5 42.5q17 21 33 21q11 0 23 -10l36 -37q10 -10 10 -21q0 -9 -9 -22q-75 -108 -183 -108q-31 0 -59 12.5t-66 36.5
q-31 20 -53 30t-43 10q-22 0 -38 -8t-26 -18t-31 -35q-11 -12 -24 -12zM1313 0h-115q-39 0 -39 47v116q-41 -52 -111 -93.5t-155.5 -65.5t-170.5 -24q-156 0 -300.5 82.5t-234 226t-89.5 316.5q0 170 85.5 315.5t229.5 231.5t309 86q141 0 250.5 -49t186.5 -129v130
q0 37 33 37h121q33 0 33 -37v-1153q0 -37 -33 -37zM1110 836.5q-60 105.5 -162 167t-220 61.5t-217 -60.5t-157 -165.5t-58 -233q0 -124 60.5 -228t160.5 -164t211 -60q112 0 214 61t165 165t63 226q0 125 -60 230.5z" />
    <glyph glyph-name="yacute" unicode="&#xfd;" horiz-adv-x="1142" 
d="M683.5 1343q-8.5 -5 -21.5 -5h-102q-12 0 -20.5 6.5t-8.5 19.5q0 10 4 19l105 222q8 17 17 23.5t22 6.5h101q12 -1 20.5 -10t8.5 -21q0 -9 -4 -17l-104 -220q-9 -19 -17.5 -24zM475 -367h-109q-18 0 -30.5 8.5t-12.5 26.5q0 10 6 25l151 384l-444 1097q-5 13 -5 20
q0 15 11.5 24t26.5 9h121q26 0 38 -30l353 -914l358 914q10 30 38 30h119q18 0 27 -8t9 -21q0 -9 -5 -22l-613 -1514q-11 -29 -39 -29z" />
    <glyph glyph-name="ygrave" unicode="&#x1ef3;" horiz-adv-x="1142" 
d="M419 1620q0 13 9 21.5t20 8.5h102q14 0 22.5 -6t16.5 -23l105 -223q4 -8 4 -17q0 -13 -9.5 -20.5t-20.5 -7.5h-91q-14 0 -22.5 5.5t-17.5 24.5l-113 220q-5 10 -5 17zM475 -367h-109q-18 0 -30.5 8.5t-12.5 26.5q0 10 6 25l151 384l-444 1097q-5 13 -5 20q0 15 11.5 24
t26.5 9h121q26 0 38 -30l353 -914l358 914q10 30 38 30h119q18 0 27 -8t9 -21q0 -9 -5 -22l-613 -1514q-11 -29 -39 -29z" />
    <glyph glyph-name="zacute" unicode="&#x17a;" horiz-adv-x="1204" 
d="M680.5 1366q-8.5 -5 -21.5 -5h-102q-12 0 -20.5 6.5t-8.5 19.5q0 10 4 19l105 222q8 17 17 23.5t22 6.5h101q12 -1 20.5 -10t8.5 -21q0 -9 -4 -17l-104 -220q-9 -19 -17.5 -24zM1084 175q15 0 24.5 -8.5t9.5 -21.5v-114q0 -15 -11 -23t-23 -8h-969q-15 0 -22.5 10
t-7.5 26v84q0 25 20 45l789 888h-775q-15 0 -24.5 9t-9.5 21v113q0 15 11 23t23 8h958q18 0 30 -8t12 -27l-1 -114q0 -23 -13 -39l-768 -864h747z" />
    <glyph glyph-name="sacute" unicode="&#x15b;" horiz-adv-x="996" 
d="M575.5 1341q-8.5 -5 -21.5 -5h-102q-12 0 -20.5 6.5t-8.5 19.5q0 10 4 19l105 222q8 17 17 23.5t22 6.5h101q12 -1 20.5 -10t8.5 -21q0 -9 -4 -17l-104 -220q-9 -19 -17.5 -24zM56 271q0 9 5.5 15t18.5 12l91 42q9 4 18 4q14 0 23 -9.5t17 -26.5q19 -47 64 -80.5t97 -51
t91 -17.5q64 0 122.5 20t95.5 61.5t37 102.5q0 58 -33.5 93.5t-81.5 54t-130 39.5l-32 8q-179 48 -273 136t-94 223q0 102 46.5 179.5t134 120.5t205.5 43q134 0 225 -52.5t164 -155.5q13 -19 13 -32q0 -14 -18 -28l-75 -57q-14 -10 -24 -10q-8 0 -16 6t-18 19
q-39 45 -68.5 71.5t-73.5 44.5t-103 18q-90 0 -149.5 -43t-59.5 -127q0 -42 36.5 -78t92 -62t111.5 -39q193 -44 301 -135.5t108 -236.5q0 -109 -56.5 -190.5t-157.5 -125.5t-229 -44q-84 0 -168 28.5t-151 86t-99 140.5q-7 20 -7 33z" />
    <glyph glyph-name="dcaron" unicode="&#x10f;" horiz-adv-x="1478" 
d="M1450 1585h122q32 0 32 -34v-106q0 -81 -24 -129.5t-55 -71.5q-10 -9 -20 -9q-9 0 -20 9l-28 24q-8 8 -8 17q0 10 9 19q19 19 30 42.5t11 39.5v12q0 10 -12 10h-39q-31 0 -31 34v108q0 35 33 35zM1305 0h-108q-19 0 -32 18t-13 38v97q-72 -77 -194 -126t-259 -49
q-153 0 -291.5 83t-224 227t-85.5 317q0 171 81 316.5t221 231t310 85.5q140 0 253.5 -52t188.5 -129v488q0 37 33 37h120q35 0 35 -37v-1508q0 -37 -35 -37zM1103 832q-57 105 -158.5 168.5t-228.5 63.5q-124 0 -221.5 -63.5t-151.5 -170.5t-54 -233q0 -125 58.5 -225.5
t158.5 -158t219 -57.5q126 0 225.5 62t154.5 166t55 223q0 120 -57 225z" />
    <glyph glyph-name="dcroat" unicode="&#x111;" horiz-adv-x="1478" 
d="M1437.5 1451.5q9.5 -8.5 9.5 -22.5v-102q0 -12 -8.5 -20.5t-22.5 -8.5h-76v-1261q0 -37 -35 -37h-108q-19 0 -32 18t-13 38v97q-72 -77 -194 -126t-259 -49q-153 0 -291.5 83t-224 227t-85.5 317q0 171 81 316.5t221 231t310 85.5q140 0 253.5 -52t188.5 -129v241h-207
q-13 0 -22.5 7.5t-9.5 22.5v100q0 15 9.5 23.5t22.5 8.5h207v85q0 37 33 37h120q35 0 35 -37v-85h78q10 0 19.5 -8.5zM950.5 218q99.5 62 154.5 166t55 223q0 120 -57 225t-158.5 168.5t-228.5 63.5q-124 0 -221.5 -63.5t-151.5 -170.5t-54 -233q0 -125 58.5 -225.5
t158.5 -158t219 -57.5q126 0 225.5 62z" />
    <glyph glyph-name="hbar" unicode="&#x127;" horiz-adv-x="1261" 
d="M1170 38q0 -18 -8.5 -28t-25.5 -10h-116q-35 0 -35 38v640q0 96 -40 182.5t-116 140t-179 53.5q-86 0 -157.5 -41.5t-112.5 -111.5t-41 -153v-710q0 -18 -8.5 -28t-25.5 -10h-116q-35 0 -35 38v1276h-107q-12 0 -20.5 6.5t-8.5 19.5v104q0 12 8.5 19.5t20.5 7.5h107v73
q0 18 9 28t26 10h116q17 0 25.5 -10t8.5 -28v-73h198q12 0 19.5 -7t7.5 -19v-105q0 -11 -8.5 -18.5t-19.5 -7.5h-197v-218q52 52 97 82t102.5 45.5t137.5 15.5q151 0 262.5 -76.5t171 -209t59.5 -297.5z" />
    <glyph glyph-name="hcircumflex" unicode="&#x125;" horiz-adv-x="1261" 
d="M707 1707q12 0 24 -13l37 -37q0 -1 1 -1q0 -2 2 -2l185 -184q13 -15 13 -26t-11 -24l-38 -37q-10 -10 -23 -10q-14 0 -27 11l-164 165l-166 -166q-14 -12 -26 -12t-22 10l-37 37q-11 10 -11 23t12 25l227 228q12 13 24 13zM945 860.5q-40 86.5 -116 140t-179 53.5
q-86 0 -157.5 -41.5t-112.5 -111.5t-41 -153v-710q0 -18 -8.5 -28t-25.5 -10h-116q-35 0 -35 38v1506q0 18 9 28t26 10h116q17 0 25.5 -10t8.5 -28v-448q52 52 97 82t102.5 45.5t137.5 15.5q151 0 262.5 -76.5t171 -209t59.5 -297.5l1 -618q0 -18 -8.5 -28t-25.5 -10h-116
q-35 0 -35 38v640q0 96 -40 182.5z" />
    <glyph glyph-name="a.end" horiz-adv-x="1209" 
d="M106 1025q0 27 28 48q95 73 204 116.5t255 43.5q150 0 257.5 -66.5t163.5 -185.5t56 -276v-661q0 -20 -12.5 -32t-30.5 -12h-104q-22 0 -31.5 11.5t-12.5 40.5v139q-48 -94 -143 -155.5t-231 -61.5q-142 0 -242.5 49.5t-151.5 137.5t-51 201q0 97 53.5 173t149 119.5
t218.5 44.5l398 1q0 102 -32.5 182.5t-102.5 128t-178 47.5q-102 0 -184.5 -38.5t-154.5 -92.5q-22 -14 -36 -14q-17 0 -33 19l-43 64q-9 14 -9 29zM303.5 488.5q-52.5 -48.5 -52.5 -123.5q0 -52 33 -103t98 -84.5t155 -33.5q80 0 159 43.5t131 132t52 217.5h-404
q-119 0 -171.5 -48.5z" />
    <glyph glyph-name="uacute" unicode="&#xfa;" horiz-adv-x="1267" 
d="M715.5 1346q-8.5 -5 -21.5 -5h-102q-12 0 -20.5 6.5t-8.5 19.5q0 10 4 19l105 222q8 17 17 23.5t22 6.5h101q12 -1 20.5 -10t8.5 -21q0 -9 -4 -17l-104 -220q-9 -19 -17.5 -24zM840 6q-83 -36 -204 -36q-153 0 -261.5 69t-164.5 187t-56 265v691q0 23 7.5 34t31.5 11h112
q21 0 28 -10.5t7 -31.5v-694q0 -85 31 -161.5t100 -126t178 -49.5q77 0 154 36t127 105t50 162v728q0 42 42 42h99q45 0 45 -42v-1144q0 -18 -12 -30t-30 -12h-100q-20 0 -32 12t-12 30v71q-57 -70 -140 -106z" />
    <glyph glyph-name="ugrave" unicode="&#xf9;" horiz-adv-x="1267" 
d="M487 1605q0 13 9 21.5t20 8.5h102q14 0 22.5 -6t16.5 -23l105 -223q4 -8 4 -17q0 -13 -9.5 -20.5t-20.5 -7.5h-91q-14 0 -22.5 5.5t-17.5 24.5l-113 220q-5 10 -5 17zM840 6q-83 -36 -204 -36q-153 0 -261.5 69t-164.5 187t-56 265v691q0 23 7.5 34t31.5 11h112
q21 0 28 -10.5t7 -31.5v-694q0 -85 31 -161.5t100 -126t178 -49.5q77 0 154 36t127 105t50 162v728q0 42 42 42h99q45 0 45 -42v-1144q0 -18 -12 -30t-30 -12h-100q-20 0 -32 12t-12 30v71q-57 -70 -140 -106z" />
    <glyph glyph-name="uogonek" unicode="&#x173;" horiz-adv-x="1267" 
d="M1205.5 -221.5q8.5 -8.5 8.5 -23.5q0 -52 -24.5 -97t-68.5 -71.5t-100 -26.5q-53 0 -98 25.5t-71 70t-26 97.5q0 51 22.5 87.5t70.5 86.5l80 79q-19 13 -19 35v71q-57 -70 -140 -106t-204 -36q-153 0 -261.5 69t-164.5 187t-56 265v691q0 23 7.5 34t31.5 11h112
q21 0 28 -10.5t7 -31.5v-694q0 -85 31 -161.5t100 -126t178 -49.5q77 0 154 36t127 105t50 162v728q0 42 42 42h99q45 0 45 -42v-1144q0 -18 -13 -31l-157 -156q-25 -22 -41.5 -43t-21.5 -45l-1 -11q0 -34 22 -61t65 -27q39 0 63.5 24.5t24.5 59.5q0 18 8.5 27t20.5 9h49
q12 0 20.5 -8.5z" />
    <glyph glyph-name="wacute" unicode="&#x1e83;" horiz-adv-x="1853" 
d="M1145.5 1361q-8.5 -5 -21.5 -5h-102q-12 0 -20.5 6.5t-8.5 19.5q0 10 4 19l105 222q8 17 17 23.5t22 6.5h101q12 -1 20.5 -10t8.5 -21q0 -9 -4 -17l-104 -220q-9 -19 -17.5 -24zM1325 -1h-81q-25 0 -38 30l-270 654l-262 -654q-12 -30 -39 -30h-85q-26 0 -38 30
l-476 1145q-5 13 -5 22q0 14 10.5 22.5t25.5 8.5h114q26 0 38 -30l370 -896l344 897q11 28 38 28h131q13 0 21.5 -7t8.5 -20q0 -9 -5 -22l-95 -245l254 -638l347 904q10 28 37 28h132q13 0 21.5 -7t8.5 -19q0 -9 -6 -23l-462 -1148q-12 -30 -39 -30z" />
    <glyph glyph-name="wgrave" unicode="&#x1e81;" horiz-adv-x="1853" 
d="M830 1623q0 13 9 21.5t20 8.5h102q14 0 22.5 -6t16.5 -23l105 -223q4 -8 4 -17q0 -13 -9.5 -20.5t-20.5 -7.5h-91q-14 0 -22.5 5.5t-17.5 24.5l-113 220q-5 10 -5 17zM1325 -1h-81q-25 0 -38 30l-270 654l-262 -654q-12 -30 -39 -30h-85q-26 0 -38 30l-476 1145
q-5 13 -5 22q0 14 10.5 22.5t25.5 8.5h114q26 0 38 -30l370 -896l344 897q11 28 38 28h131q13 0 21.5 -7t8.5 -20q0 -9 -5 -22l-95 -245l254 -638l347 904q10 28 37 28h132q13 0 21.5 -7t8.5 -19q0 -9 -6 -23l-462 -1148q-12 -30 -39 -30z" />
    <glyph glyph-name="oacute" unicode="&#xf3;" horiz-adv-x="1457" 
d="M822.5 1391q-8.5 -5 -21.5 -5h-102q-12 0 -20.5 6.5t-8.5 19.5q0 10 4 19l105 222q8 17 17 23.5t22 6.5h101q12 -1 20.5 -10t8.5 -21q0 -9 -4 -17l-104 -220q-9 -19 -17.5 -24zM186 925q84 144 228 228.5t315 84.5q172 0 316 -84.5t228 -229t84 -315.5t-84 -316.5
t-227.5 -231t-315.5 -85.5q-170 0 -314.5 85.5t-229 231t-84.5 316.5q0 172 84 316zM350 382q61 -104 162.5 -164.5t217.5 -60.5q128 0 227 60t153.5 163t54.5 229t-55.5 229.5t-155 163.5t-225.5 60q-117 0 -218 -60.5t-161.5 -164.5t-60.5 -228q0 -123 61 -227z" />
    <glyph glyph-name="obreve" unicode="&#x14f;" horiz-adv-x="1457" 
d="M609.5 1387.5q-60.5 34.5 -95.5 90t-35 115.5q0 17 10.5 26.5t26.5 9.5h77q17 0 27 -10.5t10 -25.5q0 -26 13 -50.5t40 -40.5t65 -16q34 0 60 16.5t40 41.5t14 49q0 16 8.5 26t25.5 10h79q16 0 26.5 -9.5t10.5 -26.5q0 -62 -36 -117t-97.5 -89t-135.5 -35
q-73 1 -133.5 35.5zM186 925q84 144 228 228.5t315 84.5q172 0 316 -84.5t228 -229t84 -315.5t-84 -316.5t-227.5 -231t-315.5 -85.5q-170 0 -314.5 85.5t-229 231t-84.5 316.5q0 172 84 316zM350 382q61 -104 162.5 -164.5t217.5 -60.5q128 0 227 60t153.5 163t54.5 229
t-55.5 229.5t-155 163.5t-225.5 60q-117 0 -218 -60.5t-161.5 -164.5t-60.5 -228q0 -123 61 -227z" />
    <glyph glyph-name="ocircumflex" unicode="&#xf4;" horiz-adv-x="1457" 
d="M729 1691q12 0 24 -13l37 -37q0 -1 1 -1q0 -2 2 -2l185 -184q13 -15 13 -26t-11 -24l-38 -37q-10 -10 -23 -10q-14 0 -27 11l-164 165l-166 -166q-14 -12 -26 -12t-22 10l-37 37q-11 10 -11 23t12 25l227 228q12 13 24 13zM186 925q84 144 228 228.5t315 84.5
q172 0 316 -84.5t228 -229t84 -315.5t-84 -316.5t-227.5 -231t-315.5 -85.5q-170 0 -314.5 85.5t-229 231t-84.5 316.5q0 172 84 316zM350 382q61 -104 162.5 -164.5t217.5 -60.5q128 0 227 60t153.5 163t54.5 229t-55.5 229.5t-155 163.5t-225.5 60q-117 0 -218 -60.5
t-161.5 -164.5t-60.5 -228q0 -123 61 -227z" />
    <glyph glyph-name="ograve" unicode="&#xf2;" horiz-adv-x="1457" 
d="M531 1641q0 13 9 21.5t20 8.5h102q14 0 22.5 -6t16.5 -23l105 -223q4 -8 4 -17q0 -13 -9.5 -20.5t-20.5 -7.5h-91q-14 0 -22.5 5.5t-17.5 24.5l-113 220q-5 10 -5 17zM186 925q84 144 228 228.5t315 84.5q172 0 316 -84.5t228 -229t84 -315.5t-84 -316.5t-227.5 -231
t-315.5 -85.5q-170 0 -314.5 85.5t-229 231t-84.5 316.5q0 172 84 316zM350 382q61 -104 162.5 -164.5t217.5 -60.5q128 0 227 60t153.5 163t54.5 229t-55.5 229.5t-155 163.5t-225.5 60q-117 0 -218 -60.5t-161.5 -164.5t-60.5 -228q0 -123 61 -227z" />
    <glyph glyph-name="oslash" unicode="&#xf8;" horiz-adv-x="1457" 
d="M185 925q84 144 228 228.5t315 84.5q90 0 185 -27l40 96q10 25 33 25h94q12 0 19.5 -6t7.5 -16q0 -7 -4 -15l-7 -18l-51 -123q96 -55 168.5 -138.5t112.5 -188t40 -218.5q0 -170 -86.5 -315.5t-232.5 -231.5t-318 -86q-89 0 -170 24l-40 -97q-10 -24 -33 -24h-94
q-11 0 -19 5.5t-8 15.5q0 6 3 15l59 139q-97 53 -171 138.5t-114.5 192.5t-40.5 224q0 172 84 316zM337 378q60 -106 164 -168.5t228 -62.5q129 0 234 62.5t165.5 168.5t60.5 231t-61.5 230t-167.5 166.5t-232 61.5q-125 0 -228 -61.5t-163 -166.5t-60 -230t60 -231z" />
    <glyph glyph-name="otilde" unicode="&#xf5;" horiz-adv-x="1457" 
d="M505 1392q-16 0 -31 15l-27 26q-15 15 -15 23q0 7 7.5 17t9.5 13q40 50 82 75t92 25q30 0 59 -12.5t69 -36.5q33 -20 56 -30t43 -10q26 0 43.5 13.5t41.5 42.5q17 21 33 21q11 0 23 -10l36 -37q10 -10 10 -21q0 -9 -9 -22q-75 -108 -183 -108q-31 0 -59 12.5t-66 36.5
q-31 20 -53 30t-43 10q-22 0 -38 -8t-26 -18t-31 -35q-11 -12 -24 -12zM186 925q84 144 228 228.5t315 84.5q172 0 316 -84.5t228 -229t84 -315.5t-84 -316.5t-227.5 -231t-315.5 -85.5q-170 0 -314.5 85.5t-229 231t-84.5 316.5q0 172 84 316zM350 382
q61 -104 162.5 -164.5t217.5 -60.5q128 0 227 60t153.5 163t54.5 229t-55.5 229.5t-155 163.5t-225.5 60q-117 0 -218 -60.5t-161.5 -164.5t-60.5 -228q0 -123 61 -227z" />
    <glyph glyph-name="oe" unicode="&#x153;" horiz-adv-x="2475" 
d="M2101 1148q145 -89 218.5 -238t73.5 -327q0 -41 -16.5 -54.5t-48.5 -13.5h-996q27 -106 91 -187.5t150 -126t178 -44.5q76 0 131.5 16.5t91.5 39.5t80 59l22 18q12 10 25 10t20 -10l70 -93q9 -13 9 -24q0 -14 -13 -26q-97 -85 -200 -127t-231 -42q-162 0 -304 80.5
t-228 215.5q-84 -136 -225 -217t-307 -81q-170 0 -314.5 85.5t-229 231t-84.5 316.5q0 172 84 316t228 228.5t315 84.5q166 0 307 -80t226 -215q84 135 222.5 214.5t304.5 79.5q205 0 350 -89zM919 217q99 60 153.5 163t54.5 229t-55.5 229.5t-155 163.5t-225.5 60
q-117 0 -218 -60.5t-161.5 -164.5t-60.5 -228q0 -123 61 -227t162.5 -164.5t217.5 -60.5q128 0 227 60zM2206 703q-22 103 -82 183t-152 124.5t-206 44.5q-107 0 -197 -45t-151 -124.5t-84 -182.5h872z" />
    <glyph glyph-name="nacute" unicode="&#x144;" horiz-adv-x="1261" 
d="M770.5 1371q-8.5 -5 -21.5 -5h-102q-12 0 -20.5 6.5t-8.5 19.5q0 10 4 19l105 222q8 17 17 23.5t22 6.5h101q12 -1 20.5 -10t8.5 -21q0 -9 -4 -17l-104 -220q-9 -19 -17.5 -24zM326.5 10q-12.5 -10 -30.5 -10h-108q-34 0 -34 37v1151q0 38 34 38h122q29 0 29 -42v-127
q138 182 360 182q129 0 236 -63.5t169.5 -181.5t62.5 -273v-685q0 -36 -33 -36h-115q-36 0 -36 36v674q0 91 -37.5 170t-110 127.5t-173.5 48.5q-78 0 -152.5 -40t-122.5 -118t-48 -185v-676q0 -17 -12.5 -27z" />
    <glyph glyph-name="ntilde" unicode="&#xf1;" horiz-adv-x="1261" 
d="M451 1400q-16 0 -31 15l-27 26q-15 15 -15 23q0 7 7.5 17t9.5 13q40 50 82 75t92 25q30 0 59 -12.5t69 -36.5q33 -20 56 -30t43 -10q26 0 43.5 13.5t41.5 42.5q17 21 33 21q11 0 23 -10l36 -37q10 -10 10 -21q0 -9 -9 -22q-75 -108 -183 -108q-31 0 -59 12.5t-66 36.5
q-31 20 -53 30t-43 10q-22 0 -38 -8t-26 -18t-31 -35q-11 -12 -24 -12zM326.5 10q-12.5 -10 -30.5 -10h-108q-34 0 -34 37v1151q0 38 34 38h122q29 0 29 -42v-127q138 182 360 182q129 0 236 -63.5t169.5 -181.5t62.5 -273v-685q0 -36 -33 -36h-115q-36 0 -36 36v674
q0 91 -37.5 170t-110 127.5t-173.5 48.5q-78 0 -152.5 -40t-122.5 -118t-48 -185v-676q0 -17 -12.5 -27z" />
    <glyph glyph-name="gbreve" unicode="&#x11f;" horiz-adv-x="1515" 
d="M686.5 1387.5q-60.5 34.5 -95.5 90t-35 115.5q0 17 10.5 26.5t26.5 9.5h77q17 0 27 -10.5t10 -25.5q0 -26 13 -50.5t40 -40.5t65 -16q34 0 60 16.5t40 41.5t14 49q0 16 8.5 26t25.5 10h79q16 0 26.5 -9.5t10.5 -26.5q0 -62 -36 -117t-97.5 -89t-135.5 -35
q-73 1 -133.5 35.5zM1314 -140q-87 -133 -227.5 -199t-299.5 -66q-128 0 -223.5 29t-182.5 89q-18 12 -18 28q0 12 8 22l49 81q12 16 30 16q14 0 28 -9q78 -47 145.5 -66t177.5 -19q101 0 197 45t156 121t60 163v72q-158 -188 -441 -188q-161 0 -303 82.5t-228 228
t-86 324.5q0 167 80.5 311t217.5 229t299 85q151 0 264.5 -45.5t196.5 -134.5v125q3 42 39 42h123q12 0 18.5 -10t6.5 -27v-1004q0 -192 -87 -325zM1162 839q-58 103 -159.5 163t-225.5 60q-119 0 -217.5 -60.5t-155.5 -164t-57 -225.5q0 -135 63 -238.5t165 -159.5t215 -56
q116 0 215 62t157 166.5t58 226.5q0 123 -58 226z" />
    <glyph glyph-name="gcircumflex" unicode="&#x11d;" horiz-adv-x="1515" 
d="M807 1693q12 0 24 -13l37 -37q0 -1 1 -1q0 -2 2 -2l185 -184q13 -15 13 -26t-11 -24l-38 -37q-10 -10 -23 -10q-14 0 -27 11l-164 165l-166 -166q-14 -12 -26 -12t-22 10l-37 37q-11 10 -11 23t12 25l227 228q12 13 24 13zM1314 -140q-87 -133 -227.5 -199t-299.5 -66
q-128 0 -223.5 29t-182.5 89q-18 12 -18 28q0 12 8 22l49 81q12 16 30 16q14 0 28 -9q78 -47 145.5 -66t177.5 -19q101 0 197 45t156 121t60 163v72q-158 -188 -441 -188q-161 0 -303 82.5t-228 228t-86 324.5q0 167 80.5 311t217.5 229t299 85q151 0 264.5 -45.5
t196.5 -134.5v125q3 42 39 42h123q12 0 18.5 -10t6.5 -27v-1004q0 -192 -87 -325zM1162 839q-58 103 -159.5 163t-225.5 60q-119 0 -217.5 -60.5t-155.5 -164t-57 -225.5q0 -135 63 -238.5t165 -159.5t215 -56q116 0 215 62t157 166.5t58 226.5q0 123 -58 226z" />
    <glyph glyph-name="gcommaaccent" unicode="&#x123;" horiz-adv-x="1515" 
d="M852 1378h-122q-32 0 -32 34v106q0 81 24 129.5t55 71.5q11 9 20 9q10 0 20 -9l28 -24q8 -8 8 -17q0 -10 -9 -19q-19 -19 -30 -42.5t-11 -39.5v-12q0 -10 12 -10h39q31 0 31 -34v-108q0 -35 -33 -35zM1314 -140q-87 -133 -227.5 -199t-299.5 -66q-128 0 -223.5 29
t-182.5 89q-18 12 -18 28q0 12 8 22l49 81q12 16 30 16q14 0 28 -9q78 -47 145.5 -66t177.5 -19q101 0 197 45t156 121t60 163v72q-158 -188 -441 -188q-161 0 -303 82.5t-228 228t-86 324.5q0 167 80.5 311t217.5 229t299 85q151 0 264.5 -45.5t196.5 -134.5v125
q3 42 39 42h123q12 0 18.5 -10t6.5 -27v-1004q0 -192 -87 -325zM1162 839q-58 103 -159.5 163t-225.5 60q-119 0 -217.5 -60.5t-155.5 -164t-57 -225.5q0 -135 63 -238.5t165 -159.5t215 -56q116 0 215 62t157 166.5t58 226.5q0 123 -58 226z" />
    <glyph glyph-name="ccedilla" unicode="&#xe7;" horiz-adv-x="1210" 
d="M1132 170q0 -15 -16 -28q-81 -67 -179.5 -113.5t-203.5 -52.5q-6 -9 -6 -19q0 -16 15.5 -29t52.5 -36q40 -25 66 -45t45 -50t19 -70q0 -70 -63 -124t-198 -93q-8 -2 -11 -2q-11 0 -18 13l-31 78q-2 6 -2 10q0 15 12 18q84 22 122.5 46t38.5 54q0 26 -21.5 46t-65.5 46
q-36 22 -56.5 38t-35.5 38t-15 50q0 12 2.5 21.5t10.5 18.5q-147 26 -266.5 114t-188 221.5t-68.5 288.5q0 175 87.5 319t233 227t310.5 83q114 0 219 -39.5t190 -111.5q13 -12 13 -25q0 -7 -5 -17l-75 -98q-3 -4 -9.5 -7.5t-13.5 -3.5q-11 0 -20 8q-73 62 -144.5 90
t-149.5 28q-119 0 -222 -57.5t-164.5 -161t-61.5 -235.5q0 -128 58.5 -231t160 -161.5t225.5 -58.5q66 0 120 18.5t93.5 45t89.5 67.5q12 9 26 9q13 0 19 -10l72 -94q9 -12 9 -23z" />
    <glyph glyph-name="ccircumflex" unicode="&#x109;" horiz-adv-x="1210" 
d="M717 1696q12 0 24 -13l37 -37q0 -1 1 -1q0 -2 2 -2l185 -184q13 -15 13 -26t-11 -24l-38 -37q-10 -10 -23 -10q-14 0 -27 11l-164 165l-166 -166q-14 -12 -26 -12t-22 10l-37 37q-11 10 -11 23t12 25l227 228q12 13 24 13zM1032 297q13 0 19 -10l72 -94q9 -12 9 -23
q0 -15 -16 -28q-85 -72 -191 -119.5t-219 -47.5q-172 0 -317.5 84.5t-231.5 229.5t-86 320t87.5 319t233 227t310.5 83q114 0 219 -39.5t190 -111.5q13 -12 13 -25q0 -7 -5 -17l-75 -98q-3 -4 -9.5 -7.5t-13.5 -3.5q-11 0 -20 8q-73 62 -144.5 90t-149.5 28
q-119 0 -222 -57.5t-164.5 -161t-61.5 -235.5q0 -128 58.5 -231t160 -161.5t225.5 -58.5q66 0 120 18.5t93.5 45t89.5 67.5q12 9 26 9z" />
    <glyph glyph-name="cdotaccent" unicode="&#x10b;" horiz-adv-x="1210" 
d="M650 1565h106q37 0 37 -41v-102q0 -22 -9 -30.5t-28 -8.5h-105q-21 0 -30.5 8.5t-9.5 29.5v104q0 40 39 40zM1032 297q13 0 19 -10l72 -94q9 -12 9 -23q0 -15 -16 -28q-85 -72 -191 -119.5t-219 -47.5q-172 0 -317.5 84.5t-231.5 229.5t-86 320t87.5 319t233 227
t310.5 83q114 0 219 -39.5t190 -111.5q13 -12 13 -25q0 -7 -5 -17l-75 -98q-3 -4 -9.5 -7.5t-13.5 -3.5q-11 0 -20 8q-73 62 -144.5 90t-149.5 28q-119 0 -222 -57.5t-164.5 -161t-61.5 -235.5q0 -128 58.5 -231t160 -161.5t225.5 -58.5q66 0 120 18.5t93.5 45t89.5 67.5
q12 9 26 9z" />
    <glyph glyph-name="ibreve" unicode="&#x12d;" 
d="M121.5 1407.5q-60.5 34.5 -95.5 90t-35 115.5q0 17 10.5 26.5t26.5 9.5h77q17 0 27 -10.5t10 -25.5q0 -26 13 -50.5t40 -40.5t65 -16q34 0 60 16.5t40 41.5t14 49q0 16 8.5 26t25.5 10h79q16 0 26.5 -9.5t10.5 -26.5q0 -62 -36 -117t-97.5 -89t-135.5 -35
q-73 1 -133.5 35.5zM163.5 1217q9.5 9 24.5 9h118q16 0 25 -9.5t9 -25.5v-1155q0 -36 -34 -36h-118q-34 0 -34 36v1155q0 17 9.5 26z" />
    <glyph glyph-name="lslash" unicode="&#x142;" 
d="M593 851q0 -16 -3 -24t-14 -13l-224 -84v-692q0 -18 -8.5 -28t-25.5 -10h-116q-35 0 -35 38v622l-153 -57q-10 -4 -17 -4q-18 0 -22 18v81q0 17 3 25t15 13l174 66v742q0 18 9 28t26 10h116q17 0 25.5 -10t8.5 -28v-673l203 77q8 2 13 2q11 0 17.5 -4t6.5 -13z" />
    <glyph glyph-name="kcommaaccent" unicode="&#x137;" horiz-adv-x="1198" 
d="M1115 57q10 -13 10 -26t-9.5 -22t-23.5 -9h-152q-12 0 -22.5 6t-22.5 21l-432 529l-124 -128v-391q0 -37 -32 -37h-118q-33 0 -33 37v1510q0 35 33 35h118q32 0 32 -35v-885l507 544q13 13 23.5 16.5t25.5 3.5h138q17 0 27.5 -9.5t10.5 -22.5q0 -14 -12 -25l-475 -493z
M534 -97h122q32 0 32 -34v-106q0 -81 -24 -129.5t-55 -71.5q-10 -9 -20 -9q-9 0 -20 9l-28 24q-8 8 -8 17q0 10 9 19q19 19 30 42.5t11 39.5v12q0 10 -12 10h-39q-31 0 -31 34v108q0 35 33 35z" />
    <glyph glyph-name="kgreenlandic" unicode="&#x138;" horiz-adv-x="1198" 
d="M1115 57q10 -13 10 -26t-9.5 -22t-23.5 -9h-152q-12 0 -22.5 6t-22.5 21l-432 529l-124 -128v-391q0 -37 -32 -37h-118q-33 0 -33 37v1354q0 35 33 35h118q32 0 32 -35v-729l507 544q13 13 23.5 16.5t25.5 3.5h138q17 0 27.5 -9.5t10.5 -22.5q0 -14 -12 -25l-475 -493z
" />
    <glyph glyph-name="jcircumflex" unicode="&#x135;" 
d="M253 1694q12 0 24 -13l37 -37q0 -1 1 -1q0 -2 2 -2l185 -184q13 -15 13 -26t-11 -24l-38 -37q-10 -10 -23 -10q-14 0 -27 11l-164 165l-166 -166q-14 -12 -26 -12t-22 10l-37 37q-11 10 -11 23t12 25l227 228q12 13 24 13zM194 1225h117q33 0 33 -37v-1185
q0 -103 -47.5 -194t-140.5 -147t-223 -56q-25 0 -36.5 11t-11.5 22v84q0 36 44 36q118 0 174 71.5t56 185.5v1172q0 37 35 37z" />
    <glyph glyph-name="itilde" unicode="&#x129;" 
d="M-2 1385q-16 0 -31 15l-27 26q-15 15 -15 23q0 7 7.5 17t9.5 13q40 50 82 75t92 25q30 0 59 -12.5t69 -36.5q33 -20 56 -30t43 -10q26 0 43.5 13.5t41.5 42.5q17 21 33 21q11 0 23 -10l36 -37q10 -10 10 -21q0 -9 -9 -22q-75 -108 -183 -108q-31 0 -59 12.5t-66 36.5
q-31 20 -53 30t-43 10q-22 0 -38 -8t-26 -18t-31 -35q-11 -12 -24 -12zM163.5 1217q9.5 9 24.5 9h118q16 0 25 -9.5t9 -25.5v-1155q0 -36 -34 -36h-118q-34 0 -34 36v1155q0 17 9.5 26z" />
    <glyph glyph-name="iogonek" unicode="&#x12f;" 
d="M164 1403.5q-10 8.5 -10 28.5v109q0 19 9.5 30t30.5 11h109q37 0 37 -43v-106q0 -22 -9 -30t-28 -8h-108q-21 0 -31 8.5zM379.5 -226.5q8.5 -8.5 8.5 -23.5q0 -52 -24.5 -97t-68.5 -71.5t-100 -26.5q-53 0 -98 25.5t-71 70t-26 97.5q0 51 22.5 87.5t70.5 86.5l81 80
q-20 6 -20 34v1155q0 17 9.5 26t24.5 9h118q16 0 25 -9.5t9 -25.5v-1155q0 -22 -13 -31l-157 -156q-25 -22 -41.5 -43t-21.5 -45l-1 -11q0 -34 22 -61t65 -27q39 0 63.5 24.5t24.5 59.5q0 18 8.5 27t20.5 9h49q12 0 20.5 -8.5z" />
    <glyph glyph-name="ae" unicode="&#xe6;" horiz-adv-x="2457" 
d="M2104.5 1153q141.5 -86 220 -236t78.5 -337q0 -34 -8.5 -49t-33.5 -15h-1012q21 -100 84.5 -182t154 -129.5t188.5 -47.5q95 0 162 31.5t134 88.5l2 2q21 21 39 21q14 0 28 -17q-9 12 50 -67l12 -16q11 -13 11 -26q0 -22 -37 -51q-87 -70 -184 -107.5t-213 -37.5
q-127 0 -240 50t-198 140v-126q0 -18 -12 -30t-30 -12h-100q-20 0 -32 12t-12 30v120q-85 -87 -194 -134t-235 -47q-169 0 -314 85.5t-230.5 230.5t-85.5 315t85.5 314.5t230.5 230t314 85.5q125 0 234 -47.5t195 -133.5v124q0 42 42 42h99q45 0 45 -42v-126
q82 85 194.5 132.5t243.5 47.5q183 0 324.5 -86zM946 220.5q101 63.5 160 168.5t59 223q0 119 -59 223t-160 166t-219 62t-218 -62t-158.5 -166t-58.5 -223q0 -118 59 -223t159 -168.5t217 -63.5q118 0 219 63.5zM2218 703q-13 104 -75 184.5t-156 124.5t-200 44t-195 -43.5
t-151.5 -123t-90.5 -186.5h868z" />
    <glyph glyph-name="Gbreve" unicode="&#x11e;" horiz-adv-x="1415" 
d="M700.5 1607.5q-60.5 34.5 -95.5 90t-35 115.5q0 17 10.5 26.5t26.5 9.5h77q17 0 27 -10.5t10 -25.5q0 -26 13 -50.5t40 -40.5t65 -16q34 0 60 16.5t40 41.5t14 49q0 16 8.5 26t25.5 10h79q16 0 26.5 -9.5t10.5 -26.5q0 -62 -36 -117t-97.5 -89t-135.5 -35
q-73 1 -133.5 35.5zM998 183.5q80 22.5 131 61.5v350q0 36 34 36h111q33 0 33 -36v-430q0 -26 -18 -38q-94 -69 -207 -107t-240 -38q-199 0 -368.5 98t-268.5 266t-99 368t98.5 367.5t267 265t368.5 97.5q128 0 236.5 -39t203.5 -113q17 -13 17 -29q0 -10 -6 -18l-66 -95
q-7 -12 -24 -12q-13 0 -25 9q-153 117 -334 117q-154 0 -279.5 -73t-197 -198.5t-71.5 -278.5q0 -150 71.5 -277t195.5 -201.5t274 -74.5q83 0 163 22.5z" />
    <glyph glyph-name="Gcircumflex" unicode="&#x11c;" horiz-adv-x="1415" 
d="M837 1907q12 0 24 -13l37 -37q0 -1 1 -1q0 -2 2 -2l185 -184q13 -15 13 -26t-11 -24l-38 -37q-10 -10 -23 -10q-14 0 -27 11l-164 165l-166 -166q-14 -12 -26 -12t-22 10l-37 37q-11 10 -11 23t12 25l227 228q12 13 24 13zM998 183.5q80 22.5 131 61.5v350q0 36 34 36
h111q33 0 33 -36v-430q0 -26 -18 -38q-94 -69 -207 -107t-240 -38q-199 0 -368.5 98t-268.5 266t-99 368t98.5 367.5t267 265t368.5 97.5q128 0 236.5 -39t203.5 -113q17 -13 17 -29q0 -10 -6 -18l-66 -95q-7 -12 -24 -12q-13 0 -25 9q-153 117 -334 117q-154 0 -279.5 -73
t-197 -198.5t-71.5 -278.5q0 -150 71.5 -277t195.5 -201.5t274 -74.5q83 0 163 22.5z" />
    <glyph glyph-name="Gdotaccent" unicode="&#x120;" horiz-adv-x="1415" 
d="M773 1753h106q37 0 37 -41v-102q0 -22 -9 -30.5t-28 -8.5h-105q-21 0 -30.5 8.5t-9.5 29.5v104q0 40 39 40zM998 183.5q80 22.5 131 61.5v350q0 36 34 36h111q33 0 33 -36v-430q0 -26 -18 -38q-94 -69 -207 -107t-240 -38q-199 0 -368.5 98t-268.5 266t-99 368
t98.5 367.5t267 265t368.5 97.5q128 0 236.5 -39t203.5 -113q17 -13 17 -29q0 -10 -6 -18l-66 -95q-7 -12 -24 -12q-13 0 -25 9q-153 117 -334 117q-154 0 -279.5 -73t-197 -198.5t-71.5 -278.5q0 -150 71.5 -277t195.5 -201.5t274 -74.5q83 0 163 22.5z" />
    <glyph glyph-name="Otilde" unicode="&#xd5;" horiz-adv-x="1688" 
d="M632 1588q-16 0 -31 15l-27 26q-15 15 -15 23q0 7 7.5 17t9.5 13q40 50 82 75t92 25q30 0 59 -12.5t69 -36.5q33 -20 56 -30t43 -10q26 0 43.5 13.5t41.5 42.5q17 21 33 21q11 0 23 -10l36 -37q10 -10 10 -21q0 -9 -9 -22q-75 -108 -183 -108q-31 0 -59 12.5t-66 36.5
q-31 20 -53 30t-43 10q-22 0 -38 -8t-26 -18t-31 -35q-11 -12 -24 -12zM208 1080q99 168 267.5 266.5t367.5 98.5t366 -98.5t264.5 -266.5t97.5 -368q0 -199 -97.5 -366.5t-264.5 -265t-366 -97.5t-367.5 97.5t-267.5 265t-99 366.5q0 200 99 368zM368.5 435
q72.5 -126 197.5 -199t277 -73q151 0 275 73t195 198.5t71 277.5t-71 278.5t-195 200t-275 73.5t-276.5 -73.5t-198 -200t-72.5 -278.5q0 -151 72.5 -277z" />
    <glyph glyph-name="OE" unicode="&#x152;" horiz-adv-x="2406" 
d="M170 1082q99 169 267.5 268.5t368.5 99.5q162 0 304.5 -66t247.5 -184v192q0 34 34 34h929q35 0 35 -34v-101q0 -34 -35 -34h-777v-448h628q37 0 37 -32v-84q0 -34 -37 -34h-628v-485h796q35 0 35 -33v-107q0 -34 -35 -34h-948q-34 0 -34 34v194q-105 -117 -247.5 -183
t-304.5 -66q-200 0 -368.5 99t-267.5 267.5t-99 368.5q0 199 99 368zM330 434q73 -128 199 -202.5t277 -74.5q152 0 278 74.5t199 202.5t73 280t-73 280t-199 203t-278 75q-151 0 -277 -75t-199 -203t-73 -280t73 -280z" />
    <glyph glyph-name="Oslashacute" unicode="&#x1fe;" horiz-adv-x="1688" 
d="M972.5 1568q-8.5 -5 -21.5 -5h-102q-12 0 -20.5 6.5t-8.5 19.5q0 10 4 19l105 222q8 17 17 23.5t22 6.5h101q12 -1 20.5 -10t8.5 -21q0 -9 -4 -17l-104 -220q-9 -19 -17.5 -24zM208 1080q99 168 267.5 266.5t367.5 98.5q102 0 197 -27l38 91q14 31 41 31h133q13 0 22 -7
t9 -19q0 -9 -4 -17l-66 -153q108 -64 189 -161t125 -217.5t44 -253.5q0 -199 -97.5 -366.5t-264.5 -265t-366 -97.5q-99 0 -195 26l-42 -107q-14 -30 -42 -30h-133q-13 0 -22 5.5t-9 17.5q0 9 4 18l72 167q-110 63 -193 159.5t-128.5 217.5t-45.5 255q0 200 99 368z
M368.5 435q72.5 -126 197.5 -199t277 -73q151 0 275 73t195 198.5t71 277.5t-71 278.5t-195 200t-275 73.5t-276.5 -73.5t-198 -200t-72.5 -278.5q0 -151 72.5 -277z" />
    <glyph glyph-name="Ncommaaccent" unicode="&#x145;" horiz-adv-x="1516" 
d="M334 37q0 -37 -35 -37h-111q-34 0 -34 37v1355q0 14 9 24t25 10h131q25 0 46 -29l815 -1083v1078q0 15 9 24.5t26 9.5h111q15 0 25 -9.5t10 -24.5v-1355q0 -37 -35 -37h-120q-27 0 -46 28l-826 1122v-1113zM681 -121h122q32 0 32 -34v-106q0 -81 -24 -129.5t-55 -71.5
q-10 -9 -20 -9q-9 0 -20 9l-28 24q-8 8 -8 17q0 10 9 19q19 19 30 42.5t11 39.5v12q0 10 -12 10h-39q-31 0 -31 34v108q0 35 33 35z" />
    <glyph glyph-name="Hbar" unicode="&#x126;" horiz-adv-x="1484" 
d="M340 564v-528q0 -36 -35 -36h-117q-34 0 -34 36v1352q0 16 8.5 26t25.5 10h120q14 0 23 -8.5t9 -26.5v-247h804v246q0 16 8.5 26t24.5 10h120q32 0 32 -35v-1353q0 -36 -34 -36h-118q-33 0 -33 36v528h-804zM1144 747v227h-804v-227h804z" />
    <glyph glyph-name="AE" unicode="&#xc6;" horiz-adv-x="2231" 
d="M196 0h-126q-33 0 -33 18q0 12 8.5 24t9.5 14l707 871l362 446l36 41q13 13 40 13h915q43 0 43 -46v-77q0 -19 -12 -31.5t-33 -12.5h-788v-481h625q18 0 30 -11.5t12 -33.5v-78q0 -19 -11 -31.5t-31 -12.5h-625v-445h797q43 0 43 -45v-80q0 -42 -42 -42h-922
q-42 0 -42 40v272h-682l-217 -274q-30 -38 -64 -38zM1159 475v678l-548 -678h548z" />
    <glyph glyph-name="Iogonek" unicode="&#x12e;" 
d="M380.5 -226.5q8.5 -8.5 8.5 -23.5q0 -52 -24.5 -97t-68.5 -71.5t-100 -26.5q-53 0 -98 25.5t-71 70t-26 97.5q0 51 22.5 87.5t70.5 86.5l80 80q-20 6 -20 35v1354q0 17 8.5 26.5t24.5 9.5h120q33 0 33 -36v-1354q0 -9 -1 -12l-1 -5q-3 -9 -8 -12q0 -1 -2 -3l-157 -156
q-25 -22 -41.5 -43t-21.5 -45l-1 -11q0 -34 22 -61t65 -27q39 0 63.5 24.5t24.5 59.5q0 18 8.5 27t20.5 9h49q12 0 20.5 -8.5z" />
    <glyph glyph-name="Eth" unicode="&#xd0;" horiz-adv-x="1401" 
d="M35.5 780.5q10.5 9.5 25.5 9.5h95v603q0 31 30 35h467q196 -4 358 -99.5t256.5 -258t94.5 -359.5t-95.5 -360t-259.5 -257t-361 -94h-455q-35 0 -35 28v589h-95q-15 0 -25.5 8.5t-10.5 25.5v103q0 17 10.5 26.5zM881.5 240.5q133.5 58.5 218.5 178t85 292.5
q0 172 -84 292.5t-213.5 179.5t-264.5 59h-283v-452h130q15 0 24 -9t9 -26v-105q0 -14 -10 -23.5t-26 -9.5h-127v-435h264q144 0 277.5 58.5z" />
    <glyph glyph-name="Oslash" unicode="&#xd8;" horiz-adv-x="1688" 
d="M208 1080q99 168 267.5 266.5t367.5 98.5q102 0 197 -27l38 91q14 31 41 31h133q13 0 22 -7t9 -19q0 -9 -4 -17l-66 -153q108 -64 189 -161t125 -217.5t44 -253.5q0 -199 -97.5 -366.5t-264.5 -265t-366 -97.5q-99 0 -195 26l-42 -107q-14 -30 -42 -30h-133
q-13 0 -22 5.5t-9 17.5q0 9 4 18l72 167q-110 63 -193 159.5t-128.5 217.5t-45.5 255q0 200 99 368zM368.5 435q72.5 -126 197.5 -199t277 -73q151 0 275 73t195 198.5t71 277.5t-71 278.5t-195 200t-275 73.5t-276.5 -73.5t-198 -200t-72.5 -278.5q0 -151 72.5 -277z" />
    <glyph glyph-name="exclam" unicode="!" horiz-adv-x="550" 
d="M206 1575.5q9 9.5 25 9.5h117q33 0 33 -36v-1123q0 -36 -32 -36h-118q-17 0 -25.5 9.5t-8.5 25.5v1124q0 17 9 26.5zM203 179q7 7 19 7h134q26 0 26 -27v-132q0 -14 -8 -20t-18 -6h-134q-10 0 -18 6t-8 20v131q0 14 7 21z" />
    <glyph glyph-name="quotedbl" unicode="&#x22;" horiz-adv-x="841" 
d="M189 1429h120q19 0 25.5 -9t6.5 -27v-361q0 -33 -30 -33h-126q-17 0 -23 9t-6 26v359q0 36 33 36zM529 1429h120q19 0 25.5 -9t6.5 -27v-361q0 -33 -30 -33h-126q-17 0 -23 9t-6 26v359q0 36 33 36z" />
    <glyph glyph-name="numbersign" unicode="#" horiz-adv-x="993" 
d="M728 1413.5q13 12.5 33 12.5h89q18 0 29.5 -12.5t9.5 -30.5l-37 -331h119q18 0 28.5 -11t8.5 -31l-11 -90q-2 -18 -15.5 -31t-31.5 -13h-119l-31 -295h119q18 0 28.5 -11t8.5 -31l-11 -87q-2 -18 -15.5 -32.5t-31.5 -14.5h-119l-39 -363q-4 -42 -49 -42h-89q-42 0 -38 42
l39 363h-206l-39 -363q-4 -42 -51 -42h-87q-41 0 -37 42l39 363h-109q-44 0 -39 47l11 87q5 42 49 42h109l31 295h-109q-44 0 -39 44l11 90q5 42 49 42h109l37 331q2 18 14.5 30.5t32.5 12.5h87q18 0 30.5 -12.5t10.5 -30.5l-37 -331h206l37 331q2 18 15 30.5zM624 581
l31 295h-206l-31 -295h206z" />
    <glyph glyph-name="dollar" unicode="$" horiz-adv-x="1235" 
d="M115 258q0 13 12 25l85 75q9 8 21 8q16 0 36 -20q72 -80 175.5 -133t215.5 -53q77 0 155.5 27t131 84t52.5 142q0 69 -51 115.5t-119 73t-166 53.5l-52 15q-162 46 -258.5 97t-143 122.5t-46.5 176.5q0 94 45.5 172.5t132 130t206.5 67.5v132q0 30 30 30h125q29 0 29 -30
v-131q110 -15 209.5 -67t172.5 -131q14 -16 14 -31t-13 -28l-73 -72q-12 -9 -22 -9t-19.5 5.5t-22.5 17.5q-170 146 -328 146q-70 0 -137 -19t-112 -63.5t-45 -117.5q0 -66 42.5 -109t105 -68t171.5 -57q166 -50 267 -93t173.5 -122.5t72.5 -204.5q0 -122 -58.5 -214
t-161.5 -146t-235 -68v-138q0 -30 -30 -30h-125q-30 0 -30 30v141q-114 18 -224.5 79t-188.5 153q-19 23 -19 37z" />
    <glyph glyph-name="ampersand" unicode="&#x26;" horiz-adv-x="1663" 
d="M646 555q0 14 13 23q66 47 159 47q52 0 106 -14l279 -69q41 -10 77 -10q57 0 88 24.5t42 52.5t21 71q3 11 12.5 17.5t21.5 4.5l114 -21q11 -2 16.5 -12t3.5 -22q-12 -72 -50 -140.5t-108 -114.5t-169 -46q-51 0 -107 13l-81 19q-8 -133 -71.5 -222.5t-168.5 -132.5
t-238 -43q-126 0 -237 60t-178.5 163t-67.5 227q0 135 53 232t159 147q-54 50 -83 128t-29 158q0 102 51.5 179.5t138 120t187.5 42.5q116 0 202.5 -45.5t132.5 -126.5t46 -187q0 -43 -25 -43l-112 -1q-27 0 -27 27q0 97 -51 149t-156 52q-64 0 -112 -25t-74 -66t-26 -88
q0 -198 222 -226q14 -3 23.5 -12t6.5 -22l-18 -86q-4 -21 -31 -21q-11 0 -27 4q-28 5 -49 5q-63 0 -114 -31.5t-81 -93.5t-30 -151q0 -85 44.5 -152.5t117.5 -105t156 -37.5q141 0 219.5 59.5t82.5 180.5v23q-16 4 -37 11q-35 10 -54 14.5t-40 4.5q-33 0 -63 -15
q-8 -5 -19 -5q-16 0 -23 14l-36 101q-2 8 -2 13z" />
    <glyph glyph-name="quotesingle" unicode="'" horiz-adv-x="507" 
d="M189 1429h120q19 0 25.5 -9t6.5 -27v-361q0 -33 -30 -33h-126q-17 0 -23 9t-6 26v359q0 36 33 36z" />
    <glyph glyph-name="parenleft" unicode="(" horiz-adv-x="705" 
d="M271.5 1238q75.5 255 205.5 450q10 16 26 16q11 0 19 -7l99 -62q13 -13 13 -25q0 -8 -6 -17q-70 -104 -127.5 -254.5t-90.5 -315t-33 -306.5t33 -306t90.5 -315t127.5 -255q6 -9 6 -18q0 -14 -13 -24l-99 -62q-10 -8 -20 -8q-15 0 -25 16q-129 193 -205 448.5t-76 523.5
q0 266 75.5 521z" />
    <glyph glyph-name="parenright" unicode=")" horiz-adv-x="705" 
d="M398 193.5q-76 -255.5 -205 -448.5q-10 -16 -25 -16q-10 0 -20 8l-99 62q-13 10 -13 24q0 9 6 18q70 104 127.5 255t90.5 315t33 306t-33 306.5t-90.5 315t-127.5 254.5q-6 9 -6 17q0 12 13 25l99 62q8 7 19 7q16 0 26 -16q130 -195 205.5 -450t75.5 -521
q0 -268 -76 -523.5z" />
    <glyph glyph-name="asterisk" unicode="*" horiz-adv-x="943" 
d="M126 662q9 8 23 7l226 -12l-120 181q-5 8 -5 17q0 15 15 23l70 41q7 4 15 4q18 0 26 -17l93 -182l93 183q8 16 23 16q6 0 16 -5l71 -41q14 -8 14 -23q0 -7 -5 -17l-124 -184l228 15q28 2 29 -29v-82q0 -12 -9 -20.5t-21 -7.5l-220 18l129 -195q6 -7 6 -16q0 -13 -16 -24
l-71 -41q-7 -4 -15 -4q-16 0 -24 16l-104 224l-110 -227q-9 -17 -25 -17q-5 0 -15 5l-70 41q-16 10 -16 25q0 10 6 17l127 192l-218 -14q-13 1 -22 8t-9 22v81q0 14 9 22z" />
    <glyph glyph-name="plus" unicode="+" horiz-adv-x="864" 
d="M360.5 288.5q-7.5 8.5 -7.5 22.5v227h-222q-13 0 -21.5 7t-8.5 21v115q0 28 31 28h221v219q0 12 7.5 20t20.5 8h115q11 0 19 -8t8 -21v-218h216q13 0 20.5 -7t7.5 -21v-116q0 -11 -8.5 -19t-20.5 -8h-215v-228q0 -12 -7 -21t-21 -9h-114q-13 0 -20.5 8.5z" />
    <glyph glyph-name="comma" unicode="," horiz-adv-x="507" 
d="M191 180h120q30 0 30 -33v-108q0 -85 -24 -143.5t-76 -110.5q-10 -10 -20 -10q-9 0 -16 7l-34 32q-8 7 -8 14q0 9 10 19q36 36 48.5 73t12.5 62q0 17 -13 17h-32q-29 0 -29 33v114q0 34 31 34z" />
    <glyph glyph-name="hyphen" unicode="-" horiz-adv-x="993" 
d="M153 615.5q11 9.5 27 9.5h631q36 0 36 -37v-88q0 -16 -11 -26t-28 -10h-628q-16 0 -27 9t-11 28v86q0 19 11 28.5z" />
    <glyph glyph-name="period" unicode="." horiz-adv-x="507" 
d="M163.5 176q7.5 7 19.5 7h130q15 0 21 -9t6 -20v-127q0 -13 -7.5 -20t-17.5 -7h-135q-8 0 -16 6.5t-8 19.5v129q0 14 7.5 21z" />
    <glyph glyph-name="slash" unicode="/" horiz-adv-x="954" 
d="M252 0h-131q-12 0 -20.5 6.5t-8.5 18.5q0 6 3 15l567 1357q11 29 37 29h141q12 0 20.5 -6.5t8.5 -18.5q0 -4 -4 -16l-575 -1357q-11 -28 -38 -28z" />
    <glyph glyph-name="zero" unicode="0" horiz-adv-x="1688" 
d="M207.5 1076q98.5 168 266.5 267t366 99q197 0 366 -99t268.5 -267t99.5 -365t-102 -364.5t-273 -266.5t-368 -99t-363 98.5t-262.5 266t-96.5 365.5q0 197 98.5 365zM365 436q72 -127 195.5 -201.5t270.5 -74.5q150 0 279.5 72t207 198.5t77.5 280.5t-75.5 279.5
t-203 197t-276.5 71.5q-148 0 -273.5 -73.5t-199.5 -199.5t-74 -275q0 -148 72 -275z" />
    <glyph glyph-name="one" unicode="1" horiz-adv-x="582" 
d="M405 1394v-1358q0 -36 -36 -36h-113q-17 0 -25 9.5t-8 25.5v1181l-134 -56q-12 -4 -18 -4q-18 0 -18 18l-1 120q0 29 23 40l136 72q35 18 60 18h107q27 0 27 -30z" />
    <glyph glyph-name="two" unicode="2" horiz-adv-x="1238" 
d="M137 944q0 144 56.5 256t161.5 174.5t245 62.5q132 0 240 -49.5t172 -144.5t64 -227q0 -100 -36.5 -186.5t-117.5 -165.5l-503 -481h655q39 0 39 -34v-114q0 -35 -37 -35h-902q-17 0 -28.5 8.5t-11.5 24.5v85q0 15 3 23.5t9 14.5l624 622q67 67 95 123t28 133
q0 64 -34 116.5t-97 83t-144 30.5q-84 0 -151 -40.5t-105.5 -116.5t-38.5 -178q0 -16 -9 -19.5t-23 -3.5l-126 1q-28 0 -28 37z" />
    <glyph glyph-name="seven" unicode="7" horiz-adv-x="1056" 
d="M990.5 1411.5q12.5 -13.5 12.5 -33.5q0 -18 -9 -35l-677 -1321q-5 -11 -15 -16.5t-21 -5.5h-146q-15 0 -22 7.5t-7 18.5q0 10 5 18l613 1197h-613q-16 0 -26 9.5t-10 26.5v114q0 16 9.5 25t26.5 9h843q24 0 36.5 -13.5z" />
    <glyph glyph-name="eight" unicode="8" horiz-adv-x="1064" 
d="M213.5 1260q49.5 84 133.5 133.5t182 49.5q99 0 183 -49.5t133.5 -133.5t49.5 -183q0 -77 -30.5 -145.5t-85.5 -120.5q94 -61 149 -161t55 -217q0 -123 -61 -227t-165 -164.5t-228 -60.5q-123 0 -226.5 61t-164.5 164.5t-61 226.5q0 116 54.5 216t146.5 162
q-54 51 -84 119.5t-30 146.5q0 99 49.5 183zM368 980q24 -43 66.5 -68t94.5 -25t95.5 25t69 68t25.5 95t-25.5 95.5t-69 69t-95.5 25.5t-94.5 -25.5t-66.5 -68.5t-24 -96q0 -52 24 -95zM291.5 298.5q37.5 -63.5 101 -101t136.5 -37.5q74 0 137.5 37.5t101 101t37.5 136.5
q0 74 -37.5 137.5t-101 101t-137.5 37.5q-73 0 -136.5 -37.5t-101 -101t-37.5 -137.5q0 -73 37.5 -136.5z" />
    <glyph glyph-name="nine" unicode="9" horiz-adv-x="1175" 
d="M997 714l-385 -672q-13 -24 -27.5 -33.5t-38.5 -9.5h-120q-20 0 -29.5 4t-9.5 14t12 31l175 306l74 129q-39 -15 -76 -15q-133 0 -245 65.5t-177.5 177.5t-65.5 246q0 133 65.5 245t177.5 177t245 65t245 -65t177.5 -177t65.5 -245q0 -130 -63 -243zM832.5 1112.5
q-39.5 70.5 -108 111.5t-152.5 41q-82 0 -150 -41t-106.5 -111.5t-38.5 -155.5q0 -84 39 -155.5t106.5 -114t149.5 -42.5q84 0 152.5 42.5t108 114t39.5 155.5q0 85 -39.5 155.5z" />
    <glyph glyph-name="colon" unicode=":" 
d="M184 1223h133q15 0 21.5 -9t6.5 -21v-130q0 -13 -8 -20.5t-18 -7.5h-138q-9 0 -17 7t-8 20v132q0 29 28 29zM184 188h133q15 0 21.5 -9t6.5 -21v-130q0 -13 -8 -20.5t-18 -7.5h-138q-9 0 -17 7t-8 20v132q0 29 28 29z" />
    <glyph glyph-name="semicolon" unicode=";" 
d="M163.5 1212q7.5 7 19.5 7h130q15 0 21 -9t6 -20v-127q0 -13 -7.5 -20t-17.5 -7h-135q-8 0 -16 6.5t-8 19.5v129q0 14 7.5 21zM191 180h120q30 0 30 -33v-108q0 -85 -24 -143.5t-76 -110.5q-10 -10 -20 -10q-9 0 -16 7l-34 32q-8 7 -8 14q0 9 10 19q36 36 48.5 73t12.5 62
q0 17 -13 17h-32q-29 0 -29 33v114q0 34 31 34z" />
    <glyph glyph-name="less" unicode="&#x3c;" horiz-adv-x="841" 
d="M94 569.5q2 3.5 8 9.5l512 512q11 11 27 11q10 0 17 -7l62 -60q11 -11 11 -25q0 -13 -11 -24l-428 -426l428 -422q11 -11 11 -24q0 -14 -11 -25l-62 -61q-7 -7 -17 -7q-15 0 -27 12l-512 509q-5 5 -7.5 9t-2.5 9q0 6 2 9.5z" />
    <glyph glyph-name="equal" unicode="=" horiz-adv-x="993" 
d="M138 711v118q0 19 9.5 27.5t24.5 8.5h626q16 0 25.5 -8.5t9.5 -24.5v-120q0 -15 -9 -24.5t-26 -9.5h-626q-34 0 -34 33zM138 410v118q0 19 9.5 27.5t24.5 8.5h626q16 0 25.5 -8.5t9.5 -24.5v-120q0 -15 -9 -24.5t-26 -9.5h-626q-34 0 -34 33z" />
    <glyph glyph-name="greater" unicode="&#x3e;" horiz-adv-x="841" 
d="M774.5 551q-2.5 -4 -7.5 -9l-512 -509q-12 -12 -27 -12q-10 0 -17 7l-62 61q-11 11 -11 25q0 13 11 24l428 422l-428 426q-11 11 -11 24q0 14 11 25l62 60q7 7 17 7q16 0 27 -11l512 -512q6 -6 8 -9.5t2 -9.5q0 -5 -2.5 -9z" />
    <glyph glyph-name="question" unicode="?" horiz-adv-x="1091" 
d="M581 333l-121 -1q-15 0 -23 11t-8 30v189q0 80 62.5 144t153.5 122q59 38 95.5 74t55.5 84.5t19 116.5q0 64 -33.5 119t-93.5 87.5t-136 32.5q-87 0 -154.5 -35.5t-105 -98t-37.5 -140.5q0 -39 -36 -39h-119q-13 0 -22 8.5t-9 22.5q0 135 65.5 240t177 163t244.5 58
q124 0 228 -57t164.5 -152.5t60.5 -206.5q0 -140 -58.5 -231t-172.5 -163q-75 -47 -118 -96.5t-43 -119.5v-121q0 -41 -36 -41zM435.5 177q7.5 8 19.5 8h138q28 0 28 -29v-124q0 -14 -9 -20.5t-19 -6.5h-138q-10 0 -18.5 6.5t-8.5 20.5v123q0 14 7.5 22z" />
    <glyph glyph-name="percent" unicode="%" horiz-adv-x="1855" 
d="M143.5 1292q52.5 90 141.5 142.5t195 52.5t196.5 -53t144 -142.5t53.5 -195.5t-53.5 -195.5t-144 -142t-196.5 -52.5t-195 52.5t-141.5 142t-52.5 195.5t52.5 196zM1218 1424h101q29 0 29 -23q0 -10 -5 -20l-746 -1362q-8 -12 -15.5 -15.5t-17.5 -3.5h-100q-11 1 -17 8
t-6 16q0 10 5 16l739 1365q9 19 33 19zM278 977q31 -55 84.5 -87t117.5 -32t118.5 32.5t86.5 87t32 118.5q0 63 -32 117.5t-86.5 87t-118.5 32.5t-117.5 -32t-84.5 -86.5t-31 -118.5t31 -119zM1055.5 569q52.5 90 141.5 142.5t195 52.5t196.5 -53t144 -142.5t53.5 -195.5
t-53.5 -195.5t-144 -142t-196.5 -52.5t-195 52.5t-141.5 142t-52.5 195.5t52.5 196zM1190 254q31 -55 84.5 -87t117.5 -32t118.5 32.5t86.5 87t32 118.5q0 63 -32 117.5t-86.5 87t-118.5 32.5t-117.5 -32t-84.5 -86.5t-31 -118.5t31 -119z" />
    <glyph glyph-name="section" unicode="&#xa7;" horiz-adv-x="1127" 
d="M845 1193q-13 0 -22 13q-48 72 -124.5 102.5t-148.5 30.5q-59 0 -117 -22t-96 -66t-38 -104q0 -44 28.5 -72.5t73 -45.5t128.5 -41l63 -18q166 -50 240.5 -117t74.5 -167q0 -78 -39 -139t-111 -97q72 -37 111 -88.5t39 -129.5q0 -95 -52 -170t-141.5 -117t-197.5 -42
q-162 0 -289 97q-40 31 -67.5 64.5t-27.5 44.5q0 16 19 26l55 38q10 7 19 7q6 0 10.5 -2t13.5 -11q72 -70 130.5 -101.5t140.5 -31.5q61 0 119.5 22t96.5 65.5t38 104.5q0 44 -30.5 73.5t-78.5 48t-136 43.5l-48 14q-167 50 -242 115.5t-75 165.5q0 77 37.5 136.5
t107.5 96.5q-145 73 -145 220q0 95 52 170t141.5 117t197.5 42q82 0 152.5 -23t136.5 -72q41 -32 67 -65t26 -45t-15 -26l-57 -37q-10 -7 -20 -7zM397 821q-49 -22 -73.5 -57t-24.5 -74q0 -54 45.5 -107t196.5 -53q77 0 128 21.5t75 56.5t24 75q0 77 -66.5 111.5
t-185.5 48.5q-70 0 -119 -22z" />
    <glyph glyph-name="uni2074" unicode="&#x2074;" horiz-adv-x="730" 
d="M59 757q-7 9 -7 23q0 8 8 24l357 609q6 10 10 13t11 3h100q9 0 15 -8t6 -17v-508h77q13 0 21.5 -6t8.5 -17v-100q0 -10 -9 -17.5t-21 -7.5h-77v-95q0 -23 -26 -23h-95q-23 0 -23 23v95h-333q-16 0 -23 9zM415 1155l-150 -259h150v259z" />
    <glyph glyph-name="paragraph" unicode="&#xb6;" horiz-adv-x="1340" 
d="M1246 1395v-122q0 -14 -10.5 -23t-29.5 -9h-138v-1211q0 -30 -27 -30h-133q-29 0 -29 29v1212h-196v-1212q0 -29 -28 -29h-143q-12 0 -20 7.5t-8 21.5v615q-87 0 -183 41t-162 127t-66 212q0 114 56 206t152 144t211 52h715q39 0 39 -31z" />
    <glyph glyph-name="eogonek" unicode="&#x119;" horiz-adv-x="1453" 
d="M1069 1148q145 -89 218.5 -238t73.5 -327q0 -41 -16.5 -54.5t-48.5 -13.5h-996q27 -106 91 -187.5t150 -126t178 -44.5q76 0 131.5 16.5t91.5 39.5t80 59l22 18q12 10 25 10t20 -10l70 -93q9 -13 9 -24q0 -14 -13 -26q-66 -58 -129 -93l-121 -120q-25 -22 -41.5 -43
t-21.5 -45l-1 -11q0 -34 22 -61t65 -27q39 0 63.5 24.5t24.5 59.5q0 18 8.5 27t20.5 9h49q12 0 20.5 -8.5t8.5 -23.5q0 -52 -24.5 -97t-68.5 -71.5t-100 -26.5q-53 0 -98 25.5t-71 70t-26 97.5q0 44 17.5 78t52.5 72q-43 -5 -81 -5q-167 0 -311.5 84.5t-230.5 228.5t-86 313
q0 171 82.5 316.5t225 231t315.5 85.5q205 0 350 -89zM1174 703q-22 103 -82 183t-152 124.5t-206 44.5q-107 0 -197 -45t-151 -124.5t-84 -182.5h872z" />
    <glyph glyph-name="emacron" unicode="&#x113;" horiz-adv-x="1453" 
d="M384.5 1503.5q8.5 7.5 23.5 7.5h668q13 0 21 -7t8 -21v-85q0 -12 -8.5 -20t-20.5 -8h-669q-13 0 -22 7t-9 21v84q0 14 8.5 21.5zM391 327.5q64 -81.5 150 -126t178 -44.5q76 0 131.5 16.5t91.5 39.5t80 59l22 18q12 10 25 10t20 -10l70 -93q9 -13 9 -24q0 -14 -13 -26
q-97 -85 -200 -127t-231 -42q-167 0 -311.5 84.5t-230.5 228.5t-86 313q0 171 82.5 316.5t225 231t315.5 85.5q205 0 350 -89t218.5 -238t73.5 -327q0 -41 -16.5 -54.5t-48.5 -13.5h-996q27 -106 91 -187.5zM537 1010q-90 -45 -151 -124.5t-84 -182.5h872q-22 103 -82 183
t-152 124.5t-206 44.5q-107 0 -197 -45z" />
    <glyph glyph-name="Ldot" unicode="&#x13f;" horiz-adv-x="1102" 
d="M165 1416q9 10 24 10h120q32 0 32 -37v-1215h702q38 0 38 -33v-107q0 -17 -10 -25.5t-28 -8.5h-854q-33 0 -33 34v1355q0 17 9 27zM664 810h106q37 0 37 -41v-102q0 -22 -9 -30.5t-28 -8.5h-105q-21 0 -30.5 8.5t-9.5 29.5v104q0 40 39 40z" />
    <glyph glyph-name="scedilla" unicode="&#x15f;" horiz-adv-x="996" 
d="M541 -42q0 -16 15.5 -29t52.5 -36q40 -25 66 -45t45 -50t19 -70q0 -70 -63 -124t-198 -93q-8 -2 -11 -2q-11 0 -18 13l-31 78q-2 6 -2 10q0 15 12 18q84 22 122.5 46t38.5 54q0 26 -21.5 46t-65.5 46q-36 22 -56.5 38t-35.5 38t-15 50q0 13 3 22.5t13 19.5
q-115 16 -211 80.5t-137 169.5q-7 20 -7 33q0 9 5.5 15t18.5 12l91 42q9 4 18 4q14 0 23 -9.5t17 -26.5q19 -47 64 -80.5t97 -51t91 -17.5q64 0 122.5 20t95.5 61.5t37 102.5q0 58 -33.5 93.5t-81.5 54t-130 39.5l-32 8q-179 48 -273 136t-94 223q0 102 46.5 179.5
t134 120.5t205.5 43q134 0 225 -52.5t164 -155.5q13 -19 13 -32q0 -14 -18 -28l-75 -57q-14 -10 -24 -10q-8 0 -16 6t-18 19q-39 45 -68.5 71.5t-73.5 44.5t-103 18q-90 0 -149.5 -43t-59.5 -127q0 -42 36.5 -78t92 -62t111.5 -39q193 -44 301 -135.5t108 -236.5
q0 -99 -46.5 -175t-129.5 -122.5t-192 -58.5q-15 -14 -15 -29z" />
    <glyph glyph-name="Uhungarumlaut" unicode="&#x170;" horiz-adv-x="1444" 
d="M589.5 1554.5q-8.5 -5.5 -22.5 -5.5h-101q-12 0 -21.5 7t-9.5 20q0 6 5 18l116 221q9 17 17.5 23t21.5 6h99q12 -1 20.5 -9.5t8.5 -20.5q0 -7 -5 -17l-111 -218q-9 -19 -17.5 -24.5zM950.5 1554.5q-8.5 -5.5 -22.5 -5.5h-102q-11 0 -20.5 7.5t-9.5 19.5q0 6 5 18l114 221
q10 17 18 23t22 6h100q12 -1 20.5 -9.5t8.5 -20.5q0 -7 -5 -17l-112 -218q-8 -19 -16.5 -24.5zM376 357q56 -95 150 -147.5t206 -52.5q111 0 200.5 53.5t140 148.5t50.5 215v817q0 16 8.5 26t25.5 10h117q16 0 25.5 -10.5t9.5 -25.5v-830q0 -181 -76 -313t-207 -201.5
t-294 -69.5q-164 0 -300.5 70.5t-217 204t-80.5 314.5v826q0 15 8.5 25t23.5 10h122q32 0 32 -35v-818q0 -122 56 -217z" />
    <glyph glyph-name="Umacron" unicode="&#x16a;" horiz-adv-x="1444" 
d="M376.5 1704.5q8.5 7.5 23.5 7.5h668q13 0 21 -7t8 -21v-85q0 -12 -8.5 -20t-20.5 -8h-669q-13 0 -22 7t-9 21v84q0 14 8.5 21.5zM376 357q56 -95 150 -147.5t206 -52.5q111 0 200.5 53.5t140 148.5t50.5 215v817q0 16 8.5 26t25.5 10h117q16 0 25.5 -10.5t9.5 -25.5v-830
q0 -181 -76 -313t-207 -201.5t-294 -69.5q-164 0 -300.5 70.5t-217 204t-80.5 314.5v826q0 15 8.5 25t23.5 10h122q32 0 32 -35v-818q0 -122 56 -217z" />
    <glyph glyph-name="Emacron" unicode="&#x112;" horiz-adv-x="1233" 
d="M297.5 1708.5q8.5 7.5 23.5 7.5h668q13 0 21 -7t8 -21v-85q0 -12 -8.5 -20t-20.5 -8h-669q-13 0 -22 7t-9 21v84q0 14 8.5 21.5zM189 1427h940q36 0 36 -33v-120q0 -34 -36 -34h-787v-396h609q18 0 28.5 -8.5t10.5 -25.5v-118q0 -17 -10.5 -25t-28.5 -8h-609v-470h786
q36 0 36 -33v-122q0 -34 -36 -34h-939q-33 0 -33 34v1360q0 33 33 33z" />
    <glyph glyph-name="Imacron" unicode="&#x12a;" 
d="M-112.5 1730.5q8.5 7.5 23.5 7.5h668q13 0 21 -7t8 -21v-85q0 -12 -8.5 -20t-20.5 -8h-669q-13 0 -22 7t-9 21v84q0 14 8.5 21.5zM162.5 1417.5q8.5 9.5 24.5 9.5h120q33 0 33 -36v-1354q0 -37 -33 -37h-120q-33 0 -33 37v1354q0 17 8.5 26.5z" />
    <glyph glyph-name="Omacron" unicode="&#x14c;" horiz-adv-x="1688" 
d="M488.5 1718.5q8.5 7.5 23.5 7.5h668q13 0 21 -7t8 -21v-85q0 -12 -8.5 -20t-20.5 -8h-669q-13 0 -22 7t-9 21v84q0 14 8.5 21.5zM208 1080q99 168 267.5 266.5t367.5 98.5t366 -98.5t264.5 -266.5t97.5 -368q0 -199 -97.5 -366.5t-264.5 -265t-366 -97.5t-367.5 97.5
t-267.5 265t-99 366.5q0 200 99 368zM368.5 435q72.5 -126 197.5 -199t277 -73q151 0 275 73t195 198.5t71 277.5t-71 278.5t-195 200t-275 73.5t-276.5 -73.5t-198 -200t-72.5 -278.5q0 -151 72.5 -277z" />
    <glyph glyph-name="omacron" unicode="&#x14d;" horiz-adv-x="1457" 
d="M385.5 1527.5q8.5 7.5 23.5 7.5h668q13 0 21 -7t8 -21v-85q0 -12 -8.5 -20t-20.5 -8h-669q-13 0 -22 7t-9 21v84q0 14 8.5 21.5zM186 925q84 144 228 228.5t315 84.5q172 0 316 -84.5t228 -229t84 -315.5t-84 -316.5t-227.5 -231t-315.5 -85.5q-170 0 -314.5 85.5
t-229 231t-84.5 316.5q0 172 84 316zM350 382q61 -104 162.5 -164.5t217.5 -60.5q128 0 227 60t153.5 163t54.5 229t-55.5 229.5t-155 163.5t-225.5 60q-117 0 -218 -60.5t-161.5 -164.5t-60.5 -228q0 -123 61 -227z" />
    <glyph glyph-name="umacron" unicode="&#x16b;" horiz-adv-x="1267" 
d="M332.5 1513.5q8.5 7.5 23.5 7.5h668q13 0 21 -7t8 -21v-85q0 -12 -8.5 -20t-20.5 -8h-669q-13 0 -22 7t-9 21v84q0 14 8.5 21.5zM840 6q-83 -36 -204 -36q-153 0 -261.5 69t-164.5 187t-56 265v691q0 23 7.5 34t31.5 11h112q21 0 28 -10.5t7 -31.5v-694q0 -85 31 -161.5
t100 -126t178 -49.5q77 0 154 36t127 105t50 162v728q0 42 42 42h99q45 0 45 -42v-1144q0 -18 -12 -30t-30 -12h-100q-20 0 -32 12t-12 30v71q-57 -70 -140 -106z" />
    <glyph glyph-name="amacron" unicode="&#x101;" horiz-adv-x="1478" 
d="M372.5 1536.5q8.5 7.5 23.5 7.5h668q13 0 21 -7t8 -21v-85q0 -12 -8.5 -20t-20.5 -8h-669q-13 0 -22 7t-9 21v84q0 14 8.5 21.5zM1313 0h-115q-39 0 -39 47v116q-41 -52 -111 -93.5t-155.5 -65.5t-170.5 -24q-156 0 -300.5 82.5t-234 226t-89.5 316.5q0 170 85.5 315.5
t229.5 231.5t309 86q141 0 250.5 -49t186.5 -129v130q0 37 33 37h121q33 0 33 -37v-1153q0 -37 -33 -37zM1110 836.5q-60 105.5 -162 167t-220 61.5t-217 -60.5t-157 -165.5t-58 -233q0 -124 60.5 -228t160.5 -164t211 -60q112 0 214 61t165 165t63 226q0 125 -60 230.5z
" />
    <glyph glyph-name="thorn" unicode="&#xfe;" horiz-adv-x="1496" 
d="M167.5 1562q11.5 12 31.5 12h99q19 0 31.5 -11t12.5 -31v-470q84 85 194 132.5t235 47.5q169 0 314 -85.5t230.5 -230t85.5 -314.5t-85.5 -315t-230.5 -230.5t-314 -85.5q-126 0 -236 47t-193 133v-488q0 -18 -12 -30.5t-32 -12.5h-100q-17 0 -29.5 12t-12.5 31v1859
q0 18 11.5 30zM578.5 1016q-90.5 -47 -152.5 -128t-83 -180v-191q21 -98 83.5 -180.5t152.5 -131t192 -48.5q117 0 217 63.5t159 168.5t59 223q0 119 -58.5 223t-158.5 166t-218 62q-102 0 -192.5 -47z" />
    <glyph glyph-name="hyphen.cap" horiz-adv-x="1056" 
d="M182 679q9 8 23 8h643q13 0 21 -8t8 -23v-123q0 -13 -8.5 -21t-22.5 -8h-641q-14 0 -23 7t-9 22v122q0 16 9 24z" />
    <glyph glyph-name="lessequal" unicode="&#x2264;" horiz-adv-x="841" 
d="M94 814.5q2 3.5 8 9.5l477 474q11 11 27 11q10 0 17 -7l84 -85q11 -11 11 -25q0 -13 -11 -24l-371 -367l371 -365q11 -11 11 -24q0 -14 -11 -25l-84 -82q-7 -7 -17 -7q-15 0 -27 12l-477 477q-5 5 -7.5 9t-2.5 9q0 6 2 9.5zM107 33v118q0 19 9.5 27.5t24.5 8.5h527
q16 0 25.5 -8.5t9.5 -24.5v-120q0 -15 -9 -24.5t-26 -9.5h-527q-34 0 -34 33z" />
    <glyph glyph-name="greaterequal" unicode="&#x2265;" horiz-adv-x="841" 
d="M756.5 796q-2.5 -4 -7.5 -9l-477 -477q-12 -12 -27 -12q-10 0 -17 7l-84 82q-11 11 -11 25q0 13 11 24l371 365l-371 367q-11 11 -11 24q0 14 11 25l84 85q7 7 17 7q16 0 27 -11l477 -474q6 -6 8 -9.5t2 -9.5q0 -5 -2.5 -9zM157 9.5q-9 9.5 -9 24.5v120q0 16 9.5 24.5
t25.5 8.5h527q15 0 24.5 -8.5t9.5 -27.5v-118q0 -33 -34 -33h-527q-17 0 -26 9.5z" />
    <glyph glyph-name="uni2206" unicode="&#x2206;" horiz-adv-x="1457" 
d="M88 20q0 8 3 15l567 1373q7 19 32 19h92q20 0 29 -21l556 -1369q3 -7 3 -15q0 -22 -28 -22h-1227q-27 0 -27 20zM1132 187l-388 957l-399 -957h787z" />
    <glyph glyph-name="product" unicode="&#x220f;" horiz-adv-x="1252" 
d="M336 1253v-1216q0 -37 -33 -37h-120q-33 0 -33 37v1353q0 17 8.5 27t24.5 10h952q33 0 33 -37v-1353q0 -37 -33 -37h-120q-33 0 -33 37v1216h-646z" />
    <glyph glyph-name="summation" unicode="&#x2211;" horiz-adv-x="1173" 
d="M794 701l-441 -512h698q15 0 24.5 -8.5t9.5 -24.5l1 -119q0 -21 -9.5 -29t-25.5 -8h-932q-14 0 -23 8.5t-10 22.5l-2 106q-1 13 5.5 25.5t13 20.5t7.5 10l452 526l-451 518q-11 14 -17 26t-6 26v106q1 15 10 23.5t24 8.5h905q17 0 27.5 -8.5t10.5 -24.5v-123
q0 -33 -38 -33h-680l446 -501q9 -10 9 -19t-8 -17z" />
    <glyph glyph-name="uni2215" unicode="&#x2215;" horiz-adv-x="948" 
d="M780 1420q8 6 30 6h95q11 0 18 -5t7 -14q0 -8 -6 -20l-736 -1345q-14 -26 -22.5 -34t-28.5 -8h-87q-15 0 -23.5 5.5t-8.5 15.5t7 21l737 1352q10 20 18 26z" />
    <glyph glyph-name="anoteleia" unicode="&#x387;" horiz-adv-x="436" 
d="M180 626.5q7 7.5 18 7.5h124q14 0 19.5 -8.5t5.5 -19.5v-115q0 -11 -7.5 -18t-16.5 -7h-127q-8 0 -15.5 5.5t-7.5 18.5v117q0 12 7 19.5z" />
    <glyph glyph-name="dieresistonos" unicode="&#x385;" horiz-adv-x="826" 
d="M430 1601.5q8 9.5 25 9.5h83q18 0 25 -9t6 -27l-15 -208q-1 -33 -30 -33h-57q-26 0 -28 35l-15 206q-2 17 6 26.5zM189 1498.5q7 7.5 18 7.5h124q14 0 19.5 -8.5t5.5 -19.5v-115q0 -11 -7 -18t-16 -7h-128q-8 0 -15.5 5.5t-7.5 18.5v118q0 11 7 18.5zM646 1498.5
q7 7.5 17 7.5h124q25 0 25 -28v-115q0 -11 -7 -18t-16 -7h-127q-9 0 -16 5.5t-7 18.5v118q0 11 7 18.5z" />
    <glyph glyph-name="tonos" unicode="&#x384;" horiz-adv-x="398" 
d="M148 1531h84q18 0 25 -9t6 -27l-15 -222q-1 -33 -30 -33h-58q-26 0 -28 35l-15 220q-3 36 31 36z" />
    <glyph glyph-name="uni2113" unicode="&#x2113;" horiz-adv-x="808" 
d="M271.5 33q-74.5 39 -105 114t-30.5 194v583q0 357 295 357q80 0 142.5 -38t97 -105t34.5 -150q0 -57 -16.5 -105.5t-54.5 -94.5q-16 -21 -60.5 -71.5l-64.5 -73.5l-168.5 -194.5t-60.5 -82.5q0 -100 15 -151.5t56.5 -74t124.5 -22.5q36 0 36 -34v-60q0 -16 -10.5 -23
t-22.5 -7q-133 0 -207.5 39zM315.5 1095.5q-36.5 -47.5 -36.5 -149.5v-347l241 270q42 47 42 118q0 65 -35.5 110.5t-98.5 45.5q-76 0 -112.5 -47.5z" />
    <glyph glyph-name="uni037E" unicode="&#x37e;" horiz-adv-x="507" 
 />
    <glyph glyph-name="uni021B" unicode="&#x21b;" horiz-adv-x="622" 
d="M527 1226q16 0 25.5 -9t9.5 -26v-100q0 -15 -10.5 -24.5t-26.5 -9.5h-137v-740q0 -66 26.5 -112.5t91.5 -48.5l34 -1q29 0 36.5 -8.5t7.5 -22.5v-110q0 -14 -8.5 -21t-36.5 -7q-162 0 -248.5 80.5t-86.5 220.5v770h-122q-15 0 -25.5 8.5t-10.5 25.5v98q0 18 10.5 27.5
t25.5 9.5h122v193q0 17 7.5 25.5t26.5 13.5l115 18q3 1 9 1q12 0 19 -11t7 -27v-213h139zM285 -95h122q32 0 32 -34v-106q0 -81 -24 -129.5t-55 -71.5q-10 -9 -20 -9q-9 0 -20 9l-28 24q-8 8 -8 17q0 10 9 19q19 19 30 42.5t11 39.5v12q0 10 -12 10h-39q-31 0 -31 34v108
q0 35 33 35z" />
    <glyph glyph-name="uni021A" unicode="&#x21a;" horiz-adv-x="1215" 
d="M86 1427h1012q32 0 32 -34v-118q0 -34 -32 -34h-413v-1207q0 -34 -33 -34h-120q-34 0 -34 34v1207h-412q-34 0 -34 34v118q0 34 34 34zM551 -132h122q32 0 32 -34v-106q0 -81 -24 -129.5t-55 -71.5q-10 -9 -20 -9q-9 0 -20 9l-28 24q-8 8 -8 17q0 10 9 19q19 19 30 42.5
t11 39.5v12q0 10 -12 10h-39q-31 0 -31 34v108q0 35 33 35z" />
    <glyph glyph-name="alpha" unicode="&#x3b1;" horiz-adv-x="1478" 
d="M1313 0h-115q-39 0 -39 47v116q-41 -52 -111 -93.5t-155.5 -65.5t-170.5 -24q-156 0 -300.5 82.5t-234 226t-89.5 316.5q0 170 85.5 315.5t229.5 231.5t309 86q141 0 250.5 -49t186.5 -129v130q0 37 33 37h121q33 0 33 -37v-1153q0 -37 -33 -37zM1110 836.5
q-60 105.5 -162 167t-220 61.5t-217 -60.5t-157 -165.5t-58 -233q0 -124 60.5 -228t160.5 -164t211 -60q112 0 214 61t165 165t63 226q0 125 -60 230.5z" />
    <glyph glyph-name="alphatonos" unicode="&#x3ac;" horiz-adv-x="1478" 
d="M690 1631h84q18 0 25 -9t6 -27l-15 -222q-1 -33 -30 -33h-58q-26 0 -28 35l-15 220q-3 36 31 36zM1313 0h-115q-39 0 -39 47v116q-41 -52 -111 -93.5t-155.5 -65.5t-170.5 -24q-156 0 -300.5 82.5t-234 226t-89.5 316.5q0 170 85.5 315.5t229.5 231.5t309 86
q141 0 250.5 -49t186.5 -129v130q0 37 33 37h121q33 0 33 -37v-1153q0 -37 -33 -37zM1110 836.5q-60 105.5 -162 167t-220 61.5t-217 -60.5t-157 -165.5t-58 -233q0 -124 60.5 -228t160.5 -164t211 -60q112 0 214 61t165 165t63 226q0 125 -60 230.5z" />
    <glyph glyph-name="beta" unicode="&#x3b2;" horiz-adv-x="1106" 
d="M296 -365h-99q-45 0 -45 42v1404q0 109 53 187.5t139 119t184 40.5q101 0 186.5 -47.5t136 -130.5t50.5 -185q0 -83 -31 -149t-89 -112q220 -121 220 -382q0 -128 -61 -229t-167.5 -157.5t-238.5 -56.5q-20 0 -30 10.5t-10 26.5v90q0 52 46 52q79 0 141.5 32.5t98 93
t35.5 140.5q0 131 -79 200t-217 69q-44 0 -44 39v100q0 43 42 43q57 0 103 24.5t72 67t26 93.5q0 85 -49 141t-146 56q-55 0 -97 -22t-65 -60.5t-23 -86.5v-1411q0 -42 -42 -42z" />
    <glyph glyph-name="gamma" unicode="&#x3b3;" horiz-adv-x="1178" 
d="M65 1172q-4 11 -4 21q0 16 10 24.5t23 8.5h117q12 0 22 -7.5t16 -22.5l330 -934l325 932q11 32 39 32h125q16 0 24.5 -8.5t8.5 -21.5q0 -9 -5 -22l-420 -1140v-406q0 -34 -33 -34h-122q-33 0 -33 34v404z" />
    <glyph glyph-name="delta" unicode="&#x3b4;" horiz-adv-x="1457" 
d="M171 902.5q69 136.5 191 224.5t274 108l-311 184q-17 11 -17 30v104q0 14 8.5 21.5t22.5 7.5h880q13 0 21 -7.5t8 -21.5v-101q0 -12 -8.5 -20t-20.5 -8h-592l435 -277q139 -91 221.5 -231.5t82.5 -306.5q0 -170 -86 -314.5t-232 -229.5t-318 -85q-171 0 -315 84.5
t-228.5 229t-84.5 315.5q0 157 69 293.5zM354.5 389q57.5 -101 156.5 -160t219 -59t221.5 59.5t160.5 160t59 219.5q0 120 -59 221.5t-160.5 161t-221.5 59.5q-119 0 -218.5 -59.5t-157 -161t-57.5 -221.5q0 -119 57.5 -220z" />
    <glyph glyph-name="epsilon" unicode="&#x3b5;" horiz-adv-x="1064" 
d="M938 167q0 -13 -12 -27q-69 -76 -153 -113t-189 -37h-75q-110 0 -203.5 44.5t-149.5 125.5t-56 184q0 187 179 293q-65 42 -106 109t-41 144q0 103 49.5 181t134.5 120t187 42h25q114 0 204.5 -31t155.5 -114q18 -23 18 -33q0 -8 -12 -19l-75 -75q-7 -5 -15 -5
q-9 0 -18 4.5t-14 10.5q-37 47 -83 66.5t-106 19.5h-55q-55 0 -100 -21.5t-71.5 -60.5t-26.5 -90q0 -75 50 -121.5t134 -46.5h146q17 0 30 -7.5t13 -25.5v-104q0 -16 -10.5 -26.5t-30.5 -10.5l-152 1q-63 0 -110 -23.5t-72.5 -65.5t-25.5 -96q0 -62 31 -106t83.5 -66.5
t116.5 -22.5h70q57 0 110.5 19t112.5 69q16 14 31 14q14 0 23 -12l49 -63q9 -12 9 -24z" />
    <glyph glyph-name="epsilontonos" unicode="&#x3ad;" horiz-adv-x="1064" 
d="M508 1640h84q18 0 25 -9t6 -27l-15 -222q-1 -33 -30 -33h-58q-26 0 -28 35l-15 220q-3 36 31 36zM938 167q0 -13 -12 -27q-69 -76 -153 -113t-189 -37h-75q-110 0 -203.5 44.5t-149.5 125.5t-56 184q0 187 179 293q-65 42 -106 109t-41 144q0 103 49.5 181t134.5 120
t187 42h25q114 0 204.5 -31t155.5 -114q18 -23 18 -33q0 -8 -12 -19l-75 -75q-7 -5 -15 -5q-9 0 -18 4.5t-14 10.5q-37 47 -83 66.5t-106 19.5h-55q-55 0 -100 -21.5t-71.5 -60.5t-26.5 -90q0 -75 50 -121.5t134 -46.5h146q17 0 30 -7.5t13 -25.5v-104q0 -16 -10.5 -26.5
t-30.5 -10.5l-152 1q-63 0 -110 -23.5t-72.5 -65.5t-25.5 -96q0 -62 31 -106t83.5 -66.5t116.5 -22.5h70q57 0 110.5 19t112.5 69q16 14 31 14q14 0 23 -12l49 -63q9 -12 9 -24z" />
    <glyph glyph-name="zeta" unicode="&#x3b6;" horiz-adv-x="1054" 
d="M910 100.5q79 -48.5 124 -129t45 -173.5q0 -67 -26 -136t-74 -116q-19 -17 -32 -17q-14 0 -31 16l-58 50q-9 9 -9 21t13 28q30 33 44 67.5t14 76.5q0 56 -26 101t-73.5 70.5t-108.5 25.5h-146q-141 0 -254 63t-177 173.5t-64 245.5q0 92 33.5 179.5t98.5 155.5l577 613
h-633q-15 0 -23 8.5t-8 20.5v107q0 16 8.5 23.5t21.5 7.5h855q16 0 25 -10t9 -20v-87q0 -24 -20 -46l-658 -695q-55 -58 -81.5 -120t-26.5 -139q0 -92 44.5 -164t121 -112t168.5 -40h151q97 0 176 -48.5z" />
    <glyph glyph-name="eta" unicode="&#x3b7;" horiz-adv-x="1261" 
d="M326.5 10q-12.5 -10 -30.5 -10h-108q-34 0 -34 37v1151q0 38 34 38h122q29 0 29 -42v-127q138 182 360 182q129 0 236 -63.5t169.5 -181.5t62.5 -273v-1089q0 -36 -33 -36h-115q-36 0 -36 36v1078q0 91 -37.5 170t-110 127.5t-173.5 48.5q-78 0 -152.5 -40t-122.5 -118
t-48 -185v-676q0 -17 -12.5 -27z" />
    <glyph glyph-name="etatonos" unicode="&#x3ae;" horiz-adv-x="1261" 
d="M646 1657h84q18 0 25 -9t6 -27l-15 -222q-1 -33 -30 -33h-58q-26 0 -28 35l-15 220q-3 36 31 36zM326.5 10q-12.5 -10 -30.5 -10h-108q-34 0 -34 37v1151q0 38 34 38h122q29 0 29 -42v-127q138 182 360 182q129 0 236 -63.5t169.5 -181.5t62.5 -273v-1089q0 -36 -33 -36
h-115q-36 0 -36 36v1078q0 91 -37.5 170t-110 127.5t-173.5 48.5q-78 0 -152.5 -40t-122.5 -118t-48 -185v-676q0 -17 -12.5 -27z" />
    <glyph glyph-name="theta" unicode="&#x3b8;" horiz-adv-x="1332" 
d="M171.5 1198q79.5 183 215.5 284t297 101q159 0 294 -101t215.5 -284.5t80.5 -418.5q0 -232 -80.5 -414t-216 -282.5t-295.5 -100.5q-159 0 -294 100.5t-215.5 283t-80.5 415.5q0 234 79.5 417zM481 1324.5q-92 -75.5 -147 -200t-61 -266.5h820q-6 140 -62 265t-148 201
t-200 76q-110 0 -202 -75.5zM882 238q92 74 149 196.5t63 260.5h-822q6 -139 61.5 -261t147.5 -196t202 -74q107 0 199 74z" />
    <glyph glyph-name="iota" unicode="&#x3b9;" horiz-adv-x="461" 
d="M149.5 1217q9.5 9 24.5 9h118q16 0 25 -9.5t9 -25.5v-1155q0 -36 -34 -36h-118q-34 0 -34 36v1155q0 17 9.5 26z" />
    <glyph glyph-name="iotadieresis" unicode="&#x3ca;" 
d="M13 1554h106q20 0 28.5 -10.5t8.5 -31.5v-102q0 -22 -9 -30.5t-28 -8.5h-105q-40 0 -40 38v105q0 40 39 40zM393 1554h106q20 0 28.5 -10.5t8.5 -31.5v-102q0 -22 -9 -30.5t-28 -8.5h-105q-40 0 -40 38v105q0 40 39 40zM163.5 1217q9.5 9 24.5 9h118q16 0 25 -9.5
t9 -25.5v-1155q0 -36 -34 -36h-118q-34 0 -34 36v1155q0 17 9.5 26z" />
    <glyph glyph-name="iotatonos" unicode="&#x3af;" 
d="M213 1656h84q18 0 25 -9t6 -27l-15 -222q-1 -33 -30 -33h-58q-26 0 -28 35l-15 220q-3 36 31 36zM163.5 1217q9.5 9 24.5 9h118q16 0 25 -9.5t9 -25.5v-1155q0 -36 -34 -36h-118q-34 0 -34 36v1155q0 17 9.5 26z" />
    <glyph glyph-name="kappa" unicode="&#x3ba;" horiz-adv-x="1268" 
d="M187 1227h116q32 0 32 -36v-565l584 581q14 14 24 17t26 3h210q13 0 21 -7.5t8 -21.5v-105q0 -11 -9 -19.5t-21 -8.5h-174l-343 -337l559 -671q10 -13 10 -25q0 -13 -10 -22.5t-23 -9.5h-128q-12 0 -22 5.5t-23 21.5l-480 588l-209 -203v-375q0 -37 -32 -37h-116
q-33 0 -33 37v1154q0 36 33 36z" />
    <glyph glyph-name="lambda" unicode="&#x3bb;" horiz-adv-x="1143" 
d="M429.5 1309.5q-25.5 49.5 -71 84t-115.5 34.5q-43 0 -43 36v78q0 17 8.5 28t42.5 11q119 0 192 -44.5t111.5 -110.5t82.5 -179l7.5 -18.5t6.5 -16.5l457 -1158q4 -11 4 -21q0 -16 -10 -24.5t-24 -8.5h-116q-26 0 -37 30l-351 929l-340 -926q-12 -33 -38 -33h-125
q-15 0 -23.5 8.5t-8.5 22.5q0 12 4 21l441 1128q-29 80 -54.5 129.5z" />
    <glyph glyph-name="uni03BC" unicode="&#x3bc;" horiz-adv-x="1249" 
d="M1115 0h-71q-17 0 -29 12t-15 30l-21 159q-54 -94 -142.5 -156.5t-202.5 -62.5q-90 0 -179.5 43.5t-159.5 118.5l1 -508q0 -19 -13 -30.5t-31 -11.5h-104q-34 0 -34 37v1558q0 37 34 37h107q18 0 29 -9.5t11 -27.5v-733q9 -95 62 -165.5t129 -107t152 -36.5
q93 0 168.5 49.5t118.5 123t43 141.5v728q0 17 9.5 27.5t26.5 10.5h111q34 0 34 -37v-1153q0 -37 -34 -37z" />
    <glyph glyph-name="xi" unicode="&#x3be;" horiz-adv-x="1079" 
d="M284 290q48 -72 122.5 -110.5t150.5 -38.5h131q96 0 175 -48.5t124 -129.5t45 -174q0 -66 -25.5 -129.5t-74.5 -112.5q-17 -17 -32 -17t-31 16l-57 50q-10 10 -10 21q0 13 13 28q30 33 44 67.5t14 76.5q0 54 -25 99.5t-70.5 72t-102.5 26.5h-130q-138 0 -247 65.5
t-170 174.5t-61 233q0 98 37.5 179t98.5 139t133 90q-180 107 -180 305q0 76 36.5 150t99.5 116h-190q-37 0 -37 33v78q0 16 10.5 24t26.5 8h838q17 0 29 -9t12 -23v-77q0 -15 -11.5 -24.5t-29.5 -9.5h-398q-59 0 -107.5 -36t-76.5 -95t-28 -125q0 -67 32 -124t86 -90.5
t115 -33.5h183q41 0 41 -33v-94q0 -19 -11 -26.5t-31 -7.5h-181q-77 0 -153 -38.5t-125.5 -110.5t-49.5 -169q0 -94 48 -166z" />
    <glyph glyph-name="pi" unicode="&#x3c0;" horiz-adv-x="1190" 
d="M1082.5 15q-6.5 -15 -31.5 -15h-110q-17 0 -24 8t-8 19t-1 39v990h-606v-1020q0 -36 -32 -36h-115q-34 0 -34 36v1151q0 17 9.5 26.5t24.5 9.5l900 3q34 0 34 -38v-1125q0 -33 -6.5 -48z" />
    <glyph glyph-name="rho" unicode="&#x3c1;" horiz-adv-x="1447" 
d="M200.5 926q84.5 145 228.5 230t315 85q172 0 318 -85t232 -230.5t86 -316.5q0 -170 -86 -314.5t-232 -229.5t-318 -85q-124 0 -240 52.5t-207 146.5v-542q0 -22 -8.5 -32.5t-29.5 -10.5h-110q-20 0 -26.5 12.5t-6.5 32.5v970q0 172 84.5 317zM352 379.5
q60 -105.5 164 -167t228 -61.5q126 0 231.5 61.5t167 167t61.5 229.5q0 125 -61.5 231t-167 168t-231.5 62q-124 0 -228 -62t-164 -168t-60 -231q0 -124 60 -229.5z" />
    <glyph glyph-name="uni03C2" unicode="&#x3c2;" horiz-adv-x="1190" 
d="M976 109.5q81 -53.5 127 -140t46 -182.5q0 -67 -26.5 -132t-76.5 -115q-19 -17 -33 -17q-15 0 -31 16l-60 53q-11 11 -11 21q0 13 14 29q29 33 41.5 66t12.5 76q0 54 -25.5 98.5t-72 70.5t-106.5 26h-58q-172 0 -316 83.5t-228.5 228t-84.5 318.5q0 175 87.5 319t233 227
t311.5 83q114 0 209 -34t181 -106q13 -10 13 -24q0 -7 -5 -17l-57 -88q-3 -5 -9.5 -8t-13.5 -3q-10 0 -20 7q-74 54 -146 80.5t-148 26.5q-118 0 -224 -60t-170.5 -166t-64.5 -238q0 -127 59.5 -229t162 -159t227.5 -57h83q98 0 179 -53.5z" />
    <glyph glyph-name="sigma" unicode="&#x3c3;" horiz-adv-x="1438" 
d="M168.5 926q84.5 145 228.5 230t315 85q87 0 165 -22h520q36 0 36 -33v-93q0 -33 -36 -33h-241q91 -89 141.5 -205t50.5 -246q0 -170 -86 -314.5t-232 -229.5t-318 -85q-171 0 -315 84.5t-228.5 229t-84.5 315.5q0 172 84.5 317zM320 379.5q60 -105.5 163.5 -167
t228.5 -61.5q126 0 231.5 61.5t167 167t61.5 229.5q0 125 -61.5 231t-167 168t-231.5 62q-124 0 -228 -62t-164 -168t-60 -231q0 -124 60 -229.5z" />
    <glyph glyph-name="tau" unicode="&#x3c4;" horiz-adv-x="1171" 
d="M94 1226h980q32 0 32 -33v-94q0 -34 -32 -34h-398v-1031q0 -34 -33 -34h-115q-34 0 -34 34v1031h-400q-34 0 -34 34v94q0 33 34 33z" />
    <glyph glyph-name="phi" unicode="&#x3c6;" horiz-adv-x="1438" 
d="M155 902q71 136 194.5 224.5t275.5 108.5v311q0 36 33 36h117q33 0 33 -36v-312q151 -22 274.5 -111t194.5 -224t71 -290t-71 -289t-194.5 -222.5t-274.5 -110.5v-313q0 -36 -33 -36h-117q-33 0 -33 36v312q-152 20 -275.5 107.5t-194.5 223t-71 292.5t71 293zM304 404
q47 -95 131 -158t190 -83v894q-106 -20 -189.5 -83.5t-131 -158.5t-47.5 -206q0 -110 47 -205zM1128 812q-47 94 -130.5 158t-189.5 85v-890q105 21 188.5 84.5t131 157t47.5 202.5t-47 203z" />
    <glyph glyph-name="chi" unicode="&#x3c7;" horiz-adv-x="1396" 
d="M314 -342q-11 -16 -18.5 -21t-18.5 -5h-131q-11 0 -19 6.5t-8 17.5q0 8 6 19l461 750l-460 759q-6 9 -6 18q0 11 7.5 18t18.5 7h132q22 0 38 -26l370 -611l370 611q18 26 39 26h132q11 0 18.5 -7t7.5 -18q0 -9 -6 -18l-461 -760l461 -749q6 -12 6 -20q0 -11 -7.5 -17
t-18.5 -6h-130q-11 0 -19.5 5t-18.5 21l-373 602z" />
    <glyph glyph-name="psi" unicode="&#x3c8;" horiz-adv-x="1503" 
d="M386 55.5q-116 65.5 -180 182t-64 274.5v681q0 15 8 24.5t22 9.5h115q33 0 33 -36v-681q0 -99 43 -178.5t119.5 -128.5t174.5 -59v1048q0 35 33 35h120q32 0 32 -35v-1047q98 13 175.5 63.5t121.5 128.5t44 173v682q0 15 8 25t24 10h110q17 0 26.5 -10t9.5 -25v-685
q0 -158 -64.5 -272.5t-181.5 -178.5t-273 -75v-351q0 -34 -32 -34h-120q-33 0 -33 34v350q-155 10 -271 75.5z" />
    <glyph glyph-name="omega" unicode="&#x3c9;" horiz-adv-x="1584" 
d="M1462.5 184q-56.5 -90 -149.5 -144.5t-195 -54.5q-95 0 -180.5 43t-136.5 116q-50 -72 -136.5 -115.5t-181.5 -43.5q-123 0 -214 58t-138.5 150.5t-47.5 191.5v319q0 304 145 473q15 16 24.5 23t18.5 7q10 0 23 -10l67 -53q15 -15 15 -31q0 -10 -5 -20q-51 -71 -79 -164
t-28 -218v-327q0 -57 30 -108.5t81 -83t110 -31.5t112 32t84.5 84t31.5 109v374q0 22 10.5 32.5t26.5 10.5h106q18 0 26 -12.5t8 -28.5v-376q0 -57 31.5 -109t84 -84t112.5 -32t110.5 31.5t80 83.5t29.5 110v319q0 117 -25.5 206.5t-80.5 179.5q-10 15 -10 25q0 12 19 31
l61 49q16 11 27 11t25 -12t36 -41q63 -80 96 -189.5t33 -231.5v-358q0 -101 -56.5 -191z" />
    <glyph glyph-name="omegatonos" unicode="&#x3ce;" horiz-adv-x="1584" 
d="M754 1574h84q18 0 25 -9t6 -27l-15 -222q-1 -33 -30 -33h-58q-26 0 -28 35l-15 220q-3 36 31 36zM1462.5 184q-56.5 -90 -149.5 -144.5t-195 -54.5q-95 0 -180.5 43t-136.5 116q-50 -72 -136.5 -115.5t-181.5 -43.5q-123 0 -214 58t-138.5 150.5t-47.5 191.5v319
q0 304 145 473q15 16 24.5 23t18.5 7q10 0 23 -10l67 -53q15 -15 15 -31q0 -10 -5 -20q-51 -71 -79 -164t-28 -218v-327q0 -57 30 -108.5t81 -83t110 -31.5t112 32t84.5 84t31.5 109v374q0 22 10.5 32.5t26.5 10.5h106q18 0 26 -12.5t8 -28.5v-376q0 -57 31.5 -109t84 -84
t112.5 -32t110.5 31.5t80 83.5t29.5 110v319q0 117 -25.5 206.5t-80.5 179.5q-10 15 -10 25q0 12 19 31l61 49q16 11 27 11t25 -12t36 -41q63 -80 96 -189.5t33 -231.5v-358q0 -101 -56.5 -191z" />
    <glyph glyph-name="omicron" unicode="&#x3bf;" horiz-adv-x="1457" 
d="M186 925q84 144 228 228.5t315 84.5q172 0 316 -84.5t228 -229t84 -315.5t-84 -316.5t-227.5 -231t-315.5 -85.5q-170 0 -314.5 85.5t-229 231t-84.5 316.5q0 172 84 316zM350 382q61 -104 162.5 -164.5t217.5 -60.5q128 0 227 60t153.5 163t54.5 229t-55.5 229.5
t-155 163.5t-225.5 60q-117 0 -218 -60.5t-161.5 -164.5t-60.5 -228q0 -123 61 -227z" />
    <glyph glyph-name="omicrontonos" unicode="&#x3cc;" horiz-adv-x="1457" 
d="M687 1637h84q18 0 25 -9t6 -27l-15 -222q-1 -33 -30 -33h-58q-26 0 -28 35l-15 220q-3 36 31 36zM186 925q84 144 228 228.5t315 84.5q172 0 316 -84.5t228 -229t84 -315.5t-84 -316.5t-227.5 -231t-315.5 -85.5q-170 0 -314.5 85.5t-229 231t-84.5 316.5q0 172 84 316z
M350 382q61 -104 162.5 -164.5t217.5 -60.5q128 0 227 60t153.5 163t54.5 229t-55.5 229.5t-155 163.5t-225.5 60q-117 0 -218 -60.5t-161.5 -164.5t-60.5 -228q0 -123 61 -227z" />
    <glyph glyph-name="uni03D0" unicode="&#x3d0;" horiz-adv-x="1193" 
d="M352.5 27.5q-110.5 48.5 -174 144.5t-63.5 233v759q-1 128 60 222.5t168 144.5t240 50q119 0 218 -51.5t157 -142.5t58 -205q0 -100 -48.5 -176.5t-130.5 -113.5q145 -52 218.5 -163.5t73.5 -254.5q0 -156 -73.5 -268t-194 -169.5t-258.5 -57.5q-140 0 -250.5 48.5z
M769 192.5q75 41.5 119.5 114.5t44.5 163q0 152 -90.5 235t-250.5 83q-19 0 -31 10t-10 25l2 99q5 29 45 29q66 0 119.5 23t85.5 69t32 112q0 74 -35 132t-95.5 90.5t-134.5 32.5q-76 0 -135.5 -37.5t-92.5 -102t-33 -141.5v-711q0 -79 34 -139t101.5 -94t163.5 -34
q86 0 161 41.5z" />
    <glyph glyph-name="uni03D1" unicode="&#x3d1;" horiz-adv-x="1047" 
d="M123 438h86q23 0 28.5 -11.5t5.5 -36.5q0 -72 34.5 -129.5t90.5 -89.5t118 -32q69 0 120.5 31t79 84t27.5 117v392h-230q-107 0 -200 55.5t-148.5 148.5t-55.5 201q0 111 55.5 206t150 151t205.5 56q112 0 204 -47t145.5 -133t53.5 -197l1 -269h95q16 0 27 -7.5t11 -22.5
v-109q0 -32 -38 -32h-95v-389q0 -120 -54 -209.5t-145.5 -137.5t-201.5 -48q-113 0 -207.5 55.5t-149.5 151t-55 211.5q0 40 42 40zM684 1310q-29 51 -80.5 79.5t-116.5 28.5q-67 0 -121.5 -32t-85.5 -87t-31 -120q0 -68 34 -124.5t89.5 -89.5t115.5 -33h225v261
q0 66 -29 117z" />
    <glyph glyph-name="uni03F0" unicode="&#x3f0;" horiz-adv-x="1134" 
d="M90 1178q-8 11 -8 22q0 12 9.5 19.5t23.5 7.5h137q14 0 22 -6t18 -21l276 -421l283 421q11 15 18 21t21 6h138q14 0 23 -7.5t9 -18.5q0 -12 -8 -23l-377 -539l400 -576q11 -14 11 -30q0 -14 -9 -23.5t-27 -9.5h-133q-24 0 -41 26l-308 476l-306 -476q-17 -26 -40 -26
h-133q-18 0 -27 9.5t-9 23.5q0 16 11 30l396 576z" />
    <glyph glyph-name="uni0411" unicode="&#x411;" horiz-adv-x="1271" 
d="M337 899h404q122 0 223.5 -62.5t159.5 -166t58 -221.5q0 -119 -58.5 -222.5t-160.5 -165t-225 -61.5h-551q-31 0 -31 34v1359q0 34 33 34h848q34 0 34 -34v-98q0 -17 -9 -25.5t-25 -8.5h-700v-362zM337 158h374q81 0 147 39t103.5 106t37.5 146t-37.5 146t-103.5 106
t-147 39h-374v-582z" />
    <glyph glyph-name="uni0413" unicode="&#x413;" horiz-adv-x="1094" 
d="M362 32q0 -14 -8.5 -23.5t-22.5 -9.5h-141q-17 0 -25.5 9t-8.5 25v1360q0 34 33 34h855q17 0 26 -9.5t9 -24.5v-116q0 -16 -9.5 -24.5t-25.5 -8.5h-682v-1212z" />
    <glyph glyph-name="uni0414" unicode="&#x414;" horiz-adv-x="1459" 
d="M1419 146v-453q0 -12 -8 -20t-22 -8h-115q-12 0 -19.5 7t-7.5 21v308h-1039v-315q0 -28 -31 -28h-104q-12 0 -20.5 8t-8.5 22v456q0 15 9 24t24 9h97q68 107 111 207.5t72.5 268.5t33.5 424q4 133 4 319q0 14 8 22.5t21 8.5h793q12 0 21 -9t9 -21v-1220h139q33 0 33 -31z
M557 854q-11 -168 -53.5 -344t-129.5 -333h686v1074h-492q0 -229 -11 -397z" />
    <glyph glyph-name="De.alt" horiz-adv-x="1455" 
d="M563 1401q9 25 29 25h270q10 0 17.5 -6.5t10.5 -17.5l420 -1225h59q25 0 33 -10.5t8 -36.5v-421q0 -12 -7.5 -20t-21.5 -8h-115q-12 0 -20 8t-8 20v292h-1040v-312q0 -31 -29 -31h-109q-25 0 -25 32v454q0 15 9 24t24 9h76zM1134 177l-378 1051h-63l-377 -1051h818z" />
    <glyph glyph-name="uni0416" unicode="&#x416;" horiz-adv-x="1931" 
d="M1059.5 10.5q-8.5 -10.5 -21.5 -10.5h-123q-12 0 -23 8t-11 24v539q-32 3 -61 10.5t-61 28.5l-460 -586q-11 -14 -20.5 -19t-21.5 -5h-150q-11 0 -19 7.5t-8 18.5q0 10 7 18l544 684q-7 7 -34.5 46l-42.5 60l-209 302q-36 51 -84.5 88.5t-106.5 37.5q-16 0 -24 9t-8 23
v106q0 16 10 24t22 8q87 0 174.5 -41t149.5 -132l201 -297q62 -92 109 -139.5t93 -47.5v621q0 15 8.5 23.5t25.5 8.5h123q14 0 22 -9.5t8 -23.5v-620q46 0 93 47.5t109 139.5l201 297q62 91 149.5 132t174.5 41q12 0 22 -8t10 -24v-106q0 -14 -8 -23t-24 -9
q-58 0 -106.5 -37.5t-84.5 -88.5l-209 -302l-42.5 -60t-34.5 -46l544 -684q7 -8 7 -18q0 -11 -8 -18.5t-19 -7.5h-150q-12 0 -21.5 5t-20.5 19l-460 586q-32 -21 -61 -28.5t-61 -10.5v-540q0 -10 -8.5 -20.5z" />
    <glyph glyph-name="uni0417" unicode="&#x417;" horiz-adv-x="979" 
d="M818 700.5q57 -54.5 91 -129.5t34 -162q0 -121 -59 -217.5t-160.5 -150t-224.5 -53.5h-82q-107 0 -202.5 45t-166.5 120q-11 11 -11 25q0 10 8 18l50 84q10 8 21 8q14 0 26 -11q41 -53 112.5 -91.5t156.5 -38.5h82q70 0 131 37t97.5 100t36.5 137q0 76 -36 137t-97 96
t-134 35h-131q-17 0 -26 8.5t-9 21.5v90q0 33 34 33h132q58 0 109.5 29t82.5 78.5t31 109.5q0 61 -30.5 110.5t-83.5 78t-117 28.5h-91q-67 -1 -125 -32t-97 -84q-10 -12 -25 -12q-11 0 -18 8l-53 82q-7 9 -7 20q0 14 12 26q47 66 132 108t191 42h93q101 0 189.5 -38.5
t144 -118t55.5 -195.5q0 -103 -55.5 -179.5t-135.5 -117.5q68 -30 125 -84.5z" />
    <glyph glyph-name="uni0418" unicode="&#x418;" horiz-adv-x="1516" 
d="M309 0h-120q-35 0 -35 37v1355q0 15 10 24.5t25 9.5h111q17 0 26 -9.5t9 -24.5v-1078l815 1083q21 29 46 29h131q16 0 25 -10t9 -24v-1355q0 -37 -34 -37h-111q-35 0 -35 37v1113l-826 -1122q-19 -28 -46 -28z" />
    <glyph glyph-name="uni0419" unicode="&#x419;" horiz-adv-x="1516" 
d="M885.5 1605q61.5 34 97.5 89t36 117q0 17 -10.5 26.5t-26.5 9.5h-79q-17 0 -25.5 -10t-8.5 -26q0 -24 -14 -49t-40 -41.5t-60 -16.5q-38 0 -65 16t-40 40.5t-13 50.5q0 15 -10 25.5t-27 10.5h-77q-16 0 -26.5 -9.5t-10.5 -26.5q0 -60 35 -115.5t95.5 -90t133.5 -35.5
q74 1 135.5 35zM309 0h-120q-35 0 -35 37v1355q0 15 10 24.5t25 9.5h111q17 0 26 -9.5t9 -24.5v-1078l815 1083q21 29 46 29h131q16 0 25 -10t9 -24v-1355q0 -37 -34 -37h-111q-35 0 -35 37v1113l-826 -1122q-19 -28 -46 -28z" />
    <glyph glyph-name="uni041A" unicode="&#x41a;" horiz-adv-x="1307" 
d="M189 1427h123q14 0 22 -9.5t8 -23.5v-622q44 1 80.5 24t66 57t80.5 100l233 306q59 87 153 128t187 41q12 0 22 -7.5t10 -23.5v-107q0 -14 -8 -22.5t-24 -8.5q-69 0 -120.5 -38t-107.5 -111l-220 -284l-23 -29q-8 -12 -13 -17l606 -736q7 -8 7 -18q0 -11 -8 -18.5
t-19 -7.5h-150q-12 0 -21.5 5t-20.5 19l-515 633q-46 -55 -98.5 -71.5t-96.5 -16.5v-538q0 -11 -8 -21t-21 -10h-123q-12 0 -23 8t-11 24v1363q0 32 33 32z" />
    <glyph glyph-name="uni041B" unicode="&#x41b;" horiz-adv-x="1386" 
d="M283.5 1413.5q11.5 12.5 32.5 12.5h940q36 0 36 -33v-1358q0 -15 -8 -25t-21 -10h-124q-34 0 -34 35v1217h-645v-900q0 -79 -41 -162.5t-124 -139.5t-201 -56q-17 0 -27.5 9.5t-10.5 27.5v113q0 12 10.5 19.5t25.5 7.5q51 0 92 24t64.5 65t23.5 91v1029q0 21 11.5 33.5z
" />
    <glyph glyph-name="El.alt" horiz-adv-x="1353" 
d="M632 1426h90q27 0 39 -30l552 -1355q4 -12 4 -16q0 -12 -8.5 -18.5t-21.5 -6.5h-130q-26 0 -36 29l-109 273h-670l-108 -273q-11 -29 -37 -29h-140q-14 0 -22 6t-8 18q0 9 4 17l562 1355q12 30 39 30zM939 486l-260 656l-266 -656h526z" />
    <glyph glyph-name="uni041C" unicode="&#x41c;" horiz-adv-x="1778" 
d="M268 34q-3 -34 -34 -34h-114q-35 0 -32 37l152 1358q5 32 36 32h162q11 0 17 -5.5t11 -20.5l426 -1034l421 1032q10 28 31 28h163q32 0 35 -32l159 -1360q3 -35 -31 -35h-124q-17 0 -24.5 7.5t-9.5 25.5l-112 1085l-427 -1033q-6 -15 -13.5 -20t-18.5 -5h-100
q-11 0 -19 5t-14 20l-422 1032z" />
    <glyph glyph-name="uni041E" unicode="&#x41e;" horiz-adv-x="1688" 
d="M208 1080q99 168 267.5 266.5t367.5 98.5t366 -98.5t264.5 -266.5t97.5 -368q0 -199 -97.5 -366.5t-264.5 -265t-366 -97.5t-367.5 97.5t-267.5 265t-99 366.5q0 200 99 368zM368.5 435q72.5 -126 197.5 -199t277 -73q151 0 275 73t195 198.5t71 277.5t-71 278.5
t-195 200t-275 73.5t-276.5 -73.5t-198 -200t-72.5 -278.5q0 -151 72.5 -277z" />
    <glyph glyph-name="uni041F" unicode="&#x41f;" horiz-adv-x="1292" 
d="M1208 10q-8 -10 -21 -10h-125q-33 0 -33 35v1217h-692v-1217q0 -15 -7.5 -25t-21.5 -10h-124q-34 0 -34 35v1345q0 21 11 33.5t33 12.5h985q37 0 37 -33v-1358q0 -15 -8 -25z" />
    <glyph glyph-name="uni0420" unicode="&#x420;" horiz-adv-x="1160" 
d="M189 1427h516q120 0 215.5 -68.5t148 -174t52.5 -212.5q0 -106 -51.5 -205.5t-145 -162.5t-214.5 -63h-369v-505q0 -36 -33 -36h-119q-33 0 -33 36v1358q0 33 33 33zM341 723h333q80 0 139 34.5t90.5 93t31.5 127.5t-31.5 130.5t-91 99t-138.5 37.5h-333v-522z" />
    <glyph glyph-name="uni0421" unicode="&#x421;" horiz-adv-x="1365" 
d="M1193 294q12 0 22 -11l66 -97q9 -12 9 -22q0 -14 -18 -29q-90 -72 -200.5 -112.5t-236.5 -40.5q-200 0 -369 98t-268.5 266t-99.5 368t99 367.5t268.5 265t369.5 97.5q126 0 236.5 -40.5t202.5 -112.5q16 -12 16 -29q0 -10 -4 -16l-70 -100q-9 -11 -24 -11q-13 0 -26 10
q-75 58 -156 88.5t-175 30.5q-152 0 -278.5 -73t-200 -199t-73.5 -278t73.5 -278t200 -199.5t278.5 -73.5q175 0 329 118q16 13 29 13z" />
    <glyph glyph-name="uni0422" unicode="&#x422;" horiz-adv-x="1190" 
d="M86 1427h1012q32 0 32 -34v-118q0 -34 -32 -34h-413v-1207q0 -34 -33 -34h-120q-34 0 -34 34v1207h-412q-34 0 -34 34v118q0 34 34 34z" />
    <glyph glyph-name="uni0423" unicode="&#x423;" horiz-adv-x="1032" 
d="M370.5 40q-97.5 -70 -225.5 -70q-19 0 -30 7.5t-11 21.5v105q0 14 10 23.5t26 9.5q91 2 143 48t87 135l53 141l-384 915q-4 11 -4 21q0 14 10 22t25 8h117q27 0 37 -29l282 -711l274 710q10 30 39 30h118q17 0 26 -8.5t9 -22.5q0 -6 -4 -18l-444 -1118
q-56 -150 -153.5 -220z" />
    <glyph glyph-name="uni0424" unicode="&#x424;" horiz-adv-x="1450" 
d="M803 1429.5q8 -10.5 8 -23.5v-85q166 -12 305.5 -96t221 -218t81.5 -289q0 -157 -81 -290.5t-220 -216.5t-307 -95v-87q0 -11 -6.5 -20t-22.5 -9h-105q-16 0 -22.5 8.5t-6.5 20.5v87q-168 12 -307 95t-220 216.5t-81 290.5q0 155 81 289t220.5 218t306.5 96v85
q0 13 8 23.5t24 10.5h99q16 0 24 -10.5zM271 512q57 -96 156 -157.5t221 -74.5v881q-121 -12 -220 -73t-156.5 -157.5t-57.5 -209.5t57 -209zM1187.5 930.5q-57.5 96.5 -157 157.5t-220.5 73v-881q123 13 222 74.5t156 157.5t57 209t-57.5 209.5z" />
    <glyph glyph-name="uni0425" unicode="&#x425;" horiz-adv-x="1283" 
d="M1198 43q7 -10 7 -20q0 -11 -8.5 -17t-19.5 -6h-148q-23 0 -39 25l-360 531l-359 -530q-11 -16 -19.5 -21t-20.5 -5h-144q-12 0 -20.5 6.5t-8.5 17.5q0 9 7 19l456 671l-455 669q-7 11 -7 21t7 16.5t18 6.5h149q12 0 21 -5.5t18 -20.5l357 -525l361 527q9 14 18.5 20
t21.5 6h146q12 0 20.5 -7.5t8.5 -19.5q0 -8 -6 -17l-459 -672z" />
    <glyph glyph-name="uni0426" unicode="&#x426;" horiz-adv-x="1420" 
d="M1037 1390q0 16 8.5 25.5t25.5 9.5h120q32 0 32 -36v-1222h108q23 0 34.5 -9t11.5 -32v-465q0 -35 -34 -35h-119q-33 0 -33 35v339h-1001q-18 0 -26 8t-8 26v1357q0 16 8.5 26t25.5 10h119q33 0 33 -36v-1218h695v1217z" />
    <glyph glyph-name="uni0427" unicode="&#x427;" horiz-adv-x="1288" 
d="M282 1417.5q10 -9.5 10 -26.5v-538q0 -89 39.5 -161t107.5 -113t151 -41q88 0 162 39t117.5 108t43.5 156v550q0 15 8.5 25.5t24.5 10.5h123q15 0 23 -10t8 -26v-1354q0 -37 -33 -37h-121q-33 0 -33 36v482q-54 -64 -143.5 -107.5t-189.5 -43.5q-138 0 -246.5 62
t-169 171.5t-60.5 248.5v542q0 16 9.5 26t22.5 10h121q15 0 25 -9.5z" />
    <glyph glyph-name="uni0428" unicode="&#x428;" horiz-adv-x="1784" 
d="M830 1417q9 10 26 10h120q14 0 22.5 -10.5t8.5 -25.5v-1218h484v1218q0 16 8.5 26t24.5 10h121q15 0 23.5 -10t8.5 -26v-1357q0 -34 -35 -34h-1455q-17 0 -25 8t-8 26v1357q0 16 8.5 26t25.5 10h120q16 0 24 -10t8 -26v-1218h481v1218q0 16 9 26z" />
    <glyph glyph-name="uni0429" unicode="&#x429;" horiz-adv-x="1849" 
d="M830 1418q9 10 26 10h118q17 0 25 -11t8 -27v-1217h484v1218q0 16 8.5 26t25.5 10h122q30 0 30 -36v-1224h117q35 0 35 -36v-470q0 -35 -32 -35h-122q-17 0 -24.5 10t-7.5 25v339h-1456q-17 0 -25 8t-8 26v1360q0 15 9.5 24.5t23.5 9.5h119q18 0 26 -10t8 -24v-1221h481
v1219q0 16 9 26z" />
    <glyph glyph-name="uni042A" unicode="&#x42a;" horiz-adv-x="1217" 
d="M52 1427h319q12 0 20 -7t8 -19v-500h346q123 0 224 -62t159 -165t58 -222t-58.5 -223.5t-160.5 -167t-225 -62.5h-500q-16 0 -22.5 9t-6.5 25v1220h-163q-11 0 -20 6.5t-9 20.5v120q0 27 31 27zM399 157h310q81 0 146.5 40t103 108t37.5 147t-37.5 146t-103 106.5
t-146.5 39.5h-310v-587z" />
    <glyph glyph-name="uni042B" unicode="&#x42b;" horiz-adv-x="1700" 
d="M1095.5 228.5q-58.5 -104.5 -160.5 -167t-225 -62.5h-531q-28 0 -28 34v1361q0 14 8.5 23.5t22.5 9.5h122q14 0 23 -10t9 -24v-492h377q123 0 224 -62t159 -165t58 -222t-58.5 -223.5zM1338.5 1417.5q8.5 9.5 24.5 9.5h120q33 0 33 -36v-1354q0 -37 -33 -37h-120
q-33 0 -33 37v1354q0 17 8.5 26.5zM336 157h341q81 0 146.5 40t103 108t37.5 147t-37.5 146t-103 106.5t-146.5 39.5h-341v-587z" />
    <glyph glyph-name="uni042C" unicode="&#x42c;" horiz-adv-x="1194" 
d="M1092.5 228.5q-58.5 -104.5 -160.5 -167t-225 -62.5h-531q-28 0 -28 34v1361q0 14 8.5 23.5t22.5 9.5h122q14 0 23 -10t9 -24v-492h377q123 0 224 -62t159 -165t58 -222t-58.5 -223.5zM333 157h341q81 0 146.5 40t103 108t37.5 147t-37.5 146t-103 106.5t-146.5 39.5
h-341v-587z" />
    <glyph glyph-name="uni042D" unicode="&#x42d;" horiz-adv-x="1311" 
d="M983 1015q-70 109 -189 178.5t-264 69.5q-113 0 -195 -36.5t-147 -83.5q-13 -10 -23 -10q-13 0 -24 13l-72 92q-8 10 -8 19q0 18 23 35q92 73 205 112.5t238 39.5q199 0 366.5 -98.5t265 -267t97.5 -367.5q0 -198 -97.5 -365.5t-265 -265.5t-366.5 -98q-125 0 -235 40
t-212 113q-24 17 -24 35q0 9 8 20l67 86q14 19 30 19q11 0 24 -10q73 -58 160.5 -89.5t184.5 -31.5q136 0 252 62.5t190 170t88 238.5h-627q-17 0 -26 10.5t-9 23.5v91q0 12 9 22t26 10h626q-6 114 -76 223z" />
    <glyph glyph-name="uni042E" unicode="&#x42e;" horiz-adv-x="1993" 
d="M114.5 1417q8.5 10 24.5 10h121q32 0 32 -36v-592h177q20 178 121.5 326t260 234t342.5 86q198 0 366 -99t267 -267t99 -367q0 -198 -99 -365.5t-267 -265.5t-366 -98q-188 0 -349.5 88.5t-262 241.5t-114.5 337h-175v-614q0 -36 -32 -36h-122q-19 0 -25.5 9.5t-6.5 26.5
v1355q0 16 8.5 26zM721 436.5q73 -126.5 198 -200.5t274 -74t274.5 74t198.5 200.5t73 275.5q0 150 -73 277t-198.5 202t-274.5 75t-274 -75t-198 -202t-73 -277q0 -149 73 -275.5z" />
    <glyph glyph-name="uni0490" unicode="&#x490;" horiz-adv-x="1119" 
d="M339 33q0 -17 -9 -26t-24 -9h-119q-17 0 -25 9.5t-8 25.5v1359q0 34 33 34h738v191q0 17 9.5 27.5t26.5 10.5h105q13 0 22.5 -9.5t9.5 -28.5v-324q0 -17 -10 -26.5t-29 -9.5h-720v-1224z" />
    <glyph glyph-name="uni0402" unicode="&#x402;" horiz-adv-x="1334" 
d="M1055 673.5q-38 61.5 -96 91t-117 29.5q-70 0 -130 -35t-95 -95.5t-35 -133.5v-504q0 -10 -7.5 -18.5t-20.5 -8.5h-131q-9 0 -17.5 7.5t-8.5 19.5v1232h-348q-10 0 -18.5 7t-8.5 20v115q0 10 7.5 18.5t19.5 8.5h883q11 0 19.5 -8.5t8.5 -18.5v-116q0 -11 -8.5 -18.5
t-19.5 -7.5h-348v-448q46 69 117 108.5t160 39.5q122 0 216.5 -53.5t147 -151.5t52.5 -226v-269q0 -111 -52 -188t-132.5 -114.5t-165.5 -37.5q-18 0 -29.5 8t-11.5 23v92q0 15 9 23t26 8q84 1 128 49t44 127v274q0 90 -38 151.5z" />
    <glyph glyph-name="uni0404" unicode="&#x404;" horiz-adv-x="1346" 
d="M923 782q9 -10 9 -22v-91q0 -13 -9 -23.5t-26 -10.5h-627q14 -131 88 -238.5t190 -170t252 -62.5q97 0 184.5 31.5t160.5 89.5q13 10 24 10q16 0 30 -19l67 -86q8 -11 8 -20q0 -18 -24 -35q-102 -73 -212 -113t-235 -40q-199 0 -366.5 98t-265 265.5t-97.5 365.5
q0 199 97.5 367.5t265 267t366.5 98.5q125 0 238 -39.5t205 -112.5q23 -17 23 -35q0 -9 -8 -19l-72 -92q-11 -13 -24 -13q-10 0 -23 10q-65 47 -146.5 83.5t-195.5 36.5q-145 0 -264 -69.5t-189 -178.5t-76 -223h626q17 0 26 -10z" />
    <glyph glyph-name="uni0403" unicode="&#x403;" horiz-adv-x="1094" 
d="M735.5 1589q-8.5 -5 -21.5 -5h-102q-12 0 -20.5 6.5t-8.5 19.5q0 10 4 19l105 222q8 17 17 23.5t22 6.5h101q12 -1 20.5 -10t8.5 -21q0 -9 -4 -17l-104 -220q-9 -19 -17.5 -24zM313 32q0 -14 -8.5 -23.5t-22.5 -9.5h-141q-17 0 -25.5 9t-8.5 25v1360q0 34 33 34h855
q17 0 26 -9.5t9 -24.5v-116q0 -16 -9.5 -24.5t-25.5 -8.5h-682v-1212z" />
    <glyph glyph-name="uni0408" unicode="&#x408;" horiz-adv-x="501" 
d="M172.5 1418.5q9.5 8.5 23.5 8.5h116q20 0 28 -9.5t8 -30.5v-1276q0 -70 -3 -136q-9 -90 -62 -166.5t-136.5 -121.5t-181.5 -45q-80 0 -155 29.5t-123 85.5q-7 7 -14 20t-7 24q0 12 8 20l70 65q11 11 23 11q11 0 21 -8.5t13 -10.5q27 -27 64 -43.5t91 -16.5q58 0 105.5 28
t74.5 73.5t27 95.5v1376q0 19 9.5 27.5z" />
    <glyph glyph-name="uni0409" unicode="&#x409;" horiz-adv-x="2024" 
d="M254.5 1417q8.5 10 25.5 10h889q19 0 28.5 -10t9.5 -26v-489h328q123 0 224 -62t159 -165t58 -222q0 -120 -58.5 -224t-160.5 -166.5t-225 -62.5h-484q-14 0 -21 11t-7 25v1216h-588v-909q0 -120 -54.5 -199.5t-138 -117t-172.5 -37.5q-20 0 -31 8t-11 25v109
q0 15 9.5 24t26.5 9q56 0 98 24.5t64.5 67.5t22.5 96v1039q0 16 8.5 26zM1207 158h292q81 0 147 40t103.5 107.5t37.5 146.5t-37.5 146t-103.5 106.5t-147 39.5h-292v-586z" />
    <glyph glyph-name="uni040A" unicode="&#x40a;" horiz-adv-x="1897" 
d="M104 1416q8 10 25 10h120q15 0 24 -9t9 -27v-489h603v490q0 35 34 35h119q33 0 33 -35v-490h325q123 0 223.5 -62t158.5 -165.5t58 -221.5q0 -121 -61 -225t-172.5 -166t-255.5 -62l-433 1q-14 0 -21.5 9t-7.5 24v695h-603v-692q0 -36 -35 -36h-119q-32 0 -32 35v1358
q0 13 8 23zM1071 157h288q81 0 147 40t103.5 108t37.5 147t-37.5 146t-103.5 106.5t-147 39.5h-288v-587z" />
    <glyph glyph-name="uni040B" unicode="&#x40b;" horiz-adv-x="1413" 
d="M595.5 7.5q-7.5 -8.5 -20.5 -8.5h-131q-9 0 -17.5 7.5t-8.5 19.5v1232h-351q-10 0 -18.5 7t-8.5 20v115q0 10 7.5 18.5t19.5 8.5h888q12 0 20 -8.5t8 -18.5v-116q0 -11 -8.5 -18.5t-19.5 -7.5h-351v-448q42 66 117.5 107t165.5 41q121 0 215.5 -53.5t147 -150.5
t52.5 -223v-505q0 -10 -7.5 -18.5t-20.5 -8.5h-131q-9 0 -17.5 7.5t-8.5 19.5v483q0 93 -38 157t-96.5 96t-119.5 32q-72 0 -132 -34t-94.5 -96.5t-33.5 -145.5v-492q0 -10 -7.5 -18.5z" />
    <glyph glyph-name="uni040C" unicode="&#x40c;" horiz-adv-x="1409" 
d="M778.5 1590q-8.5 -5 -21.5 -5h-102q-12 0 -20.5 6.5t-8.5 19.5q0 10 4 19l105 222q8 17 17 23.5t22 6.5h101q12 -1 20.5 -10t8.5 -21q0 -9 -4 -17l-104 -220q-9 -19 -17.5 -24zM1282 19q0 -10 -5.5 -16.5t-16.5 -6.5h-158q-20 0 -41 25l-526 636q-81 -83 -194 -88v-535
q0 -15 -9.5 -24.5t-22.5 -9.5h-123q-14 0 -22 10t-8 24v1359q0 19 8.5 26.5t24.5 7.5h123q16 0 22.5 -9.5t6.5 -22.5v-622q38 0 78.5 19.5t68.5 54.5q61 72 142 187l123 164t117 127q50 49 119 76t151 27q15 0 22 -8.5t7 -20.5v-108q0 -15 -8 -24t-22 -9q-44 0 -102.5 -31
t-118.5 -113l-260 -334l618 -742q6 -7 6 -19z" />
    <glyph glyph-name="uni040E" unicode="&#x40e;" horiz-adv-x="1020" 
d="M378.5 1587.5q-60.5 34.5 -95.5 90t-35 115.5q0 17 10.5 26.5t26.5 9.5h77q17 0 27 -10.5t10 -25.5q0 -26 13 -50.5t40 -40.5t65 -16q34 0 60 16.5t40 41.5t14 49q0 16 8.5 26t25.5 10h79q16 0 26.5 -9.5t10.5 -26.5q0 -62 -36 -117t-97.5 -89t-135.5 -35
q-73 1 -133.5 35.5zM370.5 40q-97.5 -70 -225.5 -70q-19 0 -30 7.5t-11 21.5v105q0 14 10 23.5t26 9.5q91 2 143 48t87 135l53 141l-384 915q-4 11 -4 21q0 14 10 22t25 8h117q27 0 37 -29l282 -711l274 710q10 30 39 30h118q17 0 26 -8.5t9 -22.5q0 -6 -4 -18l-444 -1118
q-56 -150 -153.5 -220z" />
    <glyph glyph-name="uni0431" unicode="&#x431;" horiz-adv-x="1319" 
d="M407 64q-137 75 -223 213.5t-86 319.5v332q0 231 76.5 380.5t217.5 214.5q63 29 134 39t159 10l109 -1q54 0 95 4t76 15q17 5 25 5q9 0 14 -4.5t9 -14.5l16 -99q4 -11 -3.5 -22.5t-32.5 -20.5q-51 -20 -146 -20l-76 1q-54 2 -80 2q-67 0 -120.5 -9t-96.5 -33
q-182 -101 -188 -359l-5 -74q35 69 102.5 126t148.5 90t156 33q158 0 292.5 -82.5t213.5 -220.5t79 -297q0 -160 -78.5 -299t-213 -221.5t-292.5 -82.5q-145 0 -282 75zM479 970q-94 -60 -149 -161.5t-55 -219.5t55 -219.5t149 -161.5t205 -60q110 0 204.5 60t150 161.5
t55.5 219.5t-55.5 219.5t-150 161.5t-204.5 60q-111 0 -205 -60z" />
    <glyph glyph-name="uni0432" unicode="&#x432;" horiz-adv-x="1199" 
d="M982 658q85 -44 135 -122t50 -172t-46.5 -178t-129 -135t-184.5 -51h-669q-38 0 -38 37v1152q0 18 10 28.5t28 10.5h629q92 0 170.5 -45t124.5 -120.5t46 -162.5q0 -132 -126 -242zM870.5 1026.5q-53.5 43.5 -141.5 43.5h-437v-345h437q87 0 141 46.5t54 129.5
q0 82 -53.5 125.5zM292 158h486q58 0 106.5 28t76 76t27.5 105q0 56 -29 99t-77.5 66.5t-103.5 23.5h-486v-398z" />
    <glyph glyph-name="uni0433" unicode="&#x433;" horiz-adv-x="1089" 
d="M302 36q0 -18 -7 -27t-24 -9h-122q-32 0 -32 35v1149q0 23 11 33t33 10h860q26 0 35 -8.5t9 -28.5v-94q0 -17 -12.5 -27t-31.5 -10h-719v-1023z" />
    <glyph glyph-name="uni0434" unicode="&#x434;" horiz-adv-x="1486" 
d="M54 -225v345q0 19 12 30.5t30 11.5h70q106 126 157 278.5t63.5 307t12.5 380.5v61q0 15 10.5 26.5t25.5 11.5h810q17 0 27 -10.5t10 -25.5v-1029h113q43 0 43 -42v-354q0 -13 -7 -21t-19 -8h-129q-16 0 -22.5 8t-6.5 23v233h-1015v-226q0 -32 -29 -32h-123q-33 0 -33 32z
M568 1072q0 -204 -11.5 -344.5t-58 -286.5t-143.5 -280h743v911h-530z" />
    <glyph glyph-name="uni0451" unicode="&#x451;" horiz-adv-x="1453" 
d="M489 1608h106q20 0 28.5 -10.5t8.5 -31.5v-102q0 -22 -9 -30.5t-28 -8.5h-105q-40 0 -40 38v105q0 40 39 40zM869 1608h106q20 0 28.5 -10.5t8.5 -31.5v-102q0 -22 -9 -30.5t-28 -8.5h-105q-40 0 -40 38v105q0 40 39 40zM391 327.5q64 -81.5 150 -126t178 -44.5
q76 0 131.5 16.5t91.5 39.5t80 59l22 18q12 10 25 10t20 -10l70 -93q9 -13 9 -24q0 -14 -13 -26q-97 -85 -200 -127t-231 -42q-167 0 -311.5 84.5t-230.5 228.5t-86 313q0 171 82.5 316.5t225 231t315.5 85.5q205 0 350 -89t218.5 -238t73.5 -327q0 -41 -16.5 -54.5
t-48.5 -13.5h-996q27 -106 91 -187.5zM537 1010q-90 -45 -151 -124.5t-84 -182.5h872q-22 103 -82 183t-152 124.5t-206 44.5q-107 0 -197 -45z" />
    <glyph glyph-name="uni0437" unicode="&#x437;" horiz-adv-x="1039" 
d="M191 266q15 0 31 -14q59 -50 112.5 -69t110.5 -19h70q64 0 116.5 22.5t83.5 66.5t31 106q0 54 -25.5 96t-72.5 65.5t-110 23.5l-152 -1q-20 0 -30.5 10.5t-10.5 26.5v104q0 18 13 25.5t30 7.5h146q84 0 134 46.5t50 121.5q0 51 -26.5 90t-71.5 60.5t-100 21.5h-55
q-60 0 -106 -19.5t-83 -66.5q-5 -6 -14 -10.5t-18 -4.5q-8 0 -15 5l-75 75q-12 11 -12 19q0 10 18 33q65 83 155.5 114t204.5 31h25q102 0 187 -42t134.5 -120t49.5 -181q0 -77 -41 -144t-106 -109q179 -106 179 -293q0 -103 -56 -183.5t-150 -125.5t-203 -45h-75
q-105 0 -189 37t-153 113q-12 14 -12 27q0 12 9 24l49 63q9 12 23 12z" />
    <glyph glyph-name="uni0438" unicode="&#x438;" horiz-adv-x="1359" 
d="M1040 1195q7 9 14 14.5t18 5.5h129q15 0 24 -10t9 -25v-1144q0 -36 -33 -36h-129q-33 0 -33 36l-1 872l-679 -882q-9 -12 -16.5 -19t-17.5 -7h-140q-16 0 -20 8t-5 28l-1 1144q0 16 9 25.5t25 9.5h129q15 0 24 -10t9 -25v-875z" />
    <glyph glyph-name="uni043A" unicode="&#x43a;" horiz-adv-x="1197" 
d="M642 973q19 28 31 44t17 24q51 70 99.5 108.5t100 53.5t118.5 15q25 0 35.5 -10.5t10.5 -25.5v-88q0 -18 -8.5 -27t-30.5 -11q-50 -4 -87.5 -25.5t-58 -45.5t-50.5 -65l-185 -244l515 -612q12 -15 12 -30q0 -14 -10 -24t-27 -10h-114q-13 0 -24 6.5t-26 24.5l-441 519
l-22 -24q-32 -35 -56.5 -57.5t-62 -41.5t-88.5 -27v-356q0 -20 -11 -32t-31 -12h-105q-21 0 -29.5 11t-8.5 31v1143q0 21 11 31.5t28 10.5h102q44 0 44 -45v-581q40 5 74.5 25t55.5 42q27 30 222 305z" />
    <glyph glyph-name="uni043B" unicode="&#x43b;" horiz-adv-x="1377" 
d="M470 1053v-701q0 -94 -47 -178t-136.5 -135.5t-209.5 -51.5q-57 0 -57 33v93q0 38 44 38q106 0 163 63.5t57 167.5v808q0 37 35 37h898q16 0 24.5 -9.5t8.5 -26.5v-1155q0 -36 -33 -36h-118q-33 0 -33 36v1016z" />
    <glyph glyph-name="el.alt" horiz-adv-x="1174" 
d="M1144 27q0 -13 -8.5 -20t-21.5 -7h-125q-28 0 -38 28l-372 973l-375 -972q-10 -30 -38 -30h-114q-15 0 -25.5 8.5t-10.5 22.5q0 9 5 22l459 1146q12 29 39 29h115q27 0 39 -29l466 -1149q5 -13 5 -22z" />
    <glyph glyph-name="uni043C" unicode="&#x43c;" horiz-adv-x="1609" 
d="M283 35q-3 -35 -35 -35h-105q-17 0 -25.5 10t-6.5 27l106 1156q2 16 11 25t23 9h150q21 0 33 -28l386 -916l373 916q12 28 33 28h150q14 0 23 -9t11 -25l116 -1156q2 -17 -6.5 -27t-25.5 -10h-105q-17 0 -24.5 8.5t-9.5 26.5l-100 894l-352 -849q-7 -17 -14 -23.5
t-19 -6.5h-102q-11 0 -18 6.5t-14 23.5l-365 846z" />
    <glyph glyph-name="uni043D" unicode="&#x43d;" horiz-adv-x="1306" 
d="M331 535v-499q0 -36 -33 -36h-126q-33 0 -33 36v1156q0 17 9 26t24 9h126q16 0 24.5 -9.5t8.5 -25.5v-477h659v477q0 17 9 26t24 9h125q17 0 25.5 -9.5t8.5 -25.5v-1156q0 -36 -34 -36h-125q-33 0 -33 36v499h-659z" />
    <glyph glyph-name="uni043F" unicode="&#x43f;" horiz-adv-x="1221" 
d="M289 1058v-1022q0 -36 -33 -36h-118q-34 0 -34 36v1154q0 17 9.5 26.5t24.5 9.5h945q33 0 33 -36v-1154q0 -36 -33 -36h-118q-34 0 -34 36v1022h-642z" />
    <glyph glyph-name="uni0443" unicode="&#x443;" horiz-adv-x="1142" 
d="M475 -367h-109q-18 0 -30.5 8.5t-12.5 26.5q0 10 6 25l151 384l-444 1097q-5 13 -5 20q0 15 11.5 24t26.5 9h121q26 0 38 -30l353 -914l358 914q10 30 38 30h119q18 0 27 -8t9 -21q0 -9 -5 -22l-613 -1514q-11 -29 -39 -29z" />
    <glyph glyph-name="uni0444" unicode="&#x444;" horiz-adv-x="1474" 
d="M358 77q-136 87 -215 228t-79 305q0 165 79 305.5t215 227.5t299 97v305q0 17 9 26.5t24 9.5h120q32 0 32 -36v-306q162 -12 297 -99t213.5 -227t78.5 -303q0 -162 -78.5 -303t-214 -228t-296.5 -97v-307q0 -36 -32 -36h-120q-33 0 -33 36v306q-163 9 -299 96z
M293.5 388.5q53.5 -102.5 149 -167t214.5 -73.5v926q-119 -9 -214.5 -73t-149 -166.5t-53.5 -223.5q0 -120 53.5 -222.5zM1199.5 834.5q-52.5 101.5 -145.5 164.5t-212 75v-924q118 12 211.5 75t146 164t52.5 222q0 122 -52.5 223.5z" />
    <glyph glyph-name="uni0446" unicode="&#x446;" horiz-adv-x="1372" 
d="M188 0q-15 0 -24.5 9.5t-9.5 26.5v1154q0 36 34 36h118q33 0 33 -36v-1022h651v1022q0 36 33 36h119q32 0 32 -36v-1022h113q15 0 22.5 -7t7.5 -24v-329q0 -16 -8.5 -25.5t-24.5 -9.5h-100q-15 0 -24.5 9t-9.5 26v192h-962z" />
    <glyph glyph-name="uni0447" unicode="&#x447;" horiz-adv-x="1231" 
d="M302.5 664.5q33.5 -76.5 110 -132t198.5 -55.5q73 0 152 47t131 119t52 142v405q0 37 36 37h117q34 0 34 -37v-1154q0 -36 -34 -36h-117q-34 0 -34 37l-2 457q-42 -53 -102.5 -96t-126 -67t-122.5 -24q-154 0 -269 65.5t-177 177.5t-65 248v392q0 37 33 37h118
q34 0 34 -37v-381q0 -68 33.5 -144.5z" />
    <glyph glyph-name="uni0448" unicode="&#x448;" horiz-adv-x="1732" 
d="M127 1227h119q32 0 32 -36v-1009h494v1009q0 36 33 36h118q33 0 33 -36v-1009h497v1009q0 36 33 36h119q32 0 32 -36v-1155q0 -36 -32 -36h-1478q-15 0 -24 9.5t-9 26.5v1155q0 36 33 36z" />
    <glyph glyph-name="uni0449" unicode="&#x449;" horiz-adv-x="1877" 
d="M141 1227h119q32 0 32 -36v-1009h494v1009q0 36 33 36h118q33 0 33 -36v-1009h497v1009q0 36 33 36h119q32 0 32 -36v-1009h138q33 0 33 -36v-338q0 -17 -8.5 -26.5t-24.5 -9.5h-101q-15 0 -24 9.5t-9 26.5v192h-1514q-15 0 -24 9.5t-9 26.5v1155q0 36 33 36z" />
    <glyph glyph-name="uni044A" unicode="&#x44a;" horiz-adv-x="1191" 
d="M28 1079.5q-9 9.5 -9 25.5v90q0 15 9.5 23.5t25.5 8.5h325q16 0 24.5 -9.5t8.5 -25.5v-388h359q104 0 190.5 -56t136 -148.5t49.5 -195.5q0 -105 -50.5 -198.5t-138 -149.5t-193.5 -56h-473q-34 0 -50 15t-16 48v1007h-172q-17 0 -26 9.5zM928 533.5q-36 56.5 -95.5 88
t-126.5 31.5h-294v-503h294q68 0 127 33.5t95 92t36 130.5q0 71 -36 127.5z" />
    <glyph glyph-name="uni044B" unicode="&#x44b;" horiz-adv-x="1468" 
d="M839.5 748q86.5 -56 136 -148.5t49.5 -195.5q0 -105 -50.5 -198.5t-138 -149.5t-193.5 -56h-473q-34 0 -50 15t-16 48v1129q0 17 9.5 26t25.5 9h118q16 0 24.5 -9.5t8.5 -25.5v-388h359q104 0 190.5 -56zM1177.5 1217q9.5 9 24.5 9h118q16 0 25 -9.5t9 -25.5v-1155
q0 -36 -34 -36h-118q-34 0 -34 36v1155q0 17 9.5 26zM806 533.5q-36 56.5 -95.5 88t-126.5 31.5h-294v-503h294q68 0 127 33.5t95 92t36 130.5q0 71 -36 127.5z" />
    <glyph glyph-name="uni044C" unicode="&#x44c;" horiz-adv-x="1084" 
d="M839.5 748q86.5 -56 136 -148.5t49.5 -195.5q0 -105 -50.5 -198.5t-138 -149.5t-193.5 -56h-473q-34 0 -50 15t-16 48v1129q0 17 9.5 26t25.5 9h118q16 0 24.5 -9.5t8.5 -25.5v-388h359q104 0 190.5 -56zM806 533.5q-36 56.5 -95.5 88t-126.5 31.5h-294v-503h294
q68 0 127 33.5t95 92t36 130.5q0 71 -36 127.5z" />
    <glyph glyph-name="uni044D" unicode="&#x44d;" horiz-adv-x="1154" 
d="M310.5 176.5q76.5 -28.5 162.5 -28.5q112 0 207.5 50t157.5 138t78 199h-479q-15 0 -23 8t-8 21v81q0 28 31 28h480q-16 115 -82.5 206.5t-165 142t-206.5 50.5q-148 0 -293 -107q-10 -7 -21 -7q-7 0 -13.5 3t-9.5 8l-57 88q-5 10 -5 17q0 14 13 24q86 71 181.5 105.5
t208.5 34.5q166 0 312 -83t233.5 -227t87.5 -319q0 -174 -84.5 -318.5t-229 -228t-315.5 -83.5q-109 0 -214.5 38t-177.5 103q-14 11 -14 27q0 12 8 23l56 83q8 11 21 11t24 -9q60 -50 136.5 -78.5z" />
    <glyph glyph-name="uni044E" unicode="&#x44e;" horiz-adv-x="1764" 
d="M113.5 1217.5q9.5 9.5 24.5 9.5h119q16 0 24.5 -9.5t8.5 -26.5v-501h178q20 154 107.5 280t222.5 198.5t293 72.5q172 0 318 -85t232 -230.5t86 -316.5q0 -170 -86 -314.5t-232 -229.5t-318 -85q-157 0 -291.5 71t-222 195t-108.5 277h-179v-487q0 -36 -33 -36h-119
q-34 0 -34 36v1155q0 17 9.5 26.5zM699 379.5q60 -105.5 163.5 -167t228.5 -61.5q126 0 231.5 61.5t167 167t61.5 229.5q0 125 -61.5 231t-167 168t-231.5 62q-124 0 -228 -62t-164 -168t-60 -231q0 -124 60 -229.5z" />
    <glyph glyph-name="uni0491" unicode="&#x491;" horiz-adv-x="1104" 
d="M292 36q0 -18 -7 -27t-24 -9h-122q-32 0 -32 35v1149q0 23 11 33t33 10h751v165q0 17 9 26t24 9h87q16 0 24.5 -9.5t8.5 -25.5v-296q0 -17 -12.5 -27t-31.5 -10h-719v-1023z" />
    <glyph glyph-name="uni044F" unicode="&#x44f;" horiz-adv-x="1044" 
d="M756.5 11q-11.5 11 -11.5 33v388h-303l-211 -403q-1 -3 -6 -12t-11 -13t-15 -4h-110q-14 0 -23.5 10t-9.5 22q0 5 3 11l221 425q-99 44 -159.5 140t-60.5 211q0 106 46.5 200t135 151t209.5 57h428q27 0 38.5 -12.5t11.5 -39.5v-1128q0 -47 -40 -47h-105q-16 0 -27.5 11z
M266.5 707q35.5 -50 93 -75.5t122.5 -25.5h263v450h-263q-70 0 -127 -25.5t-90.5 -76.5t-33.5 -125q0 -72 35.5 -122z" />
    <glyph glyph-name="uni0453" unicode="&#x453;" horiz-adv-x="1089" 
d="M658.5 1390q-8.5 -5 -21.5 -5h-102q-12 0 -20.5 6.5t-8.5 19.5q0 10 4 19l105 222q8 17 17 23.5t22 6.5h101q12 -1 20.5 -10t8.5 -21q0 -9 -4 -17l-104 -220q-9 -19 -17.5 -24zM283 36q0 -18 -7 -27t-24 -9h-122q-32 0 -32 35v1149q0 23 11 33t33 10h860q26 0 35 -8.5
t9 -28.5v-94q0 -17 -12.5 -27t-31.5 -10h-719v-1023z" />
    <glyph glyph-name="uni0452" unicode="&#x452;" horiz-adv-x="1302" 
d="M1181.5 -99q-39.5 -75 -105.5 -109t-148 -34q-63 0 -63 21v86q0 2 -0.5 13.5t7.5 20.5t26 9q58 0 88 25t40 68.5t10 113.5v563q0 96 -39 181t-114 137.5t-178 52.5q-89 0 -175 -46t-141 -126.5t-55 -178.5v-660q0 -18 -8.5 -28t-25.5 -10h-116q-35 0 -35 38v1284h-83
q-13 0 -22 7t-9 21v84q0 14 8.5 21.5t23.5 7.5h82v79q0 18 9 28t26 10h116q17 0 25.5 -10t8.5 -28v-79h230q13 0 21 -7t8 -21v-85q0 -12 -8.5 -20t-21.5 -8h-229v-316q77 99 184.5 158t225.5 59q148 0 256 -73t164.5 -196.5t56.5 -271.5v-589q0 -117 -39.5 -192z" />
    <glyph glyph-name="uni0454" unicode="&#x454;" horiz-adv-x="1154" 
d="M1008 264q14 0 21 -11l56 -83q8 -11 8 -23q0 -16 -14 -27q-72 -65 -177.5 -103t-214.5 -38q-171 0 -315.5 83.5t-229 228t-84.5 318.5q0 175 87.5 319t233.5 227t312 83q113 0 208.5 -34.5t181.5 -105.5q13 -10 13 -24q0 -7 -5 -17l-57 -88q-3 -5 -9.5 -8t-13.5 -3
q-11 0 -21 7q-145 107 -293 107q-108 0 -206.5 -50.5t-165 -142t-82.5 -206.5h480q31 0 31 -28v-81q0 -13 -8 -21t-23 -8h-479q16 -111 78 -199t157.5 -138t207.5 -50q86 0 162.5 28.5t136.5 78.5q12 9 24 9z" />
    <glyph glyph-name="uni0456" unicode="&#x456;" 
d="M163.5 1571q9.5 11 30.5 11h109q37 0 37 -43v-106q0 -22 -9 -30t-28 -8h-108q-21 0 -31 8.5t-10 28.5v109q0 19 9.5 30zM163.5 1217q9.5 9 24.5 9h118q16 0 25 -9.5t9 -25.5v-1155q0 -36 -34 -36h-118q-34 0 -34 36v1155q0 17 9.5 26z" />
    <glyph glyph-name="uni0458" unicode="&#x458;" 
d="M171.5 1575q9.5 11 30.5 11h109q37 0 37 -43v-106q0 -22 -9 -30t-28 -8h-108q-21 0 -31 8.5t-10 28.5v109q0 19 9.5 30zM194 1226h127q33 0 33 -37v-1186q0 -168 -78 -275t-253 -107q-25 0 -36.5 11t-11.5 22v93q0 36 44 36q77 0 108.5 60t31.5 173v1173q0 37 35 37z" />
    <glyph glyph-name="uni0459" unicode="&#x459;" horiz-adv-x="2043" 
d="M1262 1215.5q12 -11.5 12 -29.5v-382h359q104 0 190.5 -56t136 -148.5t49.5 -195.5q0 -106 -50 -199t-137.5 -149t-194.5 -56h-472q-34 0 -50 15t-16 48v998l-554 1v-710q0 -99 -45.5 -182t-133.5 -133t-209 -50q-57 0 -57 33v93q0 38 44 38q106 0 161 63.5t55 167.5v809
q0 34 35 36h847q18 0 30 -11.5zM1790 533.5q-36 56.5 -95 88t-126 31.5h-295v-503h295q68 0 127 33.5t94.5 92t35.5 130.5q0 71 -36 127.5z" />
    <glyph glyph-name="uni045A" unicode="&#x45a;" horiz-adv-x="1732" 
d="M886.5 1217.5q9.5 9.5 24.5 9.5h97q32 0 32 -36v-508h311q88 0 162.5 -48t118.5 -127t44 -166q0 -89 -44.5 -167.5t-120 -126.5t-165.5 -48h-403q-34 0 -50 15t-16 48v468h-599v-495q0 -36 -33 -36h-108q-33 0 -33 36v1155q0 17 9 26.5t24 9.5h108q16 0 24.5 -9.5
t8.5 -26.5v-509h599v509q0 17 9.5 26.5zM1483 452q-28 45 -74.5 69t-102.5 24h-266v-403h266q56 0 103 26t74.5 73t27.5 106q0 60 -28 105z" />
    <glyph glyph-name="uni045E" unicode="&#x45e;" horiz-adv-x="1142" 
d="M451.5 1393.5q-60.5 34.5 -95.5 90t-35 115.5q0 17 10.5 26.5t26.5 9.5h77q17 0 27 -10.5t10 -25.5q0 -26 13 -50.5t40 -40.5t65 -16q34 0 60 16.5t40 41.5t14 49q0 16 8.5 26t25.5 10h79q16 0 26.5 -9.5t10.5 -26.5q0 -62 -36 -117t-97.5 -89t-135.5 -35
q-73 1 -133.5 35.5zM475 -367h-109q-18 0 -30.5 8.5t-12.5 26.5q0 10 6 25l151 384l-444 1097q-5 13 -5 20q0 15 11.5 24t26.5 9h121q26 0 38 -30l353 -914l358 914q10 30 38 30h119q18 0 27 -8t9 -21q0 -9 -5 -22l-613 -1514q-11 -29 -39 -29z" />
    <glyph glyph-name="uni045B" unicode="&#x45b;" horiz-adv-x="1188" 
d="M1109 38q0 -18 -8.5 -28t-25.5 -10h-116q-35 0 -35 38v640q0 96 -40 182.5t-116 140t-179 53.5q-86 0 -157.5 -41.5t-112.5 -111.5t-41 -153v-710q0 -18 -8.5 -28t-25.5 -10h-116q-35 0 -35 38v1286h-116q-11 0 -18 8t-7 25v67q0 17 7 26t18 9h116v85q0 18 9 28t26 10
h116q17 0 25.5 -10t8.5 -28v-85h231q10 0 16.5 -8.5t6.5 -25.5v-69q0 -14 -6.5 -23t-17.5 -9h-230v-228q52 52 97 82t102.5 45.5t137.5 15.5q151 0 262.5 -76.5t171 -209t59.5 -297.5z" />
    <glyph glyph-name="uni040F" unicode="&#x40f;" horiz-adv-x="1190" 
d="M125 9.5q-9 8.5 -9 30.5v1352q0 35 32 35h109q31 0 31 -35v-1222h622v1220q0 37 33 37h108q13 0 22 -9.5t9 -27.5v-1357q0 -32 -40 -32h-354v-252q0 -16 -8 -27t-22 -11h-109q-15 0 -25 10t-10 28v252h-359q-21 0 -30 8.5z" />
    <glyph glyph-name="uni0472" unicode="&#x472;" horiz-adv-x="1638" 
d="M181.5 1079q98.5 169 266 267.5t364.5 98.5q201 0 369.5 -100.5t266 -269.5t97.5 -364q0 -202 -100.5 -369t-268.5 -263t-363 -96q-202 0 -369.5 99.5t-264 266.5t-96.5 361q0 200 98.5 369zM1274.5 999.5q-73.5 120.5 -196 192t-266.5 71.5q-124 0 -233.5 -54t-185 -150
t-100.5 -217l1059 -102q-4 139 -77.5 259.5zM351.5 428q72.5 -121 194.5 -193t268 -72q125 0 235.5 55t186.5 152.5t101 218.5l-1062 101q4 -141 76.5 -262z" />
    <glyph glyph-name="uni0462" unicode="&#x462;" horiz-adv-x="1249" 
d="M1147 229.5q-59 -105.5 -160.5 -168t-224.5 -61.5h-509q-22 0 -22 30v1249h-175q-16 0 -25 9.5t-9 21.5v83q0 34 34 34h551q31 0 31 -34v-84q0 -14 -9.5 -22t-24.5 -8h-187v-377h348q123 0 224 -62t159 -165.5t58 -220.5q0 -119 -59 -224.5zM417 158h312q81 0 146.5 40
t103 108t37.5 147t-37.5 146t-103 106t-146.5 39h-312v-586z" />
    <glyph glyph-name="uni045F" unicode="&#x45f;" horiz-adv-x="1378" 
d="M161 40v1152q0 17 8.5 26t23.5 9h106q34 0 34 -36v-1033h719v1033q0 36 34 36h105q34 0 34 -37v-1157q0 -32 -40 -32h-410v-251q0 -39 -32 -39h-105q-16 0 -26 9.5t-10 29.5v251h-402q-39 0 -39 39z" />
    <glyph glyph-name="uni0463" unicode="&#x463;" horiz-adv-x="998" 
d="M782 676.5q78 -50.5 123 -134.5t45 -177q0 -94 -45.5 -178.5t-125 -135.5t-174.5 -51h-345q-35 0 -51 15t-16 48v1084h-126q-13 0 -22.5 7t-9.5 22v80q0 15 9.5 23t22.5 8h126v238q0 17 10 26.5t25 9.5h96q16 0 24.5 -9.5t8.5 -26.5v-238h153q30 0 30 -30v-81
q0 -13 -8.5 -21t-22.5 -8h-152v-420h254q93 0 171 -50.5zM750.5 479.5q-30.5 50.5 -81.5 79t-109 28.5h-203v-447h203q59 0 110 30t81 82t30 115q0 62 -30.5 112.5z" />
    <glyph glyph-name="uni0475" unicode="&#x475;" horiz-adv-x="1158" 
d="M622 -1h-82q-27 0 -39 30l-468 1145q-5 13 -5 22q0 14 10.5 22.5t25.5 8.5h114q28 0 38 -30l366 -904l357 906q10 28 38 28h121q13 0 21.5 -7t8.5 -19q0 -9 -6 -23l-461 -1149q-12 -30 -39 -30z" />
    <glyph glyph-name="uni04D9" unicode="&#x4d9;" horiz-adv-x="1354" 
d="M1007 881.5q-64 81.5 -150 126t-178 44.5q-76 0 -131.5 -16.5t-91.5 -39.5t-80 -59l-22 -18q-12 -10 -25 -10t-20 10l-70 93q-9 14 -9 24q0 14 13 26q97 85 200 127t231 42q167 0 311.5 -84.5t230.5 -228.5t86 -313q0 -171 -82.5 -316.5t-225 -231t-315.5 -85.5
q-205 0 -350 89t-218.5 238t-73.5 327q0 41 16.5 54.5t48.5 13.5h996q-27 106 -91 187.5zM861 199q90 45 151 124.5t84 182.5h-872q22 -103 82 -183t152 -124.5t206 -44.5q107 0 197 45z" />
    <glyph glyph-name="Eng" unicode="&#x14a;" horiz-adv-x="1516" 
d="M162 1417q8 9 25 9h132q24 0 45 -29l811 -1106v11q0 13 5 21v1069q2 34 34 34h112q15 0 24.5 -9.5t9.5 -24.5v-1445q0 -102 -50 -190t-137.5 -140.5t-195.5 -52.5q-80 0 -152.5 28t-124.5 85l-13.5 13t-11.5 26q0 11 11 22l73 71q11 12 21 12t20 -9t13 -11
q27 -27 64 -43.5t91 -16.5q58 0 104.5 28t73 73.5t29.5 95.5v73q-10 8 -15 17l-826 1142v-1136q0 -34 -35 -34h-112q-33 0 -33 34v1358q0 16 8 25z" />
    <glyph glyph-name="eng" unicode="&#x14b;" horiz-adv-x="1261" 
d="M327 10q-13 -10 -31 -10h-108q-34 0 -34 37v1150q0 38 34 38h100q14 0 24 -12t10 -30l1 -139q60 98 162.5 146t218.5 48q130 0 231.5 -66.5t157.5 -177t56 -238.5v-720q0 -108 -45 -191t-134 -130.5t-217 -47.5q-25 0 -36.5 11.5t-11.5 22.5v75q0 37 44 37
q107 0 161.5 57t56.5 161l1 724q0 70 -37 142t-107.5 119.5t-166.5 47.5q-80 0 -152.5 -34t-119 -106.5t-46.5 -179.5v-707q1 -17 -12 -27z" />
    <glyph glyph-name="afii10065.small" horiz-adv-x="1440" 
d="M1313 0h-115q-39 0 -39 47v116q-41 -52 -111 -93.5t-155.5 -65.5t-170.5 -24q-156 0 -300.5 82.5t-234 226t-89.5 316.5q0 170 85.5 315.5t229.5 231.5t309 86q141 0 250.5 -49t186.5 -129v130q0 37 33 37h121q33 0 33 -37v-1153q0 -37 -33 -37zM1110 836.5
q-60 105.5 -162 167t-220 61.5t-217 -60.5t-157 -165.5t-58 -233q0 -124 60.5 -228t160.5 -164t211 -60q112 0 214 61t165 165t63 226q0 125 -60 230.5z" />
    <glyph glyph-name="afii10070.small" horiz-adv-x="1371" 
d="M352 327.5q64 -81.5 150 -126t178 -44.5q76 0 131.5 16.5t91.5 39.5t80 59l22 18q12 10 25 10t20 -10l70 -93q9 -13 9 -24q0 -14 -13 -26q-97 -85 -200 -127t-231 -42q-167 0 -311.5 84.5t-230.5 228.5t-86 313q0 171 82.5 316.5t225 231t315.5 85.5q205 0 350 -89
t218.5 -238t73.5 -327q0 -41 -16.5 -54.5t-48.5 -13.5h-996q27 -106 91 -187.5zM498 1010q-90 -45 -151 -124.5t-84 -182.5h872q-22 103 -82 183t-152 124.5t-206 44.5q-107 0 -197 -45z" />
    <glyph glyph-name="afii10082.small" horiz-adv-x="1440" 
d="M191 1226h108q19 0 32 -18t13 -38v-98q71 77 193.5 126t259.5 49q153 0 291.5 -83t224 -227t85.5 -317q0 -171 -81 -316.5t-221 -231t-310 -85.5q-140 0 -254.5 52t-187.5 129v-498q0 -37 -33 -37h-120q-35 0 -35 37v1519q0 37 35 37zM393 393q57 -105 158.5 -168.5
t228.5 -63.5q123 0 220.5 63.5t152 170.5t54.5 233q0 125 -58.5 225.5t-158.5 158t-219 57.5q-126 0 -225.5 -62.5t-154.5 -166t-55 -222.5q0 -120 57 -225z" />
    <glyph glyph-name="afii10085.small" horiz-adv-x="1185" 
d="M475 -367h-109q-18 0 -30.5 8.5t-12.5 26.5q0 10 6 25l151 384l-444 1097q-5 13 -5 20q0 15 11.5 24t26.5 9h121q26 0 38 -30l353 -914l358 914q10 30 38 30h119q18 0 27 -8t9 -21q0 -9 -5 -22l-613 -1514q-11 -29 -39 -29z" />
    <glyph glyph-name="uni041D" unicode="&#x41d;" horiz-adv-x="1484" 
d="M340 658v-622q0 -36 -35 -36h-117q-34 0 -34 36v1355q0 16 8.5 26t25.5 10h120q14 0 23 -8.5t9 -26.5v-546h804v545q0 16 8.5 26t24.5 10h120q32 0 32 -35v-1356q0 -36 -34 -36h-118q-33 0 -33 36v622h-804z" />
    <glyph glyph-name="uni0435" unicode="&#x435;" horiz-adv-x="1453" 
d="M391 327.5q64 -81.5 150 -126t178 -44.5q76 0 131.5 16.5t91.5 39.5t80 59l22 18q12 10 25 10t20 -10l70 -93q9 -13 9 -24q0 -14 -13 -26q-97 -85 -200 -127t-231 -42q-167 0 -311.5 84.5t-230.5 228.5t-86 313q0 171 82.5 316.5t225 231t315.5 85.5q205 0 350 -89
t218.5 -238t73.5 -327q0 -41 -16.5 -54.5t-48.5 -13.5h-996q27 -106 91 -187.5zM537 1010q-90 -45 -151 -124.5t-84 -182.5h872q-22 103 -82 183t-152 124.5t-206 44.5q-107 0 -197 -45z" />
    <glyph glyph-name="ebreve" unicode="&#x115;" horiz-adv-x="1453" 
d="M615.5 1398.5q-60.5 34.5 -95.5 90t-35 115.5q0 17 10.5 26.5t26.5 9.5h77q17 0 27 -10.5t10 -25.5q0 -26 13 -50.5t40 -40.5t65 -16q34 0 60 16.5t40 41.5t14 49q0 16 8.5 26t25.5 10h79q16 0 26.5 -9.5t10.5 -26.5q0 -62 -36 -117t-97.5 -89t-135.5 -35
q-73 1 -133.5 35.5zM391 327.5q64 -81.5 150 -126t178 -44.5q76 0 131.5 16.5t91.5 39.5t80 59l22 18q12 10 25 10t20 -10l70 -93q9 -13 9 -24q0 -14 -13 -26q-97 -85 -200 -127t-231 -42q-167 0 -311.5 84.5t-230.5 228.5t-86 313q0 171 82.5 316.5t225 231t315.5 85.5
q205 0 350 -89t218.5 -238t73.5 -327q0 -41 -16.5 -54.5t-48.5 -13.5h-996q27 -106 91 -187.5zM537 1010q-90 -45 -151 -124.5t-84 -182.5h872q-22 103 -82 183t-152 124.5t-206 44.5q-107 0 -197 -45z" />
    <glyph glyph-name="ecaron" unicode="&#x11b;" horiz-adv-x="1453" 
d="M759 1360h-2q-11 0 -23 12l-230 232q-13 13 -13 21t11 19l46 45q11 11 20 11q10 0 21 -13l169 -170l167 167q15 15 25 15q9 0 18 -9l46 -44q10 -10 10 -20q0 -11 -15 -26l-226 -228q-12 -12 -24 -12zM391 327.5q64 -81.5 150 -126t178 -44.5q76 0 131.5 16.5t91.5 39.5
t80 59l22 18q12 10 25 10t20 -10l70 -93q9 -13 9 -24q0 -14 -13 -26q-97 -85 -200 -127t-231 -42q-167 0 -311.5 84.5t-230.5 228.5t-86 313q0 171 82.5 316.5t225 231t315.5 85.5q205 0 350 -89t218.5 -238t73.5 -327q0 -41 -16.5 -54.5t-48.5 -13.5h-996
q27 -106 91 -187.5zM537 1010q-90 -45 -151 -124.5t-84 -182.5h872q-22 103 -82 183t-152 124.5t-206 44.5q-107 0 -197 -45z" />
    <glyph glyph-name="ecircumflex" unicode="&#xea;" horiz-adv-x="1453" 
d="M758 1702q12 0 24 -13l37 -37q0 -1 1 -1q0 -2 2 -2l185 -184q13 -15 13 -26t-11 -24l-38 -37q-10 -10 -23 -10q-14 0 -27 11l-164 165l-166 -166q-14 -12 -26 -12t-22 10l-37 37q-11 10 -11 23t12 25l227 228q12 13 24 13zM391 327.5q64 -81.5 150 -126t178 -44.5
q76 0 131.5 16.5t91.5 39.5t80 59l22 18q12 10 25 10t20 -10l70 -93q9 -13 9 -24q0 -14 -13 -26q-97 -85 -200 -127t-231 -42q-167 0 -311.5 84.5t-230.5 228.5t-86 313q0 171 82.5 316.5t225 231t315.5 85.5q205 0 350 -89t218.5 -238t73.5 -327q0 -41 -16.5 -54.5
t-48.5 -13.5h-996q27 -106 91 -187.5zM537 1010q-90 -45 -151 -124.5t-84 -182.5h872q-22 103 -82 183t-152 124.5t-206 44.5q-107 0 -197 -45z" />
    <glyph glyph-name="ccaron" unicode="&#x10d;" horiz-adv-x="1210" 
d="M710 1351h-2q-11 0 -23 12l-230 232q-13 13 -13 21t11 19l46 45q11 11 20 11q10 0 21 -13l169 -170l167 167q15 15 25 15q9 0 18 -9l46 -44q10 -10 10 -20q0 -11 -15 -26l-226 -228q-12 -12 -24 -12zM1032 297q13 0 19 -10l72 -94q9 -12 9 -23q0 -15 -16 -28
q-85 -72 -191 -119.5t-219 -47.5q-172 0 -317.5 84.5t-231.5 229.5t-86 320t87.5 319t233 227t310.5 83q114 0 219 -39.5t190 -111.5q13 -12 13 -25q0 -7 -5 -17l-75 -98q-3 -4 -9.5 -7.5t-13.5 -3.5q-11 0 -20 8q-73 62 -144.5 90t-149.5 28q-119 0 -222 -57.5t-164.5 -161
t-61.5 -235.5q0 -128 58.5 -231t160 -161.5t225.5 -58.5q66 0 120 18.5t93.5 45t89.5 67.5q12 9 26 9z" />
    <glyph glyph-name="edieresis" unicode="&#xeb;" horiz-adv-x="1453" 
d="M505 1541h106q20 0 28.5 -10.5t8.5 -31.5v-102q0 -22 -9 -30.5t-28 -8.5h-105q-40 0 -40 38v105q0 40 39 40zM885 1541h106q20 0 28.5 -10.5t8.5 -31.5v-102q0 -22 -9 -30.5t-28 -8.5h-105q-40 0 -40 38v105q0 40 39 40zM391 327.5q64 -81.5 150 -126t178 -44.5
q76 0 131.5 16.5t91.5 39.5t80 59l22 18q12 10 25 10t20 -10l70 -93q9 -13 9 -24q0 -14 -13 -26q-97 -85 -200 -127t-231 -42q-167 0 -311.5 84.5t-230.5 228.5t-86 313q0 171 82.5 316.5t225 231t315.5 85.5q205 0 350 -89t218.5 -238t73.5 -327q0 -41 -16.5 -54.5
t-48.5 -13.5h-996q27 -106 91 -187.5zM537 1010q-90 -45 -151 -124.5t-84 -182.5h872q-22 103 -82 183t-152 124.5t-206 44.5q-107 0 -197 -45z" />
    <glyph glyph-name="edotaccent" unicode="&#x117;" horiz-adv-x="1453" 
d="M711 1566h106q37 0 37 -41v-102q0 -22 -9 -30.5t-28 -8.5h-105q-21 0 -30.5 8.5t-9.5 29.5v104q0 40 39 40zM391 327.5q64 -81.5 150 -126t178 -44.5q76 0 131.5 16.5t91.5 39.5t80 59l22 18q12 10 25 10t20 -10l70 -93q9 -13 9 -24q0 -14 -13 -26q-97 -85 -200 -127
t-231 -42q-167 0 -311.5 84.5t-230.5 228.5t-86 313q0 171 82.5 316.5t225 231t315.5 85.5q205 0 350 -89t218.5 -238t73.5 -327q0 -41 -16.5 -54.5t-48.5 -13.5h-996q27 -106 91 -187.5zM537 1010q-90 -45 -151 -124.5t-84 -182.5h872q-22 103 -82 183t-152 124.5
t-206 44.5q-107 0 -197 -45z" />
    <glyph glyph-name="abreve" unicode="&#x103;" horiz-adv-x="1478" 
d="M603.5 1424.5q-60.5 34.5 -95.5 90t-35 115.5q0 17 10.5 26.5t26.5 9.5h77q17 0 27 -10.5t10 -25.5q0 -26 13 -50.5t40 -40.5t65 -16q34 0 60 16.5t40 41.5t14 49q0 16 8.5 26t25.5 10h79q16 0 26.5 -9.5t10.5 -26.5q0 -62 -36 -117t-97.5 -89t-135.5 -35
q-73 1 -133.5 35.5zM1313 0h-115q-39 0 -39 47v116q-41 -52 -111 -93.5t-155.5 -65.5t-170.5 -24q-156 0 -300.5 82.5t-234 226t-89.5 316.5q0 170 85.5 315.5t229.5 231.5t309 86q141 0 250.5 -49t186.5 -129v130q0 37 33 37h121q33 0 33 -37v-1153q0 -37 -33 -37z
M1110 836.5q-60 105.5 -162 167t-220 61.5t-217 -60.5t-157 -165.5t-58 -233q0 -124 60.5 -228t160.5 -164t211 -60q112 0 214 61t165 165t63 226q0 125 -60 230.5z" />
    <glyph glyph-name="acircumflex" unicode="&#xe2;" horiz-adv-x="1478" 
d="M740 1716q12 0 24 -13l37 -37q0 -1 1 -1q0 -2 2 -2l185 -184q13 -15 13 -26t-11 -24l-38 -37q-10 -10 -23 -10q-14 0 -27 11l-164 165l-166 -166q-14 -12 -26 -12t-22 10l-37 37q-11 10 -11 23t12 25l227 228q12 13 24 13zM1313 0h-115q-39 0 -39 47v116
q-41 -52 -111 -93.5t-155.5 -65.5t-170.5 -24q-156 0 -300.5 82.5t-234 226t-89.5 316.5q0 170 85.5 315.5t229.5 231.5t309 86q141 0 250.5 -49t186.5 -129v130q0 37 33 37h121q33 0 33 -37v-1153q0 -37 -33 -37zM1110 836.5q-60 105.5 -162 167t-220 61.5t-217 -60.5
t-157 -165.5t-58 -233q0 -124 60.5 -228t160.5 -164t211 -60q112 0 214 61t165 165t63 226q0 125 -60 230.5z" />
    <glyph glyph-name="adieresis" unicode="&#xe4;" horiz-adv-x="1478" 
d="M496 1559h106q20 0 28.5 -10.5t8.5 -31.5v-102q0 -22 -9 -30.5t-28 -8.5h-105q-40 0 -40 38v105q0 40 39 40zM876 1559h106q20 0 28.5 -10.5t8.5 -31.5v-102q0 -22 -9 -30.5t-28 -8.5h-105q-40 0 -40 38v105q0 40 39 40zM1313 0h-115q-39 0 -39 47v116
q-41 -52 -111 -93.5t-155.5 -65.5t-170.5 -24q-156 0 -300.5 82.5t-234 226t-89.5 316.5q0 170 85.5 315.5t229.5 231.5t309 86q141 0 250.5 -49t186.5 -129v130q0 37 33 37h121q33 0 33 -37v-1153q0 -37 -33 -37zM1110 836.5q-60 105.5 -162 167t-220 61.5t-217 -60.5
t-157 -165.5t-58 -233q0 -124 60.5 -228t160.5 -164t211 -60q112 0 214 61t165 165t63 226q0 125 -60 230.5z" />
    <glyph glyph-name="Nacute" unicode="&#x143;" horiz-adv-x="1516" 
d="M862.5 1557q-8.5 -5 -21.5 -5h-102q-12 0 -20.5 6.5t-8.5 19.5q0 10 4 19l105 222q8 17 17 23.5t22 6.5h101q12 -1 20.5 -10t8.5 -21q0 -9 -4 -17l-104 -220q-9 -19 -17.5 -24zM334 37q0 -37 -35 -37h-111q-34 0 -34 37v1355q0 14 9 24t25 10h131q25 0 46 -29l815 -1083
v1078q0 15 9 24.5t26 9.5h111q15 0 25 -9.5t10 -24.5v-1355q0 -37 -35 -37h-120q-27 0 -46 28l-826 1122v-1113z" />
    <glyph glyph-name="Sacute" unicode="&#x15a;" horiz-adv-x="1277" 
d="M756.5 1571q-8.5 -5 -21.5 -5h-102q-12 0 -20.5 6.5t-8.5 19.5q0 10 4 19l105 222q8 17 17 23.5t22 6.5h101q12 -1 20.5 -10t8.5 -21q0 -9 -4 -17l-104 -220q-9 -19 -17.5 -24zM109 258q0 13 12 25l85 75q9 8 21 8q16 0 36 -20q72 -80 175.5 -133t215.5 -53
q77 0 155.5 27t131 84t52.5 142q0 69 -51 115.5t-119 73t-166 53.5l-52 15q-162 46 -258.5 97t-143 122.5t-46.5 176.5q0 107 58 192.5t168 135t261 49.5q130 0 252.5 -55t210.5 -149q14 -16 14 -31t-13 -28l-73 -72q-12 -9 -22 -9t-19.5 5.5t-22.5 17.5q-170 146 -328 146
q-70 0 -137 -19t-112 -63.5t-45 -117.5q0 -66 42.5 -109t105 -68t171.5 -57q166 -50 267 -93t173.5 -122.5t72.5 -204.5q0 -136 -72.5 -234t-197.5 -148.5t-279 -50.5q-133 0 -270 64.5t-234 175.5q-19 23 -19 37z" />
    <glyph glyph-name="Racute" unicode="&#x154;" horiz-adv-x="1319" 
d="M695.5 1572q-8.5 -5 -21.5 -5h-102q-12 0 -20.5 6.5t-8.5 19.5q0 10 4 19l105 222q8 17 17 23.5t22 6.5h101q12 -1 20.5 -10t8.5 -21q0 -9 -4 -17l-104 -220q-9 -19 -17.5 -24zM341 517v-483q0 -34 -33 -34h-120q-32 0 -32 34v1360q0 33 32 33h582q124 0 224.5 -63.5
t157 -169t56.5 -227.5q0 -83 -31.5 -162t-90 -142.5t-135.5 -100.5l253 -522q3 -6 3 -13q0 -11 -7.5 -19t-19.5 -8h-136q-12 0 -20.5 6t-16.5 22l-230 491zM341 702h390q84 0 149 33t101.5 94t36.5 141t-36.5 142.5t-101.5 97t-149 34.5h-390v-542z" />
    <glyph glyph-name="Wacute" unicode="&#x1e82;" horiz-adv-x="2045" 
d="M1376.5 1568q-8.5 -5 -21.5 -5h-102q-12 0 -20.5 6.5t-8.5 19.5q0 10 4 19l105 222q8 17 17 23.5t22 6.5h101q12 -1 20.5 -10t8.5 -21q0 -9 -4 -17l-104 -220q-9 -19 -17.5 -24zM780 29q-12 -29 -38 -29h-75q-27 0 -39 29l-562 1358q-3 8 -3 15q0 12 8.5 18.5t20.5 6.5
h123q12 0 20.5 -6.5t14.5 -22.5l456 -1117l445 1117q11 29 37 29h133q12 0 20.5 -7t8.5 -19q0 -6 -3 -14l-221 -535l235 -571l446 1117q6 16 15 22.5t21 6.5h132q12 0 21 -7t9 -19q0 -6 -3 -14l-569 -1358q-12 -29 -39 -29h-76q-12 0 -22.5 7t-16.5 22l-248 598z" />
    <glyph glyph-name="Yacute" unicode="&#xdd;" horiz-adv-x="1200" 
d="M725.5 1561q-8.5 -5 -21.5 -5h-102q-12 0 -20.5 6.5t-8.5 19.5q0 10 4 19l105 222q8 17 17 23.5t22 6.5h101q12 -1 20.5 -10t8.5 -21q0 -9 -4 -17l-104 -220q-9 -19 -17.5 -24zM27 1385q-6 11 -6 18q0 11 8 17.5t20 6.5h148q12 0 20 -6t17 -21l354 -611l352 609
q9 15 17 21t20 6h150q12 0 20 -7t8 -18q0 -9 -6 -18l-465 -779v-566q0 -37 -33 -37h-120q-33 0 -33 37v563z" />
    <glyph glyph-name="Ygrave" unicode="&#x1ef2;" horiz-adv-x="1200" 
d="M432 1826q0 13 9 21.5t20 8.5h102q14 0 22.5 -6t16.5 -23l105 -223q4 -8 4 -17q0 -13 -9.5 -20.5t-20.5 -7.5h-91q-14 0 -22.5 5.5t-17.5 24.5l-113 220q-5 10 -5 17zM27 1385q-6 11 -6 18q0 11 8 17.5t20 6.5h148q12 0 20 -6t17 -21l354 -611l352 609q9 15 17 21t20 6
h150q12 0 20 -7t8 -18q0 -9 -6 -18l-465 -779v-566q0 -37 -33 -37h-120q-33 0 -33 37v563z" />
    <glyph glyph-name="Zacute" unicode="&#x179;" horiz-adv-x="1309" 
d="M764.5 1570q-8.5 -5 -21.5 -5h-102q-12 0 -20.5 6.5t-8.5 19.5q0 10 4 19l105 222q8 17 17 23.5t22 6.5h101q12 -1 20.5 -10t8.5 -21q0 -9 -4 -17l-104 -220q-9 -19 -17.5 -24zM1240 1397v-126q0 -12 -9 -25l-907 -1058h882q33 0 33 -31v-126q0 -31 -33 -31h-1111
q-32 0 -32 31v123q0 16 8 24l919 1064l-874 -1q-36 0 -36 31v124q0 31 36 31l1092 2q32 0 32 -32z" />
    <glyph glyph-name="Uacute" unicode="&#xda;" horiz-adv-x="1444" 
d="M796.5 1570q-8.5 -5 -21.5 -5h-102q-12 0 -20.5 6.5t-8.5 19.5q0 10 4 19l105 222q8 17 17 23.5t22 6.5h101q12 -1 20.5 -10t8.5 -21q0 -9 -4 -17l-104 -220q-9 -19 -17.5 -24zM376 357q56 -95 150 -147.5t206 -52.5q111 0 200.5 53.5t140 148.5t50.5 215v817
q0 16 8.5 26t25.5 10h117q16 0 25.5 -10.5t9.5 -25.5v-830q0 -181 -76 -313t-207 -201.5t-294 -69.5q-164 0 -300.5 70.5t-217 204t-80.5 314.5v826q0 15 8.5 25t23.5 10h122q32 0 32 -35v-818q0 -122 56 -217z" />
    <glyph glyph-name="Ugrave" unicode="&#xd9;" horiz-adv-x="1444" 
d="M556 1818q0 13 9 21.5t20 8.5h102q14 0 22.5 -6t16.5 -23l105 -223q4 -8 4 -17q0 -13 -9.5 -20.5t-20.5 -7.5h-91q-14 0 -22.5 5.5t-17.5 24.5l-113 220q-5 10 -5 17zM376 357q56 -95 150 -147.5t206 -52.5q111 0 200.5 53.5t140 148.5t50.5 215v817q0 16 8.5 26t25.5 10
h117q16 0 25.5 -10.5t9.5 -25.5v-830q0 -181 -76 -313t-207 -201.5t-294 -69.5q-164 0 -300.5 70.5t-217 204t-80.5 314.5v826q0 15 8.5 25t23.5 10h122q32 0 32 -35v-818q0 -122 56 -217z" />
    <glyph glyph-name="Eacute" unicode="&#xc9;" horiz-adv-x="1233" 
d="M719.5 1567q-8.5 -5 -21.5 -5h-102q-12 0 -20.5 6.5t-8.5 19.5q0 10 4 19l105 222q8 17 17 23.5t22 6.5h101q12 -1 20.5 -10t8.5 -21q0 -9 -4 -17l-104 -220q-9 -19 -17.5 -24zM189 1427h940q36 0 36 -33v-120q0 -34 -36 -34h-787v-396h609q18 0 28.5 -8.5t10.5 -25.5
v-118q0 -17 -10.5 -25t-28.5 -8h-609v-470h786q36 0 36 -33v-122q0 -34 -36 -34h-939q-33 0 -33 34v1360q0 33 33 33z" />
    <glyph glyph-name="Oacute" unicode="&#xd3;" horiz-adv-x="1688" 
d="M921.5 1574q-8.5 -5 -21.5 -5h-102q-12 0 -20.5 6.5t-8.5 19.5q0 10 4 19l105 222q8 17 17 23.5t22 6.5h101q12 -1 20.5 -10t8.5 -21q0 -9 -4 -17l-104 -220q-9 -19 -17.5 -24zM208 1080q99 168 267.5 266.5t367.5 98.5t366 -98.5t264.5 -266.5t97.5 -368
q0 -199 -97.5 -366.5t-264.5 -265t-366 -97.5t-367.5 97.5t-267.5 265t-99 366.5q0 200 99 368zM368.5 435q72.5 -126 197.5 -199t277 -73q151 0 275 73t195 198.5t71 277.5t-71 278.5t-195 200t-275 73.5t-276.5 -73.5t-198 -200t-72.5 -278.5q0 -151 72.5 -277z" />
    <glyph glyph-name="Cacute" unicode="&#x106;" horiz-adv-x="1365" 
d="M970.5 1566q-8.5 -5 -21.5 -5h-102q-12 0 -20.5 6.5t-8.5 19.5q0 10 4 19l105 222q8 17 17 23.5t22 6.5h101q12 -1 20.5 -10t8.5 -21q0 -9 -4 -17l-104 -220q-9 -19 -17.5 -24zM1193 294q12 0 22 -11l66 -97q9 -12 9 -22q0 -14 -18 -29q-90 -72 -200.5 -112.5
t-236.5 -40.5q-200 0 -369 98t-268.5 266t-99.5 368t99 367.5t268.5 265t369.5 97.5q126 0 236.5 -40.5t202.5 -112.5q16 -12 16 -29q0 -10 -4 -16l-70 -100q-9 -11 -24 -11q-13 0 -26 10q-75 58 -156 88.5t-175 30.5q-152 0 -278.5 -73t-200 -199t-73.5 -278t73.5 -278
t200 -199.5t278.5 -73.5q175 0 329 118q16 13 29 13z" />
    <glyph glyph-name="agrave" unicode="&#xe0;" horiz-adv-x="1478" 
d="M576 1643q0 13 9 21.5t20 8.5h102q14 0 22.5 -6t16.5 -23l105 -223q4 -8 4 -17q0 -13 -9.5 -20.5t-20.5 -7.5h-91q-14 0 -22.5 5.5t-17.5 24.5l-113 220q-5 10 -5 17zM1313 0h-115q-39 0 -39 47v116q-41 -52 -111 -93.5t-155.5 -65.5t-170.5 -24q-156 0 -300.5 82.5
t-234 226t-89.5 316.5q0 170 85.5 315.5t229.5 231.5t309 86q141 0 250.5 -49t186.5 -129v130q0 37 33 37h121q33 0 33 -37v-1153q0 -37 -33 -37zM1110 836.5q-60 105.5 -162 167t-220 61.5t-217 -60.5t-157 -165.5t-58 -233q0 -124 60.5 -228t160.5 -164t211 -60
q112 0 214 61t165 165t63 226q0 125 -60 230.5z" />
    <glyph glyph-name="aacute" unicode="&#xe1;" horiz-adv-x="1478" 
d="M845.5 1409q-8.5 -5 -21.5 -5h-102q-12 0 -20.5 6.5t-8.5 19.5q0 10 4 19l105 222q8 17 17 23.5t22 6.5h101q12 -1 20.5 -10t8.5 -21q0 -9 -4 -17l-104 -220q-9 -19 -17.5 -24zM1313 0h-115q-39 0 -39 47v116q-41 -52 -111 -93.5t-155.5 -65.5t-170.5 -24
q-156 0 -300.5 82.5t-234 226t-89.5 316.5q0 170 85.5 315.5t229.5 231.5t309 86q141 0 250.5 -49t186.5 -129v130q0 37 33 37h121q33 0 33 -37v-1153q0 -37 -33 -37zM1110 836.5q-60 105.5 -162 167t-220 61.5t-217 -60.5t-157 -165.5t-58 -233q0 -124 60.5 -228
t160.5 -164t211 -60q112 0 214 61t165 165t63 226q0 125 -60 230.5z" />
    <glyph glyph-name="aeacute" unicode="&#x1fd;" horiz-adv-x="2488" 
d="M1207.5 1361.5q-8.5 6.5 -8.5 19.5q0 10 4 19l105 222q8 17 17 23.5t22 6.5h101q12 -1 20.5 -10t8.5 -21q0 -9 -4 -17l-104 -220q-9 -19 -17.5 -24t-21.5 -5h-102q-12 0 -20.5 6.5zM2104.5 1153q141.5 -86 220 -236t78.5 -337q0 -34 -8.5 -49t-33.5 -15h-1012
q21 -100 84.5 -182t154 -129.5t188.5 -47.5q95 0 162 31.5t134 88.5l2 2q21 21 39 21q14 0 28 -17q-9 12 50 -67l12 -16q11 -13 11 -26q0 -22 -37 -51q-87 -70 -184 -107.5t-213 -37.5q-127 0 -240 50t-198 140v-126q0 -18 -12 -30t-30 -12h-100q-20 0 -32 12t-12 30v120
q-85 -87 -194 -134t-235 -47q-169 0 -314 85.5t-230.5 230.5t-85.5 315t85.5 314.5t230.5 230t314 85.5q125 0 234 -47.5t195 -133.5v124q0 42 42 42h99q45 0 45 -42v-126q82 85 194.5 132.5t243.5 47.5q183 0 324.5 -86zM946 220.5q101 63.5 160 168.5t59 223
q0 119 -59 223t-160 166t-219 62t-218 -62t-158.5 -166t-58.5 -223q0 -118 59 -223t159 -168.5t217 -63.5q118 0 219 63.5zM2218 703q-13 104 -75 184.5t-156 124.5t-200 44t-195 -43.5t-151.5 -123t-90.5 -186.5h868z" />
    <glyph glyph-name="cacute" unicode="&#x107;" horiz-adv-x="1210" 
d="M783.5 1384q-8.5 -5 -21.5 -5h-102q-12 0 -20.5 6.5t-8.5 19.5q0 10 4 19l105 222q8 17 17 23.5t22 6.5h101q12 -1 20.5 -10t8.5 -21q0 -9 -4 -17l-104 -220q-9 -19 -17.5 -24zM1032 297q13 0 19 -10l72 -94q9 -12 9 -23q0 -15 -16 -28q-85 -72 -191 -119.5t-219 -47.5
q-172 0 -317.5 84.5t-231.5 229.5t-86 320t87.5 319t233 227t310.5 83q114 0 219 -39.5t190 -111.5q13 -12 13 -25q0 -7 -5 -17l-75 -98q-3 -4 -9.5 -7.5t-13.5 -3.5q-11 0 -20 8q-73 62 -144.5 90t-149.5 28q-119 0 -222 -57.5t-164.5 -161t-61.5 -235.5q0 -128 58.5 -231
t160 -161.5t225.5 -58.5q66 0 120 18.5t93.5 45t89.5 67.5q12 9 26 9z" />
    <glyph glyph-name="iacute" unicode="&#xed;" 
d="M335.5 1385q-8.5 -5 -21.5 -5h-102q-12 0 -20.5 6.5t-8.5 19.5q0 10 4 19l105 222q8 17 17 23.5t22 6.5h101q12 -1 20.5 -10t8.5 -21q0 -9 -4 -17l-104 -220q-9 -19 -17.5 -24zM163.5 1217q9.5 9 24.5 9h118q16 0 25 -9.5t9 -25.5v-1155q0 -36 -34 -36h-118q-34 0 -34 36
v1155q0 17 9.5 26z" />
    <glyph glyph-name="igrave" unicode="&#xec;" 
d="M51 1645q0 13 9 21.5t20 8.5h102q14 0 22.5 -6t16.5 -23l105 -223q4 -8 4 -17q0 -13 -9.5 -20.5t-20.5 -7.5h-91q-14 0 -22.5 5.5t-17.5 24.5l-113 220q-5 10 -5 17zM163.5 1217q9.5 9 24.5 9h118q16 0 25 -9.5t9 -25.5v-1155q0 -36 -34 -36h-118q-34 0 -34 36v1155
q0 17 9.5 26z" />
    <glyph glyph-name="Ograve" unicode="&#xd2;" horiz-adv-x="1688" 
d="M661 1829q0 13 9 21.5t20 8.5h102q14 0 22.5 -6t16.5 -23l105 -223q4 -8 4 -17q0 -13 -9.5 -20.5t-20.5 -7.5h-91q-14 0 -22.5 5.5t-17.5 24.5l-113 220q-5 10 -5 17zM208 1080q99 168 267.5 266.5t367.5 98.5t366 -98.5t264.5 -266.5t97.5 -368q0 -199 -97.5 -366.5
t-264.5 -265t-366 -97.5t-367.5 97.5t-267.5 265t-99 366.5q0 200 99 368zM368.5 435q72.5 -126 197.5 -199t277 -73q151 0 275 73t195 198.5t71 277.5t-71 278.5t-195 200t-275 73.5t-276.5 -73.5t-198 -200t-72.5 -278.5q0 -151 72.5 -277z" />
    <glyph glyph-name="ncaron" unicode="&#x148;" horiz-adv-x="1261" 
d="M699 1351h-2q-11 0 -23 12l-230 232q-13 13 -13 21t11 19l46 45q11 11 20 11q10 0 21 -13l169 -170l167 167q15 15 25 15q9 0 18 -9l46 -44q10 -10 10 -20q0 -11 -15 -26l-226 -228q-12 -12 -24 -12zM326.5 10q-12.5 -10 -30.5 -10h-108q-34 0 -34 37v1151q0 38 34 38
h122q29 0 29 -42v-127q138 182 360 182q129 0 236 -63.5t169.5 -181.5t62.5 -273v-685q0 -36 -33 -36h-115q-36 0 -36 36v674q0 91 -37.5 170t-110 127.5t-173.5 48.5q-78 0 -152.5 -40t-122.5 -118t-48 -185v-676q0 -17 -12.5 -27z" />
    <glyph glyph-name="ubreve" unicode="&#x16d;" horiz-adv-x="1267" 
d="M522.5 1379.5q-60.5 34.5 -95.5 90t-35 115.5q0 17 10.5 26.5t26.5 9.5h77q17 0 27 -10.5t10 -25.5q0 -26 13 -50.5t40 -40.5t65 -16q34 0 60 16.5t40 41.5t14 49q0 16 8.5 26t25.5 10h79q16 0 26.5 -9.5t10.5 -26.5q0 -62 -36 -117t-97.5 -89t-135.5 -35
q-73 1 -133.5 35.5zM840 6q-83 -36 -204 -36q-153 0 -261.5 69t-164.5 187t-56 265v691q0 23 7.5 34t31.5 11h112q21 0 28 -10.5t7 -31.5v-694q0 -85 31 -161.5t100 -126t178 -49.5q77 0 154 36t127 105t50 162v728q0 42 42 42h99q45 0 45 -42v-1144q0 -18 -12 -30t-30 -12
h-100q-20 0 -32 12t-12 30v71q-57 -70 -140 -106z" />
    <glyph glyph-name="ucircumflex" unicode="&#xfb;" horiz-adv-x="1267" 
d="M680 1684q12 0 24 -13l37 -37q0 -1 1 -1q0 -2 2 -2l185 -184q13 -15 13 -26t-11 -24l-38 -37q-10 -10 -23 -10q-14 0 -27 11l-164 165l-166 -166q-14 -12 -26 -12t-22 10l-37 37q-11 10 -11 23t12 25l227 228q12 13 24 13zM840 6q-83 -36 -204 -36q-153 0 -261.5 69
t-164.5 187t-56 265v691q0 23 7.5 34t31.5 11h112q21 0 28 -10.5t7 -31.5v-694q0 -85 31 -161.5t100 -126t178 -49.5q77 0 154 36t127 105t50 162v728q0 42 42 42h99q45 0 45 -42v-1144q0 -18 -12 -30t-30 -12h-100q-20 0 -32 12t-12 30v71q-57 -70 -140 -106z" />
    <glyph glyph-name="udieresis" unicode="&#xfc;" horiz-adv-x="1267" 
d="M432 1546h106q20 0 28.5 -10.5t8.5 -31.5v-102q0 -22 -9 -30.5t-28 -8.5h-105q-40 0 -40 38v105q0 40 39 40zM812 1546h106q20 0 28.5 -10.5t8.5 -31.5v-102q0 -22 -9 -30.5t-28 -8.5h-105q-40 0 -40 38v105q0 40 39 40zM840 6q-83 -36 -204 -36q-153 0 -261.5 69
t-164.5 187t-56 265v691q0 23 7.5 34t31.5 11h112q21 0 28 -10.5t7 -31.5v-694q0 -85 31 -161.5t100 -126t178 -49.5q77 0 154 36t127 105t50 162v728q0 42 42 42h99q45 0 45 -42v-1144q0 -18 -12 -30t-30 -12h-100q-20 0 -32 12t-12 30v71q-57 -70 -140 -106z" />
    <glyph glyph-name="uhungarumlaut" unicode="&#x171;" horiz-adv-x="1267" 
d="M566.5 1359.5q-8.5 -5.5 -22.5 -5.5h-101q-12 0 -21.5 7t-9.5 20q0 6 5 18l116 221q9 17 17.5 23t21.5 6h99q12 -1 20.5 -9.5t8.5 -20.5q0 -7 -5 -17l-111 -218q-9 -19 -17.5 -24.5zM927.5 1359.5q-8.5 -5.5 -22.5 -5.5h-102q-11 0 -20.5 7.5t-9.5 19.5q0 6 5 18l114 221
q10 17 18 23t22 6h100q12 -1 20.5 -9.5t8.5 -20.5q0 -7 -5 -17l-112 -218q-8 -19 -16.5 -24.5zM840 6q-83 -36 -204 -36q-153 0 -261.5 69t-164.5 187t-56 265v691q0 23 7.5 34t31.5 11h112q21 0 28 -10.5t7 -31.5v-694q0 -85 31 -161.5t100 -126t178 -49.5q77 0 154 36
t127 105t50 162v728q0 42 42 42h99q45 0 45 -42v-1144q0 -18 -12 -30t-30 -12h-100q-20 0 -32 12t-12 30v71q-57 -70 -140 -106z" />
    <glyph glyph-name="rcaron" unicode="&#x159;" horiz-adv-x="993" 
d="M594 1385h-2q-11 0 -23 12l-230 232q-13 13 -13 21t11 19l46 45q11 11 20 11q10 0 21 -13l169 -170l167 167q15 15 25 15q9 0 18 -9l46 -44q10 -10 10 -20q0 -11 -15 -26l-226 -228q-12 -12 -24 -12zM184 1227h118q18 0 26.5 -8t8.5 -31v-93q54 79 118 112t158 33
q96 0 179.5 -38.5t132.5 -82.5q21 -18 21 -33q0 -9 -7 -20l-54 -87q-9 -14 -24 -14q-13 0 -27 10q-49 31 -77 46.5t-70 27t-95 11.5q-112 0 -184.5 -69t-72.5 -223v-731q0 -37 -34 -37h-117q-34 0 -34 37v1154q0 36 34 36z" />
    <glyph glyph-name="ycircumflex" unicode="&#x177;" horiz-adv-x="1142" 
d="M602 1687q12 0 24 -13l37 -37q0 -1 1 -1q0 -2 2 -2l185 -184q13 -15 13 -26t-11 -24l-38 -37q-10 -10 -23 -10q-14 0 -27 11l-164 165l-166 -166q-14 -12 -26 -12t-22 10l-37 37q-11 10 -11 23t12 25l227 228q12 13 24 13zM475 -367h-109q-18 0 -30.5 8.5t-12.5 26.5
q0 10 6 25l151 384l-444 1097q-5 13 -5 20q0 15 11.5 24t26.5 9h121q26 0 38 -30l353 -914l358 914q10 30 38 30h119q18 0 27 -8t9 -21q0 -9 -5 -22l-613 -1514q-11 -29 -39 -29z" />
    <glyph glyph-name="ydieresis" unicode="&#xff;" horiz-adv-x="1142" 
d="M371 1533h106q20 0 28.5 -10.5t8.5 -31.5v-102q0 -22 -9 -30.5t-28 -8.5h-105q-40 0 -40 38v105q0 40 39 40zM751 1533h106q20 0 28.5 -10.5t8.5 -31.5v-102q0 -22 -9 -30.5t-28 -8.5h-105q-40 0 -40 38v105q0 40 39 40zM475 -367h-109q-18 0 -30.5 8.5t-12.5 26.5
q0 10 6 25l151 384l-444 1097q-5 13 -5 20q0 15 11.5 24t26.5 9h121q26 0 38 -30l353 -914l358 914q10 30 38 30h119q18 0 27 -8t9 -21q0 -9 -5 -22l-613 -1514q-11 -29 -39 -29z" />
    <glyph glyph-name="wcircumflex" unicode="&#x175;" horiz-adv-x="1853" 
d="M946 1705q12 0 24 -13l37 -37q0 -1 1 -1q0 -2 2 -2l185 -184q13 -15 13 -26t-11 -24l-38 -37q-10 -10 -23 -10q-14 0 -27 11l-164 165l-166 -166q-14 -12 -26 -12t-22 10l-37 37q-11 10 -11 23t12 25l227 228q12 13 24 13zM1325 -1h-81q-25 0 -38 30l-270 654l-262 -654
q-12 -30 -39 -30h-85q-26 0 -38 30l-476 1145q-5 13 -5 22q0 14 10.5 22.5t25.5 8.5h114q26 0 38 -30l370 -896l344 897q11 28 38 28h131q13 0 21.5 -7t8.5 -20q0 -9 -5 -22l-95 -245l254 -638l347 904q10 28 37 28h132q13 0 21.5 -7t8.5 -19q0 -9 -6 -23l-462 -1148
q-12 -30 -39 -30z" />
    <glyph glyph-name="wdieresis" unicode="&#x1e85;" horiz-adv-x="1853" 
d="M730 1563h106q20 0 28.5 -10.5t8.5 -31.5v-102q0 -22 -9 -30.5t-28 -8.5h-105q-40 0 -40 38v105q0 40 39 40zM1110 1563h106q20 0 28.5 -10.5t8.5 -31.5v-102q0 -22 -9 -30.5t-28 -8.5h-105q-40 0 -40 38v105q0 40 39 40zM1325 -1h-81q-25 0 -38 30l-270 654l-262 -654
q-12 -30 -39 -30h-85q-26 0 -38 30l-476 1145q-5 13 -5 22q0 14 10.5 22.5t25.5 8.5h114q26 0 38 -30l370 -896l344 897q11 28 38 28h131q13 0 21.5 -7t8.5 -20q0 -9 -5 -22l-95 -245l254 -638l347 904q10 28 37 28h132q13 0 21.5 -7t8.5 -19q0 -9 -6 -23l-462 -1148
q-12 -30 -39 -30z" />
    <glyph glyph-name="zcaron" unicode="&#x17e;" horiz-adv-x="1204" 
d="M602 1348h-2q-11 0 -23 12l-230 232q-13 13 -13 21t11 19l46 45q11 11 20 11q10 0 21 -13l169 -170l167 167q15 15 25 15q9 0 18 -9l46 -44q10 -10 10 -20q0 -11 -15 -26l-226 -228q-12 -12 -24 -12zM1084 175q15 0 24.5 -8.5t9.5 -21.5v-114q0 -15 -11 -23t-23 -8h-969
q-15 0 -22.5 10t-7.5 26v84q0 25 20 45l789 888h-775q-15 0 -24.5 9t-9.5 21v113q0 15 11 23t23 8h958q18 0 30 -8t12 -27l-1 -114q0 -23 -13 -39l-768 -864h747z" />
    </font>
</defs>
</svg>
