<svg id="icn_blank" xmlns="http://www.w3.org/2000/svg" width="23" height="25.912" viewBox="0 0 23 25.912">
  <g id="Group_1212" data-name="Group 1212" transform="translate(0.335 0.099)">
    <path id="Subtraction_1" data-name="Subtraction 1" d="M11.5,23a11.428,11.428,0,0,1-4.476-.9,11.565,11.565,0,0,1-1.236-.612L8.668,18.9a7.964,7.964,0,1,0-4.284-3.787L2.759,18.974A11.513,11.513,0,1,1,11.5,23Z" transform="translate(-0.335 -0.099)" fill="#fff"/>
    <path id="Path_1005" data-name="Path 1005" d="M5231.039,467.228a3.97,3.97,0,0,0,3.8,2.514c-7.036,6.818-7.374,7.253-7.374,7.253s-.773.314-.556-.411S5231.039,467.228,5231.039,467.228Z" transform="translate(-5224.081 -452.615)" fill="#fff"/>
    <path id="Path_1006" data-name="Path 1006" d="M5260.257,436.586l12.113,12.33s1.063.6.628-.387-6.673-14.361-6.673-14.361-1.33-3.143-3.554-2.684a3.337,3.337,0,0,0-2.829,4.521C5260.378,436.973,5260.257,436.586,5260.257,436.586Z" transform="translate(-5251.171 -423.286)" fill="#fff"/>
  </g>
</svg>
