<svg xmlns="http://www.w3.org/2000/svg" width="21.802" height="21.74" viewBox="0 0 21.802 21.74">
  <g id="Group_1131" data-name="Group 1131" transform="translate(0.705 0.704)">
    <g id="Group_1130" data-name="Group 1130">
      <path id="Path_936" data-name="Path 936" d="M7.489,1.56,6.178,0,1.493,3.931,2.8,5.491Z" transform="translate(-1.493)" fill="#fff" stroke="#585858" stroke-width="1"/>
      <path id="Path_937" data-name="Path 937" d="M308.716,4.038,304.03.107l-1.31,1.56L307.405,5.6Z" transform="translate(-288.322 -0.102)" fill="#fff" stroke="#585858" stroke-width="1"/>
      <path id="Path_938" data-name="Path 938" d="M32,45.653a9.177,9.177,0,1,0,9.182,9.177A9.17,9.17,0,0,0,32,45.653ZM32,61.968a7.138,7.138,0,1,1,7.138-7.138A7.139,7.139,0,0,1,32,61.968Z" transform="translate(-21.807 -43.471)" fill="#fff" stroke="#585858" stroke-width="1"/>
      <path id="Path_939" data-name="Path 939" d="M195.022,130.987h-1.529V137.1l4.838,2.911.77-1.259-4.079-2.417Z" transform="translate(-184.316 -124.726)" fill="#fff"/>
    </g>
  </g>
</svg>
