<svg id="Group_1235" data-name="Group 1235" xmlns="http://www.w3.org/2000/svg" width="20.131" height="20.131" viewBox="0 0 20.131 20.131">
  <g id="Group_1138" data-name="Group 1138">
    <path id="Path_940" data-name="Path 940" d="M10.066,0A10.066,10.066,0,1,0,20.131,10.066,10.066,10.066,0,0,0,10.066,0Zm0,18.873a8.808,8.808,0,1,1,8.808-8.808A8.807,8.807,0,0,1,10.066,18.873Z" fill="#fff"/>
    <path id="Path_941" data-name="Path 941" d="M135.367,100.64l-.893.893,1.447,1.441h-6.662A1.258,1.258,0,0,0,128,104.232v1.887h1.258v-1.887h6.662l-1.441,1.441.887.887,2.516-2.516a.629.629,0,0,0,0-.887Z" transform="translate(-122.967 -96.683)" fill="#fff"/>
    <path id="Path_942" data-name="Path 942" d="M136.8,263.128h-6.662l1.441-1.441-.887-.887-2.516,2.516a.629.629,0,0,0,0,.887l2.516,2.516.887-.887-1.441-1.447H136.8a1.258,1.258,0,0,0,1.258-1.258V261.24H136.8Z" transform="translate(-122.955 -250.546)" fill="#fff"/>
  </g>
</svg>
