<svg xmlns="http://www.w3.org/2000/svg" width="20.406" height="33.897" viewBox="0 0 20.406 33.897">
  <g id="region" transform="translate(-15.88 -1.696)">
    <path id="Path_902" data-name="Path 902" d="M26.083,31.146a.476.476,0,0,1-.381-.19C25.314,30.442,16.18,18.3,16.18,11.9a9.9,9.9,0,1,1,19.8,0c0,6.4-9.132,18.544-9.522,19.058A.476.476,0,0,1,26.083,31.146Zm0-28.2a8.961,8.961,0,0,0-8.95,8.95c0,5.37,7.2,15.571,8.95,17.971,1.75-2.4,8.95-12.6,8.95-17.97a8.961,8.961,0,0,0-8.95-8.952Z" fill="#fff" stroke="#fff" stroke-width="0.6"/>
    <path id="Path_903" data-name="Path 903" d="M29.488,22.441A6.815,6.815,0,1,1,36.3,15.627,6.815,6.815,0,0,1,29.488,22.441Zm0-12.677a5.863,5.863,0,1,0,5.863,5.863,5.863,5.863,0,0,0-5.863-5.863Z" transform="translate(-3.405 -3.574)" fill="#fff" stroke="#fff" stroke-width="0.6"/>
    <path id="Path_904" data-name="Path 904" d="M26.083,61.287c-5.553,0-9.9-2.194-9.9-4.994,0-2.17,2.6-4.021,6.616-4.717a.476.476,0,0,1,.162.938c-3.43.592-5.827,2.148-5.827,3.779,0,2.191,4.1,4.043,8.952,4.043s8.952-1.852,8.952-4.043c0-1.631-2.4-3.187-5.827-3.779a.476.476,0,0,1,.162-.938c4.019.7,6.616,2.547,6.616,4.717C35.986,59.093,31.636,61.287,26.083,61.287Z" transform="translate(0 -25.994)" fill="#fff" stroke="#fff" stroke-width="0.6"/>
  </g>
</svg>
