<svg xmlns="http://www.w3.org/2000/svg" width="29.668" height="29.6" viewBox="0 0 29.668 29.6">
  <g id="ic_alarm" transform="translate(-1598 -622)">
    <path id="_74ff7d298b" data-name="74ff7d298b" d="M111.668,107.771v-1.7h-2.783a5.9,5.9,0,0,0-1.126-2.715l1.967-1.967-1.2-1.2-1.967,1.967a5.936,5.936,0,0,0-2.715-1.126V98.242h-1.7v2.783a5.9,5.9,0,0,0-2.715,1.126l-1.967-1.967-1.2,1.2,1.967,1.967a5.936,5.936,0,0,0-1.126,2.715h-2.78v1.7H97.1a5.9,5.9,0,0,0,1.126,2.715l-1.97,1.97,1.2,1.2,1.967-1.967a5.936,5.936,0,0,0,2.715,1.126V115.6h1.7v-2.783a5.9,5.9,0,0,0,2.715-1.126l1.967,1.967,1.2-1.2-1.967-1.967a5.936,5.936,0,0,0,1.126-2.715Zm-4.467-.242a4.219,4.219,0,0,1-.8,1.936l-.367.493-.493.367a4.256,4.256,0,0,1-1.936.8l-.609.088-.609-.088a4.219,4.219,0,0,1-1.936-.8l-.493-.367-.367-.493a4.256,4.256,0,0,1-.8-1.936l-.088-.609.088-.609a4.219,4.219,0,0,1,.8-1.936l.367-.493.493-.367a4.256,4.256,0,0,1,1.936-.8l.609-.088.609.088a4.219,4.219,0,0,1,1.936.8l.493.367.367.493a4.256,4.256,0,0,1,.8,1.936l.088.609ZM95.34,88.116a10.149,10.149,0,0,0-2.354.364,3.915,3.915,0,0,1,7.278-.02,10.11,10.11,0,0,0-2.351-.347,2.207,2.207,0,0,0-2.572,0Zm-.82,24.286H82v-1.7h3.5V99A10.237,10.237,0,0,1,95.711,88.79h1.905a10.244,10.244,0,0,1,10.013,8.234h-1.742a8.607,8.607,0,0,0-.436-1.324,8.607,8.607,0,0,0-4.539-4.539,8.351,8.351,0,0,0-3.3-.67H95.711a8.351,8.351,0,0,0-3.3.67A8.607,8.607,0,0,0,87.876,95.7a8.352,8.352,0,0,0-.67,3.3v11.7h7.315Zm0,2.586H92.207v-1.7h2.314Z" transform="translate(1516 536)" fill="#fff"/>
  </g>
</svg>
