<svg xmlns="http://www.w3.org/2000/svg" width="19.953" height="20.125" viewBox="0 0 19.953 20.125">
  <g id="ic_call" transform="translate(-1682.851 -329.85)">
    <path id="Path_832" data-name="Path 832" d="M3176.552,26.243a.46.46,0,0,0-.631,0l-1.382,1.352-.067.052c-1.352.676-6.21-4.524-5.282-5.5l1.382-1.352a.454.454,0,0,0,0-.646l-4.532-4.62a.43.43,0,0,0-.319-.134.424.424,0,0,0-.319.126c-2.273,2.228-5.942,4.457,2.593,13.141,8.387,8.558,10.793,5.319,13.111,2.823a.453.453,0,0,0,0-.624Z" transform="translate(-1479.135 315.111)" fill="none" stroke="#fff" stroke-linecap="round" stroke-linejoin="round" stroke-width="1.3"/>
  </g>
</svg>
