<svg xmlns="http://www.w3.org/2000/svg" width="22.268" height="22.202" viewBox="0 0 22.268 22.202">
  <g id="ic_edit" transform="translate(-208.998 -918.4)">
    <path id="Path_820" data-name="Path 820" d="M2723.021,16.417a.58.58,0,0,0,.169-.419.6.6,0,0,0-.169-.419l-3.013-3.013a.6.6,0,0,0-.419-.176.573.573,0,0,0-.419.176l-11.22,11.221c-.14.14-2.094,5.063-2.2,5.247a.6.6,0,0,0,.772.772c.176-.066,5.144-2.035,5.246-2.2Z" transform="translate(-2492.523 906.61)" fill="none" stroke="#fff" stroke-linecap="round" stroke-linejoin="round" stroke-width="1.2"/>
    <line id="Line_32" data-name="Line 32" x1="10.037" y2="10.023" transform="translate(217.881 922.828)" fill="none" stroke="#fff" stroke-linecap="round" stroke-linejoin="round" stroke-width="1.2"/>
    <line id="Line_33" data-name="Line 33" x2="3.858" y2="3.858" transform="translate(215.419 930.39)" fill="none" stroke="#fff" stroke-linecap="round" stroke-linejoin="round" stroke-width="1.2"/>
    <line id="Line_34" data-name="Line 34" x2="1.301" y2="1.308" transform="translate(213.612 934.754)" fill="none" stroke="#fff" stroke-linecap="round" stroke-linejoin="round" stroke-width="1.2"/>
    <path id="Path_821" data-name="Path 821" d="M2716.958,25.714V33.8c0,.794-.243,1.345-1.036,1.345h-13.748a1.286,1.286,0,0,1-1.344-1.345V20.122c0-.845.6-1.132,1.469-1.132h7.966" transform="translate(-2491.23 904.86)" fill="none" stroke="#fff" stroke-linecap="round" stroke-linejoin="round" stroke-width="1.2"/>
  </g>
</svg>
