<svg xmlns="http://www.w3.org/2000/svg" width="18.202" height="22.136" viewBox="0 0 18.202 22.136">
  <g id="Group_699" data-name="Group 699" transform="translate(-4539 -1082)">
    <g id="noun_logout_1150920">
      <path id="Path_349" data-name="Path 349" d="M14.722,5A1.734,1.734,0,0,0,13,6.721V25.414a1.734,1.734,0,0,0,1.722,1.722h7.87a.738.738,0,1,0,0-1.476h-7.87a.231.231,0,0,1-.246-.246V6.721a.231.231,0,0,1,.246-.246h7.87a.738.738,0,1,0,0-1.476ZM24.967,9.911a.738.738,0,0,0-.438,1.268l4.15,4.15H18.165a.739.739,0,1,0,0,1.476H28.679l-4.15,4.15A.739.739,0,1,0,25.574,22l5.411-5.411a.738.738,0,0,0,0-1.045l-5.411-5.411a.835.835,0,0,0-.607-.223Z" transform="translate(4526 1077)" fill="#fff"/>
    </g>
  </g>
</svg>
