<svg xmlns="http://www.w3.org/2000/svg" width="23.691" height="20.086" viewBox="0 0 23.691 20.086">
  <g id="ic_message" transform="translate(-1627.4 -329.399)">
    <path id="Path_829" data-name="Path 829" d="M3091.318,28.124c-2.969-.513-4.578-3.023-4.578-6.085,0-3.427,2.332-6.179,5.44-6.179h5.642c3.109,0,5.565,2.813,5.565,6.218s-2.487,6.218-5.565,6.218h-1.78l-4.718,4.243Z" transform="translate(-1458.74 314.14)" fill="none" stroke="#fff" stroke-linecap="round" stroke-linejoin="round" stroke-width="1.2"/>
    <path id="Path_830" data-name="Path 830" d="M3101,31.981a4.057,4.057,0,0,0,3.42,2.332h1.554l2.542,2.541V34.071a4.329,4.329,0,0,0,3.886-4.4,4.134,4.134,0,0,0-3.932-4.352" transform="translate(-1461.917 312.032)" fill="none" stroke="#fff" stroke-linecap="round" stroke-linejoin="round" stroke-width="1.2"/>
    <path id="Path_831" data-name="Path 831" d="M3100.64,32.43" transform="translate(-1461.837 310.448)" fill="none" stroke="#fff" stroke-linecap="round" stroke-linejoin="round" stroke-width="1.2"/>
    <line id="Line_36" data-name="Line 36" x2="7.772" transform="translate(1632.57 333.909)" fill="none" stroke="#fff" stroke-linecap="round" stroke-linejoin="round" stroke-width="1.2"/>
    <line id="Line_37" data-name="Line 37" x2="7.772" transform="translate(1632.57 336.241)" fill="none" stroke="#fff" stroke-linecap="round" stroke-linejoin="round" stroke-width="1.2"/>
    <line id="Line_38" data-name="Line 38" x2="3.894" transform="translate(1632.57 338.572)" fill="none" stroke="#fff" stroke-linecap="round" stroke-linejoin="round" stroke-width="1.2"/>
  </g>
</svg>
