<svg xmlns="http://www.w3.org/2000/svg" width="18.384" height="31.09" viewBox="0 0 18.384 31.09">
  <g id="ic_map" transform="translate(-1519.998 -254.896)">
    <path id="Path_810" data-name="Path 810" d="M2423.35,22.52c0,4.52-8.18,17-8.18,17S2407,27,2407,22.52a8.19,8.19,0,1,1,16.37,0Z" transform="translate(-885.995 241.956)" fill="none" stroke="#fff" stroke-linecap="round" stroke-linejoin="round" stroke-width="2"/>
    <path id="Path_811" data-name="Path 811" d="M2415.17,24.15a2.53,2.53,0,1,1,2.52-2.52A2.53,2.53,0,0,1,2415.17,24.15Z" transform="translate(-885.995 241.956)" fill="none" stroke="#fff" stroke-linecap="round" stroke-linejoin="round" stroke-width="2"/>
    <g id="icon-map">
      <path id="Path_812" data-name="Path 812" d="M2419,38c2.35.46,3.93,1.34,3.93,2.34,0,1.49-3.45,2.69-7.72,2.69s-7.73-1.2-7.73-2.69c0-1,1.6-1.89,4-2.35" transform="translate(-885.995 241.956)" fill="none" stroke="#fff" stroke-linecap="round" stroke-linejoin="round" stroke-width="2"/>
    </g>
  </g>
</svg>
