<svg xmlns="http://www.w3.org/2000/svg" width="27.9" height="27.56" viewBox="0 0 27.9 27.56">
  <g id="ic_manager" transform="translate(-1599 -438)">
    <g id="Group_46" data-name="Group 46" transform="translate(-1041.32 -224.24)">
      <path id="Path_822" data-name="Path 822" d="M2657.18,30.69c.82.39-.18,2.44-.75,3.48a11.35,11.35,0,0,0-3.49,0c-.57-1-1.49-3-.77-3.52a5.41,5.41,0,0,1,5.01.04Z" transform="translate(-0.23 648.74)" fill="none" stroke="#fff" stroke-linecap="round" stroke-linejoin="round" stroke-width="2"/>
      <path id="Path_823" data-name="Path 823" d="M2655.79,683.84l.03,1.49.38,3.33" fill="none" stroke="#fff" stroke-linecap="round" stroke-linejoin="round" stroke-width="2"/>
      <line id="Line_35" data-name="Line 35" y1="4.79" x2="0.4" transform="translate(2652.69 683.87)" fill="none" stroke="#fff" stroke-linecap="round" stroke-linejoin="round" stroke-width="2"/>
    </g>
    <path id="Path_826" data-name="Path 826" d="M2656.78,40.05h10.67c0-4.4-5-8-9.82-8" transform="translate(-1041.55 424.5)" fill="none" stroke="#fff" stroke-linecap="round" stroke-linejoin="round" stroke-width="2"/>
    <path id="Path_827" data-name="Path 827" d="M2651.37,32.06c-4.85,0-9.82,3.59-9.82,8h11.23" transform="translate(-1041.55 424.5)" fill="none" stroke="#fff" stroke-linecap="round" stroke-linejoin="round" stroke-width="2"/>
    <path id="Path_828" data-name="Path 828" d="M2661,21a6.5,6.5,0,1,1-6.5-6.5A6.5,6.5,0,0,1,2661,21Z" transform="translate(-1041.55 424.5)" fill="none" stroke="#fff" stroke-linecap="round" stroke-linejoin="round" stroke-width="2"/>
  </g>
</svg>
