<svg xmlns="http://www.w3.org/2000/svg" width="23.628" height="17.396" viewBox="0 0 23.628 17.396">
  <g id="ic_mail" transform="translate(-1735.4 -330.4)">
    <path id="Path_833" data-name="Path 833" d="M3248.441,20.79l-7.719,6.794a1.624,1.624,0,0,1-2.094,0L3230.9,20.79" transform="translate(-1492.546 312.459)" fill="none" stroke="#fff" stroke-linecap="round" stroke-linejoin="round" stroke-width="1.2"/>
    <line id="Line_39" data-name="Line 39" x2="5.171" y2="4.205" transform="translate(1750.716 340.742)" fill="none" stroke="#fff" stroke-linecap="round" stroke-linejoin="round" stroke-width="1.2"/>
    <line id="Line_40" data-name="Line 40" x1="5.171" y2="4.205" transform="translate(1738.346 340.742)" fill="none" stroke="#fff" stroke-linecap="round" stroke-linejoin="round" stroke-width="1.2"/>
    <path id="Path_834" data-name="Path 834" d="M3228,20.2V32.038a2.216,2.216,0,0,0,2.281,2.175h17.858a2.224,2.224,0,0,0,2.289-2.175V20.2a2.232,2.232,0,0,0-2.289-2.184h-17.858A2.224,2.224,0,0,0,3228,20.2Z" transform="translate(-1492 312.981)" fill="none" stroke="#fff" stroke-linecap="round" stroke-linejoin="round" stroke-width="1.2"/>
  </g>
</svg>
