<svg xmlns="http://www.w3.org/2000/svg" width="22.44" height="19.247" viewBox="0 0 10.44 10.247"> <g id="Group_168" data-name="Group 168" transform="translate(-485.365 -802.55)"> <g id="ic_nothome" transform="translate(486 803)"> <path id="Path_774" data-name="Path 774" d="M15.3,27.38" transform="translate(-10.947 -21.233)" fill="none" stroke="#fff" stroke-linecap="round" stroke-linejoin="round" stroke-width="0.9"/> <path id="Path_775" data-name="Path 775" d="M1.46,660.831,6.037,656.9l4.577,3.931" transform="translate(-1.46 -656.9)" fill="none" stroke="#fff" stroke-linecap="round" stroke-linejoin="round" stroke-width="0.9"/> <path id="Path_777" data-name="Path 777" d="M22.189,660.446V657.9H20.27v.918" transform="translate(-14.254 -657.58)" fill="none" stroke="#fff" stroke-linecap="round" stroke-linejoin="round" stroke-width="0.9"/> </g> <path id="Path_895" data-name="Path 895" d="M6981.25,1376.826v4.569s.085.354.4.369,3.244,0,3.244,0a.194.194,0,0,0,.169-.229c-.014-.214-.264-.184-.264-.184h-3.149l.02-4.525a.222.222,0,0,0-.423,0Z" transform="translate(-6494.389 -569.225)" fill="#fff" stroke="#fff" stroke-width="0.5"/> <g id="Group_984" data-name="Group 984" transform="translate(490.165 806.993)"> <g id="Ellipse_5" data-name="Ellipse 5" fill="none" stroke="#fff" stroke-width="0.9"> <circle cx="2.82" cy="2.82" r="2.82" stroke="none"/> <circle cx="2.82" cy="2.82" r="2.37" fill="none"/> </g> <line id="Line_58" data-name="Line 58" y1="3.448" x2="3.528" transform="translate(1.046 1.126)" fill="none" stroke="#fff" stroke-width="0.9"/> </g> </g> </svg> 