<svg xmlns="http://www.w3.org/2000/svg" width="35" height="35" viewBox="0 0 35 35">
  <g id="ic_pest" transform="translate(-1680 -620)">
    <path id="f25ae88b9f" d="M54.071,70.225A16.15,16.15,0,0,1,42.814,42.492L50.82,50.5c-.014,0-.026-.013-.039-.012l-2.206.249-.366-1.194a1.05,1.05,0,0,0-.112-.135.5.5,0,0,0-.7,0,.679.679,0,0,0-.15.443l.591,1.886a.12.12,0,0,0,.127.082l2.513-.277.658.661-.582.586-1.84-.533a.125.125,0,0,0-.12.03l-1.854,1.863L44,53.784c-.215.005-.4-.028-.546.119a.514.514,0,0,0,.374.879l3.207.421a.13.13,0,0,0,.1-.031l1.795-1.8.8.233-.471.48-.007.007a2.871,2.871,0,0,0-.247.2,3.886,3.886,0,0,0-.419,4.964.122.122,0,0,0,.015.015l.217.217a.126.126,0,0,0,.171,0l5.4-5.415.3.3L49.3,59.79a.127.127,0,0,0,0,.172l.216.225s.017,0,.022.007a3.833,3.833,0,0,0,4.935-.421,3.086,3.086,0,0,0,.209-.255l.471-.473.232.811L53.6,61.652a.137.137,0,0,0-.037.105l.411,3.17c.042.219.025.318.142.435a.506.506,0,0,0,.717,0,.717.717,0,0,0,.158-.421l-.374-2.883,1.84-1.848a.134.134,0,0,0,.053-.136l-.538-1.848.583-.586.658.661-.278,2.528a.123.123,0,0,0,.082.127l1.788.564c.314.1.451.087.62-.083a.53.53,0,0,0,0-.743c-.1-.1-.131-.055-.352-.15l-1.062-.33L58.257,58a.142.142,0,0,0-.025-.086l7.418,7.418a16.1,16.1,0,0,1-11.579,4.895M70.225,54.071a16.09,16.09,0,0,1-3.673,10.256l-7.607-7.607.9-.908,1.525.248c.337.013.464.1.635-.075a.53.53,0,0,0,0-.743.5.5,0,0,0-.284-.143l-.007-.007c-.007,0-.014,0-.022,0l-2.131-.354a.123.123,0,0,0-.1.038L58.414,55.82l-.1-.1-.022-.022-.373-.376-4.465-4.484-.373-.375-.015-.015-.112-.112,1.046-1.052a.123.123,0,0,0,.031-.105l-.3-1.877a.527.527,0,0,0-.052-.278s0-.006,0-.007A.075.075,0,0,0,53.665,47a.048.048,0,0,0-.007-.015l-.007-.007a.533.533,0,0,0-.082-.1.523.523,0,0,0-.733,0,.478.478,0,0,0-.115.248c-.013.022,0,.054,0,.081V47.2a.611.611,0,0,0,.018.232l.222,1.45-.923.926-8.224-8.222A16.152,16.152,0,0,1,70.225,54.071m-16.154-17.5a17.5,17.5,0,1,0,17.5,17.5,17.5,17.5,0,0,0-17.5-17.5m.448,14.779,2.886,2.892.014.014a.129.129,0,0,0,.15.023A1.8,1.8,0,0,0,57.921,54a1.639,1.639,0,0,0,.523-1.337c0-.017,0,.06,0,.06h-.007s0-.142,0-.15a7.505,7.505,0,0,1,5.518.8c.3.1.531.243.733.041s.2-.695,0-.695h-.007c-.017,0-.016-.094-.015-.093a1.351,1.351,0,0,0-.217-.161,8.591,8.591,0,0,0-6.325-.966c-.013-.019-.027-.053-.038-.07-.022-.035-.042-.08-.074-.125a2.3,2.3,0,0,0-.247-.3c0-.005,0-.013-.007-.016l-.007-.008a2.3,2.3,0,0,0-.3-.249c-.046-.032-.093-.054-.127-.074l-.06-.038a8.6,8.6,0,0,0-.86-6.2c-.185-.366-.069-.2-.15-.285a.526.526,0,0,0-.366-.158.518.518,0,0,0-.366.158.357.357,0,0,0-.053.539,7.428,7.428,0,0,1,.836,5.361h-.037c-.022,0-.044.13-.06.13a1.934,1.934,0,0,0-1.45.593,2.082,2.082,0,0,0-.277.395.144.144,0,0,0,.023.16Z" transform="translate(1643.429 583.429)" fill="#fff"/>
  </g>
</svg>
