<svg xmlns="http://www.w3.org/2000/svg" width="25.214" height="33.094" viewBox="0 0 25.214 33.094">
 <g id="Group_998" data-name="Group 998" transform="translate(-1313 -825)">
   <g id="guide" transform="translate(1313 825)">
     <path id="Path_881" data-name="Path 881" d="M43.667,34a8.565,8.565,0,0,0-5.279,1.8,2.564,2.564,0,0,0-.766,1.3c.033.291-.837,3.509-.209,2.142a5.827,5.827,0,0,1,1.97-2.228,7.012,7.012,0,1,1-1.97,2.228c.213-.379,1.72-3.369,1.342-3.583s-2.415,2.372-2.628,2.75A8.573,8.573,0,0,0,35,42.667,8.667,8.667,0,1,0,43.667,34Z" transform="translate(-31.06 -22.969)" fill="#fff"/>
     <path id="Path_882" data-name="Path 882" d="M43,42.788a.788.788,0,0,0,.788.788h.788v5.516a.788.788,0,0,0,.788.788H46.94a.788.788,0,0,0,0-1.576h-.788V42.788A.788.788,0,0,0,45.364,42H43.788A.788.788,0,0,0,43,42.788Z" transform="translate(-32.757 -24.665)" fill="#fff"/>
     <circle id="Ellipse_5" data-name="Ellipse 5" cx="1" cy="1" r="1" transform="translate(12 14.094)" fill="#fff"/>
     <path id="Path_883" data-name="Path 883" d="M54.426,24.728H33.152a1.576,1.576,0,1,1,0-3.152H54.426a.788.788,0,1,0,0-1.576H33.152A3.152,3.152,0,0,0,30,23.152v26.79a3.152,3.152,0,0,0,3.152,3.152H54.426a.788.788,0,0,0,.788-.788V25.516A.788.788,0,0,0,54.426,24.728ZM33.152,51.518a1.576,1.576,0,0,1-1.576-1.576V25.862a3.081,3.081,0,0,0,1.576.441H53.638V51.518Z" transform="translate(-30 -20)" fill="#fff"/>
   </g>
 </g>
</svg>