<svg xmlns="http://www.w3.org/2000/svg" width="23.87" height="16" viewBox="0 0 23.87 16">
  <g id="ic_share" transform="translate(-1502.321 -114.066)">
    <g id="ic_change" transform="translate(1502.321 114.067)">
      <path id="Path_865" data-name="Path 865" d="M23.312,144.86l-3.68-2.125a1.117,1.117,0,0,0-1.675.967v1.262H16.3a3.991,3.991,0,0,1-3.573-2.192l-2.129-4.187a5.708,5.708,0,0,0-5.112-3.136H.863a.863.863,0,1,0,0,1.726H5.482a3.99,3.99,0,0,1,3.573,2.192l.865,1.7c-.836,1.645-1.632,3.895-4.439,3.895a.863.863,0,0,0,0,1.726,5.708,5.708,0,0,0,5.112-3.136l.3-.581.3.581a5.708,5.708,0,0,0,5.112,3.136h1.662v1.262a1.117,1.117,0,0,0,1.675.967l3.68-2.125A1.117,1.117,0,0,0,23.312,144.86Z" transform="translate(0 -133.07)" fill="#fff"/>
      <path id="Path_866" data-name="Path 866" d="M2.494,339.537H.863a.863.863,0,0,0,0,1.726H2.494a.863.863,0,1,0,0-1.726Z" transform="translate(0 -327.642)" fill="#fff"/>
      <path id="Path_867" data-name="Path 867" d="M386.849,90.738l3.68-2.125a1.117,1.117,0,0,0,0-1.934l-3.68-2.125a1.117,1.117,0,0,0-1.675.967v4.249A1.117,1.117,0,0,0,386.849,90.738Z" transform="translate(-367.217 -84.404)" fill="#fff"/>
      <path id="Path_868" data-name="Path 868" d="M253.183,137.171v-1.726a5.793,5.793,0,0,0-5.248,2.5c.071.133-.069-.14.942,1.85A4.1,4.1,0,0,1,253.183,137.171Z" transform="translate(-236.376 -133.065)" fill="#fff"/>
    </g>
  </g>
</svg>
