<svg xmlns="http://www.w3.org/2000/svg" width="29.535" height="32.874" viewBox="0 0 29.535 32.874"><defs><style>.a{fill:#fff;}</style></defs><g transform="translate(-26)"><g transform="translate(26)"><path class="a" d="M49.411,23.35,46.36,22.333l-1.1-2.191a7.032,7.032,0,0,0,1.9-3.72L47.3,15.6h1.169A1.928,1.928,0,0,0,50.4,13.676V9.631a9.631,9.631,0,1,0-19.262,0v4.045a1.929,1.929,0,0,0,1.284,1.816v.753a1.928,1.928,0,0,0,1.926,1.926h.564a6.966,6.966,0,0,0,1.077,1.668c.091.1.186.206.283.3l-1.095,2.19L32.124,23.35A9.464,9.464,0,0,0,26,32.232a.642.642,0,0,0,.642.642H54.893a.642.642,0,0,0,.642-.642A9.464,9.464,0,0,0,49.411,23.35Zm-.3-9.674a.643.643,0,0,1-.642.642h-.98c.163-1.264.272-2.61.316-3.935,0-.037,0-.074,0-.11h1.3Zm-16.052.642a.643.643,0,0,1-.642-.642v-3.4h1.3q0,.1.007.2v.007h0c.045,1.289.152,2.6.312,3.836h-.98Zm1.284,2.568a.643.643,0,0,1-.642-.642V15.6h.526l.137.819c.026.156.058.311.1.465Zm-.641-7.9H32.445a8.347,8.347,0,0,1,16.645,0H47.829a6.5,6.5,0,0,0-6.487-6.421H40.193A6.5,6.5,0,0,0,33.706,8.989Zm6.487-5.137h1.149a5.221,5.221,0,0,1,5.2,5.227c0,.2,0,.378-.005.538,0,0,0,0,0,.006l-.8-.115a10.317,10.317,0,0,1-5.8-2.9.642.642,0,0,0-.454-.188,5.809,5.809,0,0,0-4.466,2.113A5.219,5.219,0,0,1,40.193,3.852Zm-4.4,13.034a36.7,36.7,0,0,1-.77-6.232L35.888,9.5A4.519,4.519,0,0,1,39.23,7.712a11.614,11.614,0,0,0,6.327,3.068l.945.135c-.063,1.341-.192,2.687-.377,3.924h0c-.059.4-.105.654-.224,1.369A5.454,5.454,0,0,1,42.03,20.6a5.052,5.052,0,0,1-5.671-2.426h1.309a1.929,1.929,0,0,0,1.816,1.284h1.284a1.926,1.926,0,0,0,0-3.852H39.484a1.927,1.927,0,0,0-1.817,1.284ZM39.43,21.9a6.44,6.44,0,0,0,2.388.054l-1.135,1.2Zm.371,2.187-2.037,2.154A24.464,24.464,0,0,1,36.326,22.9l.765-1.53Zm4.535-2.927.873,1.747a24.457,24.457,0,0,1-1.438,3.334l-2.18-2.18Zm-5.494-3.627a.642.642,0,0,1,.642-.642h1.284a.642.642,0,1,1,0,1.284H39.484A.643.643,0,0,1,38.841,17.529ZM27.31,31.59a8.114,8.114,0,0,1,5.22-7.022l2.7-.9a25.739,25.739,0,0,0,1.828,3.964l0,.006h0a25.745,25.745,0,0,0,1.757,2.684l.79,1.268Zm13.458-.572-.871-1.4q-.015-.023-.031-.046a24.481,24.481,0,0,1-1.447-2.161l2.29-2.422L43.122,27.4a24.455,24.455,0,0,1-1.452,2.17C41.638,29.616,41.683,29.55,40.768,31.018Zm1.156.572.79-1.268a25.737,25.737,0,0,0,1.77-2.705l.009-.017v0a25.718,25.718,0,0,0,1.808-3.93l2.7.9a8.114,8.114,0,0,1,5.22,7.022h-12.3Z" transform="translate(-26)"/></g></g></svg>