<svg xmlns="http://www.w3.org/2000/svg" width="24.077" height="30.082" viewBox="0 0 24.077 30.082">
  <g id="ic_satlite" transform="translate(-1600.999 -254.999)">
    <path id="Path_813" data-name="Path 813" d="M2472.68,14.63a7.62,7.62,0,0,0-7.88,7.88" transform="translate(-862.795 241.375)" fill="none" stroke="#fff" stroke-linecap="round" stroke-linejoin="round" stroke-width="2"/>
    <path id="Path_814" data-name="Path 814" d="M2468.25,22.15a3.81,3.81,0,0,1,4.06-4.06" transform="translate(-862.795 241.375)" fill="none" stroke="#fff" stroke-linecap="round" stroke-linejoin="round" stroke-width="2"/>
    <path id="Path_815" data-name="Path 815" d="M2485,19.77c1.86,1.85,0,6.73-4.17,10.89s-9,6-10.9,4.18" transform="translate(-862.795 241.375)" fill="none" stroke="#fff" stroke-linecap="round" stroke-linejoin="round" stroke-width="2"/>
    <path id="Path_816" data-name="Path 816" d="M2476.97,677.58l-3.85-5.66,5.65,3.86" transform="translate(-862.565 -407.365)" fill="none" stroke="#fff" stroke-linecap="round" stroke-linejoin="round" stroke-width="2"/>
    <path id="Path_817" data-name="Path 817" d="M2471.81,21.65a1.079,1.079,0,1,1-.318.765,1.09,1.09,0,0,1,.318-.765Z" transform="translate(-862.795 241.375)" fill="none" stroke="#fff" stroke-linecap="round" stroke-linejoin="round" stroke-width="2"/>
    <path id="Path_818" data-name="Path 818" d="M2472.53,25.69c-3,3.7-4.2,7.55-2.6,9.15,1.86,1.85,10.12,3.37,14.28-.8s2.65-12.42.79-14.27c-1.58-1.59-5.38-.44-9.05,2.53" transform="translate(-862.795 241.375)" fill="none" stroke="#fff" stroke-linecap="round" stroke-linejoin="round" stroke-width="2"/>
    <path id="Path_819" data-name="Path 819" d="M2477.88,39a4.193,4.193,0,0,0-1,2c0,2.25,7.94,2.3,7.94,0a5.14,5.14,0,0,0-1.88-3" transform="translate(-862.795 241.375)" fill="none" stroke="#fff" stroke-linecap="round" stroke-linejoin="round" stroke-width="2"/>
  </g>
</svg>
