<svg xmlns="http://www.w3.org/2000/svg" width="20.089" height="20.089" viewBox="0 0 20.089 20.089">
  <g id="ic_settings" transform="translate(-1866.045 -32.199)">
    <g id="ic_settings-2" data-name="ic_settings" transform="translate(1473 -683.884)" opacity="0.78">
      <path id="Path_789" data-name="Path 789" d="M160.034,20.767A3.782,3.782,0,1,1,156.252,17,3.782,3.782,0,0,1,160.034,20.767Z" transform="translate(246.831 705.362)" fill="none" stroke="#fff" stroke-linecap="round" stroke-linejoin="round" stroke-width="1.6"/>
      <path id="Path_790" data-name="Path 790" d="M159.576,19.025l2.5-.33a9.469,9.469,0,0,0,0-2.557l-2.5-.324a6.778,6.778,0,0,0-.819-1.982L160.3,11.85a9.184,9.184,0,0,0-1.81-1.81l-1.982,1.539a6.66,6.66,0,0,0-1.982-.813l-.33-2.5a8.913,8.913,0,0,0-2.55,0l-.33,2.511a6.521,6.521,0,0,0-1.982.813l-1.982-1.539a9.144,9.144,0,0,0-1.8,1.8l1.539,1.982a6.818,6.818,0,0,0-.819,1.982l-2.5.324a9.469,9.469,0,0,0,0,2.557l2.5.33a6.858,6.858,0,0,0,.819,1.982l-1.539,1.982a9.514,9.514,0,0,0,1.8,1.8l1.982-1.539a6.878,6.878,0,0,0,1.982.813l.33,2.5a9.158,9.158,0,0,0,2.55,0l.33-2.5a6.858,6.858,0,0,0,1.982-.819l1.982,1.539a9.184,9.184,0,0,0,1.81-1.8L158.757,21a6.858,6.858,0,0,0,.819-1.975Z" transform="translate(250.166 708.713)" fill="none" stroke="#fff" stroke-linecap="round" stroke-linejoin="round" stroke-width="1.6"/>
    </g>
  </g>
</svg>
