<svg xmlns="http://www.w3.org/2000/svg" width="35.093" height="29.199" viewBox="0 0 35.093 29.199">
  <g id="ic_tv" transform="translate(-1764 -624)">
    <path id="Path_859" data-name="Path 859" d="M11.209-333.608a1.645,1.645,0,0,0-.658.432c-.589.589-.548-.274-.548,11.144,0,11.082-.02,10.486.418,11.021a2.105,2.105,0,0,0,.569.445l.349.185,6.36.02,6.354.021v4.654H22.546c-1.837,0-1.995.048-1.988.6a.53.53,0,0,0,.322.48c.212.116,13.125.116,13.337,0a.517.517,0,0,0,.315-.5.517.517,0,0,0-.315-.5,7.678,7.678,0,0,0-1.659-.082H31.045v-4.654l6.36-.021,6.354-.02.349-.185a2.111,2.111,0,0,0,.569-.445c.439-.535.418.062.418-11.021,0-11.439.041-10.575-.548-11.151s.96-.535-17.025-.528C13.56-333.711,11.5-333.7,11.209-333.608Zm32.549,1.227.172.164v20.349l-.212.178-.212.178H11.593l-.212-.178-.212-.178v-20.349l.172-.164.164-.172H43.594ZM29.879-308.016v2.33H25.218v-4.661h4.661Z" transform="translate(1753.997 957.715)" fill="#fff"/>
    <path id="Path_860" data-name="Path 860" d="M75.432-268.2a.747.747,0,0,0-.254.254c-.068.137-.089,2.056-.089,9,0,9.4-.007,9.136.308,9.259.062.02,6.792.041,14.948.041,14.6,0,14.832,0,14.962-.13a.793.793,0,0,0,.178-.363c.02-.123.028-4.181.02-9.013l-.02-8.786-.158-.158-.158-.158-14.784-.014C78.613-268.282,75.57-268.269,75.432-268.2Zm28.923,9.266v8.19h-28.1v-16.38h28.1Z" transform="translate(1691.241 894.616)" fill="#fff"/>
    <path id="Path_861" data-name="Path 861" d="M267.663-185.538a14.173,14.173,0,0,0-2.776.713,12.984,12.984,0,0,0-3.653,2.227c-.432.4-.493.487-.493.692a.573.573,0,0,0,.541.576c.151,0,.343-.116.74-.452a11.091,11.091,0,0,1,14.544-.028c.425.356.624.48.775.48a.577.577,0,0,0,.535-.576c0-.206-.062-.295-.493-.692a13.07,13.07,0,0,0-2.55-1.727,12.315,12.315,0,0,0-3.5-1.165A16.382,16.382,0,0,0,267.663-185.538Z" transform="translate(1512.239 814.922)" fill="#fff"/>
    <path id="Path_862" data-name="Path 862" d="M335.065-89.895a9.187,9.187,0,0,0-5.086,2.152c-.274.24-.329.329-.329.528,0,.315.1.473.343.562.274.089.439.028.864-.343a8.306,8.306,0,0,1,3.023-1.549,5.442,5.442,0,0,1,1.871-.185,5.433,5.433,0,0,1,1.871.185A8.306,8.306,0,0,1,340.644-87c.425.37.589.432.864.343a.488.488,0,0,0,.343-.548c0-.274-.356-.637-1.144-1.165a8.828,8.828,0,0,0-3.351-1.391A12.066,12.066,0,0,0,335.065-89.895Z" transform="translate(1445.796 722.638)" fill="#fff"/>
    <path id="Path_863" data-name="Path 863" d="M400.3,7.027a4.374,4.374,0,0,0-2.543,1.446.627.627,0,0,0,.212.637c.254.137.493.068,1.048-.3a4.159,4.159,0,0,1,4.757,0c.727.48,1.083.487,1.247.028.124-.37-.082-.651-.823-1.117A5.442,5.442,0,0,0,400.3,7.027Z" transform="translate(1380.149 629.279)" fill="#fff"/>
    <path id="Path_864" data-name="Path 864" d="M455.545,95.987a1.626,1.626,0,1,0,1.912.9A1.593,1.593,0,0,0,455.545,95.987Zm.775,1.206a.512.512,0,0,1-.041.747.388.388,0,0,1-.6,0,.5.5,0,0,1,.3-.884A.548.548,0,0,1,456.32,97.194Z" transform="translate(1325.569 543.458)" fill="#fff"/>
  </g>
</svg>
