<svg xmlns="http://www.w3.org/2000/svg" width="22.326" height="19.406" viewBox="0 0 22.326 19.406">
  <g id="icon_dislike" transform="translate(-351.35 -155.25)">
    <line id="Line_27" data-name="Line 27" x1="1.746" transform="translate(368.594 163.731)" fill="none" stroke="#fff" stroke-linecap="round" stroke-linejoin="round" stroke-width="1.5"/>
    <line id="Line_28" data-name="Line 28" x1="1.256" transform="translate(368.133 161.056)" fill="none" stroke="#fff" stroke-linecap="round" stroke-linejoin="round" stroke-width="1.5"/>
    <path id="Path_807" data-name="Path 807" d="M1964.34,8.265a39.628,39.628,0,0,1,11.144-1.545c2.318,0,1.828,2.415.149,2.415h-.669" transform="translate(-1606.329 149.281)" fill="none" stroke="#fff" stroke-linecap="round" stroke-linejoin="round" stroke-width="1.5"/>
    <g id="Group_59" data-name="Group 59" transform="translate(352 156.164)">
      <path id="Path_808" data-name="Path 808" d="M1964.34,17.171s4.784,3.517,4.458,7.195c-.26,2.793,5.282.658,2.229-6.383h6.842a1.366,1.366,0,0,0,1.261-.637,1.32,1.32,0,0,0,0-1.395,1.366,1.366,0,0,0-1.261-.637h-.149a1.338,1.338,0,1,0,0-2.676h-1a1.366,1.366,0,0,0,1.261-.637,1.32,1.32,0,0,0,0-1.395,1.366,1.366,0,0,0-1.261-.637h-1.107" transform="translate(-1958.329 -7.718)" fill="none" stroke="#fff" stroke-linecap="round" stroke-linejoin="round" stroke-width="1.3"/>
      <rect id="Rectangle_133" data-name="Rectangle 133" width="5.2" height="11.144" fill="none" stroke="#fff" stroke-linecap="round" stroke-linejoin="round" stroke-width="1.3"/>
    </g>
  </g>
</svg>
