<svg xmlns="http://www.w3.org/2000/svg" width="320.625" height="456.001" viewBox="0 0 320.625 456.001">
  <g id="icon-drop" transform="translate(-90 -22)">
    <path id="Subtraction_1" data-name="Subtraction 1" d="M-5732.356,1308h-.106a13.385,13.385,0,0,1-6.494-1.686,13.4,13.4,0,0,1-4.856-4.63l-127.257-205.072a159.852,159.852,0,0,1-23.93-84.3c0-88.4,71.917-160.314,160.314-160.314s160.311,71.917,160.311,160.314a160.183,160.183,0,0,1-22.611,82.132L-5721,1301.506a13.384,13.384,0,0,1-4.829,4.733A13.391,13.391,0,0,1-5732.356,1308Zm-3.6-270.908,46.231,53.182a10.963,10.963,0,0,0,8.279,3.771,10.954,10.954,0,0,0,7.187-2.69,10.977,10.977,0,0,0,1.08-15.466l-47.236-54.339,50.913-50.911a10.976,10.976,0,0,0,0-15.5,10.892,10.892,0,0,0-7.752-3.211,10.892,10.892,0,0,0-7.752,3.211l-49.828,49.828-46.229-53.181a10.962,10.962,0,0,0-8.279-3.772,10.956,10.956,0,0,0-7.187,2.689,10.976,10.976,0,0,0-1.082,15.466l47.235,54.339-50.911,50.911a10.89,10.89,0,0,0-3.212,7.752,10.89,10.89,0,0,0,3.212,7.752,10.889,10.889,0,0,0,7.752,3.211,10.893,10.893,0,0,0,7.752-3.211l49.826-49.828Z" transform="translate(5985 -830)" fill="#fff"/>
  </g>
</svg>
