<svg id="info_dark" xmlns="http://www.w3.org/2000/svg" width="18.413" height="18.413" viewBox="0 0 18.413 18.413">
  <rect id="Rectangle_1" data-name="Rectangle 1" width="8" height="13" transform="translate(6 3)" fill="#fff"/>
  <path id="info" d="M9.206,0a9.206,9.206,0,1,0,9.206,9.206A9.217,9.217,0,0,0,9.206,0Zm.6,14.669c-.437.073-1.308.255-1.75.292a1.077,1.077,0,0,1-.942-.491,1.15,1.15,0,0,1-.139-1.054l1.74-4.785H6.9a2.163,2.163,0,0,1,1.7-2.012,6.662,6.662,0,0,1,1.749-.29,1.388,1.388,0,0,1,.942.491,1.15,1.15,0,0,1,.139,1.054L9.7,12.659h1.809a2.037,2.037,0,0,1-1.7,2.01Zm.552-8.915A1.151,1.151,0,1,1,11.508,4.6a1.151,1.151,0,0,1-1.151,1.151Z" fill="#3b3b3c"/>
</svg>
