<svg xmlns="http://www.w3.org/2000/svg" width="91.167" height="91.167" viewBox="0 0 91.167 91.167">
  <g id="info" transform="translate(-45.833 -45.833)">
    <path id="Path_940" data-name="Path 940" d="M56.583,102.167a45.583,45.583,0,1,1,45.583-45.583A45.636,45.636,0,0,1,56.583,102.167Zm0-84.154A38.571,38.571,0,1,0,95.154,56.583,38.616,38.616,0,0,0,56.583,18.013Z" transform="translate(34.833 34.833)" fill="#fff"/>
    <path id="Path_941" data-name="Path 941" d="M20.506,51.064A3.508,3.508,0,0,1,17,47.558V19.506a3.506,3.506,0,1,1,7.013,0V47.558A3.508,3.508,0,0,1,20.506,51.064Z" transform="translate(70.91 64.897)" fill="#fff"/>
    <ellipse id="Ellipse_8" data-name="Ellipse 8" cx="3.5" cy="4.5" rx="3.5" ry="4.5" transform="translate(88 66)" fill="#fff"/>
  </g>
</svg>
