<svg id="key" xmlns="http://www.w3.org/2000/svg" width="34.821" height="34.821" viewBox="0 0 34.821 34.821">
  <path id="Path_4" data-name="Path 4" d="M22.353,26.705a4.353,4.353,0,1,1,4.353-4.353A4.358,4.358,0,0,1,22.353,26.705Zm0-6.529a2.176,2.176,0,1,0,2.176,2.176A2.179,2.179,0,0,0,22.353,20.176Z" transform="translate(8.115 8.115)" fill="#fff"/>
  <path id="Path_5" data-name="Path 5" d="M12.088,24.6A1.089,1.089,0,0,1,11,23.514V22.064a1.816,1.816,0,0,1,1.814-1.814h9.068a1.088,1.088,0,0,1,0,2.176H13.176v1.088A1.089,1.089,0,0,1,12.088,24.6Z" transform="translate(4.959 9.13)" fill="#fff"/>
  <path id="Path_6" data-name="Path 6" d="M14.088,24.6A1.089,1.089,0,0,1,13,23.514V21.338a1.088,1.088,0,1,1,2.176,0v2.176A1.089,1.089,0,0,1,14.088,24.6Z" transform="translate(5.861 9.13)" fill="#fff"/>
  <path id="Path_7" data-name="Path 7" d="M11.97,25.861H3.264A3.268,3.268,0,0,1,0,22.6V10.264A3.268,3.268,0,0,1,3.264,7H19.949a3.268,3.268,0,0,1,3.264,3.264V21.871a1.088,1.088,0,1,1-2.176,0V10.264a1.089,1.089,0,0,0-1.088-1.088H3.264a1.089,1.089,0,0,0-1.088,1.088V22.6a1.089,1.089,0,0,0,1.088,1.088H11.97a1.088,1.088,0,1,1,0,2.176Z" transform="translate(0 3.156)" fill="#fff"/>
  <path id="Path_8" data-name="Path 8" d="M16.42,12.332a1.089,1.089,0,0,1-1.088-1.088V7.254a5.078,5.078,0,1,0-10.156,0v3.99a1.088,1.088,0,0,1-2.176,0V7.254a7.254,7.254,0,0,1,14.509,0v3.99A1.089,1.089,0,0,1,16.42,12.332Z" transform="translate(1.353)" fill="#fff"/>
</svg>
