<svg xmlns="http://www.w3.org/2000/svg" width="29.121" height="28.009" viewBox="0 0 29.121 28.009">
  <g id="leaderboard" transform="translate(-13.268 -14.687)">
    <g id="Group_1209" data-name="Group 1209" transform="translate(13.516 14.937)">
      <path id="Path_955" data-name="Path 955" d="M35.447,967.3a.946.946,0,0,0-.1.012H20.2a.981.981,0,0,0-.981.981v3.567H14.546q-.049,0-.1,0a.981.981,0,0,0-.883.907,11.576,11.576,0,0,0,1.312,7.037,7.4,7.4,0,0,0,5.97,3.224,11.6,11.6,0,0,0,1.447,1.422,24.188,24.188,0,0,1,2.182,1.937,3.109,3.109,0,0,1,.8,1.41c-3.264.982-6.01,2.731-7.441,5.59a.981.981,0,0,0,.87,1.422H36.955a.981.981,0,0,0,.87-1.422c-1.431-2.859-4.178-4.608-7.441-5.59a3.109,3.109,0,0,1,.8-1.41,24.168,24.168,0,0,1,2.182-1.937,11.642,11.642,0,0,0,1.434-1.422s.011,0,.012,0a7.4,7.4,0,0,0,5.97-3.224,11.576,11.576,0,0,0,1.312-7.037.981.981,0,0,0-.981-.907H36.44v-3.567a.981.981,0,0,0-.993-.993Zm-14.269,1.974h13.3v8.361a.979.979,0,0,0,.012.123c.332,2.736-.854,3.893-2.4,5.21a22.9,22.9,0,0,0-2.378,2.109,5.009,5.009,0,0,0-1.361,3.2,1.418,1.418,0,0,0,.87,1.214,11.245,11.245,0,0,1,5.884,3.359H20.552a11.245,11.245,0,0,1,5.884-3.359,1.462,1.462,0,0,0,.87-1.214,5.02,5.02,0,0,0-1.373-3.2,22.8,22.8,0,0,0-2.366-2.109c-1.549-1.317-2.734-2.474-2.4-5.21a.979.979,0,0,0,.012-.123ZM15.5,973.822h3.714v3.813h.012a7.076,7.076,0,0,0,.368,3.224,4.706,4.706,0,0,1-3.065-2.1A9.072,9.072,0,0,1,15.5,973.822Zm20.938,0h3.714a9.071,9.071,0,0,1-1.03,4.94,4.706,4.706,0,0,1-3.065,2.1,7.076,7.076,0,0,0,.368-3.224h.012Z" transform="translate(-13.516 -967.3)" fill="#fff" stroke="#969695" stroke-width="0.5"/>
    </g>
  </g>
</svg>
