<svg xmlns="http://www.w3.org/2000/svg" width="83.034" height="70.459" viewBox="0 0 83.034 70.459">
  <g id="permission" transform="translate(-1.966 -3)">
    <g id="Group_255" data-name="Group 255" transform="translate(1.966 3)">
      <g id="Group_254" data-name="Group 254">
        <path id="Path_849" data-name="Path 849" d="M38.546,42.782a7.2,7.2,0,0,1-.882-3.434,7.126,7.126,0,0,1,.8-3.114A16.749,16.749,0,0,0,45.485,22.32C45.485,13.307,38.99,6,30.979,6S16.473,13.307,16.473,22.32a16.749,16.749,0,0,0,7.021,13.914,7.129,7.129,0,0,1,.8,3.114,7.2,7.2,0,0,1-.882,3.434c-12.347,1.666-21.445,7.29-21.445,13.99v7.253H59.991V56.772C59.992,50.072,50.893,44.448,38.546,42.782Zm17.3,17.1H6.111V56.772c0-3.674,6.678-8.375,17.855-9.883l2.091-.282,1-1.857a11.421,11.421,0,0,0,1.379-5.4,11.138,11.138,0,0,0-1.214-4.92l-.482-.995-.913-.623a12.555,12.555,0,0,1-5.213-10.491c0-6.713,4.648-12.175,10.362-12.175S41.34,15.606,41.34,22.319A12.555,12.555,0,0,1,36.127,32.81l-.913.623-.481.995a11.137,11.137,0,0,0-1.214,4.92,11.418,11.418,0,0,0,1.38,5.4l1,1.857,2.091.282C49.168,48.4,55.847,53.1,55.847,56.772V59.88Z" transform="translate(-1.966 6.434)" fill="#fff"/>
        <path id="Path_850" data-name="Path 850" d="M43.013,19.579V15.434a12.434,12.434,0,0,0-24.868,0v4.145A4.145,4.145,0,0,0,14,23.723V40.3a4.145,4.145,0,0,0,4.145,4.145H43.013A4.145,4.145,0,0,0,47.157,40.3V23.723A4.145,4.145,0,0,0,43.013,19.579ZM22.289,15.434a8.289,8.289,0,0,1,16.579,0v4.145H22.289ZM43.013,40.3H18.145V23.723H43.013ZM26.434,32.013a4.145,4.145,0,1,1,4.145,4.145A4.145,4.145,0,0,1,26.434,32.013Z" transform="translate(35.877 -3)" fill="#fff"/>
      </g>
    </g>
  </g>
</svg>
