<svg xmlns="http://www.w3.org/2000/svg" width="31.889" height="31.934" viewBox="0 0 31.889 31.934">
  <g id="Global" transform="translate(-1.661 -1.627)">
    <path id="Path_1" data-name="Path 1" d="M40.7,19.39A4.7,4.7,0,1,0,36,14.7,4.7,4.7,0,0,0,40.7,19.39Zm0-8.347A3.652,3.652,0,1,1,37.043,14.7,3.652,3.652,0,0,1,40.7,11.043Z" transform="translate(-16.263 -3.827)" fill="#fff" stroke="#fff" stroke-width="0.5"/>
    <path id="Path_2" data-name="Path 2" d="M33.3,10.868A8.854,8.854,0,0,0,18.574,4.227a14.021,14.021,0,0,0-1.968-.14A14.6,14.6,0,0,0,2.84,23.569c0,.01.006.021.01.031a14.607,14.607,0,0,0,28.363-4.907,14.024,14.024,0,0,0-.116-1.786C32.355,14.689,33.3,12.485,33.3,10.868Zm-1.043,0c0,3.8-6.176,11.732-7.825,13.781-1.65-2.049-7.825-9.973-7.825-13.781a7.825,7.825,0,1,1,15.65,0ZM12.433,5.79v.905a.522.522,0,0,1-.522.522,1.573,1.573,0,0,0-1.565,1.565V11.39a.522.522,0,0,1-.522.522H7.738a1.565,1.565,0,1,0,0,3.13h5.217a1.565,1.565,0,0,1,1.565,1.565v1.565a1.565,1.565,0,0,1-1.565,1.565h-.522a1.582,1.582,0,0,0-1.252.626l-1.043,1.389a1.561,1.561,0,0,0-.313.943v4.128l-.861-.861a1.057,1.057,0,0,1-.285-.532l-.261-1.3a1.571,1.571,0,0,0-1.535-1.259H3.7A13.555,13.555,0,0,1,12.433,5.79ZM4.087,23.91h2.8a.522.522,0,0,1,.511.42l.261,1.307a2.091,2.091,0,0,0,.57,1.062l.862.862a1.043,1.043,0,0,0,1.783-.736V22.694a.507.507,0,0,1,.1-.313l1.043-1.39a.531.531,0,0,1,.417-.211h.522a2.611,2.611,0,0,0,2.608-2.608V16.606A2.611,2.611,0,0,0,12.955,14H7.738a.508.508,0,0,1-.371-.16.5.5,0,0,1-.15-.362.522.522,0,0,1,.522-.522H9.825A1.565,1.565,0,0,0,11.39,11.39V8.781a.508.508,0,0,1,.16-.371.5.5,0,0,1,.362-.15,1.565,1.565,0,0,0,1.565-1.565V5.5a13.523,13.523,0,0,1,3.13-.369c.356,0,.7.013,1.043.039a8.823,8.823,0,0,0-2.087,5.7c0,3.078,3.413,8.267,5.908,11.653a1.555,1.555,0,0,0-.831,1.132l-.23,1.388a.522.522,0,0,1-.513.435H17.838a1.047,1.047,0,0,0-.668.241l-2.344,1.959a1.547,1.547,0,0,0-.4,1.9l.618,1.236v1.349A13.6,13.6,0,0,1,4.087,23.91Zm12.52,8.347c-.175,0-.348-.007-.522-.013V30.691a.522.522,0,0,0-.055-.233l-.676-1.348a.512.512,0,0,1,.135-.632l2.348-1.96H19.9a1.559,1.559,0,0,0,1.543-1.307l.23-1.388a.522.522,0,0,1,.458-.425c1.033,1.364,1.8,2.29,1.9,2.411a.522.522,0,0,0,.8,0c.1-.122.873-1.052,1.911-2.421H28a.526.526,0,0,1,.446.249l.461.763a13.579,13.579,0,0,1-12.3,7.856ZM30.17,18.693a13.5,13.5,0,0,1-.772,4.5l-.062-.1A1.575,1.575,0,0,0,28,22.345h-.479c.841-1.148,1.774-2.486,2.642-3.875C30.164,18.545,30.17,18.617,30.17,18.693Z" transform="translate(0 0)" fill="#fff" stroke="#fff" stroke-width="0.5"/>
  </g>
</svg>
