<svg xmlns="http://www.w3.org/2000/svg" width="60" height="60" viewBox="0 0 60 60">
  <g id="Group_1174" data-name="Group 1174" transform="translate(-279 -568)">
    <g id="Group_1174-2" data-name="Group 1174" transform="translate(50 -63)">
      <g id="Group_1172" data-name="Group 1172" transform="translate(-1433 241)">
        <g id="Rectangle_228" data-name="Rectangle 228" transform="translate(1662 390)" fill="#fff" stroke="#707070" stroke-width="1" opacity="0.23">
          <rect width="60" height="60" rx="23" stroke="none"/>
          <rect x="0.5" y="0.5" width="59" height="59" rx="22.5" fill="none"/>
        </g>
      </g>
      <g id="Group_1173" data-name="Group 1173" transform="translate(-1433 241)">
        <path id="Path_959" data-name="Path 959" d="M-29.2-2.926h14.083L4.444,18.987v16.12Z" transform="translate(1716.61 394)" fill="#ffc713"/>
        <text id="BETA" transform="translate(1696.96 398.615) rotate(48)" fill="#363636" font-size="8" font-family="Rubik-Medium, Rubik" font-weight="500" letter-spacing="0.17em"><tspan x="0" y="0">BETA</tspan></text>
      </g>
    </g>
    <g id="Group_2" data-name="Group 2" transform="translate(-82.072 259.227)">
      <g id="Path_2" data-name="Path 2" transform="translate(380 323.011)" fill="none">
        <path d="M3.086,0H15.345V7.374c7.872.132,8.312-.777,8.312.927v19.47a3.086,3.086,0,0,1-3.086,3.086H3.086A3.086,3.086,0,0,1,0,27.771V3.086A3.086,3.086,0,0,1,3.086,0Z" stroke="none"/>
        <path d="M 3.085691452026367 0.9999961853027344 C 1.935640335083008 0.9999961853027344 1.000001907348633 1.935636520385742 1.000001907348633 3.085697174072266 L 1.000001907348633 27.77123641967773 C 1.000001907348633 28.92129707336426 1.935640335083008 29.85693740844727 3.085691452026367 29.85693740844727 L 20.57129096984863 29.85693740844727 C 21.72134208679199 29.85693740844727 22.65698051452637 28.92129707336426 22.65698051452637 27.77123641967773 L 22.65698051452637 8.301216125488281 C 22.65698051452637 8.283975601196289 22.65692329406738 8.267602920532227 22.65681457519531 8.252046585083008 C 22.59612655639648 8.249725341796875 22.52285194396973 8.248241424560547 22.43460083007813 8.248247146606445 C 22.11566162109375 8.248256683349609 21.68970108032227 8.26629638671875 21.15041160583496 8.289127349853516 C 20.16597175598145 8.330806732177734 18.8177318572998 8.387897491455078 16.95005035400391 8.387897491455078 C 16.42272186279297 8.387897491455078 15.87703132629395 8.383216857910156 15.32813167572021 8.373987197875977 L 14.34494113922119 8.357446670532227 L 14.34494113922119 7.374126434326172 L 14.34494113922119 0.9999961853027344 L 3.085691452026367 0.9999961853027344 M 3.085691452026367 -3.814697265625e-06 L 15.34494113922119 -3.814697265625e-06 L 15.34494113922119 7.374126434326172 C 15.91817188262939 7.383769989013672 16.45294380187988 7.387893676757813 16.9500560760498 7.387893676757813 C 19.84689331054688 7.387893676757813 21.49660110473633 7.248281478881836 22.4345760345459 7.24824333190918 C 23.54619407653809 7.248199462890625 23.65698051452637 7.444232940673828 23.65698051452637 8.301216125488281 L 23.65698051452637 27.77123641967773 C 23.65698051452637 29.47541618347168 22.27547073364258 30.85693740844727 20.57129096984863 30.85693740844727 L 3.085691452026367 30.85693740844727 C 1.381511688232422 30.85693740844727 1.9073486328125e-06 29.47541618347168 1.9073486328125e-06 27.77123641967773 L 1.9073486328125e-06 3.085697174072266 C 1.9073486328125e-06 1.381505966186523 1.381511688232422 -3.814697265625e-06 3.085691452026367 -3.814697265625e-06 Z" stroke="none" fill="#fff"/>
      </g>
      <path id="Path_3" data-name="Path 3" d="M4.137,0,8.619,4.179,0,4.437Z" transform="translate(399.466 331.932) rotate(-133)" fill="#fff"/>
      <g id="iconfinder_graph-pie_3688426" transform="translate(383.778 329.875)">
        <path id="Path_4" data-name="Path 4" d="M10.45,10.45H14.9a4.576,4.576,0,0,1-4.446,4.45A4.455,4.455,0,0,1,6,10.446,4.576,4.576,0,0,1,10.45,6Z" transform="translate(-6 -6)" fill="#fff" fill-rule="evenodd"/>
        <path id="Path_5" data-name="Path 5" d="M26,6a4.171,4.171,0,0,1,3.755,3.755H26Z" transform="translate(-20.854 -6)" fill="#fff" fill-rule="evenodd"/>
      </g>
      <rect id="Rectangle_2" data-name="Rectangle 2" width="8.229" height="1.543" rx="0.771" transform="translate(392.343 339.468)" fill="#fff"/>
      <rect id="Rectangle_3" data-name="Rectangle 3" width="17.822" height="1.543" rx="0.771" transform="translate(382.75 347.697)" fill="#fff"/>
      <rect id="Rectangle_4" data-name="Rectangle 4" width="17.822" height="1.543" rx="0.771" transform="translate(382.75 343.583)" fill="#fff"/>
    </g>
  </g>
</svg>
