<svg xmlns="http://www.w3.org/2000/svg" width="58.724" height="52" viewBox="0 0 58.724 52">
  <g id="upload" transform="translate(0 -24)">
    <g id="Group_1037" data-name="Group 1037" transform="translate(0 24)">
      <g id="Group_1036" data-name="Group 1036" transform="translate(0 0)">
        <circle id="Ellipse_6" data-name="Ellipse 6" cx="4.034" cy="4.034" r="4.034" transform="translate(18.099 12.832)" fill="#fff"/>
        <path id="Path_930" data-name="Path 930" d="M55.25,55.716A12.424,12.424,0,0,0,48.3,52.409V31.9A8.067,8.067,0,0,0,46,26.3,7.829,7.829,0,0,0,40.4,24H7.9a8.067,8.067,0,0,0-5.6,2.3A7.83,7.83,0,0,0,0,31.9V65.353a8.067,8.067,0,0,0,2.3,5.6,7.829,7.829,0,0,0,5.6,2.3H39.336A11.855,11.855,0,0,0,55.25,55.716ZM2.97,31.9a4.69,4.69,0,0,1,1.457-3.418A4.917,4.917,0,0,1,7.9,27.026H40.4a4.975,4.975,0,0,1,4.931,4.931V49.44l-8.293-8.293a1.5,1.5,0,0,0-2.129,0L22.414,53.7l-8.461-8.517a1.5,1.5,0,0,0-2.129,0L2.97,54.147ZM7.845,70.4v-.112a4.917,4.917,0,0,1-3.474-1.457,5.114,5.114,0,0,1-1.4-3.474V58.405l9.918-9.974,8.461,8.461a1.558,1.558,0,0,0,2.129,0l12.5-12.552,8.181,8.237-.5.168a5.2,5.2,0,0,0-.728.224c-.224.056-.448.168-.672.224a1.678,1.678,0,0,0-.448.224,5.208,5.208,0,0,0-.56.28l-.841.5c-.168.112-.28.168-.448.28-.112.056-.168.112-.28.168a6.76,6.76,0,0,0-1.345,1.177,11.854,11.854,0,0,0-3.474,8.405,12.319,12.319,0,0,0,.28,2.466c.056.224.112.392.168.616.168.56.336,1.121.56,1.681v.056a10.279,10.279,0,0,0,.728,1.345Zm45.22,0a8.864,8.864,0,0,1-12.384.112c-.224-.224-.448-.5-.672-.728-.168-.168-.336-.392-.5-.56a5.321,5.321,0,0,1-.56-.953c-.112-.224-.224-.392-.336-.616a4.733,4.733,0,0,1-.28-.953c-.056-.224-.168-.5-.224-.728a9.275,9.275,0,0,1-.168-1.793A8.994,8.994,0,0,1,40.513,57.9a8.663,8.663,0,0,1,6.276-2.578A8.994,8.994,0,0,1,53.065,57.9a8.758,8.758,0,0,1,2.578,6.276A8.962,8.962,0,0,1,53.065,70.4Z" transform="translate(0 -24)" fill="#fff"/>
        <path id="Path_931" data-name="Path 931" d="M304.624,264.848a1.953,1.953,0,0,0-.5-.336,1.636,1.636,0,0,0-.5-.112H303.5a1.636,1.636,0,0,0-.5.112,1.323,1.323,0,0,0-.5.336l-3.474,3.474a1.506,1.506,0,0,0,2.129,2.129l.9-.9v6.164a1.513,1.513,0,0,0,3.026,0v-6.164l.9.9a1.506,1.506,0,0,0,2.129-2.129Z" transform="translate(-256.77 -230.723)" fill="#fff"/>
      </g>
    </g>
  </g>
</svg>
