<svg id="user" xmlns="http://www.w3.org/2000/svg" width="26.533" height="31.803" viewBox="0 0 26.533 31.803">
  <path id="Path_9" data-name="Path 9" d="M94.692,15.32a7.412,7.412,0,0,0,5.416-2.244,7.412,7.412,0,0,0,2.244-5.416,7.413,7.413,0,0,0-2.244-5.416,7.658,7.658,0,0,0-10.832,0A7.412,7.412,0,0,0,87.032,7.66a7.412,7.412,0,0,0,2.244,5.416A7.414,7.414,0,0,0,94.692,15.32Zm-4.1-11.758a5.794,5.794,0,0,1,8.2,0,5.538,5.538,0,0,1,1.7,4.1,5.538,5.538,0,0,1-1.7,4.1,5.794,5.794,0,0,1-8.2,0,5.537,5.537,0,0,1-1.7-4.1,5.537,5.537,0,0,1,1.7-4.1Zm0,0" transform="translate(-81.626 0)" fill="#fff"/>
  <path id="Path_10" data-name="Path 10" d="M26.469,256.409a18.92,18.92,0,0,0-.258-2.01,15.833,15.833,0,0,0-.494-2.02,9.981,9.981,0,0,0-.831-1.884,7.1,7.1,0,0,0-1.252-1.632,5.522,5.522,0,0,0-1.8-1.13,6.218,6.218,0,0,0-2.3-.416,2.331,2.331,0,0,0-1.245.528c-.373.243-.81.525-1.3.836a7.431,7.431,0,0,1-1.678.739,6.516,6.516,0,0,1-4.1,0,7.409,7.409,0,0,1-1.677-.739c-.483-.308-.919-.59-1.3-.837a2.329,2.329,0,0,0-1.244-.528,6.21,6.21,0,0,0-2.3.416,5.518,5.518,0,0,0-1.8,1.13,7.1,7.1,0,0,0-1.252,1.632,10,10,0,0,0-.831,1.885,15.871,15.871,0,0,0-.494,2.02,18.79,18.79,0,0,0-.258,2.01c-.042.607-.064,1.239-.064,1.878a5.281,5.281,0,0,0,1.568,4,5.645,5.645,0,0,0,4.042,1.474H20.923a5.646,5.646,0,0,0,4.041-1.474,5.279,5.279,0,0,0,1.569-4c0-.641-.022-1.273-.064-1.879Zm-2.789,4.524a3.8,3.8,0,0,1-2.757.961H5.61a3.8,3.8,0,0,1-2.757-.96,3.448,3.448,0,0,1-.99-2.645c0-.6.02-1.184.059-1.749a16.949,16.949,0,0,1,.233-1.81,14,14,0,0,1,.435-1.781,8.14,8.14,0,0,1,.676-1.532,5.266,5.266,0,0,1,.92-1.206,3.663,3.663,0,0,1,1.2-.744,4.288,4.288,0,0,1,1.468-.283c.065.035.181.1.37.224.383.25.825.535,1.313.846a9.234,9.234,0,0,0,2.106.941,8.378,8.378,0,0,0,5.251,0A9.243,9.243,0,0,0,18,250.251c.5-.319.929-.6,1.312-.846.188-.123.3-.189.37-.224a4.291,4.291,0,0,1,1.468.283,3.668,3.668,0,0,1,1.2.744,5.251,5.251,0,0,1,.92,1.206,8.113,8.113,0,0,1,.676,1.532,13.964,13.964,0,0,1,.435,1.781,17.09,17.09,0,0,1,.233,1.81h0c.04.563.059,1.151.06,1.748a3.448,3.448,0,0,1-.99,2.645Zm0,0" transform="translate(0 -231.954)" fill="#fff"/>
</svg>
