<svg xmlns="http://www.w3.org/2000/svg" width="24.156" height="28.953" viewBox="0 0 24.156 28.953">
  <g id="user" transform="translate(0 0)">
    <path id="Path_906" data-name="Path 906" d="M94.005,13.947A6.748,6.748,0,0,0,98.936,11.9a6.748,6.748,0,0,0,2.043-4.931,6.748,6.748,0,0,0-2.043-4.931,6.972,6.972,0,0,0-9.861,0,6.748,6.748,0,0,0-2.043,4.93A6.748,6.748,0,0,0,89.075,11.9,6.75,6.75,0,0,0,94.005,13.947Zm-3.731-10.7a5.275,5.275,0,0,1,7.462,0,5.042,5.042,0,0,1,1.546,3.731A5.041,5.041,0,0,1,97.736,10.7a5.275,5.275,0,0,1-7.462,0,5.04,5.04,0,0,1-1.546-3.731,5.041,5.041,0,0,1,1.546-3.731Zm0,0" transform="translate(-82.11 0)" fill="#fff"/>
    <path id="Path_907" data-name="Path 907" d="M24.1,255.594a17.226,17.226,0,0,0-.235-1.829,14.415,14.415,0,0,0-.45-1.839,9.086,9.086,0,0,0-.756-1.715,6.467,6.467,0,0,0-1.14-1.486,5.028,5.028,0,0,0-1.638-1.029,5.661,5.661,0,0,0-2.091-.378,2.123,2.123,0,0,0-1.133.481c-.34.222-.737.478-1.181.761a6.766,6.766,0,0,1-1.528.673,5.933,5.933,0,0,1-3.737,0,6.745,6.745,0,0,1-1.527-.673c-.439-.281-.837-.537-1.182-.762a2.12,2.12,0,0,0-1.133-.481,5.653,5.653,0,0,0-2.091.379,5.023,5.023,0,0,0-1.638,1.029A6.468,6.468,0,0,0,1.5,250.21a9.1,9.1,0,0,0-.756,1.716,14.448,14.448,0,0,0-.45,1.839,17.106,17.106,0,0,0-.235,1.83C.019,256.148,0,256.723,0,257.3a4.808,4.808,0,0,0,1.428,3.637,5.14,5.14,0,0,0,3.679,1.342H19.048a5.14,5.14,0,0,0,3.679-1.342,4.806,4.806,0,0,0,1.428-3.638c0-.583-.02-1.159-.059-1.71Zm-2.539,4.118a3.46,3.46,0,0,1-2.51.875H5.107a3.461,3.461,0,0,1-2.51-.874,3.14,3.14,0,0,1-.9-2.408c0-.543.018-1.078.054-1.592a15.432,15.432,0,0,1,.212-1.648,12.744,12.744,0,0,1,.4-1.622,7.412,7.412,0,0,1,.615-1.395,4.794,4.794,0,0,1,.838-1.1,3.336,3.336,0,0,1,1.09-.678,3.9,3.9,0,0,1,1.336-.258c.059.032.165.092.337.2.349.227.751.487,1.2.77a8.406,8.406,0,0,0,1.918.857,7.628,7.628,0,0,0,4.781,0,8.415,8.415,0,0,0,1.919-.858c.455-.291.846-.543,1.194-.77.171-.112.277-.172.337-.2a3.907,3.907,0,0,1,1.337.258,3.34,3.34,0,0,1,1.089.678,4.782,4.782,0,0,1,.838,1.1,7.387,7.387,0,0,1,.616,1.395,12.713,12.713,0,0,1,.4,1.622,15.559,15.559,0,0,1,.212,1.648h0c.036.512.054,1.048.054,1.592a3.139,3.139,0,0,1-.9,2.408Zm0,0" transform="translate(0 -233.33)" fill="#fff"/>
  </g>
</svg>
