<svg xmlns="http://www.w3.org/2000/svg" width="47.98" height="63.947" viewBox="0 0 47.98 63.947">
  <g id="Group_1201" data-name="Group 1201" transform="translate(-8104 -3617.465)">
    <path id="Path_971" data-name="Path 971" d="M8185.86,3681.14c.461-.612,20.176-29.267,20.176-29.267s4.981-8.593,2.117-18.183a23.433,23.433,0,0,0-11.084-13.575,29.444,29.444,0,0,0-21.794-1c-11.583,4.234-13.7,16.065-13.7,16.065s-3.362,11.209,7.1,24.534,14.446,19.428,14.446,19.428l1.619,1.992S8185.4,3681.752,8185.86,3681.14Z" transform="translate(-57.061)" fill="#ffc713"/>
    <g id="Zendesk_" data-name="Zendesk " transform="translate(8117 3630)">
      <g id="Group_1173" data-name="Group 1173">
        <path id="Path_960" data-name="Path 960" d="M151.193,53.154h-7.587a.455.455,0,1,1,0-.91h7.587a.455.455,0,1,1,0,.91Z" transform="translate(-136.493 -50.423)" fill="#fff" stroke="#fff" stroke-width="0.5"/>
        <path id="Path_961" data-name="Path 961" d="M313.924,25.45a.455.455,0,0,1-.455-.455V21.353a.455.455,0,0,1,.91,0v3.642A.455.455,0,0,1,313.924,25.45Z" transform="translate(-297.894 -20.898)" fill="#fff" stroke="#fff" stroke-width="0.5"/>
        <path id="Path_962" data-name="Path 962" d="M104.945,25.45a.455.455,0,0,1-.455-.455V21.353a.455.455,0,0,1,.91,0v3.642A.455.455,0,0,1,104.945,25.45Z" transform="translate(-99.298 -20.898)" fill="#fff" stroke="#fff" stroke-width="0.5"/>
        <path id="Path_963" data-name="Path 963" d="M64.814,152.511H52.552c-.169,0-.307-.224-.307-.5s.137-.5.307-.5H64.814c.169,0,.307.224.307.5S64.984,152.511,64.814,152.511Z" transform="translate(-49.144 -144.054)" fill="#fff" stroke="#fff" stroke-width="0.5"/>
        <path id="Path_964" data-name="Path 964" d="M61.529,215.2H52.538c-.162,0-.293-.224-.293-.5s.131-.5.293-.5h8.991c.162,0,.293.224.293.5S61.691,215.2,61.529,215.2Z" transform="translate(-49.144 -203.696)" fill="#fff" stroke="#fff" stroke-width="0.5"/>
        <path id="Path_965" data-name="Path 965" d="M57.865,277.9H52.552c-.169,0-.307-.224-.307-.5s.137-.5.307-.5h5.314c.169,0,.307.224.307.5S58.035,277.9,57.865,277.9Z" transform="translate(-49.144 -263.338)" fill="#fff" stroke="#fff" stroke-width="0.5"/>
        <path id="Path_966" data-name="Path 966" d="M21.662,62.741V52.624a.386.386,0,0,0-.391-.38H17.616a.381.381,0,1,0,0,.761h3.262v9.407a5.345,5.345,0,0,0-7.047,4.919h0a4.867,4.867,0,0,0,.287,1.648H.783V53h2.74a.381.381,0,1,0,0-.761H.391a.386.386,0,0,0-.391.38V69.359a.386.386,0,0,0,.391.38H14.459a5.426,5.426,0,0,0,7.2,2.25,5.128,5.128,0,0,0,2.316-7A5.277,5.277,0,0,0,21.662,62.741Zm-2.479,9.027a4.439,4.439,0,1,1,4.567-4.437h0A4.53,4.53,0,0,1,19.182,71.768Z" transform="translate(0 -50.423)" fill="#fff" stroke="#fff" stroke-width="0.5"/>
        <path id="Path_967" data-name="Path 967" d="M379.44,302.347h-2.822a.455.455,0,0,1-.455-.455V298.25a.455.455,0,0,1,.91,0v3.186h2.367a.455.455,0,0,1,0,.91Z" transform="translate(-357.313 -283.563)" fill="#fff" stroke="#fff" stroke-width="0.5"/>
      </g>
    </g>
  </g>
</svg>
