<svg xmlns="http://www.w3.org/2000/svg" width="36" height="36" viewBox="0 0 36 36">
  <g id="Group_1200" data-name="Group 1200" transform="translate(-8219 -3631)">
    <rect id="Rectangle_257" data-name="Rectangle 257" width="36" height="36" rx="12" transform="translate(8219 3631)" fill="#356aaa"/>
    <g id="Zendesk_" data-name="Zendesk " transform="translate(8227 3639)">
      <g id="Group_1173" data-name="Group 1173">
        <path id="Path_960" data-name="Path 960" d="M151.193,53.154h-7.587a.455.455,0,1,1,0-.91h7.587a.455.455,0,1,1,0,.91Z" transform="translate(-137.321 -50.423)" fill="#fff" stroke="#fff" stroke-width="0.5"/>
        <path id="Path_961" data-name="Path 961" d="M313.924,25.45a.455.455,0,0,1-.455-.455V21.353a.455.455,0,0,1,.91,0v3.642A.455.455,0,0,1,313.924,25.45Z" transform="translate(-299.21 -20.898)" fill="#fff" stroke="#fff" stroke-width="0.5"/>
        <path id="Path_962" data-name="Path 962" d="M104.945,25.45a.455.455,0,0,1-.455-.455V21.353a.455.455,0,0,1,.91,0v3.642A.455.455,0,0,1,104.945,25.45Z" transform="translate(-99.737 -20.898)" fill="#fff" stroke="#fff" stroke-width="0.5"/>
        <path id="Path_963" data-name="Path 963" d="M63.791,152.42H52.527c-.156,0-.282-.2-.282-.455s.126-.455.282-.455H63.791c.156,0,.282.2.282.455S63.947,152.42,63.791,152.42Z" transform="translate(-49.144 -144.727)" fill="#fff" stroke="#fff" stroke-width="0.5"/>
        <path id="Path_964" data-name="Path 964" d="M60.774,215.114H52.514c-.149,0-.269-.2-.269-.455s.121-.455.269-.455h8.259c.149,0,.269.2.269.455S60.922,215.114,60.774,215.114Z" transform="translate(-49.144 -204.646)" fill="#fff" stroke="#fff" stroke-width="0.5"/>
        <path id="Path_965" data-name="Path 965" d="M57.408,277.807H52.527c-.156,0-.282-.2-.282-.455s.126-.455.282-.455h4.881c.156,0,.282.2.282.455S57.563,277.807,57.408,277.807Z" transform="translate(-49.144 -264.563)" fill="#fff" stroke="#fff" stroke-width="0.5"/>
        <path id="Path_966" data-name="Path 966" d="M19.9,61.708V52.587a.352.352,0,0,0-.36-.343H16.182a.343.343,0,1,0,0,.686h3v8.481a4.931,4.931,0,0,0-1.558-.251,4.8,4.8,0,0,0-4.915,4.686h0a4.315,4.315,0,0,0,.264,1.486H.719V52.93H3.236a.343.343,0,1,0,0-.686H.36a.352.352,0,0,0-.36.343V67.675a.352.352,0,0,0,.36.343H13.282A5.032,5.032,0,0,0,19.9,70.046a4.584,4.584,0,0,0,2.127-6.31A4.807,4.807,0,0,0,19.9,61.708Zm-2.278,8.138a4.005,4.005,0,1,1,0-8,4.1,4.1,0,0,1,4.2,4h0A4.125,4.125,0,0,1,17.621,69.847Z" transform="translate(0 -50.423)" fill="#fff" stroke="#fff" stroke-width="0.5"/>
        <path id="Path_967" data-name="Path 967" d="M379.44,302.347h-2.822a.455.455,0,0,1-.455-.455V298.25a.455.455,0,0,1,.91,0v3.186h2.367a.455.455,0,0,1,0,.91Z" transform="translate(-359.313 -285.181)" fill="#fff" stroke="#fff" stroke-width="0.5"/>
      </g>
    </g>
  </g>
</svg>
